<svg xmlns="http://www.w3.org/2000/svg" width="23.997" height="14" viewBox="0 0 23.997 14"><defs><style>.a{fill:#ff7607;fill-rule:evenodd;}</style></defs><g transform="translate(-4.5 -10.124)"><path class="a" d="M22.792,10.417a1,1,0,0,1,1.416,0l6,6a1,1,0,0,1,0,1.416l-6,6a1,1,0,1,1-1.416-1.416l5.292-5.291-5.293-5.291a1,1,0,0,1,0-1.416Z" transform="translate(-2.003)"/><path class="a" d="M4.5,17.875a1,1,0,0,1,1-1h21a1,1,0,0,1,0,2H5.5A1,1,0,0,1,4.5,17.875Z" transform="translate(0 -0.751)"/></g></svg>