<svg xmlns="http://www.w3.org/2000/svg" width="57.494" height="54.953" viewBox="0 0 57.494 54.953"><defs><style>.a{fill:#f9fff7;fill-rule:evenodd;}</style></defs><path class="a" d="M0,7.187A7.187,7.187,0,0,1,7.187,0h43.12a7.187,7.187,0,0,1,7.187,7.187V35.934a7.187,7.187,0,0,1-7.187,7.187H15.86a3.593,3.593,0,0,0-2.541,1.052L3.068,54.426A1.8,1.8,0,0,1,0,53.156ZM12.577,10.78a1.8,1.8,0,0,0,0,3.593h32.34a1.8,1.8,0,1,0,0-3.593Zm0,8.983a1.8,1.8,0,0,0,0,3.593h32.34a1.8,1.8,0,1,0,0-3.593Zm0,8.983a1.8,1.8,0,1,0,0,3.593H30.544a1.8,1.8,0,0,0,0-3.593Z" transform="translate(0 0)"/></svg>