<svg xmlns="http://www.w3.org/2000/svg" width="63.997" height="64" viewBox="0 0 63.997 64"><defs><style>.a{fill:#fff;}</style></defs><g transform="translate(-58.07 -58.779)"><path class="a" d="M302.721,140.27a7.611,7.611,0,0,0-.043-1,4.26,4.26,0,0,0-8.48.788c.012,4.371,0,8.744,0,13.117,0,.266.122.6-.4.524a4.1,4.1,0,0,0-3.81,1.532c-2.163,2.422-4.346,4.827-6.513,7.246a7.21,7.21,0,0,1-1.315,1.131A15.718,15.718,0,0,0,275,176.753c-.082,2.809,0,5.622-.023,8.433a1.559,1.559,0,0,0,.75,1.513h15.622a1.621,1.621,0,0,0,.725-1.59c-.028-.977.005-1.956-.015-2.935a2.018,2.018,0,0,1,.282-1.059c2.975-5.378,5.928-10.769,8.918-16.139a11.407,11.407,0,0,0,1.472-5.719C302.707,152.928,302.724,146.6,302.721,140.27Zm-3.307,23.638c-3.008,5.407-5.978,10.837-8.985,16.245a3.467,3.467,0,0,0-.5,1.948c.038.665-.017,1.335.017,2,.022.4-.124.479-.494.478q-5.936-.02-11.869,0c-.332,0-.476-.057-.468-.434.065-2.831-.107-5.664.109-8.492a13.254,13.254,0,0,1,2.97-7.4,12.763,12.763,0,0,1,3.347-2.965,5.443,5.443,0,0,0,1.229-1.046q3.415-3.818,6.845-7.62a2.184,2.184,0,0,1,1.229-.8,1.936,1.936,0,0,1,1.745,3.286c-1.8,2-3.611,3.977-5.419,5.963-.967,1.062-1.923,2.136-2.91,3.18-.287.3-.262.476.048.717.426.329.812.944,1.236.962.337.015.71-.678,1.059-1.062q3.721-4.089,7.436-8.181a4.023,4.023,0,0,0,.468-5.345,1.108,1.108,0,0,1-.17-.641c0-4.936,0-9.872.005-14.806a2.13,2.13,0,1,1,4.253,0c.01,3.374,0,6.746,0,10.12,0,3.082-.018,6.163.008,9.245A9.2,9.2,0,0,1,299.414,163.908Z" transform="translate(-180.666 -63.921)"/><path class="a" d="M85.694,175.42a15.515,15.515,0,0,0-7.276-11.974,4.347,4.347,0,0,1-.854-.718q-3.422-3.811-6.848-7.618a3.934,3.934,0,0,0-3.6-1.443c-.491.065-.536-.112-.531-.521.022-1.436.012-2.873.008-4.311-.007-3.144.06-6.29-.047-9.431a4.212,4.212,0,0,0-6.092-3.473,4.557,4.557,0,0,0-2.384,3.247V161.3a9.257,9.257,0,0,0,1.3,3.795c.312.518.6,1.051.887,1.58,2.591,4.7,5.22,9.385,7.825,14.081a3.226,3.226,0,0,1,.456,1.714c-.027.915-.033,1.832,0,2.748.025.638.125,1.264.9,1.455H85.064a1.359,1.359,0,0,0,.742-1.2C85.75,182.121,86,178.761,85.694,175.42Zm-2.013,8.747c.007.309-.1.383-.393.381q-6.031-.013-12.058,0c-.317,0-.4-.125-.371-.406.005-.04-.005-.084,0-.124a8.675,8.675,0,0,0-1.48-5.692c-2.741-4.724-5.317-9.543-7.987-14.308a9.21,9.21,0,0,1-1.2-4.643c.02-6.456.007-12.912.01-19.367a2.141,2.141,0,0,1,2.275-2.375,2.072,2.072,0,0,1,1.978,2.156c.015,2.479.005,4.956.005,7.435q0,3.686,0,7.373a1.258,1.258,0,0,1-.2.758,3.935,3.935,0,0,0,.326,5.1c2.788,3.122,5.627,6.2,8.433,9.3.209.232.327.23.533.027a7.84,7.84,0,0,1,.929-.835c.379-.274.294-.458.017-.762-2.716-2.963-5.412-5.943-8.119-8.911a2.18,2.18,0,0,1-.728-1.9,1.926,1.926,0,0,1,3.17-1.148,7.979,7.979,0,0,1,.6.63c2.188,2.43,4.381,4.854,6.553,7.3a9.138,9.138,0,0,0,1.689,1.368,13.268,13.268,0,0,1,5.911,10.209C83.808,178.543,83.621,181.358,83.681,184.167Z" transform="translate(0 -63.894)"/><path class="a" d="M192.92,85.44q-.749-.005-1.5,0a11.932,11.932,0,0,0-7.769,2.756,14.728,14.728,0,0,0-2.086,2.233c0-2.379.007-4.58-.005-6.78,0-.411.262-.346.5-.341a13.482,13.482,0,0,0,3.708-.423,11.829,11.829,0,0,0,8.584-11.1,1.1,1.1,0,0,0-1.208-1.258c-.708-.013-1.416-.008-2.125,0a11.637,11.637,0,0,0-5.814,1.634,14.6,14.6,0,0,0-3.645,3.164V69.4c0-.985,0-.985,1-1.006a8.548,8.548,0,0,0,8.569-8.316c.013-.864-.371-1.276-1.226-1.289-.688-.012-1.375-.017-2.063.005a8.563,8.563,0,0,0-5.662,2.263,11.037,11.037,0,0,0-1.659,2.049c-.065-.025-.092-.027-.1-.04-.085-.119-.169-.237-.247-.359a8.463,8.463,0,0,0-4.438-3.458,13.432,13.432,0,0,0-4.942-.438c-.618.017-.955.491-.95,1.169a8.065,8.065,0,0,0,1.557,4.784,8.485,8.485,0,0,0,7.418,3.62c.483-.008.621.112.613.606-.03,1.958-.01,3.917-.018,5.874,0,.16.109.371-.125.5a12.005,12.005,0,0,0-4.473-3.708,14.53,14.53,0,0,0-7.2-1.111,1.043,1.043,0,0,0-.989,1.211,11.543,11.543,0,0,0,3.63,8.29,11.4,11.4,0,0,0,8.377,3.25c.593-.01.827.085.8.76-.06,1.582-.02,3.165-.02,4.749v1.64a14.366,14.366,0,0,0-2.108-2.265c-2.784-2.355-6.082-2.918-9.588-2.724a1.077,1.077,0,0,0-1.092,1.251,11.432,11.432,0,0,0,2.14,6.538,11.636,11.636,0,0,0,10.012,5c.509,0,.66.105.651.638-.035,2.1-.022,4.208-.01,6.31,0,.514-.234,1.218.1,1.493.316.259,1,.052,1.508.1.463.045.54-.145.535-.561-.018-2.375-.008-4.75-.008-7.124,0-.839,0-.839.854-.847a11.778,11.778,0,0,0,11.929-11.331C194.393,85.858,194,85.45,192.92,85.44Zm-11.088-5.39a9.645,9.645,0,0,1,9.933-7.406c.391.015.376.165.342.444a9.681,9.681,0,0,1-7.887,7.952,7.813,7.813,0,0,1-1.333.125C181.543,81.193,181.543,81.193,181.832,80.05Zm.159-15.009a6.466,6.466,0,0,1,6.165-4.126c.783-.008.783-.008.588.737a6.359,6.359,0,0,1-5.378,4.525c-.165.013-.331.037-.5.057C181.638,66.372,181.521,66.213,181.991,65.041Zm-3.286,1.231a6.48,6.48,0,0,1-6.538-4.894c-.035-.137-.043-.281-.065-.423a6.5,6.5,0,0,1,7.094,4.71C179.335,66.182,179.206,66.275,178.705,66.272Zm-.514,14.9a9.614,9.614,0,0,1-9.284-7.9c-.087-.461-.04-.631.506-.631a9.634,9.634,0,0,1,9.765,7.47C179.449,81.2,179.449,81.2,178.191,81.168Zm.1,14.939a9.564,9.564,0,0,1-9.325-7.683c-.177-.859-.177-.859.668-.849.145,0,.291,0,.436,0a9.583,9.583,0,0,1,9.087,7.446C179.442,96.333,179.647,96.159,178.293,96.107Zm13.638-7.3a9.645,9.645,0,0,1-9.877,7.329c-.369-.012-.428-.089-.369-.461a9.612,9.612,0,0,1,9.25-8.078C192.392,87.57,192.285,87.383,191.931,88.8Z" transform="translate(-90.431)"/></g></svg>