<svg xmlns="http://www.w3.org/2000/svg" width="16.741" height="16" viewBox="0 0 16.741 16"><defs><style>.a{fill:#f9fff7;}</style></defs><path class="a" d="M3.8,5.668v10.8H.207V5.668H3.8Zm.229-3.335a1.726,1.726,0,0,1-.551,1.33A2.055,2.055,0,0,1,2.006,4.2H1.984A1.968,1.968,0,0,1,.545,3.662,1.786,1.786,0,0,1,0,2.333,1.756,1.756,0,0,1,.561,1,2.051,2.051,0,0,1,2.027.469,1.993,1.993,0,0,1,3.477,1a1.819,1.819,0,0,1,.556,1.335Zm12.708,7.946v6.191H13.155V10.692A3.152,3.152,0,0,0,12.714,8.9a1.552,1.552,0,0,0-1.379-.649,1.765,1.765,0,0,0-1.15.376,2.319,2.319,0,0,0-.692.932,2.632,2.632,0,0,0-.12.883v6.027H5.787q.022-4.349.022-7.052T5.8,6.191l-.011-.523H9.374V7.237H9.352A4.771,4.771,0,0,1,9.8,6.627a4.627,4.627,0,0,1,.616-.567,2.837,2.837,0,0,1,.948-.474,4.291,4.291,0,0,1,1.248-.168,3.871,3.871,0,0,1,3,1.237,5.193,5.193,0,0,1,1.134,3.624Z" transform="translate(0 -0.469)"/></svg>