<svg xmlns="http://www.w3.org/2000/svg" width="200" height="43.244" viewBox="0 0 200 43.244"><defs><style>.a{fill:#ff7607;}.b{fill:#f9fff7;}</style></defs><g transform="translate(-405 -6249)"><g transform="translate(405 6249)"><path class="a" d="M61.237,442.2H49.848v-4.62H58.24v-4.042H49.848V423.145H61.237V419.68H45.652v26.564H61.237Z" transform="translate(-45.652 -417.004)"/><path class="b" d="M0,0H8.392V4.042H0Z" transform="translate(23.077 16.066)"/><path class="b" d="M236.611,442.2h-9.591V419.68h-4.2v26.564h13.787Z" transform="translate(-183.863 -417.004)"/><path class="b" d="M305.525,422.726a14.739,14.739,0,0,0-20.024,0,13.266,13.266,0,0,0-3.044,4.268,12.522,12.522,0,0,0-1.115,5.224,12.32,12.32,0,0,0,1.115,5.206,13.378,13.378,0,0,0,3.044,4.232,14.69,14.69,0,0,0,4.5,2.86,14.942,14.942,0,0,0,11.033,0,14.7,14.7,0,0,0,4.5-2.86,13.387,13.387,0,0,0,3.044-4.232,12.327,12.327,0,0,0,1.115-5.206,12.529,12.529,0,0,0-1.115-5.224A13.274,13.274,0,0,0,305.525,422.726Zm-.871,13.218a9.6,9.6,0,0,1-2.117,3.032,9.855,9.855,0,0,1-3.156,2.03,10.483,10.483,0,0,1-7.736,0,9.963,9.963,0,0,1-3.166-2.03,9.516,9.516,0,0,1-2.126-3.032,9.321,9.321,0,0,1,0-7.453,9.524,9.524,0,0,1,2.126-3.032,9.844,9.844,0,0,1,3.166-2.021,10.6,10.6,0,0,1,7.736,0,9.738,9.738,0,0,1,3.156,2.021,9.6,9.6,0,0,1,2.117,3.032,9.32,9.32,0,0,1,0,7.453Z" transform="translate(-229.512 -416.333)"/><path class="b" d="M437.2,418.914a14.706,14.706,0,0,0-7.127,1.823,14.165,14.165,0,0,0-2.866,2.093,12.97,12.97,0,0,0-2.2,2.707,13.722,13.722,0,0,0-1.414,3.194,12.7,12.7,0,0,0,.59,8.761,13.431,13.431,0,0,0,3.025,4.241,14.076,14.076,0,0,0,4.5,2.842,15.2,15.2,0,0,0,5.5,1.065c.1,0,.2,0,.29-.009s.19-.009.29-.009c.124-.012.265-.018.421-.018h.571v-4.06a5.8,5.8,0,0,1-.871.153q-.347.027-.7.027a9.592,9.592,0,0,1-3.831-.731,10.224,10.224,0,0,1-3.128-2.021,9.313,9.313,0,0,1-2.107-3,9.2,9.2,0,0,1-.393-6.172,10.068,10.068,0,0,1,.983-2.265,8.665,8.665,0,0,1,1.527-1.913,10.109,10.109,0,0,1,4.336-2.418,9.946,9.946,0,0,1,2.613-.343q.655,0,1.573-.054v-3.79q-.487-.072-.843-.09T437.2,418.914Z" transform="translate(-340.08 -416.4)"/><path class="b" d="M532.669,445.707,520.549,419l-12.12,26.708H512.7l2.472-5.251h10.752l2.473,5.251Zm-16.034-8.644,3.915-8.77,3.915,8.77Z" transform="translate(-406.661 -416.468)"/><path class="b" d="M599.146,422.463h6.893v23.1h4.2v-23.1h6.893V419H599.146Z" transform="translate(-477.428 -416.467)"/><path class="b" d="M0,0H4.2V26.708H0Z" transform="translate(142.848 2.531)"/><path class="b" d="M874.045,430.115l14.386,15.592V419h-4.2v15.159L869.85,419v26.708h4.2Z" transform="translate(-688.601 -416.467)"/><path class="b" d="M747.743,422.62c-.122-.023-.167-.065-.181-.192-.083-.736-.15-1.476-.279-2.206a11.893,11.893,0,0,0-1.9-4.608c-.562-.833-1.223-1.6-1.858-2.427l2.285-2.2-.032-.077a.829.829,0,0,0-.191.1q-.551.521-1.093,1.05c-.372.362-.74.728-1.107,1.089-.371-.321-.7-.629-1.051-.906a14.833,14.833,0,0,0-5.142-2.623,14.152,14.152,0,0,0-3.363-.53c-.147-.006-.19-.065-.217-.187-.119-.56-.245-1.119-.37-1.678a1.542,1.542,0,0,0-.06-.173.16.16,0,0,0-.079.11c-.122.559-.251,1.117-.361,1.679-.036.185-.108.249-.313.253a11.428,11.428,0,0,0-1.268.091,14.664,14.664,0,0,0-3.888,1.062A14.279,14.279,0,0,0,724,412.172c-.373.3-.735.607-1.129.934l-2.624-2.539-.06.027a.878.878,0,0,0,.123.222q1.231,1.195,2.467,2.38c-.405.461-.828.894-1.195,1.368a13.835,13.835,0,0,0-2.312,4.367,12.726,12.726,0,0,0-.6,3.458c0,.155-.056.212-.213.241-.614.113-1.225.242-1.837.366a.807.807,0,0,0-.147.072,1.75,1.75,0,0,0,.17.058c.6.124,1.205.241,1.8.375a.321.321,0,0,1,.21.188c.042.186.026.384.054.574.094.629.165,1.264.3,1.884a12.066,12.066,0,0,0,1.462,3.655,16.451,16.451,0,0,0,1.025,1.523c.417.541.889,1.042,1.354,1.58-.352.336-.723.689-1.093,1.043-.518.5-1.037.993-1.551,1.495a.605.605,0,0,0-.089.192l.081.037,2.768-2.683c.311.258.6.5.892.74a14.215,14.215,0,0,0,3.732,2.175,13.837,13.837,0,0,0,3.348.883c.464.062.932.1,1.4.137.2.018.363.037.388.3a7,7,0,0,0,.173.816q.112.513.223,1.027a.208.208,0,0,0,.115-.132c.131-.579.267-1.157.383-1.739.04-.2.133-.265.336-.273a9.6,9.6,0,0,0,1.19-.094,16.339,16.339,0,0,0,3.131-.78,14.679,14.679,0,0,0,3.6-1.935c.484-.361.942-.755,1.443-1.161a1.672,1.672,0,0,0,.139.171q1.073,1.036,2.152,2.066a1.137,1.137,0,0,0,.217.13l.056-.08-2.5-2.365c.316-.349.591-.648.861-.952a12.906,12.906,0,0,0,2.032-3.084,13.413,13.413,0,0,0,1.3-5.127.254.254,0,0,1,.156-.173c.207-.061.422-.093.634-.137l1.42-.29,0-.059c-.07-.02-.139-.044-.21-.058C748.966,422.866,748.356,422.739,747.743,422.62Zm-15.228-13.029c.035.37-.024.4-.347.44-.777.1-1.559.193-2.322.361a12.654,12.654,0,0,0-4.917,2.274c-.452.34-.887.7-1.36,1.076l-.263-.268A14.174,14.174,0,0,1,732.515,409.591Zm-7.78,5.53a3.01,3.01,0,0,1,.811.955c.024.034-.009.128-.044.175-.436.584-.911,1.144-1.31,1.75a8.345,8.345,0,0,0-1.129,2.721c-.067.289-.119.582-.191.871a.239.239,0,0,1-.133.158c-.419.1-.841.178-1.313.274A11.207,11.207,0,0,1,724.735,415.121Zm-3.517,6.783a.249.249,0,0,1-.128.184c-.387.09-.779.16-1.21.244a12.558,12.558,0,0,1,3.763-8.259l.9.856c-.391.475-.8.943-1.179,1.437a10.864,10.864,0,0,0-1.629,3.135A11.58,11.58,0,0,0,721.218,421.9Zm4.48-5.587c.2.278.357.5.512.729.184.27.373.539.539.819a.314.314,0,0,1,0,.28c-.177.262-.38.507-.591.779l-1.763-.95Zm-2.417,4.418c.007-.031.1-.069.149-.059.569.135,1.136.278,1.7.422.027.007.049.032.112.076a1,1,0,0,1-.229.125c-.593.124-1.188.24-1.783.357a1.124,1.124,0,0,1-.149,0C723.151,421.337,723.209,421.034,723.282,420.735Zm.1-.415a10.233,10.233,0,0,1,.87-2.044l1.287.7c.021.011.037.03.057.042.4.226.387.222.2.616s-.336.772-.507,1.169Zm3.584-2.149,1.626,2.4-3.21.648A7.766,7.766,0,0,1,726.965,418.171Zm.888,1.114c-.29-.417-.59-.827-.872-1.248-.393-.587-.773-1.182-1.161-1.772-.064-.1-.141-.187-.195-.288l4.419,4.269c-.368.072-.768.128-1.152.237a.209.209,0,0,1-.282-.1Q728.233,419.832,727.853,419.285Zm.826-3.387c.245.4.244.4-.156.648-.107.067-.211.138-.311.214-.29.218-.289.219-.6.02l-1.444-.91,1.722-1.258Zm-.5-1.46,2.146-.852c.183.624.354,1.194.512,1.766.012.043-.056.14-.109.161-.49.2-.985.386-1.518.592Zm-.091,2.646a8.228,8.228,0,0,1,3.166-1.518l-.668,3.087Zm3.124-1.711-.539-1.832,1.066-.209-.441,2.04Zm.433-2.236c-.568.137-1.146.24-1.706.4a9.421,9.421,0,0,0-3.149,1.6c-.229.177-.455.358-.689.529-.048.035-.145.068-.182.045-.351-.213-.694-.438-1.037-.659.851-1.4,5.665-3.573,7.2-3.256-.088.405-.172.811-.271,1.214C731.8,413.065,731.713,413.122,731.649,413.138Zm.343-1.593a11.993,11.993,0,0,0-5.559,1.92c-.611.4-1.17.874-1.757,1.317l-.874-.859a13.494,13.494,0,0,1,8.615-3.669c-.09.419-.169.808-.263,1.195C732.143,411.491,732.05,411.539,731.992,411.545Zm-8.8,2.039.273.277c-.31.356-.616.7-.912,1.048a12.379,12.379,0,0,0-2.045,3.421,11.8,11.8,0,0,0-.766,2.979c-.037.3-.067.608-.1.912-.017.179-.045.2-.451.227A13.194,13.194,0,0,1,723.189,413.584ZM719.2,423.658l.429.068a12.785,12.785,0,0,0,3.942,8.49l-.329.261A13.21,13.21,0,0,1,719.2,423.658Zm12.844,10.591a12.045,12.045,0,0,1-7.132-3.175l1.089-.75c.685.457,1.3.91,1.958,1.3a9.508,9.508,0,0,0,3.322,1.179c.481.078.486.062.592.52.061.263.115.528.17.793A.887.887,0,0,1,732.039,434.249Zm.1.338c.093.373.168.751.261,1.18a13.586,13.586,0,0,1-8.531-3.611l.935-.869a12.008,12.008,0,0,0,6.414,3.083c.251.038.5.054.755.1A.237.237,0,0,1,732.14,434.586Zm-3.337-4.774q-.4.718-.833,1.421a.208.208,0,0,1-.187.056c-.511-.346-1.015-.7-1.567-1.088l1.77-1.111c.264.179.521.345.766.526A.2.2,0,0,1,728.8,429.812Zm.355.085c.539.2,1.058.384,1.573.582a.176.176,0,0,1,.075.157c-.14.54-.287,1.079-.444,1.614a.2.2,0,0,1-.173.089c-.668-.243-1.332-.5-2.016-.757Zm1.506,2.593.5-1.869.091-.022c.21.664.3,1.355.486,2.082Zm-2.353-3.386c-.108-.077-.119-.142.015-.225.744-.462,1.483-.934,2.263-1.427l.651,2.991A8.241,8.241,0,0,1,728.311,429.1Zm1.988-1.6c-.51.31-1,.651-1.5.972-.678.433-1.362.858-2.043,1.287-.376.237-.751.475-1.128.712a.633.633,0,0,1-.1.042l4.709-4.54c.053.228.107.466.163.7.029.123.058.246.093.367A.356.356,0,0,1,730.3,427.506Zm-4.53,2.181a8.5,8.5,0,0,1-1.339-1.671l1.7-.965c.249.317.476.6.7.893a.158.158,0,0,1,.024.141C726.5,428.611,726.145,429.132,725.768,429.687ZM727,427.876a7.631,7.631,0,0,1-1.582-2.97l3.157.643Zm-1.047-1.112-1.731.982-.888-2.053,1.944-.516Zm-2.653-1.4-.209-.926,2,.4.008.038Zm1.93,4.067c.052.058.093.126.147.182.259.271.262.272.057.574-.183.27-.371.536-.574.829a11.235,11.235,0,0,1-3.414-6.9c.3.058.577.109.853.164.668.135.544.007.679.649A9.57,9.57,0,0,0,725.227,429.43Zm-3.694-3.585a11.057,11.057,0,0,0,1.5,3.339,11.722,11.722,0,0,0,1.633,1.962l-.932.861a11.875,11.875,0,0,1-2.245-2.874,12.145,12.145,0,0,1-1.594-5.352c.423.093.834.171,1.234.283.069.019.113.183.133.287C721.355,424.849,721.4,425.357,721.533,425.845ZM732.5,436.43a14.282,14.282,0,0,1-9.129-3.821l.3-.279c.3.252.584.526.905.75.645.449,1.29.9,1.971,1.3a12.086,12.086,0,0,0,3.526,1.31,18.468,18.468,0,0,0,1.964.269C732.456,436,732.532,436.047,732.5,436.43Zm-2.211-10.647-13.044-2.65,0-.033h15.73Zm2.76-2.923L733,422.9c-.369-.4-.729-.811-1.11-1.2-.218-.224-.474-.412-.7-.626-.27-.253-.539-.51-.787-.784-.05-.056-.014-.2,0-.293.077-.41.154-.82.246-1.227.171-.764.357-1.525.527-2.289.149-.667.283-1.337.426-2.006.09-.422.185-.843.276-1.264.19-.884.372-1.769.568-2.651.172-.771.358-1.538.536-2.307a.409.409,0,0,1,.069-.2Zm10.044-9.224c.3.323.6.636.883.969a13.186,13.186,0,0,1,1.66,2.521,12.425,12.425,0,0,1,1.153,3.346c.109.578.165,1.164.234,1.748.009.078.073.24-.1.224-.136-.013-.34.022-.345-.224a11.269,11.269,0,0,0-.806-3.768,11.481,11.481,0,0,0-1.662-2.993c-.411-.528-.852-1.035-1.308-1.586l.187-.155C743.013,413.7,743.038,413.68,743.095,413.637Zm-1.672,1.41c-.227.155-.441.307-.662.45-.509.33-.5.317-.955-.069a8.844,8.844,0,0,0-2.917-1.676c-.7-.235-1.437-.379-2.155-.572-.082-.022-.2-.08-.216-.141-.1-.41-.179-.825-.273-1.277A12.02,12.02,0,0,1,741.423,415.046Zm-7.254-3.651c-.1-.366-.173-.737-.263-1.135a13.517,13.517,0,0,1,8.569,3.707l-.887.879c-.387-.315-.76-.637-1.152-.934a12.138,12.138,0,0,0-4.9-2.185c-.389-.082-.79-.11-1.183-.178A.272.272,0,0,1,734.169,411.4Zm3.3,4.81c.275-.467.543-.937.823-1.4a.2.2,0,0,1,.187-.053,8.436,8.436,0,0,1,1.585,1.176l-1.379.874a.984.984,0,0,0-.119.078.279.279,0,0,1-.429-.015,4.024,4.024,0,0,0-.6-.416C737.424,416.38,737.406,416.315,737.47,416.206Zm-.372-.051-1.648-.677c.151-.564.3-1.139.465-1.71a.221.221,0,0,1,.2-.076c.657.245,1.31.5,1.986.766Zm-1.485-2.6-.5,1.865-.073.008-.459-2.075Zm2.568,3.566-2.44,1.534c-.225-1.032-.442-2.024-.668-3.063A8.311,8.311,0,0,1,738.182,417.116Zm2.389-1.364-4.488,4.3-.29-1.3Zm.056.674,1.208,1.583-1.724.979c-.2-.264-.394-.507-.571-.761-.045-.064-.082-.186-.049-.237.326-.5.667-1,1.007-1.5C740.513,416.47,740.552,416.463,740.627,416.426Zm-1.315,1.818a7.369,7.369,0,0,1,1.523,2.969l-3.112-.625Zm.991,1.134c-.017-.039.053-.142.108-.173.513-.293,1.031-.578,1.609-.9l.88,2.028-1.929.525C740.735,420.343,740.512,419.863,740.3,419.377Zm2.644,1.295.217,1.01-2.134-.423v-.077Zm-1.049-2.92c-.348-.538-.779-1.027-1.2-1.578l.786-1.066a11.093,11.093,0,0,1,3.306,6.911c-.459-.092-.858-.171-1.257-.253a.219.219,0,0,1-.2-.215A9.406,9.406,0,0,0,741.9,417.752ZM741.716,415l.89-.9a12.722,12.722,0,0,1,3.756,8.231l-1.337-.262A11.392,11.392,0,0,0,741.716,415Zm1.25-1.482-.278.28c-.34-.289-.657-.57-.987-.836a13.458,13.458,0,0,0-3.3-1.935,14.658,14.658,0,0,0-3.037-.858c-.389-.07-.785-.105-1.179-.144-.37-.037-.371-.03-.4-.434A14.181,14.181,0,0,1,742.966,413.519ZM733.461,437.5c-.049.23-.119.455-.175.683a1.5,1.5,0,0,0-.023.183l-.047.005V423.254c.526.495,1.068,1,1.6,1.509.179.173.32.382.493.561a3.908,3.908,0,0,0,.365.291.523.523,0,0,1,.257.591c-.2.77-.381,1.547-.553,2.324s-.327,1.573-.492,2.359c-.091.436-.189.871-.282,1.306-.143.669-.283,1.339-.429,2.008-.094.429-.2.856-.293,1.286C733.737,436.158,733.6,436.828,733.461,437.5Zm4.616-5.942-2.137.866c-.108-.365-.2-.677-.291-.99-.072-.252-.128-.508-.212-.756-.045-.133-.005-.171.118-.215.493-.176.98-.365,1.5-.561Zm-.732-1.847c.29-.206.568-.407.853-.6a.193.193,0,0,1,.167,0c.545.335,1.085.676,1.68,1.049l-1.673,1.225Zm-1.9,2.233a4.894,4.894,0,0,1,.088.531l-.928.206.429-1.951.046-.008C735.2,431.126,735.334,431.531,735.447,431.941Zm-.384.842a10.18,10.18,0,0,0,4.447-1.965c.192-.148.375-.309.57-.454.052-.039.158-.078.2-.054.358.224.707.462,1.091.718a12.1,12.1,0,0,1-7.1,3.22c.065-.315.125-.591.18-.867C734.552,432.873,734.552,432.877,735.063,432.783Zm-.4,1.635a11.908,11.908,0,0,0,4.09-1.26,10.327,10.327,0,0,0,2.065-1.362c.218-.19.439-.377.66-.567l.9.893a13.567,13.567,0,0,1-8.445,3.644c.063-.306.118-.565.17-.825C734.2,434.48,734.2,434.474,734.667,434.418Zm7-3.3c.486-.608,1.024-1.208,1.476-1.862a10.272,10.272,0,0,0,1.676-4c.065-.351.124-.7.2-1.054a.2.2,0,0,1,.119-.136c.389-.088.781-.164,1.219-.252a12.66,12.66,0,0,1-3.823,8.172Zm-.246-.14c-.258-.378-.5-.716-.718-1.062a.213.213,0,0,1,.045-.2,9.637,9.637,0,0,0,1.749-2.538,8.78,8.78,0,0,0,.81-2.56c.011-.078.072-.2.133-.214.426-.1.857-.182,1.329-.277A11.19,11.19,0,0,1,741.422,430.977Zm-.881-1.3a12.313,12.313,0,0,0-.762-1.1c-.354-.409-.41-.764.02-1.145a2.17,2.17,0,0,0,.271-.37l1.768.957Zm2.545-4.983a6.035,6.035,0,0,0-.134.673l-1.784-.441,0-.058c.161-.036.321-.076.482-.109.408-.083.818-.159,1.225-.248C743.06,424.472,743.161,424.459,743.086,424.7Zm-.2.995-.87,2.048-1.755-.951.677-1.577Zm-3.611,2.127-1.532-2.264,3.052-.621A7.4,7.4,0,0,1,739.278,427.818Zm-1.456-1.977c.215.3.415.611.618.919.171.259.331.524.508.779.271.391.564.769.827,1.165s.508.811.761,1.218l-.025.014-4.193-4.054c.388-.086.81-.193,1.239-.262C737.632,425.609,737.756,425.748,737.822,425.841Zm.29,3.1a7.99,7.99,0,0,1-3.014,1.472l.652-2.957Zm-4.274,7.479c-.038-.345.028-.449.3-.46a12.314,12.314,0,0,0,3.293-.625,13.113,13.113,0,0,0,4.186-2.227c.327-.259.641-.533.983-.818l.3.279A14.242,14.242,0,0,1,733.838,436.422Zm9.168-3.957-.314-.3a11.172,11.172,0,0,0,1.754-2.072,12.172,12.172,0,0,0,1.909-4.555c.1-.535.159-1.079.221-1.62.033-.29.272-.159.47-.27A13.345,13.345,0,0,1,743.006,432.465Zm-9.627-9.447a6.129,6.129,0,0,1,1.264-1.289,6.211,6.211,0,0,0,.6-.648c.228-.239.457-.479.707-.7.056-.048.2-.018.3,0,.494.091.988.183,1.479.286.8.167,1.59.351,2.388.514.9.183,1.8.346,2.7.526.653.131,1.3.28,1.955.412.488.1.981.177,1.469.277.649.133,1.3.279,1.943.418.274.059.55.115.823.2Z" transform="translate(-568.95 -407.05)"/></g><g transform="translate(405.395 6285.345)"><path class="b" d="M50.634,574.571a1.956,1.956,0,0,0-.467-.263q-.261-.1-.537-.192t-.537-.176a2.176,2.176,0,0,1-.467-.22,1.113,1.113,0,0,1-.331-.316.826.826,0,0,1-.125-.471,1.046,1.046,0,0,1,.084-.416,1.012,1.012,0,0,1,.247-.348,1.171,1.171,0,0,1,.4-.237A1.883,1.883,0,0,1,50,571.92a1.842,1.842,0,0,1,.361.164,1.82,1.82,0,0,1,.229.162.24.24,0,0,0,.138.073.116.116,0,0,0,.107-.067l.1-.182a1.957,1.957,0,0,0-.656-.424,2.255,2.255,0,0,0-.813-.138,2,2,0,0,0-.718.121,1.611,1.611,0,0,0-.529.321,1.344,1.344,0,0,0-.325.461,1.369,1.369,0,0,0-.111.542,1.285,1.285,0,0,0,.125.6,1.214,1.214,0,0,0,.331.4,1.854,1.854,0,0,0,.467.263q.261.1.537.186t.537.17a2.166,2.166,0,0,1,.467.216,1.062,1.062,0,0,1,.331.321.876.876,0,0,1,.126.489,1.332,1.332,0,0,1-.1.513,1.165,1.165,0,0,1-.286.414,1.361,1.361,0,0,1-.459.275,1.762,1.762,0,0,1-.617.1,1.933,1.933,0,0,1-.449-.047,1.956,1.956,0,0,1-.35-.117,1.648,1.648,0,0,1-.267-.15q-.115-.081-.2-.15l-.14-.117a.169.169,0,0,0-.095-.048.146.146,0,0,0-.115.06l-.115.174a2.191,2.191,0,0,0,1.717.732,2.187,2.187,0,0,0,.789-.133,1.716,1.716,0,0,0,.583-.362,1.544,1.544,0,0,0,.364-.541,1.754,1.754,0,0,0,.125-.663,1.2,1.2,0,0,0-.126-.576A1.214,1.214,0,0,0,50.634,574.571Z" transform="translate(-47.512 -571.508)"/><path class="b" d="M68.068,571.807l-2.379,5.6h.32a.157.157,0,0,0,.1-.032.168.168,0,0,0,.057-.075l.682-1.626H69.7l.686,1.626a.2.2,0,0,0,.058.078.147.147,0,0,0,.094.029h.325l-2.379-5.6Zm-1.093,3.566,1.187-2.826c.019-.047.038-.1.058-.156s.038-.117.057-.18c.019.063.038.124.058.18s.038.107.057.152l1.188,2.83Z" transform="translate(-61.692 -571.744)"/><path class="b" d="M93.413,577.407h.423v-2.573h2.65V574.5h-2.65v-2.355H96.9v-.336H93.413Z" transform="translate(-83.319 -571.743)"/><path class="b" d="M114.786,577.407h3.484v-.336h-3.061v-2.335h2.547v-.328h-2.547v-2.264h3.061v-.336h-3.484Z" transform="translate(-99.991 -571.743)"/><path class="b" d="M133.6,572.151h2.054v5.256h.419v-5.256h2.042v-.344H133.6Z" transform="translate(-114.666 -571.743)"/><path class="b" d="M159.507,571.835a.228.228,0,0,0-.062.071l-1.66,2.573a1.713,1.713,0,0,0-.1.176c-.027.057-.052.114-.074.172-.022-.058-.047-.115-.074-.172a1.753,1.753,0,0,0-.1-.176l-1.664-2.573a.312.312,0,0,0-.068-.073.154.154,0,0,0-.092-.026h-.366L157.4,575.1v2.311h.423V575.1l2.149-3.289h-.37A.153.153,0,0,0,159.507,571.835Z" transform="translate(-131.557 -571.744)"/><path class="b" d="M187.054,571.807l-2.379,5.6H185a.157.157,0,0,0,.1-.032.17.17,0,0,0,.057-.075l.682-1.626h2.855l.686,1.626a.2.2,0,0,0,.058.078.147.147,0,0,0,.095.029h.324l-2.379-5.6Zm-1.093,3.566,1.187-2.826c.019-.047.039-.1.058-.156s.038-.117.058-.18q.029.1.057.18c.019.057.038.107.058.152l1.187,2.83Z" transform="translate(-154.51 -571.744)"/><path class="b" d="M216.516,576.5a2.2,2.2,0,0,0,.012.23l-3.763-4.853a.192.192,0,0,0-.07-.061.24.24,0,0,0-.09-.014H212.4v5.6h.366v-4.714a2.16,2.16,0,0,0-.013-.225l3.78,4.86a.179.179,0,0,0,.152.079h.2v-5.6h-.37Z" transform="translate(-176.137 -571.744)"/><path class="b" d="M244.771,572.559A2.467,2.467,0,0,0,243.9,572a3.155,3.155,0,0,0-1.13-.194h-2.12v5.6h2.12a3.152,3.152,0,0,0,1.13-.194,2.464,2.464,0,0,0,.875-.558,2.506,2.506,0,0,0,.567-.883,3.476,3.476,0,0,0,0-2.331A2.51,2.51,0,0,0,244.771,572.559Zm.164,3.1a2.177,2.177,0,0,1-.475.776,2.027,2.027,0,0,1-.737.483,2.645,2.645,0,0,1-.957.166h-1.7v-4.943h1.7a2.645,2.645,0,0,1,.957.166,2.022,2.022,0,0,1,.737.483,2.182,2.182,0,0,1,.475.776,3.336,3.336,0,0,1,0,2.094Z" transform="translate(-198.172 -571.744)"/><path class="b" d="M276.254,577.407h3.484v-.336h-3.061v-2.335h2.547v-.328h-2.547v-2.264h3.061v-.336h-3.484Z" transform="translate(-225.95 -571.743)"/><path class="b" d="M302.453,576.5a2.258,2.258,0,0,0,.012.23l-3.763-4.853a.194.194,0,0,0-.07-.061.24.24,0,0,0-.09-.014h-.206v5.6h.366v-4.714a2.187,2.187,0,0,0-.012-.225l3.78,4.86a.179.179,0,0,0,.152.079h.2v-5.6h-.37Z" transform="translate(-243.175 -571.744)"/><path class="b" d="M327.688,571.839a.216.216,0,0,0-.06.076l-1.976,4.646a2.109,2.109,0,0,0-.119.388,2.393,2.393,0,0,0-.127-.388l-1.98-4.646a.2.2,0,0,0-.058-.078.148.148,0,0,0-.094-.029h-.333l2.4,5.6h.374l2.4-5.6h-.329A.148.148,0,0,0,327.688,571.839Z" transform="translate(-262.369 -571.744)"/><path class="b" d="M0,0H.423V5.6H0Z" transform="translate(66.821 0.063)"/><path class="b" d="M364.229,574.827a2.4,2.4,0,0,0,.686-.168,1.782,1.782,0,0,0,.52-.329,1.373,1.373,0,0,0,.331-.465,1.457,1.457,0,0,0,.115-.585,1.289,1.289,0,0,0-.5-1.1,2.492,2.492,0,0,0-1.5-.374H362.4v5.6h.419v-2.533h.76a.653.653,0,0,1,.249.036.41.41,0,0,1,.15.123l1.861,2.272a.289.289,0,0,0,.092.079.248.248,0,0,0,.113.024h.365l-2-2.422A.649.649,0,0,0,364.229,574.827Zm-.4-.254h-1.011v-2.446h1.064a2.03,2.03,0,0,1,1.183.289,1.014,1.014,0,0,1,.407.886,1.212,1.212,0,0,1-.111.527,1.107,1.107,0,0,1-.322.4,1.506,1.506,0,0,1-.518.255A2.472,2.472,0,0,1,363.827,574.573Z" transform="translate(-293.148 -571.744)"/><path class="b" d="M387.759,572.292a2.5,2.5,0,0,0-.875-.58,3.014,3.014,0,0,0-1.13-.2,2.97,2.97,0,0,0-1.122.206,2.537,2.537,0,0,0-.875.58,2.619,2.619,0,0,0-.569.9,3.5,3.5,0,0,0,0,2.351,2.623,2.623,0,0,0,.569.9,2.515,2.515,0,0,0,.875.578,3.216,3.216,0,0,0,2.252,0,2.518,2.518,0,0,0,.875-.578,2.6,2.6,0,0,0,.567-.9,3.531,3.531,0,0,0,0-2.351A2.613,2.613,0,0,0,387.759,572.292Zm.164,3.133a2.251,2.251,0,0,1-.474.79,2.02,2.02,0,0,1-.738.495,2.591,2.591,0,0,1-.957.17,2.551,2.551,0,0,1-.947-.17,2.062,2.062,0,0,1-.74-.495,2.244,2.244,0,0,1-.481-.79,3.344,3.344,0,0,1,0-2.108,2.239,2.239,0,0,1,.481-.792,2.076,2.076,0,0,1,.74-.5,2.521,2.521,0,0,1,.947-.172,2.56,2.56,0,0,1,.957.172,2.034,2.034,0,0,1,.738.5,2.246,2.246,0,0,1,.474.792,3.376,3.376,0,0,1,0,2.108Z" transform="translate(-309.208 -571.508)"/><path class="b" d="M418.525,576.5a2.2,2.2,0,0,0,.012.23l-3.763-4.853a.192.192,0,0,0-.07-.061.239.239,0,0,0-.09-.014h-.205v5.6h.366v-4.714a2.213,2.213,0,0,0-.012-.225l3.78,4.86a.179.179,0,0,0,.152.079h.2v-5.6h-.37Z" transform="translate(-333.721 -571.744)"/><path class="b" d="M448.018,571.819a.149.149,0,0,0-.066.063l-2.284,3.891a.98.98,0,0,0-.06.117q-.027.062-.052.125a1.567,1.567,0,0,0-.107-.238l-2.346-3.895a.144.144,0,0,0-.068-.063.3.3,0,0,0-.092-.012h-.288v5.6h.366v-4.773a2.093,2.093,0,0,0-.012-.222l2.35,3.918a.186.186,0,0,0,.164.1h.066a.18.18,0,0,0,.164-.1l2.288-3.914a2.011,2.011,0,0,0-.012.218v4.773h.37v-5.6h-.292A.278.278,0,0,0,448.018,571.819Z" transform="translate(-355.756 -571.744)"/><path class="b" d="M476.621,577.407H480.1v-.336h-3.061v-2.335h2.547v-.328h-2.547v-2.264H480.1v-.336h-3.484Z" transform="translate(-382.252 -571.743)"/><path class="b" d="M502.819,576.5a2.191,2.191,0,0,0,.013.23l-3.764-4.853a.2.2,0,0,0-.07-.061.239.239,0,0,0-.09-.014H498.7v5.6h.366v-4.714a2.181,2.181,0,0,0-.013-.225l3.78,4.86a.179.179,0,0,0,.152.079h.2v-5.6h-.37Z" transform="translate(-399.477 -571.744)"/><path class="b" d="M528.2,571.807h-4.515v.344h2.054v5.256h.419v-5.256H528.2Z" transform="translate(-418.963 -571.743)"/><path class="b" d="M545.377,571.807l-2.379,5.6h.32a.156.156,0,0,0,.1-.032.167.167,0,0,0,.058-.075l.682-1.626h2.855l.686,1.626a.2.2,0,0,0,.057.078.148.148,0,0,0,.095.029h.325l-2.379-5.6Zm-1.093,3.566,1.187-2.826c.019-.047.038-.1.058-.156s.038-.117.058-.18q.028.1.057.18c.019.057.038.107.058.152l1.187,2.83Z" transform="translate(-434.031 -571.744)"/><path class="b" d="M571.14,571.807h-.419v5.6H573.9v-.344H571.14Z" transform="translate(-455.657 -571.743)"/><path class="b" d="M597.045,577.407h3.484v-.336h-3.061v-2.335h2.547v-.328h-2.547v-2.264h3.061v-.336h-3.484Z" transform="translate(-476.192 -571.743)"/><path class="b" d="M622.3,576.42a2.491,2.491,0,0,0,.4-.564,2.934,2.934,0,0,0,.253-.689,3.463,3.463,0,0,0,.088-.8,3.276,3.276,0,0,0-.2-1.173,2.624,2.624,0,0,0-.567-.9,2.5,2.5,0,0,0-.876-.58,3.009,3.009,0,0,0-1.129-.2,2.969,2.969,0,0,0-1.122.206,2.536,2.536,0,0,0-.875.58,2.614,2.614,0,0,0-.569.9,3.5,3.5,0,0,0,0,2.351,2.618,2.618,0,0,0,.569.9,2.515,2.515,0,0,0,.875.578,2.993,2.993,0,0,0,1.122.2,3.215,3.215,0,0,0,.608-.055,3.021,3.021,0,0,0,.547-.158l1.24,1.29a.27.27,0,0,0,.115.077.475.475,0,0,0,.148.022h.353l-1.512-1.559A2.507,2.507,0,0,0,622.3,576.42Zm-1.074.289a2.592,2.592,0,0,1-.957.17,2.552,2.552,0,0,1-.947-.17,2.065,2.065,0,0,1-.74-.495,2.248,2.248,0,0,1-.481-.79,3.341,3.341,0,0,1,0-2.108,2.243,2.243,0,0,1,.481-.792,2.079,2.079,0,0,1,.74-.5,2.522,2.522,0,0,1,.947-.172,2.562,2.562,0,0,1,.957.172,2.039,2.039,0,0,1,.738.5,2.241,2.241,0,0,1,.474.792,3.371,3.371,0,0,1,0,2.108,2.246,2.246,0,0,1-.474.79A2.025,2.025,0,0,1,621.229,576.709Z" transform="translate(-492.151 -571.508)"/><path class="b" d="M652.668,575.27a2.151,2.151,0,0,1-.122.73,1.7,1.7,0,0,1-.351.588,1.611,1.611,0,0,1-.561.39,1.9,1.9,0,0,1-.75.14,1.88,1.88,0,0,1-.75-.142,1.6,1.6,0,0,1-.558-.392,1.72,1.72,0,0,1-.349-.588,2.14,2.14,0,0,1-.122-.73v-3.459h-.423v3.463a2.424,2.424,0,0,0,.152.865,2.052,2.052,0,0,0,.438.7,2.028,2.028,0,0,0,.694.469,2.565,2.565,0,0,0,1.837,0,2.029,2.029,0,0,0,.694-.469,2.05,2.05,0,0,0,.437-.7,2.418,2.418,0,0,0,.152-.865v-3.463h-.419Z" transform="translate(-516.474 -571.744)"/><path class="b" d="M0,0H.424V5.6H0Z" transform="translate(138.441 0.063)"/><path class="b" d="M691.1,572.238a2.369,2.369,0,0,0-1.543-.431h-1.5v5.6h.419v-2.256h1.081a2.784,2.784,0,0,0,.863-.125,1.937,1.937,0,0,0,.649-.348,1.513,1.513,0,0,0,.409-.532,1.6,1.6,0,0,0,.142-.677A1.511,1.511,0,0,0,691.1,572.238Zm-.012,1.771a1.242,1.242,0,0,1-.325.429,1.522,1.522,0,0,1-.515.285,2.149,2.149,0,0,1-.69.1h-1.081v-2.7h1.081a1.87,1.87,0,0,1,1.231.348,1.228,1.228,0,0,1,.412.993A1.285,1.285,0,0,1,691.093,574.009Z" transform="translate(-547.193 -571.744)"/><path class="b" d="M715.04,571.819a.149.149,0,0,0-.066.063l-2.284,3.891a1.109,1.109,0,0,0-.06.117c-.018.041-.035.083-.051.125a1.6,1.6,0,0,0-.107-.238l-2.346-3.895a.146.146,0,0,0-.068-.063.3.3,0,0,0-.092-.012h-.288v5.6h.366v-4.773a2.087,2.087,0,0,0-.013-.222l2.35,3.918a.186.186,0,0,0,.164.1h.066a.18.18,0,0,0,.164-.1l2.288-3.914a2.085,2.085,0,0,0-.012.218v4.773h.37v-5.6h-.292A.28.28,0,0,0,715.04,571.819Z" transform="translate(-564.055 -571.744)"/><path class="b" d="M743.643,577.407h3.484v-.336h-3.061v-2.335h2.547v-.328h-2.547v-2.264h3.061v-.336h-3.484Z" transform="translate(-590.551 -571.743)"/><path class="b" d="M769.842,576.5a2.276,2.276,0,0,0,.012.23l-3.763-4.853a.2.2,0,0,0-.07-.061.239.239,0,0,0-.09-.014h-.206v5.6h.366v-4.714a2.215,2.215,0,0,0-.013-.225l3.78,4.86a.179.179,0,0,0,.152.079h.2v-5.6h-.37Z" transform="translate(-607.777 -571.744)"/><path class="b" d="M790.7,572.151h2.054v5.256h.419v-5.256h2.042v-.344H790.7Z" transform="translate(-627.262 -571.743)"/><path class="b" d="M825.416,574.827a2.4,2.4,0,0,0,.686-.168,1.783,1.783,0,0,0,.52-.329,1.375,1.375,0,0,0,.331-.465,1.455,1.455,0,0,0,.115-.585,1.29,1.29,0,0,0-.5-1.1,2.493,2.493,0,0,0-1.5-.374h-1.483v5.6H824v-2.533h.76a.65.65,0,0,1,.249.036.409.409,0,0,1,.15.123l1.861,2.272a.29.29,0,0,0,.092.079.249.249,0,0,0,.113.024h.366l-2-2.422A.652.652,0,0,0,825.416,574.827Zm-.4-.254H824v-2.446h1.064a2.03,2.03,0,0,1,1.183.289,1.014,1.014,0,0,1,.407.886,1.215,1.215,0,0,1-.111.527,1.112,1.112,0,0,1-.323.4,1.51,1.51,0,0,1-.518.255A2.467,2.467,0,0,1,825.014,574.573Z" transform="translate(-652.911 -571.744)"/><path class="b" d="M846.6,577.407h3.484v-.336h-3.061v-2.335h2.547v-.328h-2.547v-2.264h3.061v-.336H846.6Z" transform="translate(-670.865 -571.743)"/><path class="b" d="M872.8,576.5a2.241,2.241,0,0,0,.013.23l-3.763-4.853a.2.2,0,0,0-.07-.061.237.237,0,0,0-.09-.014h-.206v5.6h.366v-4.714a2.215,2.215,0,0,0-.013-.225l3.78,4.86a.178.178,0,0,0,.152.079h.2v-5.6h-.37Z" transform="translate(-688.091 -571.744)"/><path class="b" d="M898.175,571.807H893.66v.344h2.055v5.256h.419v-5.256h2.042Z" transform="translate(-707.576 -571.743)"/><path class="b" d="M915.358,571.807l-2.379,5.6h.32a.156.156,0,0,0,.1-.032.168.168,0,0,0,.058-.075l.682-1.626h2.855l.687,1.626a.193.193,0,0,0,.057.078.149.149,0,0,0,.094.029h.325l-2.379-5.6Zm-1.093,3.566,1.187-2.826c.019-.047.038-.1.057-.156s.038-.117.058-.18c.019.063.038.124.057.18s.038.107.057.152l1.187,2.83Z" transform="translate(-722.647 -571.744)"/><path class="b" d="M941.12,577.063v-5.256H940.7v5.6h3.176v-.344Z" transform="translate(-744.272 -571.743)"/></g></g></svg>