<svg xmlns="http://www.w3.org/2000/svg" width="185" height="40" viewBox="0 0 185 40"><defs><style>.a{fill:#ff7607;}.b{fill:#232828;}.c{fill:#9b9b9b;}</style></defs><path class="a" d="M60.068,441.262H49.533v-4.427H57.3v-3.874H49.533V423H60.068v-3.32H45.652v25.456H60.068Z" transform="translate(-45.652 -417.116)"/><path class="b" d="M0,0H7.762V3.874H0Z" transform="translate(21.346 15.396)"/><path class="b" d="M235.577,441.262h-8.871V419.68h-3.881v25.456h12.752Z" transform="translate(-186.786 -417.116)"/><path class="b" d="M303.71,422.563a13.426,13.426,0,0,0-4.158-2.732,13.479,13.479,0,0,0-10.205,0,13.418,13.418,0,0,0-4.158,2.732,12.715,12.715,0,0,0-2.815,4.09,12.368,12.368,0,0,0-1.031,5.006,12.167,12.167,0,0,0,1.031,4.989,12.817,12.817,0,0,0,2.815,4.055,13.537,13.537,0,0,0,4.158,2.741,13.374,13.374,0,0,0,10.205,0,13.545,13.545,0,0,0,4.158-2.741,12.825,12.825,0,0,0,2.815-4.055,12.174,12.174,0,0,0,1.031-4.989,12.375,12.375,0,0,0-1.031-5.006A12.722,12.722,0,0,0,303.71,422.563Zm-.806,12.667a9.206,9.206,0,0,1-1.958,2.905,9.313,9.313,0,0,1-10.075,1.946,9.077,9.077,0,0,1-4.895-4.851,9.227,9.227,0,0,1,0-7.142,9.023,9.023,0,0,1,4.895-4.842,9.491,9.491,0,0,1,7.156,0,8.976,8.976,0,0,1,2.92,1.937,9.214,9.214,0,0,1,1.958,2.905,9.227,9.227,0,0,1,0,7.142Z" transform="translate(-233.4 -416.437)"/><path class="b" d="M436.144,418.914a13.087,13.087,0,0,0-3.474.458,13.291,13.291,0,0,0-3.119,1.288,13.135,13.135,0,0,0-2.651,2.006,12.355,12.355,0,0,0-2.036,2.594,13.4,13.4,0,0,0-1.308,3.061,12.575,12.575,0,0,0,.546,8.4,12.847,12.847,0,0,0,6.956,6.788,13.634,13.634,0,0,0,5.085,1.02c.092,0,.182,0,.268-.009s.176-.009.269-.009c.115-.011.245-.017.39-.017h.528V440.6a5.2,5.2,0,0,1-.805.147q-.321.026-.65.026a8.6,8.6,0,0,1-3.543-.7,9.427,9.427,0,0,1-2.893-1.937,8.931,8.931,0,0,1-1.949-2.871,9.112,9.112,0,0,1-.364-5.914,9.837,9.837,0,0,1,.91-2.17,8.262,8.262,0,0,1,1.412-1.833,9.435,9.435,0,0,1,1.837-1.4,9.237,9.237,0,0,1,2.174-.917,8.9,8.9,0,0,1,2.417-.328q.606,0,1.455-.052v-3.632q-.451-.069-.78-.086T436.144,418.914Z" transform="translate(-346.307 -416.505)"/><path class="b" d="M530.85,444.593,519.64,419l-11.21,25.594h3.951l2.287-5.032h9.945l2.287,5.032Zm-14.831-8.283,3.621-8.4,3.621,8.4Z" transform="translate(-414.296 -416.573)"/><path class="b" d="M599.146,422.319h6.376v22.135H609.4V422.319h6.376V419H599.146Z" transform="translate(-486.56 -416.573)"/><path class="b" d="M0,0H3.881V25.594H0Z" transform="translate(132.13 2.426)"/><path class="b" d="M873.731,429.651l13.307,14.941V419h-3.881v14.526L869.85,419v25.594h3.881Z" transform="translate(-702.199 -416.573)"/><path class="b" d="M745.4,421.971a.173.173,0,0,1-.167-.184c-.077-.706-.139-1.415-.258-2.114a11.625,11.625,0,0,0-1.761-4.416c-.52-.8-1.131-1.537-1.719-2.326l2.113-2.112-.029-.074a.754.754,0,0,0-.177.1q-.51.5-1.011,1.006c-.344.347-.685.7-1.024,1.043-.343-.308-.646-.6-.972-.868a13.552,13.552,0,0,0-4.756-2.514,12.675,12.675,0,0,0-3.111-.508c-.136-.005-.176-.062-.2-.179-.11-.537-.226-1.072-.342-1.608a1.514,1.514,0,0,0-.056-.166.153.153,0,0,0-.073.105c-.113.536-.232,1.071-.334,1.609-.034.177-.1.239-.289.242a10.2,10.2,0,0,0-1.172.088,13.471,13.471,0,0,0-6.627,2.864c-.345.284-.68.582-1.044.895l-2.427-2.433-.055.026a.847.847,0,0,0,.114.213q1.138,1.145,2.282,2.281c-.375.442-.766.857-1.1,1.311a13.427,13.427,0,0,0-2.138,4.185,12.593,12.593,0,0,0-.556,3.314c0,.148-.051.2-.2.231-.568.108-1.133.231-1.7.351a.733.733,0,0,0-.136.069,1.584,1.584,0,0,0,.157.056c.557.119,1.115.231,1.669.36a.3.3,0,0,1,.195.18c.039.178.024.368.05.55.087.6.153,1.211.281,1.805a11.81,11.81,0,0,0,1.352,3.5,15.821,15.821,0,0,0,.948,1.46c.386.518.822,1,1.252,1.514-.326.322-.669.66-1.011,1-.479.476-.959.952-1.435,1.432a.592.592,0,0,0-.082.184l.075.035,2.56-2.571c.287.247.555.48.825.709a13.052,13.052,0,0,0,3.453,2.084,12.444,12.444,0,0,0,3.1.846c.429.06.862.092,1.294.131.186.017.336.036.359.285a6.92,6.92,0,0,0,.16.782q.1.492.206.985a.2.2,0,0,0,.106-.126c.121-.555.247-1.109.354-1.667a.277.277,0,0,1,.311-.262,8.568,8.568,0,0,0,1.1-.09,14.682,14.682,0,0,0,2.9-.748,13.431,13.431,0,0,0,3.331-1.854c.448-.346.871-.724,1.335-1.112a1.592,1.592,0,0,0,.129.164q.993.992,1.99,1.98a1.045,1.045,0,0,0,.2.125l.052-.077-2.314-2.266c.292-.334.547-.621.8-.912a12.414,12.414,0,0,0,1.879-2.955,13.228,13.228,0,0,0,1.2-4.913.241.241,0,0,1,.145-.166c.191-.058.391-.09.587-.131l1.313-.278,0-.056c-.065-.019-.129-.042-.195-.056C746.528,422.207,745.963,422.085,745.4,421.971Zm-14.086-12.486c.032.355-.022.382-.321.421-.719.1-1.442.185-2.148.346a11.524,11.524,0,0,0-4.548,2.179c-.418.326-.82.671-1.258,1.032l-.244-.257A12.886,12.886,0,0,1,731.311,409.485Zm-7.2,5.3a2.862,2.862,0,0,1,.75.915c.022.033-.009.123-.041.168-.4.559-.843,1.1-1.212,1.677a8.16,8.16,0,0,0-1.044,2.608c-.062.277-.11.558-.177.834a.227.227,0,0,1-.123.151c-.388.092-.778.17-1.214.263A10.9,10.9,0,0,1,724.115,414.785Zm-3.253,6.5c-.007.065-.066.164-.118.177-.358.086-.721.153-1.119.234a12.229,12.229,0,0,1,3.48-7.915l.828.821c-.362.455-.743.9-1.091,1.377a10.548,10.548,0,0,0-1.506,3A11.438,11.438,0,0,0,720.862,421.284Zm4.144-5.354c.181.266.33.481.474.7.17.259.345.516.5.785a.311.311,0,0,1,0,.269c-.163.251-.352.485-.546.747l-1.63-.911Zm-2.235,4.234c.007-.029.1-.066.138-.056.526.129,1.05.267,1.575.4.025.006.046.031.1.072a.912.912,0,0,1-.212.12c-.549.119-1.1.23-1.649.342a1,1,0,0,1-.138,0C722.649,420.741,722.7,420.451,722.771,420.165Zm.092-.4a10,10,0,0,1,.805-1.959l1.191.67c.019.011.034.029.053.04.367.217.358.212.185.591s-.311.74-.469,1.12Zm3.315-2.059,1.5,2.3-2.97.621A7.539,7.539,0,0,1,726.178,417.707Zm.821,1.067c-.268-.4-.546-.792-.807-1.2-.364-.562-.715-1.133-1.074-1.7-.059-.093-.131-.179-.18-.276l4.088,4.091c-.34.069-.71.123-1.065.227a.191.191,0,0,1-.261-.1Q727.35,419.3,727,418.774Zm.764-3.246c.227.381.226.381-.144.621-.1.064-.2.133-.288.2-.269.209-.268.21-.559.02l-1.335-.872,1.593-1.206Zm-.458-1.4,1.985-.817c.17.6.328,1.144.474,1.693.011.041-.052.134-.1.154-.453.19-.911.37-1.4.567Zm-.084,2.536a7.5,7.5,0,0,1,2.929-1.455l-.617,2.959Zm2.89-1.639-.5-1.756.986-.2-.408,1.955Zm.4-2.143c-.525.132-1.06.23-1.578.386a8.6,8.6,0,0,0-2.912,1.533c-.212.17-.421.343-.637.507-.044.034-.134.065-.169.043-.325-.2-.642-.42-.959-.631.787-1.346,5.24-3.424,6.66-3.121-.082.388-.159.778-.251,1.164C730.652,412.815,730.57,412.869,730.51,412.884Zm.317-1.526a10.842,10.842,0,0,0-5.142,1.84c-.565.384-1.082.837-1.625,1.262l-.808-.823a12.271,12.271,0,0,1,7.968-3.516c-.083.4-.156.775-.244,1.145C730.967,411.306,730.881,411.352,730.827,411.357Zm-8.142,1.954.252.266c-.287.341-.569.67-.844,1a11.961,11.961,0,0,0-1.891,3.279,11.645,11.645,0,0,0-.709,2.855c-.035.291-.062.582-.089.874-.016.171-.042.189-.418.218A12.852,12.852,0,0,1,722.685,413.311Zm-3.694,9.654.4.065a12.444,12.444,0,0,0,3.646,8.136l-.3.251A12.862,12.862,0,0,1,718.991,422.965Zm11.88,10.149a10.964,10.964,0,0,1-6.6-3.042l1.007-.718c.634.438,1.2.872,1.811,1.242a8.6,8.6,0,0,0,3.072,1.13c.445.075.45.059.548.5.056.252.106.506.158.76A.89.89,0,0,1,730.871,433.114Zm.094.323c.086.358.156.72.241,1.131a12.353,12.353,0,0,1-7.891-3.461l.865-.833a11.029,11.029,0,0,0,2.991,2.059,10.787,10.787,0,0,0,2.942.9c.232.037.467.052.7.092A.22.22,0,0,1,730.964,433.438Zm-3.087-4.575q-.373.688-.771,1.362a.188.188,0,0,1-.173.054c-.473-.331-.939-.673-1.45-1.043l1.637-1.064c.244.171.482.33.708.5A.2.2,0,0,1,727.877,428.863Zm.328.081c.5.189.979.368,1.455.558a.171.171,0,0,1,.069.15c-.13.518-.265,1.034-.411,1.547a.185.185,0,0,1-.16.085c-.618-.233-1.232-.477-1.865-.725Zm1.393,2.484.458-1.792.084-.021c.195.636.279,1.3.45,2Zm-2.176-3.245c-.1-.074-.11-.136.014-.216.689-.443,1.372-.895,2.093-1.367l.6,2.866A7.5,7.5,0,0,1,727.422,428.184Zm1.839-1.531c-.472.3-.925.624-1.39.931-.628.415-1.26.822-1.89,1.233-.348.227-.695.456-1.043.682a.577.577,0,0,1-.095.04l4.356-4.351c.049.218.1.446.151.673.027.118.054.235.086.351A.346.346,0,0,1,729.261,426.653Zm-4.19,2.09a8.106,8.106,0,0,1-1.239-1.6l1.572-.925c.23.3.44.578.645.856a.155.155,0,0,1,.023.135C725.748,427.712,725.419,428.211,725.07,428.743Zm1.136-1.736a7.4,7.4,0,0,1-1.463-2.846l2.92.616Zm-.969-1.066-1.6.941-.822-1.967,1.8-.495Zm-2.454-1.343-.194-.887,1.846.387.007.037Zm1.786,3.9c.048.056.086.12.136.174.239.26.242.26.052.55-.169.258-.343.514-.531.795a10.917,10.917,0,0,1-3.158-6.617c.277.055.533.1.789.158.617.129.5.007.628.622A9.3,9.3,0,0,0,724.57,428.5Zm-3.417-3.435a10.791,10.791,0,0,0,1.387,3.2,11.155,11.155,0,0,0,1.51,1.88l-.862.825a11.335,11.335,0,0,1-2.077-2.754,11.948,11.948,0,0,1-1.475-5.129c.391.089.772.164,1.142.272.063.018.1.176.123.275C720.989,424.106,721.033,424.594,721.153,425.062ZM731.3,435.2a12.981,12.981,0,0,1-8.444-3.662l.279-.267c.279.242.541.5.837.718.6.43,1.193.865,1.823,1.242a10.942,10.942,0,0,0,3.262,1.256,16.539,16.539,0,0,0,1.817.258C731.256,434.792,731.327,434.838,731.3,435.2ZM729.254,425l-12.065-2.54v-.032h14.55Zm2.553-2.8-.049.037c-.341-.385-.675-.777-1.027-1.152-.2-.214-.438-.395-.649-.6-.25-.243-.5-.489-.728-.751-.046-.053-.013-.188,0-.281.071-.393.143-.786.227-1.176.158-.732.33-1.461.488-2.194.137-.639.262-1.282.394-1.922.083-.4.172-.808.255-1.212.175-.847.344-1.7.525-2.541.159-.738.331-1.474.5-2.211a.4.4,0,0,1,.063-.188Zm9.29-8.84c.274.31.557.609.816.929a12.688,12.688,0,0,1,1.536,2.416,12.2,12.2,0,0,1,1.067,3.207c.1.553.152,1.116.216,1.675.009.075.067.23-.094.214-.126-.013-.315.021-.32-.215a12.079,12.079,0,0,0-2.283-6.479c-.38-.506-.788-.992-1.21-1.52l.173-.148C741.021,413.422,741.045,413.4,741.1,413.362Zm-1.546,1.351c-.21.148-.408.294-.612.431-.471.316-.462.3-.883-.066a8.115,8.115,0,0,0-2.7-1.606c-.649-.225-1.329-.363-1.993-.548-.076-.021-.186-.076-.2-.135-.094-.393-.166-.791-.253-1.224A10.951,10.951,0,0,1,739.551,414.713Zm-6.71-3.5c-.089-.351-.16-.706-.243-1.088a12.3,12.3,0,0,1,7.927,3.552l-.821.842c-.358-.3-.7-.61-1.065-.9a11.041,11.041,0,0,0-4.533-2.094c-.36-.079-.731-.105-1.094-.171A.254.254,0,0,1,732.841,411.215Zm3.054,4.609c.254-.447.5-.9.761-1.342a.184.184,0,0,1,.173-.051,7.822,7.822,0,0,1,1.466,1.127l-1.275.837a.9.9,0,0,0-.11.075.253.253,0,0,1-.4-.014,3.729,3.729,0,0,0-.555-.4C735.851,415.991,735.835,415.929,735.895,415.824Zm-.344-.049-1.524-.648c.14-.54.278-1.092.43-1.639a.2.2,0,0,1,.181-.073c.608.235,1.211.482,1.837.734Zm-1.374-2.5-.463,1.787-.067.008-.424-1.989Zm2.375,3.417-2.257,1.47-.618-2.935A7.583,7.583,0,0,1,736.553,416.7Zm2.21-1.307-4.151,4.125-.268-1.247Zm.052.645,1.117,1.517-1.594.938c-.185-.253-.364-.486-.528-.729-.041-.061-.076-.178-.045-.228.3-.483.617-.958.931-1.434C738.709,416.078,738.745,416.071,738.814,416.035Zm-1.217,1.742a7.157,7.157,0,0,1,1.408,2.846l-2.879-.6Zm.917,1.087c-.015-.037.049-.136.1-.166.474-.281.954-.554,1.488-.861l.814,1.943-1.784.5C738.915,419.789,738.708,419.329,738.514,418.863Zm2.446,1.241.2.968-1.974-.406v-.074Zm-.971-2.8c-.322-.516-.721-.984-1.113-1.512l.727-1.021a10.791,10.791,0,0,1,3.058,6.623c-.425-.088-.794-.164-1.162-.242a.207.207,0,0,1-.183-.206A9.213,9.213,0,0,0,739.99,417.305Zm-.168-2.636.824-.866a12.39,12.39,0,0,1,3.474,7.888l-1.237-.251A11.087,11.087,0,0,0,739.822,414.669Zm1.156-1.42-.257.269c-.315-.277-.607-.546-.913-.8a12.357,12.357,0,0,0-3.049-1.854,13.194,13.194,0,0,0-2.81-.822c-.36-.067-.726-.1-1.091-.138-.342-.035-.343-.028-.374-.416A12.9,12.9,0,0,1,740.978,413.25Zm-8.792,22.978c-.046.22-.11.436-.162.655a1.483,1.483,0,0,0-.021.176l-.043.005V422.578c.487.474.988.955,1.478,1.446.166.166.3.366.456.538a3.642,3.642,0,0,0,.338.279.508.508,0,0,1,.238.566c-.187.738-.352,1.482-.511,2.227s-.3,1.507-.455,2.261c-.084.418-.175.834-.261,1.252-.133.641-.262,1.284-.4,1.924-.087.412-.186.82-.271,1.232C732.441,434.944,732.319,435.587,732.186,436.227Zm4.27-5.694-1.977.83c-.1-.35-.187-.649-.27-.949-.067-.241-.118-.487-.2-.724-.042-.127,0-.164.109-.206.456-.169.907-.35,1.387-.537Zm-.677-1.77c.268-.2.525-.39.789-.575a.173.173,0,0,1,.155,0c.5.321,1,.647,1.554,1l-1.547,1.174Zm-1.756,2.14a4.836,4.836,0,0,1,.082.509l-.859.2.4-1.87.043-.008C733.8,430.122,733.918,430.511,734.023,430.9Zm-.355.807a9.259,9.259,0,0,0,4.113-1.883c.178-.142.347-.3.527-.435.048-.037.147-.075.182-.052.332.215.654.443,1.01.688a11.016,11.016,0,0,1-6.564,3.086c.06-.3.115-.566.166-.831C733.2,431.8,733.195,431.8,733.668,431.71Zm-.367,1.567a10.738,10.738,0,0,0,3.783-1.207,9.533,9.533,0,0,0,1.91-1.305c.2-.183.406-.361.611-.543l.835.856a12.342,12.342,0,0,1-7.811,3.492c.058-.293.109-.541.157-.79C732.872,433.336,732.871,433.331,733.3,433.276Zm6.477-3.163c.449-.582.947-1.157,1.366-1.784a10.037,10.037,0,0,0,1.551-3.836c.06-.337.114-.675.18-1.01a.193.193,0,0,1,.11-.13c.36-.084.723-.157,1.128-.242a12.321,12.321,0,0,1-3.536,7.832Zm-.228-.134c-.239-.362-.458-.686-.664-1.018a.21.21,0,0,1,.041-.188,9.252,9.252,0,0,0,1.618-2.433,8.634,8.634,0,0,0,.75-2.453c.01-.075.067-.191.123-.205.394-.1.793-.174,1.23-.265A10.878,10.878,0,0,1,739.55,429.979Zm-.815-1.243a11.815,11.815,0,0,0-.705-1.05c-.328-.392-.379-.732.018-1.1a2.076,2.076,0,0,0,.25-.355l1.635.917Zm2.354-4.775a5.956,5.956,0,0,0-.124.644l-1.65-.423,0-.056c.149-.035.3-.073.446-.1.378-.08.757-.152,1.133-.238C741.065,423.745,741.158,423.733,741.089,423.96Zm-.183.953-.805,1.963-1.624-.911.626-1.511Zm-3.34,2.038-1.417-2.169,2.823-.6A7.178,7.178,0,0,1,737.567,426.952Zm-1.347-1.895c.2.288.383.586.571.881.158.248.306.5.47.747.251.375.521.737.765,1.116s.47.778.7,1.167l-.023.014-3.879-3.885c.359-.083.75-.185,1.146-.251C736.045,424.835,736.159,424.968,736.22,425.057Zm.268,2.973a7.288,7.288,0,0,1-2.788,1.41l.6-2.834Zm-3.953,7.167c-.035-.33.026-.431.275-.441a11.04,11.04,0,0,0,3.046-.6,12,12,0,0,0,3.872-2.134c.3-.248.593-.51.91-.784l.275.267A12.95,12.95,0,0,1,732.535,435.2Zm8.48-3.792-.291-.29a10.621,10.621,0,0,0,1.623-1.986,11.894,11.894,0,0,0,1.765-4.365c.093-.513.147-1.034.2-1.553.031-.277.252-.152.435-.259A12.994,12.994,0,0,1,741.015,431.4Zm-8.905-9.053a5.778,5.778,0,0,1,1.169-1.235,5.9,5.9,0,0,0,.555-.621c.211-.229.423-.459.654-.668.051-.046.187-.017.279,0,.457.087.914.176,1.368.275.737.16,1.471.337,2.209.493.831.175,1.665.332,2.5.5.6.125,1.2.269,1.808.4.451.095.907.169,1.358.265.6.128,1.2.267,1.8.4.254.057.508.11.761.191Z" transform="translate(-580.018 -407.05)"/><path class="c" d="M50.4,574.444a1.8,1.8,0,0,0-.432-.252q-.241-.1-.5-.184t-.5-.169a1.982,1.982,0,0,1-.432-.211,1.047,1.047,0,0,1-.307-.3.813.813,0,0,1-.116-.452,1.034,1.034,0,0,1,.078-.4.971.971,0,0,1,.229-.333,1.077,1.077,0,0,1,.374-.228,1.683,1.683,0,0,1,1.01-.011,1.637,1.637,0,0,1,.545.313.22.22,0,0,0,.128.07.107.107,0,0,0,.1-.065l.091-.175a1.806,1.806,0,0,0-.607-.406,2.021,2.021,0,0,0-.752-.133,1.79,1.79,0,0,0-.664.116,1.481,1.481,0,0,0-.489.307,1.29,1.29,0,0,0-.3.442,1.353,1.353,0,0,0-.1.519,1.268,1.268,0,0,0,.116.575,1.155,1.155,0,0,0,.307.383,1.7,1.7,0,0,0,.432.252q.242.1.5.178t.5.163a1.975,1.975,0,0,1,.432.207,1,1,0,0,1,.306.307.863.863,0,0,1,.116.469,1.317,1.317,0,0,1-.091.491,1.118,1.118,0,0,1-.264.4,1.252,1.252,0,0,1-.424.263,1.58,1.58,0,0,1-.571.1,1.729,1.729,0,0,1-.415-.045,1.757,1.757,0,0,1-.323-.112,1.509,1.509,0,0,1-.247-.144q-.106-.078-.183-.144l-.129-.112a.154.154,0,0,0-.087-.046.134.134,0,0,0-.106.057l-.106.167a2.155,2.155,0,0,0,.672.514A2.068,2.068,0,0,0,49.1,577a1.961,1.961,0,0,0,.73-.127,1.579,1.579,0,0,0,.54-.347,1.484,1.484,0,0,0,.336-.518,1.734,1.734,0,0,0,.116-.635,1.18,1.18,0,0,0-.116-.552A1.155,1.155,0,0,0,50.4,574.444Z" transform="translate(-47.134 -538.119)"/><path class="c" d="M67.889,571.807l-2.2,5.367h.3a.142.142,0,0,0,.091-.03.161.161,0,0,0,.053-.072l.631-1.559H69.4l.635,1.559a.186.186,0,0,0,.053.074.133.133,0,0,0,.087.028h.3l-2.2-5.367Zm-1.011,3.417,1.1-2.708c.018-.045.035-.1.053-.15s.035-.112.053-.173c.018.061.036.118.053.173s.035.1.053.146l1.1,2.712Z" transform="translate(-61.613 -538.357)"/><path class="c" d="M93.413,577.174H93.8v-2.465h2.451v-.322H93.8v-2.257h2.831v-.322H93.413Z" transform="translate(-83.698 -538.357)"/><path class="c" d="M114.786,577.174h3.223v-.322h-2.831v-2.238h2.356V574.3h-2.356v-2.17h2.831v-.322h-3.223Z" transform="translate(-100.723 -538.357)"/><path class="c" d="M133.6,572.137h1.9v5.037h.388v-5.037h1.889v-.33H133.6Z" transform="translate(-115.709 -538.357)"/><path class="c" d="M159.188,571.834a.218.218,0,0,0-.057.068l-1.535,2.466a1.663,1.663,0,0,0-.091.169c-.025.054-.048.109-.069.165-.02-.056-.043-.111-.068-.165a1.7,1.7,0,0,0-.091-.169l-1.539-2.466a.3.3,0,0,0-.063-.07.139.139,0,0,0-.085-.025h-.338l1.987,3.152v2.215h.392v-2.215l1.988-3.152h-.342A.139.139,0,0,0,159.188,571.834Z" transform="translate(-132.958 -538.357)"/><path class="c" d="M186.875,571.807l-2.2,5.367h.3a.143.143,0,0,0,.091-.03.163.163,0,0,0,.053-.072l.631-1.559h2.641l.635,1.559a.188.188,0,0,0,.053.074.133.133,0,0,0,.087.028h.3l-2.2-5.367Zm-1.011,3.417,1.1-2.708c.018-.045.036-.1.053-.15s.035-.112.053-.173q.027.091.053.173c.018.054.035.1.053.146l1.1,2.712Z" transform="translate(-156.396 -538.357)"/><path class="c" d="M216.207,576.309a2.172,2.172,0,0,0,.011.22l-3.481-4.65a.18.18,0,0,0-.065-.059.214.214,0,0,0-.084-.013h-.19v5.367h.338v-4.518a2.134,2.134,0,0,0-.012-.216l3.5,4.658a.164.164,0,0,0,.141.076h.186v-5.367h-.342Z" transform="translate(-178.481 -538.357)"/><path class="c" d="M244.461,572.528a2.274,2.274,0,0,0-.809-.535,2.827,2.827,0,0,0-1.045-.186h-1.961v5.367h1.961a2.824,2.824,0,0,0,1.045-.186,2.27,2.27,0,0,0,.809-.535,2.413,2.413,0,0,0,.525-.846,3.445,3.445,0,0,0,0-2.234A2.417,2.417,0,0,0,244.461,572.528Zm.152,2.966a2.1,2.1,0,0,1-.439.743,1.868,1.868,0,0,1-.682.463,2.37,2.37,0,0,1-.885.159h-1.57v-4.737h1.57a2.37,2.37,0,0,1,.885.159,1.867,1.867,0,0,1,.682.463,2.105,2.105,0,0,1,.439.743,3.307,3.307,0,0,1,0,2.006Z" transform="translate(-200.982 -538.357)"/><path class="c" d="M276.254,577.174h3.223v-.322h-2.831v-2.238H279V574.3h-2.356v-2.17h2.831v-.322h-3.223Z" transform="translate(-229.348 -538.357)"/><path class="c" d="M302.144,576.309q0,.106.011.22l-3.481-4.65a.181.181,0,0,0-.064-.059.215.215,0,0,0-.084-.013h-.19v5.367h.338v-4.518c0-.068,0-.14-.011-.216l3.5,4.658a.164.164,0,0,0,.141.076h.186v-5.367h-.342Z" transform="translate(-246.938 -538.357)"/><path class="c" d="M327.332,571.837a.206.206,0,0,0-.055.072l-1.828,4.453a2.078,2.078,0,0,0-.11.372,2.353,2.353,0,0,0-.118-.372l-1.832-4.453a.191.191,0,0,0-.053-.074.134.134,0,0,0-.087-.028h-.308l2.219,5.367h.346l2.219-5.367h-.3A.134.134,0,0,0,327.332,571.837Z" transform="translate(-266.538 -538.357)"/><path class="c" d="M0,0H.391V5.367H0Z" transform="translate(62.183 33.45)"/><path class="c" d="M364.092,574.7a2.153,2.153,0,0,0,.635-.161,1.638,1.638,0,0,0,.481-.315,1.316,1.316,0,0,0,.306-.446,1.44,1.44,0,0,0,.106-.561,1.254,1.254,0,0,0-.46-1.053,2.244,2.244,0,0,0-1.391-.358H362.4v5.367h.388v-2.428h.7a.583.583,0,0,1,.23.034.381.381,0,0,1,.138.118l1.722,2.177a.269.269,0,0,0,.085.076.222.222,0,0,0,.1.023h.338l-1.851-2.321A.606.606,0,0,0,364.092,574.7Zm-.372-.243h-.935v-2.344h.984a1.827,1.827,0,0,1,1.094.277.985.985,0,0,1,.376.849,1.2,1.2,0,0,1-.1.5,1.056,1.056,0,0,1-.3.383,1.375,1.375,0,0,1-.479.245A2.21,2.21,0,0,1,363.72,574.458Z" transform="translate(-297.968 -538.357)"/><path class="c" d="M387.4,572.259a2.3,2.3,0,0,0-.809-.556,2.7,2.7,0,0,0-1.045-.2,2.663,2.663,0,0,0-1.037.2,2.342,2.342,0,0,0-.809.556,2.524,2.524,0,0,0-.526.865,3.466,3.466,0,0,0,0,2.253,2.527,2.527,0,0,0,.526.865,2.321,2.321,0,0,0,.809.554,2.877,2.877,0,0,0,2.083,0,2.323,2.323,0,0,0,.809-.554,2.5,2.5,0,0,0,.524-.865,3.5,3.5,0,0,0,0-2.253A2.517,2.517,0,0,0,387.4,572.259Zm.152,3a2.173,2.173,0,0,1-.439.757,1.865,1.865,0,0,1-.682.474,2.322,2.322,0,0,1-.885.163,2.286,2.286,0,0,1-.876-.163,1.9,1.9,0,0,1-.684-.474,2.164,2.164,0,0,1-.445-.757,3.314,3.314,0,0,1,0-2.02,2.16,2.16,0,0,1,.445-.759,1.918,1.918,0,0,1,.684-.476,2.26,2.26,0,0,1,.876-.165,2.3,2.3,0,0,1,.885.165,1.878,1.878,0,0,1,.682.476,2.169,2.169,0,0,1,.439.759,3.346,3.346,0,0,1,0,2.02Z" transform="translate(-314.368 -538.119)"/><path class="c" d="M418.216,576.309a2.186,2.186,0,0,0,.011.22l-3.481-4.65a.18.18,0,0,0-.065-.059.214.214,0,0,0-.084-.013h-.19v5.367h.338v-4.518c0-.068,0-.14-.011-.216l3.5,4.658a.163.163,0,0,0,.141.076h.186v-5.367h-.342Z" transform="translate(-339.399 -538.357)"/><path class="c" d="M447.615,571.818a.14.14,0,0,0-.061.061l-2.113,3.729a.953.953,0,0,0-.055.112q-.025.059-.048.12a1.538,1.538,0,0,0-.1-.228l-2.17-3.732a.135.135,0,0,0-.063-.061.266.266,0,0,0-.085-.011h-.266v5.367h.338V572.6a2.089,2.089,0,0,0-.011-.212l2.174,3.755a.171.171,0,0,0,.152.1h.061a.166.166,0,0,0,.152-.1l2.117-3.751a2,2,0,0,0-.011.209v4.574h.342v-5.367h-.27A.248.248,0,0,0,447.615,571.818Z" transform="translate(-361.901 -538.357)"/><path class="c" d="M476.621,577.174h3.222v-.322h-2.831v-2.238h2.356V574.3h-2.356v-2.17h2.831v-.322h-3.222Z" transform="translate(-388.957 -538.357)"/><path class="c" d="M502.51,576.309a2.161,2.161,0,0,0,.012.22l-3.481-4.65a.182.182,0,0,0-.065-.059.214.214,0,0,0-.084-.013h-.19v5.367h.338v-4.518c0-.068,0-.14-.011-.216l3.5,4.658a.164.164,0,0,0,.141.076h.186v-5.367h-.342Z" transform="translate(-406.547 -538.357)"/><path class="c" d="M527.858,571.807h-4.176v.33h1.9v5.037h.388v-5.037h1.889Z" transform="translate(-426.446 -538.357)"/><path class="c" d="M545.2,571.807l-2.2,5.367h.3a.141.141,0,0,0,.091-.03.16.16,0,0,0,.053-.072l.631-1.559h2.641l.635,1.559a.187.187,0,0,0,.053.074.134.134,0,0,0,.087.028h.3l-2.2-5.367Zm-1.011,3.417,1.1-2.708c.018-.045.035-.1.053-.15s.035-.112.053-.173q.026.091.053.173c.018.054.035.1.053.146l1.1,2.712Z" transform="translate(-441.833 -538.357)"/><path class="c" d="M571.108,571.807h-.388v5.367h2.938v-.33h-2.55Z" transform="translate(-463.916 -538.357)"/><path class="c" d="M597.045,577.174h3.222v-.322h-2.831v-2.238h2.356V574.3h-2.356v-2.17h2.831v-.322h-3.222Z" transform="translate(-484.886 -538.357)"/><path class="c" d="M621.942,576.215a2.388,2.388,0,0,0,.371-.541,2.88,2.88,0,0,0,.234-.66,3.439,3.439,0,0,0,.081-.764,3.243,3.243,0,0,0-.186-1.125,2.529,2.529,0,0,0-.524-.867,2.3,2.3,0,0,0-.81-.556,2.7,2.7,0,0,0-1.045-.2,2.661,2.661,0,0,0-1.037.2,2.342,2.342,0,0,0-.81.556,2.518,2.518,0,0,0-.526.865,3.469,3.469,0,0,0,0,2.253,2.521,2.521,0,0,0,.526.865,2.321,2.321,0,0,0,.81.554,2.683,2.683,0,0,0,1.037.2,2.873,2.873,0,0,0,.562-.053,2.728,2.728,0,0,0,.505-.152l1.147,1.236a.249.249,0,0,0,.107.074.426.426,0,0,0,.137.021h.327l-1.4-1.494A2.342,2.342,0,0,0,621.942,576.215Zm-.994.277a2.324,2.324,0,0,1-.885.163,2.286,2.286,0,0,1-.876-.163,1.906,1.906,0,0,1-.684-.474,2.168,2.168,0,0,1-.445-.757,3.313,3.313,0,0,1,0-2.02,2.164,2.164,0,0,1,.445-.759,1.92,1.92,0,0,1,.684-.476,2.26,2.26,0,0,1,.876-.165,2.3,2.3,0,0,1,.885.165,1.883,1.883,0,0,1,.682.476,2.165,2.165,0,0,1,.439.759,3.343,3.343,0,0,1,0,2.02,2.169,2.169,0,0,1-.439.757A1.87,1.87,0,0,1,620.949,576.492Z" transform="translate(-501.182 -538.119)"/><path class="c" d="M652.368,575.126a2.129,2.129,0,0,1-.113.7,1.64,1.64,0,0,1-.325.563,1.492,1.492,0,0,1-.519.374,1.705,1.705,0,0,1-.694.135,1.687,1.687,0,0,1-.694-.136,1.485,1.485,0,0,1-.516-.376,1.661,1.661,0,0,1-.323-.563,2.117,2.117,0,0,1-.113-.7v-3.315h-.391v3.319a2.4,2.4,0,0,0,.141.829,1.978,1.978,0,0,0,.4.672,1.872,1.872,0,0,0,.642.45,2.295,2.295,0,0,0,1.7,0,1.875,1.875,0,0,0,.642-.45,1.977,1.977,0,0,0,.4-.672,2.393,2.393,0,0,0,.141-.829v-3.319h-.387Z" transform="translate(-526.02 -538.357)"/><path class="c" d="M0,0H.392V5.367H0Z" transform="translate(128.427 33.45)"/><path class="c" d="M690.876,572.22a2.137,2.137,0,0,0-1.427-.413h-1.388v5.367h.388v-2.162h1a2.489,2.489,0,0,0,.8-.119,1.771,1.771,0,0,0,.6-.334,1.445,1.445,0,0,0,.378-.51,1.582,1.582,0,0,0,.131-.649A1.472,1.472,0,0,0,690.876,572.22Zm-.011,1.7a1.188,1.188,0,0,1-.3.411,1.4,1.4,0,0,1-.477.273,1.922,1.922,0,0,1-.638.1h-1v-2.587h1a1.687,1.687,0,0,1,1.138.334,1.2,1.2,0,0,1,.382.952A1.271,1.271,0,0,1,690.865,573.918Z" transform="translate(-557.389 -538.357)"/><path class="c" d="M714.637,571.818a.14.14,0,0,0-.061.061l-2.113,3.729a1.077,1.077,0,0,0-.055.112c-.016.039-.032.079-.047.12a1.594,1.594,0,0,0-.1-.228l-2.17-3.732a.137.137,0,0,0-.063-.061.265.265,0,0,0-.085-.011h-.266v5.367h.339V572.6a2.074,2.074,0,0,0-.012-.212l2.174,3.755a.171.171,0,0,0,.152.1h.061a.166.166,0,0,0,.152-.1l2.117-3.751a2.056,2.056,0,0,0-.012.209v4.574h.342v-5.367h-.27A.249.249,0,0,0,714.637,571.818Z" transform="translate(-574.608 -538.357)"/><path class="c" d="M743.643,577.174h3.223v-.322h-2.831v-2.238h2.356V574.3h-2.356v-2.17h2.831v-.322h-3.223Z" transform="translate(-601.664 -538.357)"/><path class="c" d="M769.533,576.309c0,.071,0,.144.012.22l-3.481-4.65a.185.185,0,0,0-.065-.059.213.213,0,0,0-.083-.013h-.19v5.367h.339v-4.518c0-.068,0-.14-.012-.216l3.5,4.658a.163.163,0,0,0,.141.076h.186v-5.367h-.342Z" transform="translate(-619.255 -538.357)"/><path class="c" d="M790.7,572.137h1.9v5.037h.387v-5.037h1.889v-.33H790.7Z" transform="translate(-639.152 -538.357)"/><path class="c" d="M825.279,574.7a2.155,2.155,0,0,0,.635-.161,1.64,1.64,0,0,0,.481-.315,1.318,1.318,0,0,0,.306-.446,1.438,1.438,0,0,0,.106-.561,1.254,1.254,0,0,0-.46-1.053,2.245,2.245,0,0,0-1.391-.358h-1.372v5.367h.388v-2.428h.7a.581.581,0,0,1,.23.034.38.38,0,0,1,.139.118l1.721,2.177a.269.269,0,0,0,.085.076.223.223,0,0,0,.1.023h.339l-1.851-2.321A.607.607,0,0,0,825.279,574.7Zm-.372-.243h-.935v-2.344h.984a1.828,1.828,0,0,1,1.094.277.986.986,0,0,1,.376.849,1.2,1.2,0,0,1-.1.5,1.061,1.061,0,0,1-.3.383,1.379,1.379,0,0,1-.479.245A2.206,2.206,0,0,1,824.907,574.458Z" transform="translate(-665.345 -538.357)"/><path class="c" d="M846.6,577.174h3.223v-.322h-2.831v-2.238h2.356V574.3h-2.356v-2.17h2.831v-.322H846.6Z" transform="translate(-683.679 -538.357)"/><path class="c" d="M872.49,576.309c0,.071,0,.144.012.22l-3.481-4.65a.184.184,0,0,0-.065-.059.213.213,0,0,0-.083-.013h-.19v5.367h.339v-4.518c0-.068,0-.14-.012-.216l3.5,4.658a.163.163,0,0,0,.141.076h.186v-5.367h-.342Z" transform="translate(-701.269 -538.357)"/><path class="c" d="M897.836,571.807H893.66v.33h1.9v5.037h.387v-5.037h1.889Z" transform="translate(-721.167 -538.357)"/><path class="c" d="M915.179,571.807l-2.2,5.367h.3a.141.141,0,0,0,.091-.03.161.161,0,0,0,.053-.072l.631-1.559h2.641l.635,1.559a.185.185,0,0,0,.053.074.134.134,0,0,0,.087.028h.3l-2.2-5.367Zm-1.011,3.417,1.1-2.708c.018-.045.035-.1.053-.15s.035-.112.053-.173c.017.061.035.118.053.173s.035.1.053.146l1.1,2.712Z" transform="translate(-736.556 -538.357)"/><path class="c" d="M941.089,576.844v-5.037H940.7v5.367h2.938v-.33Z" transform="translate(-758.639 -538.357)"/></svg>