<svg xmlns="http://www.w3.org/2000/svg" width="20.363" height="16" viewBox="0 0 20.363 16"><defs><style>.a{fill:#ff7607;}</style></defs><path class="a" d="M20.363,5.159v9.023A1.823,1.823,0,0,1,18.545,16H1.818a1.751,1.751,0,0,1-1.284-.534A1.751,1.751,0,0,1,0,14.181V5.159a6.042,6.042,0,0,0,1.148.989q4.113,2.8,5.647,3.921.648.477,1.051.744a6.49,6.49,0,0,0,1.074.545,3.275,3.275,0,0,0,1.25.278h.023a3.275,3.275,0,0,0,1.25-.278,6.49,6.49,0,0,0,1.074-.545q.4-.267,1.052-.745,1.932-1.4,5.659-3.921a6.255,6.255,0,0,0,1.136-.989Zm0-3.341a3,3,0,0,1-.557,1.716,5.4,5.4,0,0,1-1.386,1.4Q14.147,7.9,13.1,8.625q-.114.08-.483.347t-.614.432q-.244.165-.591.369a3.419,3.419,0,0,1-.653.307,1.824,1.824,0,0,1-.568.1H10.17a1.8,1.8,0,0,1-.568-.1,3.466,3.466,0,0,1-.653-.307q-.347-.2-.591-.369t-.614-.432l-.483-.347Q6.227,7.9,4.284,6.551T1.954,4.932A5.636,5.636,0,0,1,.625,3.62,2.658,2.658,0,0,1,0,2.068,2.294,2.294,0,0,1,.472.591,1.621,1.621,0,0,1,1.818,0H18.545a1.756,1.756,0,0,1,1.278.534,1.742,1.742,0,0,1,.54,1.284Z"/></svg>