<svg xmlns="http://www.w3.org/2000/svg" width="64" height="64" viewBox="0 0 64 64"><defs><style>.a{fill:#ff7607;}</style></defs><g transform="translate(-73.106 -69.8)"><path class="a" d="M93.747,100.913a2.864,2.864,0,1,0,2.917,2.867A2.95,2.95,0,0,0,93.747,100.913Zm-.016,3.9a1.051,1.051,0,0,1-1.113-.987,1.069,1.069,0,0,1,1.073-1.1,1.106,1.106,0,0,1,1.091,1.033A1.062,1.062,0,0,1,93.731,104.818ZM88.446,86.409c-.662-1.661-1.32-3.325-1.994-4.981a.962.962,0,0,0-1.314-.67c-.511.21-.669.688-.421,1.332.379.977.769,1.948,1.158,2.921.3.749.6,1.5.917,2.242a.881.881,0,0,0,1.106.522.871.871,0,0,0,.68-.954C88.551,86.738,88.51,86.57,88.446,86.409Zm0,0c-.662-1.661-1.32-3.325-1.994-4.981a.962.962,0,0,0-1.314-.67c-.511.21-.669.688-.421,1.332.379.977.769,1.948,1.158,2.921.3.749.6,1.5.917,2.242a.881.881,0,0,0,1.106.522.871.871,0,0,0,.68-.954C88.551,86.738,88.51,86.57,88.446,86.409Zm0,0c-.662-1.661-1.32-3.325-1.994-4.981a.962.962,0,0,0-1.314-.67c-.511.21-.669.688-.421,1.332.379.977.769,1.948,1.158,2.921.3.749.6,1.5.917,2.242a.881.881,0,0,0,1.106.522.871.871,0,0,0,.68-.954C88.551,86.738,88.51,86.57,88.446,86.409Zm0,0c-.662-1.661-1.32-3.325-1.994-4.981a.962.962,0,0,0-1.314-.67c-.511.21-.669.688-.421,1.332.379.977.769,1.948,1.158,2.921.3.749.6,1.5.917,2.242a.881.881,0,0,0,1.106.522.871.871,0,0,0,.68-.954C88.551,86.738,88.51,86.57,88.446,86.409Zm0,0c-.662-1.661-1.32-3.325-1.994-4.981a.962.962,0,0,0-1.314-.67c-.511.21-.669.688-.421,1.332.379.977.769,1.948,1.158,2.921.3.749.6,1.5.917,2.242a.881.881,0,0,0,1.106.522.871.871,0,0,0,.68-.954C88.551,86.738,88.51,86.57,88.446,86.409Zm0,0c-.662-1.661-1.32-3.325-1.994-4.981a.962.962,0,0,0-1.314-.67c-.511.21-.669.688-.421,1.332.379.977.769,1.948,1.158,2.921.3.749.6,1.5.917,2.242a.881.881,0,0,0,1.106.522.871.871,0,0,0,.68-.954C88.551,86.738,88.51,86.57,88.446,86.409Zm-.812-9.426c-5.886.021-10.288,4.349-10.271,9.948.018,5.849,4.751,9.848,10.308,9.938A10.173,10.173,0,0,0,97.951,86.9,10.019,10.019,0,0,0,87.634,76.983Zm6.834,14.705c-.161.217-.263.263-.515.077a.85.85,0,0,0-1.166.1.78.78,0,0,0-.121,1.124c.183.238.169.345-.063.5a9.038,9.038,0,0,1-3.656,1.461c-.25.044-.355-.009-.39-.28a.921.921,0,0,0-1.8-.054c-.06.3-.158.382-.488.32A9.048,9.048,0,0,1,82.8,93.552c-.236-.158-.386-.245-.156-.592a.886.886,0,0,0-.81-1.369c-.036.005-.15-.009-.208.04-.656.546-.852-.023-1.113-.422A8.086,8.086,0,0,1,79.355,88.3c-.051-.259-.112-.49.334-.53a.786.786,0,0,0,.714-.83.811.811,0,0,0-.731-.886c-.354-.054-.382-.221-.328-.494a8.438,8.438,0,0,1,1.481-3.4c.16-.214.265-.287.522-.095a.866.866,0,0,0,1.171-.091.786.786,0,0,0,.114-1.127c-.232-.3-.1-.383.132-.543a8.893,8.893,0,0,1,3.466-1.4c.266-.051.468-.061.524.294a.917.917,0,0,0,1.795-.007c.042-.319.2-.341.448-.3a8.865,8.865,0,0,1,3.589,1.447c.239.165.236.289.073.522a.789.789,0,0,0,.138,1.124.86.86,0,0,0,1.171.074c.285-.219.377-.06.511.123a8.315,8.315,0,0,1,1.5,3.467c.045.238,0,.354-.274.394A.883.883,0,0,0,95.75,87.8c.279.026.263.173.228.361A8.346,8.346,0,0,1,94.468,91.688Zm-8.016-10.26a.962.962,0,0,0-1.314-.67c-.511.21-.669.688-.421,1.332.379.977.769,1.948,1.158,2.921.3.749.6,1.5.917,2.242a.881.881,0,0,0,1.106.522.871.871,0,0,0,.68-.954c-.027-.082-.069-.25-.132-.411C87.785,84.748,87.127,83.084,86.452,81.428Zm1.994,4.981c-.662-1.661-1.32-3.325-1.994-4.981a.962.962,0,0,0-1.314-.67c-.511.21-.669.688-.421,1.332.379.977.769,1.948,1.158,2.921.3.749.6,1.5.917,2.242a.881.881,0,0,0,1.106.522.871.871,0,0,0,.68-.954C88.551,86.738,88.51,86.57,88.446,86.409Zm0,0c-.662-1.661-1.32-3.325-1.994-4.981a.962.962,0,0,0-1.314-.67c-.511.21-.669.688-.421,1.332.379.977.769,1.948,1.158,2.921.3.749.6,1.5.917,2.242a.881.881,0,0,0,1.106.522.871.871,0,0,0,.68-.954C88.551,86.738,88.51,86.57,88.446,86.409Zm0,0c-.662-1.661-1.32-3.325-1.994-4.981a.962.962,0,0,0-1.314-.67c-.511.21-.669.688-.421,1.332.379.977.769,1.948,1.158,2.921.3.749.6,1.5.917,2.242a.881.881,0,0,0,1.106.522.871.871,0,0,0,.68-.954C88.551,86.738,88.51,86.57,88.446,86.409Zm0,0c-.662-1.661-1.32-3.325-1.994-4.981a.962.962,0,0,0-1.314-.67c-.511.21-.669.688-.421,1.332.379.977.769,1.948,1.158,2.921.3.749.6,1.5.917,2.242a.881.881,0,0,0,1.106.522.871.871,0,0,0,.68-.954C88.551,86.738,88.51,86.57,88.446,86.409Zm16.681,14.5a2.864,2.864,0,1,0,2.946,2.905A2.954,2.954,0,0,0,105.128,100.913Zm1.057,2.965a1.073,1.073,0,0,1-1.167.936,1.052,1.052,0,0,1-1-1.1,1.085,1.085,0,0,1,2.163.166Zm10.357-2.965a2.864,2.864,0,1,0,2.937,2.909A2.955,2.955,0,0,0,116.541,100.913Zm-.071,3.9a1.059,1.059,0,0,1-1.046-1.061,1.1,1.1,0,0,1,1.095-1.027,1.074,1.074,0,0,1,1.07,1.043A1.044,1.044,0,0,1,116.47,104.816Zm12.508,3.786H81.168c-1.166,0-1.414.245-1.414,1.39q0,5.828,0,11.654c0,1.076.279,1.341,1.409,1.341q23.94,0,47.88,0c1.151,0,1.414-.261,1.414-1.4V110C130.456,108.831,130.213,108.6,128.979,108.6Zm-1.033,12.582q-11.423-.024-22.845-.011-11.391,0-22.778.014c-.56,0-.705-.121-.7-.67.031-3.163.024-6.325.005-9.488,0-.448.054-.628.6-.627q22.879.026,45.759,0c.471,0,.6.105.595.567q-.035,4.81,0,9.619C128.591,121.1,128.429,121.185,127.945,121.184Zm3.138-42.556c0-.109,0-.219,0-.327-.02-2.177-1.332-3.436-3.6-3.436q-11.456-.005-22.912,0c-2.262,0-3.56,1.264-3.562,3.458q0,8.6,0,17.208a3.164,3.164,0,0,0,3.52,3.416q5.759.005,11.522,0c3.8,0,7.594-.061,11.388.023a3.386,3.386,0,0,0,3.66-3.532C131.047,89.836,131.083,84.232,131.083,78.628Zm-1.874,17.08c-.015.961-.558,1.437-1.612,1.444-1.853.014-3.707.005-5.56.005H116q-5.626,0-11.254,0c-1.441,0-1.867-.406-1.867-1.78,0-2.837.011-5.672-.013-8.508-.005-.5.114-.679.663-.651,1.028.056,1.474.446,1.485,1.456.011,1.178-.025,2.357.013,3.534a3.035,3.035,0,0,0,2.678,2.991,3.112,3.112,0,0,0,3.426-2.161,3.9,3.9,0,0,0,.109-1.167c0-2.289,0-4.58.005-6.871a4,4,0,0,1,.058-.779,1.645,1.645,0,0,1,1.753-1.318,1.607,1.607,0,0,1,1.548,1.537c.033,1.328-.013,2.66.025,3.99a3.151,3.151,0,0,0,2.939,3.065,3.248,3.248,0,0,0,3.359-2.217,10.389,10.389,0,0,0,.158-2.147,1.351,1.351,0,0,1,1.247-1.253,1.426,1.426,0,0,1,1.554.9,1.924,1.924,0,0,1,.087.578c.013.413-.007.828.009,1.243a3.044,3.044,0,0,0,3.055,2.975c.564.025,1.129.021,1.695.005.323-.007.493.049.489.424C129.205,92.566,129.234,94.138,129.209,95.708Zm-.557-6.925c-.495-.031-1,.011-1.49-.016a1.229,1.229,0,0,1-1.3-1.3,8.288,8.288,0,0,0-.121-2.018,3.355,3.355,0,0,0-3.539-2.361,3.267,3.267,0,0,0-3,3.1c-.013.371.011.742-.013,1.113a1.3,1.3,0,0,1-1.385,1.306,1.283,1.283,0,0,1-1.285-1.334c-.022-1.265.007-2.531-.013-3.8a3.475,3.475,0,0,0-3.212-3.388,3.578,3.578,0,0,0-3.783,2.545,4.492,4.492,0,0,0-.116,1.234q0,3.4,0,6.808c0,.175.007.35-.005.523a1.241,1.241,0,1,1-2.482-.024c-.025-1.243-.013-2.487-.009-3.731a2.864,2.864,0,0,0-.8-2.027,3.223,3.223,0,0,0-2.618-1c-.459.019-.618-.084-.611-.562.031-1.855.009-3.71.014-5.566.005-1.155.491-1.624,1.693-1.624q11.461,0,22.923,0c1.211,0,1.713.5,1.717,1.684,0,1.615,0,3.229,0,4.845,0,1.68-.016,3.36.013,5.041C129.236,88.686,129.088,88.81,128.652,88.782Zm2.431-10.155c0-.109,0-.219,0-.327-.02-2.177-1.332-3.436-3.6-3.436q-11.456-.005-22.912,0c-2.262,0-3.56,1.264-3.562,3.458q0,8.6,0,17.208a3.164,3.164,0,0,0,3.52,3.416q5.759.005,11.522,0c3.8,0,7.594-.061,11.388.023a3.386,3.386,0,0,0,3.66-3.532C131.047,89.836,131.083,84.232,131.083,78.628Zm-1.874,17.08c-.015.961-.558,1.437-1.612,1.444-1.853.014-3.707.005-5.56.005H116q-5.626,0-11.254,0c-1.441,0-1.867-.406-1.867-1.78,0-2.837.011-5.672-.013-8.508-.005-.5.114-.679.663-.651,1.028.056,1.474.446,1.485,1.456.011,1.178-.025,2.357.013,3.534a3.035,3.035,0,0,0,2.678,2.991,3.112,3.112,0,0,0,3.426-2.161,3.9,3.9,0,0,0,.109-1.167c0-2.289,0-4.58.005-6.871a4,4,0,0,1,.058-.779,1.645,1.645,0,0,1,1.753-1.318,1.607,1.607,0,0,1,1.548,1.537c.033,1.328-.013,2.66.025,3.99a3.151,3.151,0,0,0,2.939,3.065,3.248,3.248,0,0,0,3.359-2.217,10.389,10.389,0,0,0,.158-2.147,1.351,1.351,0,0,1,1.247-1.253,1.426,1.426,0,0,1,1.554.9,1.924,1.924,0,0,1,.087.578c.013.413-.007.828.009,1.243a3.044,3.044,0,0,0,3.055,2.975c.564.025,1.129.021,1.695.005.323-.007.493.049.489.424C129.205,92.566,129.234,94.138,129.209,95.708Zm-.557-6.925c-.495-.031-1,.011-1.49-.016a1.229,1.229,0,0,1-1.3-1.3,8.288,8.288,0,0,0-.121-2.018,3.355,3.355,0,0,0-3.539-2.361,3.267,3.267,0,0,0-3,3.1c-.013.371.011.742-.013,1.113a1.3,1.3,0,0,1-1.385,1.306,1.283,1.283,0,0,1-1.285-1.334c-.022-1.265.007-2.531-.013-3.8a3.475,3.475,0,0,0-3.212-3.388,3.578,3.578,0,0,0-3.783,2.545,4.492,4.492,0,0,0-.116,1.234q0,3.4,0,6.808c0,.175.007.35-.005.523a1.241,1.241,0,1,1-2.482-.024c-.025-1.243-.013-2.487-.009-3.731a2.864,2.864,0,0,0-.8-2.027,3.223,3.223,0,0,0-2.618-1c-.459.019-.618-.084-.611-.562.031-1.855.009-3.71.014-5.566.005-1.155.491-1.624,1.693-1.624q11.461,0,22.923,0c1.211,0,1.713.5,1.717,1.684,0,1.615,0,3.229,0,4.845,0,1.68-.016,3.36.013,5.041C129.236,88.686,129.088,88.81,128.652,88.782Zm.326,19.819H81.168c-1.166,0-1.414.245-1.414,1.39q0,5.828,0,11.654c0,1.076.279,1.341,1.409,1.341q23.94,0,47.88,0c1.151,0,1.414-.261,1.414-1.4V110C130.456,108.831,130.213,108.6,128.979,108.6Zm-1.033,12.582q-11.423-.024-22.845-.011-11.391,0-22.778.014c-.56,0-.705-.121-.7-.67.031-3.163.024-6.325.005-9.488,0-.448.054-.628.6-.627q22.879.026,45.759,0c.471,0,.6.105.595.567q-.035,4.81,0,9.619C128.591,121.1,128.429,121.185,127.945,121.184Zm-11.4-20.271a2.864,2.864,0,1,0,2.937,2.909A2.955,2.955,0,0,0,116.541,100.913Zm-.071,3.9a1.059,1.059,0,0,1-1.046-1.061,1.1,1.1,0,0,1,1.095-1.027,1.074,1.074,0,0,1,1.07,1.043A1.044,1.044,0,0,1,116.47,104.816Zm-11.343-3.9a2.864,2.864,0,1,0,2.946,2.905A2.954,2.954,0,0,0,105.128,100.913Zm1.057,2.965a1.073,1.073,0,0,1-1.167.936,1.052,1.052,0,0,1-1-1.1,1.085,1.085,0,0,1,2.163.166ZM88.446,86.409c-.662-1.661-1.32-3.325-1.994-4.981a.962.962,0,0,0-1.314-.67c-.511.21-.669.688-.421,1.332.379.977.769,1.948,1.158,2.921.3.749.6,1.5.917,2.242a.881.881,0,0,0,1.106.522.871.871,0,0,0,.68-.954C88.551,86.738,88.51,86.57,88.446,86.409Zm0,0c-.662-1.661-1.32-3.325-1.994-4.981a.962.962,0,0,0-1.314-.67c-.511.21-.669.688-.421,1.332.379.977.769,1.948,1.158,2.921.3.749.6,1.5.917,2.242a.881.881,0,0,0,1.106.522.871.871,0,0,0,.68-.954C88.551,86.738,88.51,86.57,88.446,86.409Zm0,0c-.662-1.661-1.32-3.325-1.994-4.981a.962.962,0,0,0-1.314-.67c-.511.21-.669.688-.421,1.332.379.977.769,1.948,1.158,2.921.3.749.6,1.5.917,2.242a.881.881,0,0,0,1.106.522.871.871,0,0,0,.68-.954C88.551,86.738,88.51,86.57,88.446,86.409Zm0,0c-.662-1.661-1.32-3.325-1.994-4.981a.962.962,0,0,0-1.314-.67c-.511.21-.669.688-.421,1.332.379.977.769,1.948,1.158,2.921.3.749.6,1.5.917,2.242a.881.881,0,0,0,1.106.522.871.871,0,0,0,.68-.954C88.551,86.738,88.51,86.57,88.446,86.409Zm0,0c-.662-1.661-1.32-3.325-1.994-4.981a.962.962,0,0,0-1.314-.67c-.511.21-.669.688-.421,1.332.379.977.769,1.948,1.158,2.921.3.749.6,1.5.917,2.242a.881.881,0,0,0,1.106.522.871.871,0,0,0,.68-.954C88.551,86.738,88.51,86.57,88.446,86.409Zm0,0c-.662-1.661-1.32-3.325-1.994-4.981a.962.962,0,0,0-1.314-.67c-.511.21-.669.688-.421,1.332.379.977.769,1.948,1.158,2.921.3.749.6,1.5.917,2.242a.881.881,0,0,0,1.106.522.871.871,0,0,0,.68-.954C88.551,86.738,88.51,86.57,88.446,86.409Zm-.812-9.426c-5.886.021-10.288,4.349-10.271,9.948.018,5.849,4.751,9.848,10.308,9.938A10.173,10.173,0,0,0,97.951,86.9,10.019,10.019,0,0,0,87.634,76.983Zm6.834,14.705c-.161.217-.263.263-.515.077a.85.85,0,0,0-1.166.1.78.78,0,0,0-.121,1.124c.183.238.169.345-.063.5a9.038,9.038,0,0,1-3.656,1.461c-.25.044-.355-.009-.39-.28a.921.921,0,0,0-1.8-.054c-.06.3-.158.382-.488.32A9.048,9.048,0,0,1,82.8,93.552c-.236-.158-.386-.245-.156-.592a.886.886,0,0,0-.81-1.369c-.036.005-.15-.009-.208.04-.656.546-.852-.023-1.113-.422A8.086,8.086,0,0,1,79.355,88.3c-.051-.259-.112-.49.334-.53a.786.786,0,0,0,.714-.83.811.811,0,0,0-.731-.886c-.354-.054-.382-.221-.328-.494a8.438,8.438,0,0,1,1.481-3.4c.16-.214.265-.287.522-.095a.866.866,0,0,0,1.171-.091.786.786,0,0,0,.114-1.127c-.232-.3-.1-.383.132-.543a8.893,8.893,0,0,1,3.466-1.4c.266-.051.468-.061.524.294a.917.917,0,0,0,1.795-.007c.042-.319.2-.341.448-.3a8.865,8.865,0,0,1,3.589,1.447c.239.165.236.289.073.522a.789.789,0,0,0,.138,1.124.86.86,0,0,0,1.171.074c.285-.219.377-.06.511.123a8.315,8.315,0,0,1,1.5,3.467c.045.238,0,.354-.274.394A.883.883,0,0,0,95.75,87.8c.279.026.263.173.228.361A8.346,8.346,0,0,1,94.468,91.688Zm-8.016-10.26a.962.962,0,0,0-1.314-.67c-.511.21-.669.688-.421,1.332.379.977.769,1.948,1.158,2.921.3.749.6,1.5.917,2.242a.881.881,0,0,0,1.106.522.871.871,0,0,0,.68-.954c-.027-.082-.069-.25-.132-.411C87.785,84.748,87.127,83.084,86.452,81.428Zm1.994,4.981c-.662-1.661-1.32-3.325-1.994-4.981a.962.962,0,0,0-1.314-.67c-.511.21-.669.688-.421,1.332.379.977.769,1.948,1.158,2.921.3.749.6,1.5.917,2.242a.881.881,0,0,0,1.106.522.871.871,0,0,0,.68-.954C88.551,86.738,88.51,86.57,88.446,86.409Zm0,0c-.662-1.661-1.32-3.325-1.994-4.981a.962.962,0,0,0-1.314-.67c-.511.21-.669.688-.421,1.332.379.977.769,1.948,1.158,2.921.3.749.6,1.5.917,2.242a.881.881,0,0,0,1.106.522.871.871,0,0,0,.68-.954C88.551,86.738,88.51,86.57,88.446,86.409Zm0,0c-.662-1.661-1.32-3.325-1.994-4.981a.962.962,0,0,0-1.314-.67c-.511.21-.669.688-.421,1.332.379.977.769,1.948,1.158,2.921.3.749.6,1.5.917,2.242a.881.881,0,0,0,1.106.522.871.871,0,0,0,.68-.954C88.551,86.738,88.51,86.57,88.446,86.409Zm0,0c-.662-1.661-1.32-3.325-1.994-4.981a.962.962,0,0,0-1.314-.67c-.511.21-.669.688-.421,1.332.379.977.769,1.948,1.158,2.921.3.749.6,1.5.917,2.242a.881.881,0,0,0,1.106.522.871.871,0,0,0,.68-.954C88.551,86.738,88.51,86.57,88.446,86.409Zm5.3,14.5a2.864,2.864,0,1,0,2.917,2.867A2.95,2.95,0,0,0,93.747,100.913Zm-.016,3.9a1.051,1.051,0,0,1-1.113-.987,1.069,1.069,0,0,1,1.073-1.1,1.106,1.106,0,0,1,1.091,1.033A1.062,1.062,0,0,1,93.731,104.818ZM88.446,86.409c-.662-1.661-1.32-3.325-1.994-4.981a.962.962,0,0,0-1.314-.67c-.511.21-.669.688-.421,1.332.379.977.769,1.948,1.158,2.921.3.749.6,1.5.917,2.242a.881.881,0,0,0,1.106.522.871.871,0,0,0,.68-.954C88.551,86.738,88.51,86.57,88.446,86.409Zm5.3,14.5a2.864,2.864,0,1,0,2.917,2.867A2.95,2.95,0,0,0,93.747,100.913Zm-.016,3.9a1.051,1.051,0,0,1-1.113-.987,1.069,1.069,0,0,1,1.073-1.1,1.106,1.106,0,0,1,1.091,1.033A1.062,1.062,0,0,1,93.731,104.818ZM88.446,86.409c-.662-1.661-1.32-3.325-1.994-4.981a.962.962,0,0,0-1.314-.67c-.511.21-.669.688-.421,1.332.379.977.769,1.948,1.158,2.921.3.749.6,1.5.917,2.242a.881.881,0,0,0,1.106.522.871.871,0,0,0,.68-.954C88.551,86.738,88.51,86.57,88.446,86.409Zm0,0c-.662-1.661-1.32-3.325-1.994-4.981a.962.962,0,0,0-1.314-.67c-.511.21-.669.688-.421,1.332.379.977.769,1.948,1.158,2.921.3.749.6,1.5.917,2.242a.881.881,0,0,0,1.106.522.871.871,0,0,0,.68-.954C88.551,86.738,88.51,86.57,88.446,86.409Zm0,0c-.662-1.661-1.32-3.325-1.994-4.981a.962.962,0,0,0-1.314-.67c-.511.21-.669.688-.421,1.332.379.977.769,1.948,1.158,2.921.3.749.6,1.5.917,2.242a.881.881,0,0,0,1.106.522.871.871,0,0,0,.68-.954C88.551,86.738,88.51,86.57,88.446,86.409Zm0,0c-.662-1.661-1.32-3.325-1.994-4.981a.962.962,0,0,0-1.314-.67c-.511.21-.669.688-.421,1.332.379.977.769,1.948,1.158,2.921.3.749.6,1.5.917,2.242a.881.881,0,0,0,1.106.522.871.871,0,0,0,.68-.954C88.551,86.738,88.51,86.57,88.446,86.409Zm0,0c-.662-1.661-1.32-3.325-1.994-4.981a.962.962,0,0,0-1.314-.67c-.511.21-.669.688-.421,1.332.379.977.769,1.948,1.158,2.921.3.749.6,1.5.917,2.242a.881.881,0,0,0,1.106.522.871.871,0,0,0,.68-.954C88.551,86.738,88.51,86.57,88.446,86.409Zm-.812-9.426c-5.886.021-10.288,4.349-10.271,9.948.018,5.849,4.751,9.848,10.308,9.938A10.173,10.173,0,0,0,97.951,86.9,10.019,10.019,0,0,0,87.634,76.983Zm6.834,14.705c-.161.217-.263.263-.515.077a.85.85,0,0,0-1.166.1.78.78,0,0,0-.121,1.124c.183.238.169.345-.063.5a9.038,9.038,0,0,1-3.656,1.461c-.25.044-.355-.009-.39-.28a.921.921,0,0,0-1.8-.054c-.06.3-.158.382-.488.32A9.048,9.048,0,0,1,82.8,93.552c-.236-.158-.386-.245-.156-.592a.886.886,0,0,0-.81-1.369c-.036.005-.15-.009-.208.04-.656.546-.852-.023-1.113-.422A8.086,8.086,0,0,1,79.355,88.3c-.051-.259-.112-.49.334-.53a.786.786,0,0,0,.714-.83.811.811,0,0,0-.731-.886c-.354-.054-.382-.221-.328-.494a8.438,8.438,0,0,1,1.481-3.4c.16-.214.265-.287.522-.095a.866.866,0,0,0,1.171-.091.786.786,0,0,0,.114-1.127c-.232-.3-.1-.383.132-.543a8.893,8.893,0,0,1,3.466-1.4c.266-.051.468-.061.524.294a.917.917,0,0,0,1.795-.007c.042-.319.2-.341.448-.3a8.865,8.865,0,0,1,3.589,1.447c.239.165.236.289.073.522a.789.789,0,0,0,.138,1.124.86.86,0,0,0,1.171.074c.285-.219.377-.06.511.123a8.315,8.315,0,0,1,1.5,3.467c.045.238,0,.354-.274.394A.883.883,0,0,0,95.75,87.8c.279.026.263.173.228.361A8.346,8.346,0,0,1,94.468,91.688Zm-8.016-10.26a.962.962,0,0,0-1.314-.67c-.511.21-.669.688-.421,1.332.379.977.769,1.948,1.158,2.921.3.749.6,1.5.917,2.242a.881.881,0,0,0,1.106.522.871.871,0,0,0,.68-.954c-.027-.082-.069-.25-.132-.411C87.785,84.748,87.127,83.084,86.452,81.428Zm1.994,4.981c-.662-1.661-1.32-3.325-1.994-4.981a.962.962,0,0,0-1.314-.67c-.511.21-.669.688-.421,1.332.379.977.769,1.948,1.158,2.921.3.749.6,1.5.917,2.242a.881.881,0,0,0,1.106.522.871.871,0,0,0,.68-.954C88.551,86.738,88.51,86.57,88.446,86.409Zm0,0c-.662-1.661-1.32-3.325-1.994-4.981a.962.962,0,0,0-1.314-.67c-.511.21-.669.688-.421,1.332.379.977.769,1.948,1.158,2.921.3.749.6,1.5.917,2.242a.881.881,0,0,0,1.106.522.871.871,0,0,0,.68-.954C88.551,86.738,88.51,86.57,88.446,86.409Zm0,0c-.662-1.661-1.32-3.325-1.994-4.981a.962.962,0,0,0-1.314-.67c-.511.21-.669.688-.421,1.332.379.977.769,1.948,1.158,2.921.3.749.6,1.5.917,2.242a.881.881,0,0,0,1.106.522.871.871,0,0,0,.68-.954C88.551,86.738,88.51,86.57,88.446,86.409Zm0,0c-.662-1.661-1.32-3.325-1.994-4.981a.962.962,0,0,0-1.314-.67c-.511.21-.669.688-.421,1.332.379.977.769,1.948,1.158,2.921.3.749.6,1.5.917,2.242a.881.881,0,0,0,1.106.522.871.871,0,0,0,.68-.954C88.551,86.738,88.51,86.57,88.446,86.409Zm16.681,14.5a2.864,2.864,0,1,0,2.946,2.905A2.954,2.954,0,0,0,105.128,100.913Zm1.057,2.965a1.073,1.073,0,0,1-1.167.936,1.052,1.052,0,0,1-1-1.1,1.085,1.085,0,0,1,2.163.166Zm10.357-2.965a2.864,2.864,0,1,0,2.937,2.909A2.955,2.955,0,0,0,116.541,100.913Zm-.071,3.9a1.059,1.059,0,0,1-1.046-1.061,1.1,1.1,0,0,1,1.095-1.027,1.074,1.074,0,0,1,1.07,1.043A1.044,1.044,0,0,1,116.47,104.816Zm12.508,3.786H81.168c-1.166,0-1.414.245-1.414,1.39q0,5.828,0,11.654c0,1.076.279,1.341,1.409,1.341q23.94,0,47.88,0c1.151,0,1.414-.261,1.414-1.4V110C130.456,108.831,130.213,108.6,128.979,108.6Zm-1.033,12.582q-11.423-.024-22.845-.011-11.391,0-22.778.014c-.56,0-.705-.121-.7-.67.031-3.163.024-6.325.005-9.488,0-.448.054-.628.6-.627q22.879.026,45.759,0c.471,0,.6.105.595.567q-.035,4.81,0,9.619C128.591,121.1,128.429,121.185,127.945,121.184Zm3.138-42.556c0-.109,0-.219,0-.327-.02-2.177-1.332-3.436-3.6-3.436q-11.456-.005-22.912,0c-2.262,0-3.56,1.264-3.562,3.458q0,8.6,0,17.208a3.164,3.164,0,0,0,3.52,3.416q5.759.005,11.522,0c3.8,0,7.594-.061,11.388.023a3.386,3.386,0,0,0,3.66-3.532C131.047,89.836,131.083,84.232,131.083,78.628Zm-1.874,17.08c-.015.961-.558,1.437-1.612,1.444-1.853.014-3.707.005-5.56.005H116q-5.626,0-11.254,0c-1.441,0-1.867-.406-1.867-1.78,0-2.837.011-5.672-.013-8.508-.005-.5.114-.679.663-.651,1.028.056,1.474.446,1.485,1.456.011,1.178-.025,2.357.013,3.534a3.035,3.035,0,0,0,2.678,2.991,3.112,3.112,0,0,0,3.426-2.161,3.9,3.9,0,0,0,.109-1.167c0-2.289,0-4.58.005-6.871a4,4,0,0,1,.058-.779,1.645,1.645,0,0,1,1.753-1.318,1.607,1.607,0,0,1,1.548,1.537c.033,1.328-.013,2.66.025,3.99a3.151,3.151,0,0,0,2.939,3.065,3.248,3.248,0,0,0,3.359-2.217,10.389,10.389,0,0,0,.158-2.147,1.351,1.351,0,0,1,1.247-1.253,1.426,1.426,0,0,1,1.554.9,1.924,1.924,0,0,1,.087.578c.013.413-.007.828.009,1.243a3.044,3.044,0,0,0,3.055,2.975c.564.025,1.129.021,1.695.005.323-.007.493.049.489.424C129.205,92.566,129.234,94.138,129.209,95.708Zm-.557-6.925c-.495-.031-1,.011-1.49-.016a1.229,1.229,0,0,1-1.3-1.3,8.288,8.288,0,0,0-.121-2.018,3.355,3.355,0,0,0-3.539-2.361,3.267,3.267,0,0,0-3,3.1c-.013.371.011.742-.013,1.113a1.3,1.3,0,0,1-1.385,1.306,1.283,1.283,0,0,1-1.285-1.334c-.022-1.265.007-2.531-.013-3.8a3.475,3.475,0,0,0-3.212-3.388,3.578,3.578,0,0,0-3.783,2.545,4.492,4.492,0,0,0-.116,1.234q0,3.4,0,6.808c0,.175.007.35-.005.523a1.241,1.241,0,1,1-2.482-.024c-.025-1.243-.013-2.487-.009-3.731a2.864,2.864,0,0,0-.8-2.027,3.223,3.223,0,0,0-2.618-1c-.459.019-.618-.084-.611-.562.031-1.855.009-3.71.014-5.566.005-1.155.491-1.624,1.693-1.624q11.461,0,22.923,0c1.211,0,1.713.5,1.717,1.684,0,1.615,0,3.229,0,4.845,0,1.68-.016,3.36.013,5.041C129.236,88.686,129.088,88.81,128.652,88.782Zm2.431-10.155c0-.109,0-.219,0-.327-.02-2.177-1.332-3.436-3.6-3.436q-11.456-.005-22.912,0c-2.262,0-3.56,1.264-3.562,3.458q0,8.6,0,17.208a3.164,3.164,0,0,0,3.52,3.416q5.759.005,11.522,0c3.8,0,7.594-.061,11.388.023a3.386,3.386,0,0,0,3.66-3.532C131.047,89.836,131.083,84.232,131.083,78.628Zm-1.874,17.08c-.015.961-.558,1.437-1.612,1.444-1.853.014-3.707.005-5.56.005H116q-5.626,0-11.254,0c-1.441,0-1.867-.406-1.867-1.78,0-2.837.011-5.672-.013-8.508-.005-.5.114-.679.663-.651,1.028.056,1.474.446,1.485,1.456.011,1.178-.025,2.357.013,3.534a3.035,3.035,0,0,0,2.678,2.991,3.112,3.112,0,0,0,3.426-2.161,3.9,3.9,0,0,0,.109-1.167c0-2.289,0-4.58.005-6.871a4,4,0,0,1,.058-.779,1.645,1.645,0,0,1,1.753-1.318,1.607,1.607,0,0,1,1.548,1.537c.033,1.328-.013,2.66.025,3.99a3.151,3.151,0,0,0,2.939,3.065,3.248,3.248,0,0,0,3.359-2.217,10.389,10.389,0,0,0,.158-2.147,1.351,1.351,0,0,1,1.247-1.253,1.426,1.426,0,0,1,1.554.9,1.924,1.924,0,0,1,.087.578c.013.413-.007.828.009,1.243a3.044,3.044,0,0,0,3.055,2.975c.564.025,1.129.021,1.695.005.323-.007.493.049.489.424C129.205,92.566,129.234,94.138,129.209,95.708Zm-.557-6.925c-.495-.031-1,.011-1.49-.016a1.229,1.229,0,0,1-1.3-1.3,8.288,8.288,0,0,0-.121-2.018,3.355,3.355,0,0,0-3.539-2.361,3.267,3.267,0,0,0-3,3.1c-.013.371.011.742-.013,1.113a1.3,1.3,0,0,1-1.385,1.306,1.283,1.283,0,0,1-1.285-1.334c-.022-1.265.007-2.531-.013-3.8a3.475,3.475,0,0,0-3.212-3.388,3.578,3.578,0,0,0-3.783,2.545,4.492,4.492,0,0,0-.116,1.234q0,3.4,0,6.808c0,.175.007.35-.005.523a1.241,1.241,0,1,1-2.482-.024c-.025-1.243-.013-2.487-.009-3.731a2.864,2.864,0,0,0-.8-2.027,3.223,3.223,0,0,0-2.618-1c-.459.019-.618-.084-.611-.562.031-1.855.009-3.71.014-5.566.005-1.155.491-1.624,1.693-1.624q11.461,0,22.923,0c1.211,0,1.713.5,1.717,1.684,0,1.615,0,3.229,0,4.845,0,1.68-.016,3.36.013,5.041C129.236,88.686,129.088,88.81,128.652,88.782Zm.326,19.819H81.168c-1.166,0-1.414.245-1.414,1.39q0,5.828,0,11.654c0,1.076.279,1.341,1.409,1.341q23.94,0,47.88,0c1.151,0,1.414-.261,1.414-1.4V110C130.456,108.831,130.213,108.6,128.979,108.6Zm-1.033,12.582q-11.423-.024-22.845-.011-11.391,0-22.778.014c-.56,0-.705-.121-.7-.67.031-3.163.024-6.325.005-9.488,0-.448.054-.628.6-.627q22.879.026,45.759,0c.471,0,.6.105.595.567q-.035,4.81,0,9.619C128.591,121.1,128.429,121.185,127.945,121.184Zm-11.4-20.271a2.864,2.864,0,1,0,2.937,2.909A2.955,2.955,0,0,0,116.541,100.913Zm-.071,3.9a1.059,1.059,0,0,1-1.046-1.061,1.1,1.1,0,0,1,1.095-1.027,1.074,1.074,0,0,1,1.07,1.043A1.044,1.044,0,0,1,116.47,104.816Zm-11.343-3.9a2.864,2.864,0,1,0,2.946,2.905A2.954,2.954,0,0,0,105.128,100.913Zm1.057,2.965a1.073,1.073,0,0,1-1.167.936,1.052,1.052,0,0,1-1-1.1,1.085,1.085,0,0,1,2.163.166ZM88.446,86.409c-.662-1.661-1.32-3.325-1.994-4.981a.962.962,0,0,0-1.314-.67c-.511.21-.669.688-.421,1.332.379.977.769,1.948,1.158,2.921.3.749.6,1.5.917,2.242a.881.881,0,0,0,1.106.522.871.871,0,0,0,.68-.954C88.551,86.738,88.51,86.57,88.446,86.409Zm0,0c-.662-1.661-1.32-3.325-1.994-4.981a.962.962,0,0,0-1.314-.67c-.511.21-.669.688-.421,1.332.379.977.769,1.948,1.158,2.921.3.749.6,1.5.917,2.242a.881.881,0,0,0,1.106.522.871.871,0,0,0,.68-.954C88.551,86.738,88.51,86.57,88.446,86.409Zm0,0c-.662-1.661-1.32-3.325-1.994-4.981a.962.962,0,0,0-1.314-.67c-.511.21-.669.688-.421,1.332.379.977.769,1.948,1.158,2.921.3.749.6,1.5.917,2.242a.881.881,0,0,0,1.106.522.871.871,0,0,0,.68-.954C88.551,86.738,88.51,86.57,88.446,86.409Zm0,0c-.662-1.661-1.32-3.325-1.994-4.981a.962.962,0,0,0-1.314-.67c-.511.21-.669.688-.421,1.332.379.977.769,1.948,1.158,2.921.3.749.6,1.5.917,2.242a.881.881,0,0,0,1.106.522.871.871,0,0,0,.68-.954C88.551,86.738,88.51,86.57,88.446,86.409Zm-.812-9.426c-5.886.021-10.288,4.349-10.271,9.948.018,5.849,4.751,9.848,10.308,9.938A10.173,10.173,0,0,0,97.951,86.9,10.019,10.019,0,0,0,87.634,76.983Zm6.834,14.705c-.161.217-.263.263-.515.077a.85.85,0,0,0-1.166.1.78.78,0,0,0-.121,1.124c.183.238.169.345-.063.5a9.038,9.038,0,0,1-3.656,1.461c-.25.044-.355-.009-.39-.28a.921.921,0,0,0-1.8-.054c-.06.3-.158.382-.488.32A9.048,9.048,0,0,1,82.8,93.552c-.236-.158-.386-.245-.156-.592a.886.886,0,0,0-.81-1.369c-.036.005-.15-.009-.208.04-.656.546-.852-.023-1.113-.422A8.086,8.086,0,0,1,79.355,88.3c-.051-.259-.112-.49.334-.53a.786.786,0,0,0,.714-.83.811.811,0,0,0-.731-.886c-.354-.054-.382-.221-.328-.494a8.438,8.438,0,0,1,1.481-3.4c.16-.214.265-.287.522-.095a.866.866,0,0,0,1.171-.091.786.786,0,0,0,.114-1.127c-.232-.3-.1-.383.132-.543a8.893,8.893,0,0,1,3.466-1.4c.266-.051.468-.061.524.294a.917.917,0,0,0,1.795-.007c.042-.319.2-.341.448-.3a8.865,8.865,0,0,1,3.589,1.447c.239.165.236.289.073.522a.789.789,0,0,0,.138,1.124.86.86,0,0,0,1.171.074c.285-.219.377-.06.511.123a8.315,8.315,0,0,1,1.5,3.467c.045.238,0,.354-.274.394A.883.883,0,0,0,95.75,87.8c.279.026.263.173.228.361A8.346,8.346,0,0,1,94.468,91.688Zm-8.016-10.26a.962.962,0,0,0-1.314-.67c-.511.21-.669.688-.421,1.332.379.977.769,1.948,1.158,2.921.3.749.6,1.5.917,2.242a.881.881,0,0,0,1.106.522.871.871,0,0,0,.68-.954c-.027-.082-.069-.25-.132-.411C87.785,84.748,87.127,83.084,86.452,81.428Zm1.994,4.981c-.662-1.661-1.32-3.325-1.994-4.981a.962.962,0,0,0-1.314-.67c-.511.21-.669.688-.421,1.332.379.977.769,1.948,1.158,2.921.3.749.6,1.5.917,2.242a.881.881,0,0,0,1.106.522.871.871,0,0,0,.68-.954C88.551,86.738,88.51,86.57,88.446,86.409Zm0,0c-.662-1.661-1.32-3.325-1.994-4.981a.962.962,0,0,0-1.314-.67c-.511.21-.669.688-.421,1.332.379.977.769,1.948,1.158,2.921.3.749.6,1.5.917,2.242a.881.881,0,0,0,1.106.522.871.871,0,0,0,.68-.954C88.551,86.738,88.51,86.57,88.446,86.409Zm0,0c-.662-1.661-1.32-3.325-1.994-4.981a.962.962,0,0,0-1.314-.67c-.511.21-.669.688-.421,1.332.379.977.769,1.948,1.158,2.921.3.749.6,1.5.917,2.242a.881.881,0,0,0,1.106.522.871.871,0,0,0,.68-.954C88.551,86.738,88.51,86.57,88.446,86.409Zm5.3,14.5a2.864,2.864,0,1,0,2.917,2.867A2.95,2.95,0,0,0,93.747,100.913Zm-.016,3.9a1.051,1.051,0,0,1-1.113-.987,1.069,1.069,0,0,1,1.073-1.1,1.106,1.106,0,0,1,1.091,1.033A1.062,1.062,0,0,1,93.731,104.818ZM88.446,86.409c-.662-1.661-1.32-3.325-1.994-4.981a.962.962,0,0,0-1.314-.67c-.511.21-.669.688-.421,1.332.379.977.769,1.948,1.158,2.921.3.749.6,1.5.917,2.242a.881.881,0,0,0,1.106.522.871.871,0,0,0,.68-.954C88.551,86.738,88.51,86.57,88.446,86.409Zm0,0c-.662-1.661-1.32-3.325-1.994-4.981a.962.962,0,0,0-1.314-.67c-.511.21-.669.688-.421,1.332.379.977.769,1.948,1.158,2.921.3.749.6,1.5.917,2.242a.881.881,0,0,0,1.106.522.871.871,0,0,0,.68-.954C88.551,86.738,88.51,86.57,88.446,86.409Zm5.3,14.5a2.864,2.864,0,1,0,2.917,2.867A2.95,2.95,0,0,0,93.747,100.913Zm-.016,3.9a1.051,1.051,0,0,1-1.113-.987,1.069,1.069,0,0,1,1.073-1.1,1.106,1.106,0,0,1,1.091,1.033A1.062,1.062,0,0,1,93.731,104.818ZM88.446,86.409c-.662-1.661-1.32-3.325-1.994-4.981a.962.962,0,0,0-1.314-.67c-.511.21-.669.688-.421,1.332.379.977.769,1.948,1.158,2.921.3.749.6,1.5.917,2.242a.881.881,0,0,0,1.106.522.871.871,0,0,0,.68-.954C88.551,86.738,88.51,86.57,88.446,86.409Zm0,0c-.662-1.661-1.32-3.325-1.994-4.981a.962.962,0,0,0-1.314-.67c-.511.21-.669.688-.421,1.332.379.977.769,1.948,1.158,2.921.3.749.6,1.5.917,2.242a.881.881,0,0,0,1.106.522.871.871,0,0,0,.68-.954C88.551,86.738,88.51,86.57,88.446,86.409Zm0,0c-.662-1.661-1.32-3.325-1.994-4.981a.962.962,0,0,0-1.314-.67c-.511.21-.669.688-.421,1.332.379.977.769,1.948,1.158,2.921.3.749.6,1.5.917,2.242a.881.881,0,0,0,1.106.522.871.871,0,0,0,.68-.954C88.551,86.738,88.51,86.57,88.446,86.409Zm-.812-9.426c-5.886.021-10.288,4.349-10.271,9.948.018,5.849,4.751,9.848,10.308,9.938A10.173,10.173,0,0,0,97.951,86.9,10.019,10.019,0,0,0,87.634,76.983Zm6.834,14.705c-.161.217-.263.263-.515.077a.85.85,0,0,0-1.166.1.78.78,0,0,0-.121,1.124c.183.238.169.345-.063.5a9.038,9.038,0,0,1-3.656,1.461c-.25.044-.355-.009-.39-.28a.921.921,0,0,0-1.8-.054c-.06.3-.158.382-.488.32A9.048,9.048,0,0,1,82.8,93.552c-.236-.158-.386-.245-.156-.592a.886.886,0,0,0-.81-1.369c-.036.005-.15-.009-.208.04-.656.546-.852-.023-1.113-.422A8.086,8.086,0,0,1,79.355,88.3c-.051-.259-.112-.49.334-.53a.786.786,0,0,0,.714-.83.811.811,0,0,0-.731-.886c-.354-.054-.382-.221-.328-.494a8.438,8.438,0,0,1,1.481-3.4c.16-.214.265-.287.522-.095a.866.866,0,0,0,1.171-.091.786.786,0,0,0,.114-1.127c-.232-.3-.1-.383.132-.543a8.893,8.893,0,0,1,3.466-1.4c.266-.051.468-.061.524.294a.917.917,0,0,0,1.795-.007c.042-.319.2-.341.448-.3a8.865,8.865,0,0,1,3.589,1.447c.239.165.236.289.073.522a.789.789,0,0,0,.138,1.124.86.86,0,0,0,1.171.074c.285-.219.377-.06.511.123a8.315,8.315,0,0,1,1.5,3.467c.045.238,0,.354-.274.394A.883.883,0,0,0,95.75,87.8c.279.026.263.173.228.361A8.346,8.346,0,0,1,94.468,91.688Zm-8.016-10.26a.962.962,0,0,0-1.314-.67c-.511.21-.669.688-.421,1.332.379.977.769,1.948,1.158,2.921.3.749.6,1.5.917,2.242a.881.881,0,0,0,1.106.522.871.871,0,0,0,.68-.954c-.027-.082-.069-.25-.132-.411C87.785,84.748,87.127,83.084,86.452,81.428Zm1.994,4.981c-.662-1.661-1.32-3.325-1.994-4.981a.962.962,0,0,0-1.314-.67c-.511.21-.669.688-.421,1.332.379.977.769,1.948,1.158,2.921.3.749.6,1.5.917,2.242a.881.881,0,0,0,1.106.522.871.871,0,0,0,.68-.954C88.551,86.738,88.51,86.57,88.446,86.409Zm0,0c-.662-1.661-1.32-3.325-1.994-4.981a.962.962,0,0,0-1.314-.67c-.511.21-.669.688-.421,1.332.379.977.769,1.948,1.158,2.921.3.749.6,1.5.917,2.242a.881.881,0,0,0,1.106.522.871.871,0,0,0,.68-.954C88.551,86.738,88.51,86.57,88.446,86.409Zm16.681,14.5a2.864,2.864,0,1,0,2.946,2.905A2.954,2.954,0,0,0,105.128,100.913Zm1.057,2.965a1.073,1.073,0,0,1-1.167.936,1.052,1.052,0,0,1-1-1.1,1.085,1.085,0,0,1,2.163.166Zm10.357-2.965a2.864,2.864,0,1,0,2.937,2.909A2.955,2.955,0,0,0,116.541,100.913Zm-.071,3.9a1.059,1.059,0,0,1-1.046-1.061,1.1,1.1,0,0,1,1.095-1.027,1.074,1.074,0,0,1,1.07,1.043A1.044,1.044,0,0,1,116.47,104.816Zm12.508,3.786H81.168c-1.166,0-1.414.245-1.414,1.39q0,5.828,0,11.654c0,1.076.279,1.341,1.409,1.341q23.94,0,47.88,0c1.151,0,1.414-.261,1.414-1.4V110C130.456,108.831,130.213,108.6,128.979,108.6Zm-1.033,12.582q-11.423-.024-22.845-.011-11.391,0-22.778.014c-.56,0-.705-.121-.7-.67.031-3.163.024-6.325.005-9.488,0-.448.054-.628.6-.627q22.879.026,45.759,0c.471,0,.6.105.595.567q-.035,4.81,0,9.619C128.591,121.1,128.429,121.185,127.945,121.184Zm3.138-42.556c0-.109,0-.219,0-.327-.02-2.177-1.332-3.436-3.6-3.436q-11.456-.005-22.912,0c-2.262,0-3.56,1.264-3.562,3.458q0,8.6,0,17.208a3.164,3.164,0,0,0,3.52,3.416q5.759.005,11.522,0c3.8,0,7.594-.061,11.388.023a3.386,3.386,0,0,0,3.66-3.532C131.047,89.836,131.083,84.232,131.083,78.628Zm-1.874,17.08c-.015.961-.558,1.437-1.612,1.444-1.853.014-3.707.005-5.56.005H116q-5.626,0-11.254,0c-1.441,0-1.867-.406-1.867-1.78,0-2.837.011-5.672-.013-8.508-.005-.5.114-.679.663-.651,1.028.056,1.474.446,1.485,1.456.011,1.178-.025,2.357.013,3.534a3.035,3.035,0,0,0,2.678,2.991,3.112,3.112,0,0,0,3.426-2.161,3.9,3.9,0,0,0,.109-1.167c0-2.289,0-4.58.005-6.871a4,4,0,0,1,.058-.779,1.645,1.645,0,0,1,1.753-1.318,1.607,1.607,0,0,1,1.548,1.537c.033,1.328-.013,2.66.025,3.99a3.151,3.151,0,0,0,2.939,3.065,3.248,3.248,0,0,0,3.359-2.217,10.389,10.389,0,0,0,.158-2.147,1.351,1.351,0,0,1,1.247-1.253,1.426,1.426,0,0,1,1.554.9,1.924,1.924,0,0,1,.087.578c.013.413-.007.828.009,1.243a3.044,3.044,0,0,0,3.055,2.975c.564.025,1.129.021,1.695.005.323-.007.493.049.489.424C129.205,92.566,129.234,94.138,129.209,95.708Zm-.557-6.925c-.495-.031-1,.011-1.49-.016a1.229,1.229,0,0,1-1.3-1.3,8.288,8.288,0,0,0-.121-2.018,3.355,3.355,0,0,0-3.539-2.361,3.267,3.267,0,0,0-3,3.1c-.013.371.011.742-.013,1.113a1.3,1.3,0,0,1-1.385,1.306,1.283,1.283,0,0,1-1.285-1.334c-.022-1.265.007-2.531-.013-3.8a3.475,3.475,0,0,0-3.212-3.388,3.578,3.578,0,0,0-3.783,2.545,4.492,4.492,0,0,0-.116,1.234q0,3.4,0,6.808c0,.175.007.35-.005.523a1.241,1.241,0,1,1-2.482-.024c-.025-1.243-.013-2.487-.009-3.731a2.864,2.864,0,0,0-.8-2.027,3.223,3.223,0,0,0-2.618-1c-.459.019-.618-.084-.611-.562.031-1.855.009-3.71.014-5.566.005-1.155.491-1.624,1.693-1.624q11.461,0,22.923,0c1.211,0,1.713.5,1.717,1.684,0,1.615,0,3.229,0,4.845,0,1.68-.016,3.36.013,5.041C129.236,88.686,129.088,88.81,128.652,88.782Zm2.431-10.155c0-.109,0-.219,0-.327-.02-2.177-1.332-3.436-3.6-3.436q-11.456-.005-22.912,0c-2.262,0-3.56,1.264-3.562,3.458q0,8.6,0,17.208a3.164,3.164,0,0,0,3.52,3.416q5.759.005,11.522,0c3.8,0,7.594-.061,11.388.023a3.386,3.386,0,0,0,3.66-3.532C131.047,89.836,131.083,84.232,131.083,78.628Zm-1.874,17.08c-.015.961-.558,1.437-1.612,1.444-1.853.014-3.707.005-5.56.005H116q-5.626,0-11.254,0c-1.441,0-1.867-.406-1.867-1.78,0-2.837.011-5.672-.013-8.508-.005-.5.114-.679.663-.651,1.028.056,1.474.446,1.485,1.456.011,1.178-.025,2.357.013,3.534a3.035,3.035,0,0,0,2.678,2.991,3.112,3.112,0,0,0,3.426-2.161,3.9,3.9,0,0,0,.109-1.167c0-2.289,0-4.58.005-6.871a4,4,0,0,1,.058-.779,1.645,1.645,0,0,1,1.753-1.318,1.607,1.607,0,0,1,1.548,1.537c.033,1.328-.013,2.66.025,3.99a3.151,3.151,0,0,0,2.939,3.065,3.248,3.248,0,0,0,3.359-2.217,10.389,10.389,0,0,0,.158-2.147,1.351,1.351,0,0,1,1.247-1.253,1.426,1.426,0,0,1,1.554.9,1.924,1.924,0,0,1,.087.578c.013.413-.007.828.009,1.243a3.044,3.044,0,0,0,3.055,2.975c.564.025,1.129.021,1.695.005.323-.007.493.049.489.424C129.205,92.566,129.234,94.138,129.209,95.708Zm-.557-6.925c-.495-.031-1,.011-1.49-.016a1.229,1.229,0,0,1-1.3-1.3,8.288,8.288,0,0,0-.121-2.018,3.355,3.355,0,0,0-3.539-2.361,3.267,3.267,0,0,0-3,3.1c-.013.371.011.742-.013,1.113a1.3,1.3,0,0,1-1.385,1.306,1.283,1.283,0,0,1-1.285-1.334c-.022-1.265.007-2.531-.013-3.8a3.475,3.475,0,0,0-3.212-3.388,3.578,3.578,0,0,0-3.783,2.545,4.492,4.492,0,0,0-.116,1.234q0,3.4,0,6.808c0,.175.007.35-.005.523a1.241,1.241,0,1,1-2.482-.024c-.025-1.243-.013-2.487-.009-3.731a2.864,2.864,0,0,0-.8-2.027,3.223,3.223,0,0,0-2.618-1c-.459.019-.618-.084-.611-.562.031-1.855.009-3.71.014-5.566.005-1.155.491-1.624,1.693-1.624q11.461,0,22.923,0c1.211,0,1.713.5,1.717,1.684,0,1.615,0,3.229,0,4.845,0,1.68-.016,3.36.013,5.041C129.236,88.686,129.088,88.81,128.652,88.782Zm.326,19.819H81.168c-1.166,0-1.414.245-1.414,1.39q0,5.828,0,11.654c0,1.076.279,1.341,1.409,1.341q23.94,0,47.88,0c1.151,0,1.414-.261,1.414-1.4V110C130.456,108.831,130.213,108.6,128.979,108.6Zm-1.033,12.582q-11.423-.024-22.845-.011-11.391,0-22.778.014c-.56,0-.705-.121-.7-.67.031-3.163.024-6.325.005-9.488,0-.448.054-.628.6-.627q22.879.026,45.759,0c.471,0,.6.105.595.567q-.035,4.81,0,9.619C128.591,121.1,128.429,121.185,127.945,121.184Zm-11.4-20.271a2.864,2.864,0,1,0,2.937,2.909A2.955,2.955,0,0,0,116.541,100.913Zm-.071,3.9a1.059,1.059,0,0,1-1.046-1.061,1.1,1.1,0,0,1,1.095-1.027,1.074,1.074,0,0,1,1.07,1.043A1.044,1.044,0,0,1,116.47,104.816Zm-11.343-3.9a2.864,2.864,0,1,0,2.946,2.905A2.954,2.954,0,0,0,105.128,100.913Zm1.057,2.965a1.073,1.073,0,0,1-1.167.936,1.052,1.052,0,0,1-1-1.1,1.085,1.085,0,0,1,2.163.166ZM88.446,86.409c-.662-1.661-1.32-3.325-1.994-4.981a.962.962,0,0,0-1.314-.67c-.511.21-.669.688-.421,1.332.379.977.769,1.948,1.158,2.921.3.749.6,1.5.917,2.242a.881.881,0,0,0,1.106.522.871.871,0,0,0,.68-.954C88.551,86.738,88.51,86.57,88.446,86.409Zm0,0c-.662-1.661-1.32-3.325-1.994-4.981a.962.962,0,0,0-1.314-.67c-.511.21-.669.688-.421,1.332.379.977.769,1.948,1.158,2.921.3.749.6,1.5.917,2.242a.881.881,0,0,0,1.106.522.871.871,0,0,0,.68-.954C88.551,86.738,88.51,86.57,88.446,86.409Zm-.812-9.426c-5.886.021-10.288,4.349-10.271,9.948.018,5.849,4.751,9.848,10.308,9.938A10.173,10.173,0,0,0,97.951,86.9,10.019,10.019,0,0,0,87.634,76.983Zm6.834,14.705c-.161.217-.263.263-.515.077a.85.85,0,0,0-1.166.1.78.78,0,0,0-.121,1.124c.183.238.169.345-.063.5a9.038,9.038,0,0,1-3.656,1.461c-.25.044-.355-.009-.39-.28a.921.921,0,0,0-1.8-.054c-.06.3-.158.382-.488.32A9.048,9.048,0,0,1,82.8,93.552c-.236-.158-.386-.245-.156-.592a.886.886,0,0,0-.81-1.369c-.036.005-.15-.009-.208.04-.656.546-.852-.023-1.113-.422A8.086,8.086,0,0,1,79.355,88.3c-.051-.259-.112-.49.334-.53a.786.786,0,0,0,.714-.83.811.811,0,0,0-.731-.886c-.354-.054-.382-.221-.328-.494a8.438,8.438,0,0,1,1.481-3.4c.16-.214.265-.287.522-.095a.866.866,0,0,0,1.171-.091.786.786,0,0,0,.114-1.127c-.232-.3-.1-.383.132-.543a8.893,8.893,0,0,1,3.466-1.4c.266-.051.468-.061.524.294a.917.917,0,0,0,1.795-.007c.042-.319.2-.341.448-.3a8.865,8.865,0,0,1,3.589,1.447c.239.165.236.289.073.522a.789.789,0,0,0,.138,1.124.86.86,0,0,0,1.171.074c.285-.219.377-.06.511.123a8.315,8.315,0,0,1,1.5,3.467c.045.238,0,.354-.274.394A.883.883,0,0,0,95.75,87.8c.279.026.263.173.228.361A8.346,8.346,0,0,1,94.468,91.688Zm-8.016-10.26a.962.962,0,0,0-1.314-.67c-.511.21-.669.688-.421,1.332.379.977.769,1.948,1.158,2.921.3.749.6,1.5.917,2.242a.881.881,0,0,0,1.106.522.871.871,0,0,0,.68-.954c-.027-.082-.069-.25-.132-.411C87.785,84.748,87.127,83.084,86.452,81.428Zm1.994,4.981c-.662-1.661-1.32-3.325-1.994-4.981a.962.962,0,0,0-1.314-.67c-.511.21-.669.688-.421,1.332.379.977.769,1.948,1.158,2.921.3.749.6,1.5.917,2.242a.881.881,0,0,0,1.106.522.871.871,0,0,0,.68-.954C88.551,86.738,88.51,86.57,88.446,86.409Zm5.3,14.5a2.864,2.864,0,1,0,2.917,2.867A2.95,2.95,0,0,0,93.747,100.913Zm-.016,3.9a1.051,1.051,0,0,1-1.113-.987,1.069,1.069,0,0,1,1.073-1.1,1.106,1.106,0,0,1,1.091,1.033A1.062,1.062,0,0,1,93.731,104.818ZM88.446,86.409c-.662-1.661-1.32-3.325-1.994-4.981a.962.962,0,0,0-1.314-.67c-.511.21-.669.688-.421,1.332.379.977.769,1.948,1.158,2.921.3.749.6,1.5.917,2.242a.881.881,0,0,0,1.106.522.871.871,0,0,0,.68-.954C88.551,86.738,88.51,86.57,88.446,86.409Zm0,0c-.662-1.661-1.32-3.325-1.994-4.981a.962.962,0,0,0-1.314-.67c-.511.21-.669.688-.421,1.332.379.977.769,1.948,1.158,2.921.3.749.6,1.5.917,2.242a.881.881,0,0,0,1.106.522.871.871,0,0,0,.68-.954C88.551,86.738,88.51,86.57,88.446,86.409Zm5.3,14.5a2.864,2.864,0,1,0,2.917,2.867A2.95,2.95,0,0,0,93.747,100.913Zm-.016,3.9a1.051,1.051,0,0,1-1.113-.987,1.069,1.069,0,0,1,1.073-1.1,1.106,1.106,0,0,1,1.091,1.033A1.062,1.062,0,0,1,93.731,104.818ZM88.446,86.409c-.662-1.661-1.32-3.325-1.994-4.981a.962.962,0,0,0-1.314-.67c-.511.21-.669.688-.421,1.332.379.977.769,1.948,1.158,2.921.3.749.6,1.5.917,2.242a.881.881,0,0,0,1.106.522.871.871,0,0,0,.68-.954C88.551,86.738,88.51,86.57,88.446,86.409Zm-.812-9.426c-5.886.021-10.288,4.349-10.271,9.948.018,5.849,4.751,9.848,10.308,9.938A10.173,10.173,0,0,0,97.951,86.9,10.019,10.019,0,0,0,87.634,76.983Zm6.834,14.705c-.161.217-.263.263-.515.077a.85.85,0,0,0-1.166.1.78.78,0,0,0-.121,1.124c.183.238.169.345-.063.5a9.038,9.038,0,0,1-3.656,1.461c-.25.044-.355-.009-.39-.28a.921.921,0,0,0-1.8-.054c-.06.3-.158.382-.488.32A9.048,9.048,0,0,1,82.8,93.552c-.236-.158-.386-.245-.156-.592a.886.886,0,0,0-.81-1.369c-.036.005-.15-.009-.208.04-.656.546-.852-.023-1.113-.422A8.086,8.086,0,0,1,79.355,88.3c-.051-.259-.112-.49.334-.53a.786.786,0,0,0,.714-.83.811.811,0,0,0-.731-.886c-.354-.054-.382-.221-.328-.494a8.438,8.438,0,0,1,1.481-3.4c.16-.214.265-.287.522-.095a.866.866,0,0,0,1.171-.091.786.786,0,0,0,.114-1.127c-.232-.3-.1-.383.132-.543a8.893,8.893,0,0,1,3.466-1.4c.266-.051.468-.061.524.294a.917.917,0,0,0,1.795-.007c.042-.319.2-.341.448-.3a8.865,8.865,0,0,1,3.589,1.447c.239.165.236.289.073.522a.789.789,0,0,0,.138,1.124.86.86,0,0,0,1.171.074c.285-.219.377-.06.511.123a8.315,8.315,0,0,1,1.5,3.467c.045.238,0,.354-.274.394A.883.883,0,0,0,95.75,87.8c.279.026.263.173.228.361A8.346,8.346,0,0,1,94.468,91.688Zm-8.016-10.26a.962.962,0,0,0-1.314-.67c-.511.21-.669.688-.421,1.332.379.977.769,1.948,1.158,2.921.3.749.6,1.5.917,2.242a.881.881,0,0,0,1.106.522.871.871,0,0,0,.68-.954c-.027-.082-.069-.25-.132-.411C87.785,84.748,87.127,83.084,86.452,81.428Zm18.676,19.485a2.864,2.864,0,1,0,2.946,2.905A2.954,2.954,0,0,0,105.128,100.913Zm1.057,2.965a1.073,1.073,0,0,1-1.167.936,1.052,1.052,0,0,1-1-1.1,1.085,1.085,0,0,1,2.163.166Zm10.357-2.965a2.864,2.864,0,1,0,2.937,2.909A2.955,2.955,0,0,0,116.541,100.913Zm-.071,3.9a1.059,1.059,0,0,1-1.046-1.061,1.1,1.1,0,0,1,1.095-1.027,1.074,1.074,0,0,1,1.07,1.043A1.044,1.044,0,0,1,116.47,104.816Zm12.508,3.786H81.168c-1.166,0-1.414.245-1.414,1.39q0,5.828,0,11.654c0,1.076.279,1.341,1.409,1.341q23.94,0,47.88,0c1.151,0,1.414-.261,1.414-1.4V110C130.456,108.831,130.213,108.6,128.979,108.6Zm-1.033,12.582q-11.423-.024-22.845-.011-11.391,0-22.778.014c-.56,0-.705-.121-.7-.67.031-3.163.024-6.325.005-9.488,0-.448.054-.628.6-.627q22.879.026,45.759,0c.471,0,.6.105.595.567q-.035,4.81,0,9.619C128.591,121.1,128.429,121.185,127.945,121.184Zm3.138-42.556c0-.109,0-.219,0-.327-.02-2.177-1.332-3.436-3.6-3.436q-11.456-.005-22.912,0c-2.262,0-3.56,1.264-3.562,3.458q0,8.6,0,17.208a3.164,3.164,0,0,0,3.52,3.416q5.759.005,11.522,0c3.8,0,7.594-.061,11.388.023a3.386,3.386,0,0,0,3.66-3.532C131.047,89.836,131.083,84.232,131.083,78.628Zm-1.874,17.08c-.015.961-.558,1.437-1.612,1.444-1.853.014-3.707.005-5.56.005H116q-5.626,0-11.254,0c-1.441,0-1.867-.406-1.867-1.78,0-2.837.011-5.672-.013-8.508-.005-.5.114-.679.663-.651,1.028.056,1.474.446,1.485,1.456.011,1.178-.025,2.357.013,3.534a3.035,3.035,0,0,0,2.678,2.991,3.112,3.112,0,0,0,3.426-2.161,3.9,3.9,0,0,0,.109-1.167c0-2.289,0-4.58.005-6.871a4,4,0,0,1,.058-.779,1.645,1.645,0,0,1,1.753-1.318,1.607,1.607,0,0,1,1.548,1.537c.033,1.328-.013,2.66.025,3.99a3.151,3.151,0,0,0,2.939,3.065,3.248,3.248,0,0,0,3.359-2.217,10.389,10.389,0,0,0,.158-2.147,1.351,1.351,0,0,1,1.247-1.253,1.426,1.426,0,0,1,1.554.9,1.924,1.924,0,0,1,.087.578c.013.413-.007.828.009,1.243a3.044,3.044,0,0,0,3.055,2.975c.564.025,1.129.021,1.695.005.323-.007.493.049.489.424C129.205,92.566,129.234,94.138,129.209,95.708Zm-.557-6.925c-.495-.031-1,.011-1.49-.016a1.229,1.229,0,0,1-1.3-1.3,8.288,8.288,0,0,0-.121-2.018,3.355,3.355,0,0,0-3.539-2.361,3.267,3.267,0,0,0-3,3.1c-.013.371.011.742-.013,1.113a1.3,1.3,0,0,1-1.385,1.306,1.283,1.283,0,0,1-1.285-1.334c-.022-1.265.007-2.531-.013-3.8a3.475,3.475,0,0,0-3.212-3.388,3.578,3.578,0,0,0-3.783,2.545,4.492,4.492,0,0,0-.116,1.234q0,3.4,0,6.808c0,.175.007.35-.005.523a1.241,1.241,0,1,1-2.482-.024c-.025-1.243-.013-2.487-.009-3.731a2.864,2.864,0,0,0-.8-2.027,3.223,3.223,0,0,0-2.618-1c-.459.019-.618-.084-.611-.562.031-1.855.009-3.71.014-5.566.005-1.155.491-1.624,1.693-1.624q11.461,0,22.923,0c1.211,0,1.713.5,1.717,1.684,0,1.615,0,3.229,0,4.845,0,1.68-.016,3.36.013,5.041C129.236,88.686,129.088,88.81,128.652,88.782ZM104.531,98.948q5.759.005,11.522,0c3.8,0,7.594-.061,11.388.023a3.386,3.386,0,0,0,3.66-3.532c-.054-5.6-.018-11.208-.018-16.812,0-.109,0-.219,0-.327-.02-2.177-1.332-3.436-3.6-3.436q-11.456-.005-22.912,0c-2.262,0-3.56,1.264-3.562,3.458q0,8.6,0,17.208A3.164,3.164,0,0,0,104.531,98.948Zm24.678-3.24c-.015.961-.558,1.437-1.612,1.444-1.853.014-3.707.005-5.56.005H116q-5.626,0-11.254,0c-1.441,0-1.867-.406-1.867-1.78,0-2.837.011-5.672-.013-8.508-.005-.5.114-.679.663-.651,1.028.056,1.474.446,1.485,1.456.011,1.178-.025,2.357.013,3.534a3.035,3.035,0,0,0,2.678,2.991,3.112,3.112,0,0,0,3.426-2.161,3.9,3.9,0,0,0,.109-1.167c0-2.289,0-4.58.005-6.871a4,4,0,0,1,.058-.779,1.645,1.645,0,0,1,1.753-1.318,1.607,1.607,0,0,1,1.548,1.537c.033,1.328-.013,2.66.025,3.99a3.151,3.151,0,0,0,2.939,3.065,3.248,3.248,0,0,0,3.359-2.217,10.389,10.389,0,0,0,.158-2.147,1.351,1.351,0,0,1,1.247-1.253,1.426,1.426,0,0,1,1.554.9,1.924,1.924,0,0,1,.087.578c.013.413-.007.828.009,1.243a3.044,3.044,0,0,0,3.055,2.975c.564.025,1.129.021,1.695.005.323-.007.493.049.489.424C129.205,92.566,129.234,94.138,129.209,95.708ZM102.883,78.3c.005-1.155.491-1.624,1.693-1.624q11.461,0,22.923,0c1.211,0,1.713.5,1.717,1.684,0,1.615,0,3.229,0,4.845,0,1.68-.016,3.36.013,5.041.007.446-.141.571-.576.543-.495-.031-1,.011-1.49-.016a1.229,1.229,0,0,1-1.3-1.3,8.288,8.288,0,0,0-.121-2.018,3.355,3.355,0,0,0-3.539-2.361,3.267,3.267,0,0,0-3,3.1c-.013.371.011.742-.013,1.113a1.3,1.3,0,0,1-1.385,1.306,1.283,1.283,0,0,1-1.285-1.334c-.022-1.265.007-2.531-.013-3.8a3.475,3.475,0,0,0-3.212-3.388,3.578,3.578,0,0,0-3.783,2.545,4.492,4.492,0,0,0-.116,1.234q0,3.4,0,6.808c0,.175.007.35-.005.523a1.241,1.241,0,1,1-2.482-.024c-.025-1.243-.013-2.487-.009-3.731a2.864,2.864,0,0,0-.8-2.027,3.223,3.223,0,0,0-2.618-1c-.459.019-.618-.084-.611-.562C102.9,82.006,102.878,80.151,102.883,78.3Zm26.1,30.306H81.168c-1.166,0-1.414.245-1.414,1.39q0,5.828,0,11.654c0,1.076.279,1.341,1.409,1.341q23.94,0,47.88,0c1.151,0,1.414-.261,1.414-1.4V110C130.456,108.831,130.213,108.6,128.979,108.6Zm-1.033,12.582q-11.423-.024-22.845-.011-11.391,0-22.778.014c-.56,0-.705-.121-.7-.67.031-3.163.024-6.325.005-9.488,0-.448.054-.628.6-.627q22.879.026,45.759,0c.471,0,.6.105.595.567q-.035,4.81,0,9.619C128.591,121.1,128.429,121.185,127.945,121.184Zm-14.4-17.416a2.968,2.968,0,1,0,3-2.855A2.945,2.945,0,0,0,113.545,103.768Zm4.044,0a1.044,1.044,0,0,1-1.118,1.045,1.059,1.059,0,0,1-1.046-1.061,1.1,1.1,0,0,1,1.095-1.027A1.074,1.074,0,0,1,117.589,103.771Zm-15.452,0a2.97,2.97,0,1,0,2.991-2.86A2.941,2.941,0,0,0,102.137,103.773Zm4.048.105a1.073,1.073,0,0,1-1.167.936,1.052,1.052,0,0,1-1-1.1,1.085,1.085,0,0,1,2.163.166ZM87.67,96.868A10.173,10.173,0,0,0,97.951,86.9a10.019,10.019,0,0,0-10.317-9.917c-5.886.021-10.288,4.349-10.271,9.948C77.381,92.78,82.114,96.779,87.67,96.868Zm-7.982-9.1a.786.786,0,0,0,.714-.83.811.811,0,0,0-.731-.886c-.354-.054-.382-.221-.328-.494a8.438,8.438,0,0,1,1.481-3.4c.16-.214.265-.287.522-.095a.866.866,0,0,0,1.171-.091.786.786,0,0,0,.114-1.127c-.232-.3-.1-.383.132-.543a8.893,8.893,0,0,1,3.466-1.4c.266-.051.468-.061.524.294a.917.917,0,0,0,1.795-.007c.042-.319.2-.341.448-.3a8.865,8.865,0,0,1,3.589,1.447c.239.165.236.289.073.522a.789.789,0,0,0,.138,1.124.86.86,0,0,0,1.171.074c.285-.219.377-.06.511.123a8.315,8.315,0,0,1,1.5,3.467c.045.238,0,.354-.274.394A.883.883,0,0,0,95.75,87.8c.279.026.263.173.228.361a8.346,8.346,0,0,1-1.51,3.53c-.161.217-.263.263-.515.077a.85.85,0,0,0-1.166.1.78.78,0,0,0-.121,1.124c.183.238.169.345-.063.5a9.038,9.038,0,0,1-3.656,1.461c-.25.044-.355-.009-.39-.28a.921.921,0,0,0-1.8-.054c-.06.3-.158.382-.488.32A9.048,9.048,0,0,1,82.8,93.552c-.236-.158-.386-.245-.156-.592a.886.886,0,0,0-.81-1.369c-.036.005-.15-.009-.208.04-.656.546-.852-.023-1.113-.422A8.086,8.086,0,0,1,79.355,88.3C79.3,88.042,79.243,87.811,79.689,87.771Zm11.044,15.974a2.968,2.968,0,1,0,3.015-2.832A2.929,2.929,0,0,0,90.732,103.745Zm4.05.016a1.062,1.062,0,0,1-1.051,1.057,1.051,1.051,0,0,1-1.113-.987,1.069,1.069,0,0,1,1.073-1.1A1.106,1.106,0,0,1,94.782,103.761Zm-8.906-18.75c.3.749.6,1.5.917,2.242a.881.881,0,0,0,1.106.522.871.871,0,0,0,.68-.954c-.027-.082-.069-.25-.132-.411-.662-1.661-1.32-3.325-1.994-4.981a.962.962,0,0,0-1.314-.67c-.511.21-.669.688-.421,1.332C85.1,83.066,85.486,84.038,85.876,85.011ZM136.9,72.357c-.56-1.656-1.971-2.555-4.039-2.555q-13.868,0-27.74,0-13.8,0-27.605,0a6.1,6.1,0,0,0-1.483.1,3.763,3.763,0,0,0-2.926,3.9q0,25.667,0,51.333c0,.152,0,.3.007.459a3.763,3.763,0,0,0,3.125,3.478,7.586,7.586,0,0,0,1.824.065c.457-.018.638.077.6.558a19.925,19.925,0,0,0-.005,2.028,2.072,2.072,0,0,0,2.047,2.041q3.016.058,6.035,0a2.075,2.075,0,0,0,2.079-2.077,15.4,15.4,0,0,0-.011-1.9c-.056-.578.172-.669.711-.655,1.537.037,3.075.012,4.612.012q12.786,0,25.57-.016c.642,0,.794.18.747.751a16.264,16.264,0,0,0-.005,1.832,2.07,2.07,0,0,0,2.041,2.046q3.524.058,7.052,0a2.065,2.065,0,0,0,2.007-1.943c.027-.413.009-.83.009-1.244,0-1.421,0-1.421,1.445-1.425a3.8,3.8,0,0,0,4.1-3.919q.005-25.764,0-51.529A4.162,4.162,0,0,0,136.9,72.357ZM86.947,131.515c.009.338-.136.476-.475.476q-2.741-.005-5.484,0c-.355,0-.459-.177-.451-.5.016-.632.024-1.264,0-1.9-.015-.334.074-.452.442-.441.925.026,1.851.009,2.775.009s1.851.012,2.777-.007c.319-.007.431.077.419.4C86.924,130.208,86.929,130.862,86.947,131.515Zm42.73-1.85c-.033.586-.024,1.176,0,1.764.015.373-.094.567-.522.565q-3.146-.016-6.292,0c-.408,0-.557-.154-.54-.548.025-.63.025-1.264,0-1.894-.015-.324.105-.4.421-.394,1.082.018,2.166.007,3.249.007,1.059,0,2.121.023,3.18-.01C129.606,129.138,129.7,129.278,129.677,129.665ZM135.218,125c0,1.654-.707,2.335-2.424,2.335H77.455c-1.773,0-2.464-.662-2.464-2.361V73.913c0-1.614.714-2.308,2.389-2.308q27.739,0,55.474,0c1.63,0,2.364.707,2.364,2.268Zm-4.135-46.375c0-.109,0-.219,0-.327-.02-2.177-1.332-3.436-3.6-3.436q-11.456-.005-22.912,0c-2.262,0-3.56,1.264-3.562,3.458q0,8.6,0,17.208a3.164,3.164,0,0,0,3.52,3.416q5.759.005,11.522,0c3.8,0,7.594-.061,11.388.023a3.386,3.386,0,0,0,3.66-3.532C131.047,89.836,131.083,84.232,131.083,78.628Zm-1.874,17.08c-.015.961-.558,1.437-1.612,1.444-1.853.014-3.707.005-5.56.005H116q-5.626,0-11.254,0c-1.441,0-1.867-.406-1.867-1.78,0-2.837.011-5.672-.013-8.508-.005-.5.114-.679.663-.651,1.028.056,1.474.446,1.485,1.456.011,1.178-.025,2.357.013,3.534a3.035,3.035,0,0,0,2.678,2.991,3.112,3.112,0,0,0,3.426-2.161,3.9,3.9,0,0,0,.109-1.167c0-2.289,0-4.58.005-6.871a4,4,0,0,1,.058-.779,1.645,1.645,0,0,1,1.753-1.318,1.607,1.607,0,0,1,1.548,1.537c.033,1.328-.013,2.66.025,3.99a3.151,3.151,0,0,0,2.939,3.065,3.248,3.248,0,0,0,3.359-2.217,10.389,10.389,0,0,0,.158-2.147,1.351,1.351,0,0,1,1.247-1.253,1.426,1.426,0,0,1,1.554.9,1.924,1.924,0,0,1,.087.578c.013.413-.007.828.009,1.243a3.044,3.044,0,0,0,3.055,2.975c.564.025,1.129.021,1.695.005.323-.007.493.049.489.424C129.205,92.566,129.234,94.138,129.209,95.708Zm-.557-6.925c-.495-.031-1,.011-1.49-.016a1.229,1.229,0,0,1-1.3-1.3,8.288,8.288,0,0,0-.121-2.018,3.355,3.355,0,0,0-3.539-2.361,3.267,3.267,0,0,0-3,3.1c-.013.371.011.742-.013,1.113a1.3,1.3,0,0,1-1.385,1.306,1.283,1.283,0,0,1-1.285-1.334c-.022-1.265.007-2.531-.013-3.8a3.475,3.475,0,0,0-3.212-3.388,3.578,3.578,0,0,0-3.783,2.545,4.492,4.492,0,0,0-.116,1.234q0,3.4,0,6.808c0,.175.007.35-.005.523a1.241,1.241,0,1,1-2.482-.024c-.025-1.243-.013-2.487-.009-3.731a2.864,2.864,0,0,0-.8-2.027,3.223,3.223,0,0,0-2.618-1c-.459.019-.618-.084-.611-.562.031-1.855.009-3.71.014-5.566.005-1.155.491-1.624,1.693-1.624q11.461,0,22.923,0c1.211,0,1.713.5,1.717,1.684,0,1.615,0,3.229,0,4.845,0,1.68-.016,3.36.013,5.041C129.236,88.686,129.088,88.81,128.652,88.782Zm.326,19.819H81.168c-1.166,0-1.414.245-1.414,1.39q0,5.828,0,11.654c0,1.076.279,1.341,1.409,1.341q23.94,0,47.88,0c1.151,0,1.414-.261,1.414-1.4V110C130.456,108.831,130.213,108.6,128.979,108.6Zm-1.033,12.582q-11.423-.024-22.845-.011-11.391,0-22.778.014c-.56,0-.705-.121-.7-.67.031-3.163.024-6.325.005-9.488,0-.448.054-.628.6-.627q22.879.026,45.759,0c.471,0,.6.105.595.567q-.035,4.81,0,9.619C128.591,121.1,128.429,121.185,127.945,121.184Zm-8.468-17.362a2.969,2.969,0,1,0-2.957,2.816A2.945,2.945,0,0,0,119.478,103.822Zm-4.053-.067a1.1,1.1,0,0,1,1.095-1.027,1.074,1.074,0,0,1,1.07,1.043,1.044,1.044,0,0,1-1.118,1.045A1.059,1.059,0,0,1,115.424,103.755Zm-7.351.063a2.971,2.971,0,1,0-2.958,2.82A2.954,2.954,0,0,0,108.074,103.818Zm-4.052-.107a1.085,1.085,0,0,1,2.163.166,1.073,1.073,0,0,1-1.167.936A1.052,1.052,0,0,1,104.022,103.712ZM87.67,96.868A10.173,10.173,0,0,0,97.951,86.9a10.019,10.019,0,0,0-10.317-9.917c-5.886.021-10.288,4.349-10.271,9.948C77.381,92.78,82.114,96.779,87.67,96.868Zm-7.982-9.1a.786.786,0,0,0,.714-.83.811.811,0,0,0-.731-.886c-.354-.054-.382-.221-.328-.494a8.438,8.438,0,0,1,1.481-3.4c.16-.214.265-.287.522-.095a.866.866,0,0,0,1.171-.091.786.786,0,0,0,.114-1.127c-.232-.3-.1-.383.132-.543a8.893,8.893,0,0,1,3.466-1.4c.266-.051.468-.061.524.294a.917.917,0,0,0,1.795-.007c.042-.319.2-.341.448-.3a8.865,8.865,0,0,1,3.589,1.447c.239.165.236.289.073.522a.789.789,0,0,0,.138,1.124.86.86,0,0,0,1.171.074c.285-.219.377-.06.511.123a8.315,8.315,0,0,1,1.5,3.467c.045.238,0,.354-.274.394A.883.883,0,0,0,95.75,87.8c.279.026.263.173.228.361a8.346,8.346,0,0,1-1.51,3.53c-.161.217-.263.263-.515.077a.85.85,0,0,0-1.166.1.78.78,0,0,0-.121,1.124c.183.238.169.345-.063.5a9.038,9.038,0,0,1-3.656,1.461c-.25.044-.355-.009-.39-.28a.921.921,0,0,0-1.8-.054c-.06.3-.158.382-.488.32A9.048,9.048,0,0,1,82.8,93.552c-.236-.158-.386-.245-.156-.592a.886.886,0,0,0-.81-1.369c-.036.005-.15-.009-.208.04-.656.546-.852-.023-1.113-.422A8.086,8.086,0,0,1,79.355,88.3C79.3,88.042,79.243,87.811,79.689,87.771Zm11.044,15.974a2.968,2.968,0,1,0,3.015-2.832A2.929,2.929,0,0,0,90.732,103.745Zm4.05.016a1.062,1.062,0,0,1-1.051,1.057,1.051,1.051,0,0,1-1.113-.987,1.069,1.069,0,0,1,1.073-1.1A1.106,1.106,0,0,1,94.782,103.761Zm-8.906-18.75c.3.749.6,1.5.917,2.242a.881.881,0,0,0,1.106.522.871.871,0,0,0,.68-.954c-.027-.082-.069-.25-.132-.411-.662-1.661-1.32-3.325-1.994-4.981a.962.962,0,0,0-1.314-.67c-.511.21-.669.688-.421,1.332C85.1,83.066,85.486,84.038,85.876,85.011Zm2.571,1.4c-.662-1.661-1.32-3.325-1.994-4.981a.962.962,0,0,0-1.314-.67c-.511.21-.669.688-.421,1.332.379.977.769,1.948,1.158,2.921.3.749.6,1.5.917,2.242a.881.881,0,0,0,1.106.522.871.871,0,0,0,.68-.954C88.551,86.738,88.51,86.57,88.446,86.409Zm5.3,14.5a2.864,2.864,0,1,0,2.917,2.867A2.95,2.95,0,0,0,93.747,100.913Zm-.016,3.9a1.051,1.051,0,0,1-1.113-.987,1.069,1.069,0,0,1,1.073-1.1,1.106,1.106,0,0,1,1.091,1.033A1.062,1.062,0,0,1,93.731,104.818ZM88.446,86.409c-.662-1.661-1.32-3.325-1.994-4.981a.962.962,0,0,0-1.314-.67c-.511.21-.669.688-.421,1.332.379.977.769,1.948,1.158,2.921.3.749.6,1.5.917,2.242a.881.881,0,0,0,1.106.522.871.871,0,0,0,.68-.954C88.551,86.738,88.51,86.57,88.446,86.409Zm-.812-9.426c-5.886.021-10.288,4.349-10.271,9.948.018,5.849,4.751,9.848,10.308,9.938A10.173,10.173,0,0,0,97.951,86.9,10.019,10.019,0,0,0,87.634,76.983Zm6.834,14.705c-.161.217-.263.263-.515.077a.85.85,0,0,0-1.166.1.78.78,0,0,0-.121,1.124c.183.238.169.345-.063.5a9.038,9.038,0,0,1-3.656,1.461c-.25.044-.355-.009-.39-.28a.921.921,0,0,0-1.8-.054c-.06.3-.158.382-.488.32A9.048,9.048,0,0,1,82.8,93.552c-.236-.158-.386-.245-.156-.592a.886.886,0,0,0-.81-1.369c-.036.005-.15-.009-.208.04-.656.546-.852-.023-1.113-.422A8.086,8.086,0,0,1,79.355,88.3c-.051-.259-.112-.49.334-.53a.786.786,0,0,0,.714-.83.811.811,0,0,0-.731-.886c-.354-.054-.382-.221-.328-.494a8.438,8.438,0,0,1,1.481-3.4c.16-.214.265-.287.522-.095a.866.866,0,0,0,1.171-.091.786.786,0,0,0,.114-1.127c-.232-.3-.1-.383.132-.543a8.893,8.893,0,0,1,3.466-1.4c.266-.051.468-.061.524.294a.917.917,0,0,0,1.795-.007c.042-.319.2-.341.448-.3a8.865,8.865,0,0,1,3.589,1.447c.239.165.236.289.073.522a.789.789,0,0,0,.138,1.124.86.86,0,0,0,1.171.074c.285-.219.377-.06.511.123a8.315,8.315,0,0,1,1.5,3.467c.045.238,0,.354-.274.394A.883.883,0,0,0,95.75,87.8c.279.026.263.173.228.361A8.346,8.346,0,0,1,94.468,91.688Zm-8.016-10.26a.962.962,0,0,0-1.314-.67c-.511.21-.669.688-.421,1.332.379.977.769,1.948,1.158,2.921.3.749.6,1.5.917,2.242a.881.881,0,0,0,1.106.522.871.871,0,0,0,.68-.954c-.027-.082-.069-.25-.132-.411C87.785,84.748,87.127,83.084,86.452,81.428Zm18.676,19.485a2.864,2.864,0,1,0,2.946,2.905A2.954,2.954,0,0,0,105.128,100.913Zm1.057,2.965a1.073,1.073,0,0,1-1.167.936,1.052,1.052,0,0,1-1-1.1,1.085,1.085,0,0,1,2.163.166Zm10.357-2.965a2.864,2.864,0,1,0,2.937,2.909A2.955,2.955,0,0,0,116.541,100.913Zm-.071,3.9a1.059,1.059,0,0,1-1.046-1.061,1.1,1.1,0,0,1,1.095-1.027,1.074,1.074,0,0,1,1.07,1.043A1.044,1.044,0,0,1,116.47,104.816Zm12.508,3.786H81.168c-1.166,0-1.414.245-1.414,1.39q0,5.828,0,11.654c0,1.076.279,1.341,1.409,1.341q23.94,0,47.88,0c1.151,0,1.414-.261,1.414-1.4V110C130.456,108.831,130.213,108.6,128.979,108.6Zm-1.033,12.582q-11.423-.024-22.845-.011-11.391,0-22.778.014c-.56,0-.705-.121-.7-.67.031-3.163.024-6.325.005-9.488,0-.448.054-.628.6-.627q22.879.026,45.759,0c.471,0,.6.105.595.567q-.035,4.81,0,9.619C128.591,121.1,128.429,121.185,127.945,121.184Zm3.138-42.556c0-.109,0-.219,0-.327-.02-2.177-1.332-3.436-3.6-3.436q-11.456-.005-22.912,0c-2.262,0-3.56,1.264-3.562,3.458q0,8.6,0,17.208a3.164,3.164,0,0,0,3.52,3.416q5.759.005,11.522,0c3.8,0,7.594-.061,11.388.023a3.386,3.386,0,0,0,3.66-3.532C131.047,89.836,131.083,84.232,131.083,78.628Zm-1.874,17.08c-.015.961-.558,1.437-1.612,1.444-1.853.014-3.707.005-5.56.005H116q-5.626,0-11.254,0c-1.441,0-1.867-.406-1.867-1.78,0-2.837.011-5.672-.013-8.508-.005-.5.114-.679.663-.651,1.028.056,1.474.446,1.485,1.456.011,1.178-.025,2.357.013,3.534a3.035,3.035,0,0,0,2.678,2.991,3.112,3.112,0,0,0,3.426-2.161,3.9,3.9,0,0,0,.109-1.167c0-2.289,0-4.58.005-6.871a4,4,0,0,1,.058-.779,1.645,1.645,0,0,1,1.753-1.318,1.607,1.607,0,0,1,1.548,1.537c.033,1.328-.013,2.66.025,3.99a3.151,3.151,0,0,0,2.939,3.065,3.248,3.248,0,0,0,3.359-2.217,10.389,10.389,0,0,0,.158-2.147,1.351,1.351,0,0,1,1.247-1.253,1.426,1.426,0,0,1,1.554.9,1.924,1.924,0,0,1,.087.578c.013.413-.007.828.009,1.243a3.044,3.044,0,0,0,3.055,2.975c.564.025,1.129.021,1.695.005.323-.007.493.049.489.424C129.205,92.566,129.234,94.138,129.209,95.708Zm-.557-6.925c-.495-.031-1,.011-1.49-.016a1.229,1.229,0,0,1-1.3-1.3,8.288,8.288,0,0,0-.121-2.018,3.355,3.355,0,0,0-3.539-2.361,3.267,3.267,0,0,0-3,3.1c-.013.371.011.742-.013,1.113a1.3,1.3,0,0,1-1.385,1.306,1.283,1.283,0,0,1-1.285-1.334c-.022-1.265.007-2.531-.013-3.8a3.475,3.475,0,0,0-3.212-3.388,3.578,3.578,0,0,0-3.783,2.545,4.492,4.492,0,0,0-.116,1.234q0,3.4,0,6.808c0,.175.007.35-.005.523a1.241,1.241,0,1,1-2.482-.024c-.025-1.243-.013-2.487-.009-3.731a2.864,2.864,0,0,0-.8-2.027,3.223,3.223,0,0,0-2.618-1c-.459.019-.618-.084-.611-.562.031-1.855.009-3.71.014-5.566.005-1.155.491-1.624,1.693-1.624q11.461,0,22.923,0c1.211,0,1.713.5,1.717,1.684,0,1.615,0,3.229,0,4.845,0,1.68-.016,3.36.013,5.041C129.236,88.686,129.088,88.81,128.652,88.782Zm2.431-10.155c0-.109,0-.219,0-.327-.02-2.177-1.332-3.436-3.6-3.436q-11.456-.005-22.912,0c-2.262,0-3.56,1.264-3.562,3.458q0,8.6,0,17.208a3.164,3.164,0,0,0,3.52,3.416q5.759.005,11.522,0c3.8,0,7.594-.061,11.388.023a3.386,3.386,0,0,0,3.66-3.532C131.047,89.836,131.083,84.232,131.083,78.628Zm-1.874,17.08c-.015.961-.558,1.437-1.612,1.444-1.853.014-3.707.005-5.56.005H116q-5.626,0-11.254,0c-1.441,0-1.867-.406-1.867-1.78,0-2.837.011-5.672-.013-8.508-.005-.5.114-.679.663-.651,1.028.056,1.474.446,1.485,1.456.011,1.178-.025,2.357.013,3.534a3.035,3.035,0,0,0,2.678,2.991,3.112,3.112,0,0,0,3.426-2.161,3.9,3.9,0,0,0,.109-1.167c0-2.289,0-4.58.005-6.871a4,4,0,0,1,.058-.779,1.645,1.645,0,0,1,1.753-1.318,1.607,1.607,0,0,1,1.548,1.537c.033,1.328-.013,2.66.025,3.99a3.151,3.151,0,0,0,2.939,3.065,3.248,3.248,0,0,0,3.359-2.217,10.389,10.389,0,0,0,.158-2.147,1.351,1.351,0,0,1,1.247-1.253,1.426,1.426,0,0,1,1.554.9,1.924,1.924,0,0,1,.087.578c.013.413-.007.828.009,1.243a3.044,3.044,0,0,0,3.055,2.975c.564.025,1.129.021,1.695.005.323-.007.493.049.489.424C129.205,92.566,129.234,94.138,129.209,95.708Zm-.557-6.925c-.495-.031-1,.011-1.49-.016a1.229,1.229,0,0,1-1.3-1.3,8.288,8.288,0,0,0-.121-2.018,3.355,3.355,0,0,0-3.539-2.361,3.267,3.267,0,0,0-3,3.1c-.013.371.011.742-.013,1.113a1.3,1.3,0,0,1-1.385,1.306,1.283,1.283,0,0,1-1.285-1.334c-.022-1.265.007-2.531-.013-3.8a3.475,3.475,0,0,0-3.212-3.388,3.578,3.578,0,0,0-3.783,2.545,4.492,4.492,0,0,0-.116,1.234q0,3.4,0,6.808c0,.175.007.35-.005.523a1.241,1.241,0,1,1-2.482-.024c-.025-1.243-.013-2.487-.009-3.731a2.864,2.864,0,0,0-.8-2.027,3.223,3.223,0,0,0-2.618-1c-.459.019-.618-.084-.611-.562.031-1.855.009-3.71.014-5.566.005-1.155.491-1.624,1.693-1.624q11.461,0,22.923,0c1.211,0,1.713.5,1.717,1.684,0,1.615,0,3.229,0,4.845,0,1.68-.016,3.36.013,5.041C129.236,88.686,129.088,88.81,128.652,88.782Zm.326,19.819H81.168c-1.166,0-1.414.245-1.414,1.39q0,5.828,0,11.654c0,1.076.279,1.341,1.409,1.341q23.94,0,47.88,0c1.151,0,1.414-.261,1.414-1.4V110C130.456,108.831,130.213,108.6,128.979,108.6Zm-1.033,12.582q-11.423-.024-22.845-.011-11.391,0-22.778.014c-.56,0-.705-.121-.7-.67.031-3.163.024-6.325.005-9.488,0-.448.054-.628.6-.627q22.879.026,45.759,0c.471,0,.6.105.595.567q-.035,4.81,0,9.619C128.591,121.1,128.429,121.185,127.945,121.184Zm-11.4-20.271a2.864,2.864,0,1,0,2.937,2.909A2.955,2.955,0,0,0,116.541,100.913Zm-.071,3.9a1.059,1.059,0,0,1-1.046-1.061,1.1,1.1,0,0,1,1.095-1.027,1.074,1.074,0,0,1,1.07,1.043A1.044,1.044,0,0,1,116.47,104.816Zm-11.343-3.9a2.864,2.864,0,1,0,2.946,2.905A2.954,2.954,0,0,0,105.128,100.913Zm1.057,2.965a1.073,1.073,0,0,1-1.167.936,1.052,1.052,0,0,1-1-1.1,1.085,1.085,0,0,1,2.163.166ZM88.446,86.409c-.662-1.661-1.32-3.325-1.994-4.981a.962.962,0,0,0-1.314-.67c-.511.21-.669.688-.421,1.332.379.977.769,1.948,1.158,2.921.3.749.6,1.5.917,2.242a.881.881,0,0,0,1.106.522.871.871,0,0,0,.68-.954C88.551,86.738,88.51,86.57,88.446,86.409Zm0,0c-.662-1.661-1.32-3.325-1.994-4.981a.962.962,0,0,0-1.314-.67c-.511.21-.669.688-.421,1.332.379.977.769,1.948,1.158,2.921.3.749.6,1.5.917,2.242a.881.881,0,0,0,1.106.522.871.871,0,0,0,.68-.954C88.551,86.738,88.51,86.57,88.446,86.409Zm-.812-9.426c-5.886.021-10.288,4.349-10.271,9.948.018,5.849,4.751,9.848,10.308,9.938A10.173,10.173,0,0,0,97.951,86.9,10.019,10.019,0,0,0,87.634,76.983Zm6.834,14.705c-.161.217-.263.263-.515.077a.85.85,0,0,0-1.166.1.78.78,0,0,0-.121,1.124c.183.238.169.345-.063.5a9.038,9.038,0,0,1-3.656,1.461c-.25.044-.355-.009-.39-.28a.921.921,0,0,0-1.8-.054c-.06.3-.158.382-.488.32A9.048,9.048,0,0,1,82.8,93.552c-.236-.158-.386-.245-.156-.592a.886.886,0,0,0-.81-1.369c-.036.005-.15-.009-.208.04-.656.546-.852-.023-1.113-.422A8.086,8.086,0,0,1,79.355,88.3c-.051-.259-.112-.49.334-.53a.786.786,0,0,0,.714-.83.811.811,0,0,0-.731-.886c-.354-.054-.382-.221-.328-.494a8.438,8.438,0,0,1,1.481-3.4c.16-.214.265-.287.522-.095a.866.866,0,0,0,1.171-.091.786.786,0,0,0,.114-1.127c-.232-.3-.1-.383.132-.543a8.893,8.893,0,0,1,3.466-1.4c.266-.051.468-.061.524.294a.917.917,0,0,0,1.795-.007c.042-.319.2-.341.448-.3a8.865,8.865,0,0,1,3.589,1.447c.239.165.236.289.073.522a.789.789,0,0,0,.138,1.124.86.86,0,0,0,1.171.074c.285-.219.377-.06.511.123a8.315,8.315,0,0,1,1.5,3.467c.045.238,0,.354-.274.394A.883.883,0,0,0,95.75,87.8c.279.026.263.173.228.361A8.346,8.346,0,0,1,94.468,91.688Zm-8.016-10.26a.962.962,0,0,0-1.314-.67c-.511.21-.669.688-.421,1.332.379.977.769,1.948,1.158,2.921.3.749.6,1.5.917,2.242a.881.881,0,0,0,1.106.522.871.871,0,0,0,.68-.954c-.027-.082-.069-.25-.132-.411C87.785,84.748,87.127,83.084,86.452,81.428Zm1.994,4.981c-.662-1.661-1.32-3.325-1.994-4.981a.962.962,0,0,0-1.314-.67c-.511.21-.669.688-.421,1.332.379.977.769,1.948,1.158,2.921.3.749.6,1.5.917,2.242a.881.881,0,0,0,1.106.522.871.871,0,0,0,.68-.954C88.551,86.738,88.51,86.57,88.446,86.409Zm5.3,14.5a2.864,2.864,0,1,0,2.917,2.867A2.95,2.95,0,0,0,93.747,100.913Zm-.016,3.9a1.051,1.051,0,0,1-1.113-.987,1.069,1.069,0,0,1,1.073-1.1,1.106,1.106,0,0,1,1.091,1.033A1.062,1.062,0,0,1,93.731,104.818ZM88.446,86.409c-.662-1.661-1.32-3.325-1.994-4.981a.962.962,0,0,0-1.314-.67c-.511.21-.669.688-.421,1.332.379.977.769,1.948,1.158,2.921.3.749.6,1.5.917,2.242a.881.881,0,0,0,1.106.522.871.871,0,0,0,.68-.954C88.551,86.738,88.51,86.57,88.446,86.409Zm0,0c-.662-1.661-1.32-3.325-1.994-4.981a.962.962,0,0,0-1.314-.67c-.511.21-.669.688-.421,1.332.379.977.769,1.948,1.158,2.921.3.749.6,1.5.917,2.242a.881.881,0,0,0,1.106.522.871.871,0,0,0,.68-.954C88.551,86.738,88.51,86.57,88.446,86.409Zm5.3,14.5a2.864,2.864,0,1,0,2.917,2.867A2.95,2.95,0,0,0,93.747,100.913Zm-.016,3.9a1.051,1.051,0,0,1-1.113-.987,1.069,1.069,0,0,1,1.073-1.1,1.106,1.106,0,0,1,1.091,1.033A1.062,1.062,0,0,1,93.731,104.818ZM88.446,86.409c-.662-1.661-1.32-3.325-1.994-4.981a.962.962,0,0,0-1.314-.67c-.511.21-.669.688-.421,1.332.379.977.769,1.948,1.158,2.921.3.749.6,1.5.917,2.242a.881.881,0,0,0,1.106.522.871.871,0,0,0,.68-.954C88.551,86.738,88.51,86.57,88.446,86.409Zm0,0c-.662-1.661-1.32-3.325-1.994-4.981a.962.962,0,0,0-1.314-.67c-.511.21-.669.688-.421,1.332.379.977.769,1.948,1.158,2.921.3.749.6,1.5.917,2.242a.881.881,0,0,0,1.106.522.871.871,0,0,0,.68-.954C88.551,86.738,88.51,86.57,88.446,86.409Zm0,0c-.662-1.661-1.32-3.325-1.994-4.981a.962.962,0,0,0-1.314-.67c-.511.21-.669.688-.421,1.332.379.977.769,1.948,1.158,2.921.3.749.6,1.5.917,2.242a.881.881,0,0,0,1.106.522.871.871,0,0,0,.68-.954C88.551,86.738,88.51,86.57,88.446,86.409Zm-.812-9.426c-5.886.021-10.288,4.349-10.271,9.948.018,5.849,4.751,9.848,10.308,9.938A10.173,10.173,0,0,0,97.951,86.9,10.019,10.019,0,0,0,87.634,76.983Zm6.834,14.705c-.161.217-.263.263-.515.077a.85.85,0,0,0-1.166.1.78.78,0,0,0-.121,1.124c.183.238.169.345-.063.5a9.038,9.038,0,0,1-3.656,1.461c-.25.044-.355-.009-.39-.28a.921.921,0,0,0-1.8-.054c-.06.3-.158.382-.488.32A9.048,9.048,0,0,1,82.8,93.552c-.236-.158-.386-.245-.156-.592a.886.886,0,0,0-.81-1.369c-.036.005-.15-.009-.208.04-.656.546-.852-.023-1.113-.422A8.086,8.086,0,0,1,79.355,88.3c-.051-.259-.112-.49.334-.53a.786.786,0,0,0,.714-.83.811.811,0,0,0-.731-.886c-.354-.054-.382-.221-.328-.494a8.438,8.438,0,0,1,1.481-3.4c.16-.214.265-.287.522-.095a.866.866,0,0,0,1.171-.091.786.786,0,0,0,.114-1.127c-.232-.3-.1-.383.132-.543a8.893,8.893,0,0,1,3.466-1.4c.266-.051.468-.061.524.294a.917.917,0,0,0,1.795-.007c.042-.319.2-.341.448-.3a8.865,8.865,0,0,1,3.589,1.447c.239.165.236.289.073.522a.789.789,0,0,0,.138,1.124.86.86,0,0,0,1.171.074c.285-.219.377-.06.511.123a8.315,8.315,0,0,1,1.5,3.467c.045.238,0,.354-.274.394A.883.883,0,0,0,95.75,87.8c.279.026.263.173.228.361A8.346,8.346,0,0,1,94.468,91.688Zm-8.016-10.26a.962.962,0,0,0-1.314-.67c-.511.21-.669.688-.421,1.332.379.977.769,1.948,1.158,2.921.3.749.6,1.5.917,2.242a.881.881,0,0,0,1.106.522.871.871,0,0,0,.68-.954c-.027-.082-.069-.25-.132-.411C87.785,84.748,87.127,83.084,86.452,81.428Zm1.994,4.981c-.662-1.661-1.32-3.325-1.994-4.981a.962.962,0,0,0-1.314-.67c-.511.21-.669.688-.421,1.332.379.977.769,1.948,1.158,2.921.3.749.6,1.5.917,2.242a.881.881,0,0,0,1.106.522.871.871,0,0,0,.68-.954C88.551,86.738,88.51,86.57,88.446,86.409Zm0,0c-.662-1.661-1.32-3.325-1.994-4.981a.962.962,0,0,0-1.314-.67c-.511.21-.669.688-.421,1.332.379.977.769,1.948,1.158,2.921.3.749.6,1.5.917,2.242a.881.881,0,0,0,1.106.522.871.871,0,0,0,.68-.954C88.551,86.738,88.51,86.57,88.446,86.409Zm16.681,14.5a2.864,2.864,0,1,0,2.946,2.905A2.954,2.954,0,0,0,105.128,100.913Zm1.057,2.965a1.073,1.073,0,0,1-1.167.936,1.052,1.052,0,0,1-1-1.1,1.085,1.085,0,0,1,2.163.166Zm10.357-2.965a2.864,2.864,0,1,0,2.937,2.909A2.955,2.955,0,0,0,116.541,100.913Zm-.071,3.9a1.059,1.059,0,0,1-1.046-1.061,1.1,1.1,0,0,1,1.095-1.027,1.074,1.074,0,0,1,1.07,1.043A1.044,1.044,0,0,1,116.47,104.816Zm12.508,3.786H81.168c-1.166,0-1.414.245-1.414,1.39q0,5.828,0,11.654c0,1.076.279,1.341,1.409,1.341q23.94,0,47.88,0c1.151,0,1.414-.261,1.414-1.4V110C130.456,108.831,130.213,108.6,128.979,108.6Zm-1.033,12.582q-11.423-.024-22.845-.011-11.391,0-22.778.014c-.56,0-.705-.121-.7-.67.031-3.163.024-6.325.005-9.488,0-.448.054-.628.6-.627q22.879.026,45.759,0c.471,0,.6.105.595.567q-.035,4.81,0,9.619C128.591,121.1,128.429,121.185,127.945,121.184Zm3.138-42.556c0-.109,0-.219,0-.327-.02-2.177-1.332-3.436-3.6-3.436q-11.456-.005-22.912,0c-2.262,0-3.56,1.264-3.562,3.458q0,8.6,0,17.208a3.164,3.164,0,0,0,3.52,3.416q5.759.005,11.522,0c3.8,0,7.594-.061,11.388.023a3.386,3.386,0,0,0,3.66-3.532C131.047,89.836,131.083,84.232,131.083,78.628Zm-1.874,17.08c-.015.961-.558,1.437-1.612,1.444-1.853.014-3.707.005-5.56.005H116q-5.626,0-11.254,0c-1.441,0-1.867-.406-1.867-1.78,0-2.837.011-5.672-.013-8.508-.005-.5.114-.679.663-.651,1.028.056,1.474.446,1.485,1.456.011,1.178-.025,2.357.013,3.534a3.035,3.035,0,0,0,2.678,2.991,3.112,3.112,0,0,0,3.426-2.161,3.9,3.9,0,0,0,.109-1.167c0-2.289,0-4.58.005-6.871a4,4,0,0,1,.058-.779,1.645,1.645,0,0,1,1.753-1.318,1.607,1.607,0,0,1,1.548,1.537c.033,1.328-.013,2.66.025,3.99a3.151,3.151,0,0,0,2.939,3.065,3.248,3.248,0,0,0,3.359-2.217,10.389,10.389,0,0,0,.158-2.147,1.351,1.351,0,0,1,1.247-1.253,1.426,1.426,0,0,1,1.554.9,1.924,1.924,0,0,1,.087.578c.013.413-.007.828.009,1.243a3.044,3.044,0,0,0,3.055,2.975c.564.025,1.129.021,1.695.005.323-.007.493.049.489.424C129.205,92.566,129.234,94.138,129.209,95.708Zm-.557-6.925c-.495-.031-1,.011-1.49-.016a1.229,1.229,0,0,1-1.3-1.3,8.288,8.288,0,0,0-.121-2.018,3.355,3.355,0,0,0-3.539-2.361,3.267,3.267,0,0,0-3,3.1c-.013.371.011.742-.013,1.113a1.3,1.3,0,0,1-1.385,1.306,1.283,1.283,0,0,1-1.285-1.334c-.022-1.265.007-2.531-.013-3.8a3.475,3.475,0,0,0-3.212-3.388,3.578,3.578,0,0,0-3.783,2.545,4.492,4.492,0,0,0-.116,1.234q0,3.4,0,6.808c0,.175.007.35-.005.523a1.241,1.241,0,1,1-2.482-.024c-.025-1.243-.013-2.487-.009-3.731a2.864,2.864,0,0,0-.8-2.027,3.223,3.223,0,0,0-2.618-1c-.459.019-.618-.084-.611-.562.031-1.855.009-3.71.014-5.566.005-1.155.491-1.624,1.693-1.624q11.461,0,22.923,0c1.211,0,1.713.5,1.717,1.684,0,1.615,0,3.229,0,4.845,0,1.68-.016,3.36.013,5.041C129.236,88.686,129.088,88.81,128.652,88.782Zm2.431-10.155c0-.109,0-.219,0-.327-.02-2.177-1.332-3.436-3.6-3.436q-11.456-.005-22.912,0c-2.262,0-3.56,1.264-3.562,3.458q0,8.6,0,17.208a3.164,3.164,0,0,0,3.52,3.416q5.759.005,11.522,0c3.8,0,7.594-.061,11.388.023a3.386,3.386,0,0,0,3.66-3.532C131.047,89.836,131.083,84.232,131.083,78.628Zm-1.874,17.08c-.015.961-.558,1.437-1.612,1.444-1.853.014-3.707.005-5.56.005H116q-5.626,0-11.254,0c-1.441,0-1.867-.406-1.867-1.78,0-2.837.011-5.672-.013-8.508-.005-.5.114-.679.663-.651,1.028.056,1.474.446,1.485,1.456.011,1.178-.025,2.357.013,3.534a3.035,3.035,0,0,0,2.678,2.991,3.112,3.112,0,0,0,3.426-2.161,3.9,3.9,0,0,0,.109-1.167c0-2.289,0-4.58.005-6.871a4,4,0,0,1,.058-.779,1.645,1.645,0,0,1,1.753-1.318,1.607,1.607,0,0,1,1.548,1.537c.033,1.328-.013,2.66.025,3.99a3.151,3.151,0,0,0,2.939,3.065,3.248,3.248,0,0,0,3.359-2.217,10.389,10.389,0,0,0,.158-2.147,1.351,1.351,0,0,1,1.247-1.253,1.426,1.426,0,0,1,1.554.9,1.924,1.924,0,0,1,.087.578c.013.413-.007.828.009,1.243a3.044,3.044,0,0,0,3.055,2.975c.564.025,1.129.021,1.695.005.323-.007.493.049.489.424C129.205,92.566,129.234,94.138,129.209,95.708Zm-.557-6.925c-.495-.031-1,.011-1.49-.016a1.229,1.229,0,0,1-1.3-1.3,8.288,8.288,0,0,0-.121-2.018,3.355,3.355,0,0,0-3.539-2.361,3.267,3.267,0,0,0-3,3.1c-.013.371.011.742-.013,1.113a1.3,1.3,0,0,1-1.385,1.306,1.283,1.283,0,0,1-1.285-1.334c-.022-1.265.007-2.531-.013-3.8a3.475,3.475,0,0,0-3.212-3.388,3.578,3.578,0,0,0-3.783,2.545,4.492,4.492,0,0,0-.116,1.234q0,3.4,0,6.808c0,.175.007.35-.005.523a1.241,1.241,0,1,1-2.482-.024c-.025-1.243-.013-2.487-.009-3.731a2.864,2.864,0,0,0-.8-2.027,3.223,3.223,0,0,0-2.618-1c-.459.019-.618-.084-.611-.562.031-1.855.009-3.71.014-5.566.005-1.155.491-1.624,1.693-1.624q11.461,0,22.923,0c1.211,0,1.713.5,1.717,1.684,0,1.615,0,3.229,0,4.845,0,1.68-.016,3.36.013,5.041C129.236,88.686,129.088,88.81,128.652,88.782Zm.326,19.819H81.168c-1.166,0-1.414.245-1.414,1.39q0,5.828,0,11.654c0,1.076.279,1.341,1.409,1.341q23.94,0,47.88,0c1.151,0,1.414-.261,1.414-1.4V110C130.456,108.831,130.213,108.6,128.979,108.6Zm-1.033,12.582q-11.423-.024-22.845-.011-11.391,0-22.778.014c-.56,0-.705-.121-.7-.67.031-3.163.024-6.325.005-9.488,0-.448.054-.628.6-.627q22.879.026,45.759,0c.471,0,.6.105.595.567q-.035,4.81,0,9.619C128.591,121.1,128.429,121.185,127.945,121.184Zm-11.4-20.271a2.864,2.864,0,1,0,2.937,2.909A2.955,2.955,0,0,0,116.541,100.913Zm-.071,3.9a1.059,1.059,0,0,1-1.046-1.061,1.1,1.1,0,0,1,1.095-1.027,1.074,1.074,0,0,1,1.07,1.043A1.044,1.044,0,0,1,116.47,104.816Zm-11.343-3.9a2.864,2.864,0,1,0,2.946,2.905A2.954,2.954,0,0,0,105.128,100.913Zm1.057,2.965a1.073,1.073,0,0,1-1.167.936,1.052,1.052,0,0,1-1-1.1,1.085,1.085,0,0,1,2.163.166ZM88.446,86.409c-.662-1.661-1.32-3.325-1.994-4.981a.962.962,0,0,0-1.314-.67c-.511.21-.669.688-.421,1.332.379.977.769,1.948,1.158,2.921.3.749.6,1.5.917,2.242a.881.881,0,0,0,1.106.522.871.871,0,0,0,.68-.954C88.551,86.738,88.51,86.57,88.446,86.409Zm0,0c-.662-1.661-1.32-3.325-1.994-4.981a.962.962,0,0,0-1.314-.67c-.511.21-.669.688-.421,1.332.379.977.769,1.948,1.158,2.921.3.749.6,1.5.917,2.242a.881.881,0,0,0,1.106.522.871.871,0,0,0,.68-.954C88.551,86.738,88.51,86.57,88.446,86.409Zm0,0c-.662-1.661-1.32-3.325-1.994-4.981a.962.962,0,0,0-1.314-.67c-.511.21-.669.688-.421,1.332.379.977.769,1.948,1.158,2.921.3.749.6,1.5.917,2.242a.881.881,0,0,0,1.106.522.871.871,0,0,0,.68-.954C88.551,86.738,88.51,86.57,88.446,86.409Zm0,0c-.662-1.661-1.32-3.325-1.994-4.981a.962.962,0,0,0-1.314-.67c-.511.21-.669.688-.421,1.332.379.977.769,1.948,1.158,2.921.3.749.6,1.5.917,2.242a.881.881,0,0,0,1.106.522.871.871,0,0,0,.68-.954C88.551,86.738,88.51,86.57,88.446,86.409Zm-.812-9.426c-5.886.021-10.288,4.349-10.271,9.948.018,5.849,4.751,9.848,10.308,9.938A10.173,10.173,0,0,0,97.951,86.9,10.019,10.019,0,0,0,87.634,76.983Zm6.834,14.705c-.161.217-.263.263-.515.077a.85.85,0,0,0-1.166.1.78.78,0,0,0-.121,1.124c.183.238.169.345-.063.5a9.038,9.038,0,0,1-3.656,1.461c-.25.044-.355-.009-.39-.28a.921.921,0,0,0-1.8-.054c-.06.3-.158.382-.488.32A9.048,9.048,0,0,1,82.8,93.552c-.236-.158-.386-.245-.156-.592a.886.886,0,0,0-.81-1.369c-.036.005-.15-.009-.208.04-.656.546-.852-.023-1.113-.422A8.086,8.086,0,0,1,79.355,88.3c-.051-.259-.112-.49.334-.53a.786.786,0,0,0,.714-.83.811.811,0,0,0-.731-.886c-.354-.054-.382-.221-.328-.494a8.438,8.438,0,0,1,1.481-3.4c.16-.214.265-.287.522-.095a.866.866,0,0,0,1.171-.091.786.786,0,0,0,.114-1.127c-.232-.3-.1-.383.132-.543a8.893,8.893,0,0,1,3.466-1.4c.266-.051.468-.061.524.294a.917.917,0,0,0,1.795-.007c.042-.319.2-.341.448-.3a8.865,8.865,0,0,1,3.589,1.447c.239.165.236.289.073.522a.789.789,0,0,0,.138,1.124.86.86,0,0,0,1.171.074c.285-.219.377-.06.511.123a8.315,8.315,0,0,1,1.5,3.467c.045.238,0,.354-.274.394A.883.883,0,0,0,95.75,87.8c.279.026.263.173.228.361A8.346,8.346,0,0,1,94.468,91.688Zm-8.016-10.26a.962.962,0,0,0-1.314-.67c-.511.21-.669.688-.421,1.332.379.977.769,1.948,1.158,2.921.3.749.6,1.5.917,2.242a.881.881,0,0,0,1.106.522.871.871,0,0,0,.68-.954c-.027-.082-.069-.25-.132-.411C87.785,84.748,87.127,83.084,86.452,81.428Zm1.994,4.981c-.662-1.661-1.32-3.325-1.994-4.981a.962.962,0,0,0-1.314-.67c-.511.21-.669.688-.421,1.332.379.977.769,1.948,1.158,2.921.3.749.6,1.5.917,2.242a.881.881,0,0,0,1.106.522.871.871,0,0,0,.68-.954C88.551,86.738,88.51,86.57,88.446,86.409Zm0,0c-.662-1.661-1.32-3.325-1.994-4.981a.962.962,0,0,0-1.314-.67c-.511.21-.669.688-.421,1.332.379.977.769,1.948,1.158,2.921.3.749.6,1.5.917,2.242a.881.881,0,0,0,1.106.522.871.871,0,0,0,.68-.954C88.551,86.738,88.51,86.57,88.446,86.409Zm0,0c-.662-1.661-1.32-3.325-1.994-4.981a.962.962,0,0,0-1.314-.67c-.511.21-.669.688-.421,1.332.379.977.769,1.948,1.158,2.921.3.749.6,1.5.917,2.242a.881.881,0,0,0,1.106.522.871.871,0,0,0,.68-.954C88.551,86.738,88.51,86.57,88.446,86.409Zm5.3,14.5a2.864,2.864,0,1,0,2.917,2.867A2.95,2.95,0,0,0,93.747,100.913Zm-.016,3.9a1.051,1.051,0,0,1-1.113-.987,1.069,1.069,0,0,1,1.073-1.1,1.106,1.106,0,0,1,1.091,1.033A1.062,1.062,0,0,1,93.731,104.818ZM88.446,86.409c-.662-1.661-1.32-3.325-1.994-4.981a.962.962,0,0,0-1.314-.67c-.511.21-.669.688-.421,1.332.379.977.769,1.948,1.158,2.921.3.749.6,1.5.917,2.242a.881.881,0,0,0,1.106.522.871.871,0,0,0,.68-.954C88.551,86.738,88.51,86.57,88.446,86.409Zm0,0c-.662-1.661-1.32-3.325-1.994-4.981a.962.962,0,0,0-1.314-.67c-.511.21-.669.688-.421,1.332.379.977.769,1.948,1.158,2.921.3.749.6,1.5.917,2.242a.881.881,0,0,0,1.106.522.871.871,0,0,0,.68-.954C88.551,86.738,88.51,86.57,88.446,86.409Zm5.3,14.5a2.864,2.864,0,1,0,2.917,2.867A2.95,2.95,0,0,0,93.747,100.913Zm-.016,3.9a1.051,1.051,0,0,1-1.113-.987,1.069,1.069,0,0,1,1.073-1.1,1.106,1.106,0,0,1,1.091,1.033A1.062,1.062,0,0,1,93.731,104.818ZM88.446,86.409c-.662-1.661-1.32-3.325-1.994-4.981a.962.962,0,0,0-1.314-.67c-.511.21-.669.688-.421,1.332.379.977.769,1.948,1.158,2.921.3.749.6,1.5.917,2.242a.881.881,0,0,0,1.106.522.871.871,0,0,0,.68-.954C88.551,86.738,88.51,86.57,88.446,86.409Zm0,0c-.662-1.661-1.32-3.325-1.994-4.981a.962.962,0,0,0-1.314-.67c-.511.21-.669.688-.421,1.332.379.977.769,1.948,1.158,2.921.3.749.6,1.5.917,2.242a.881.881,0,0,0,1.106.522.871.871,0,0,0,.68-.954C88.551,86.738,88.51,86.57,88.446,86.409Zm0,0c-.662-1.661-1.32-3.325-1.994-4.981a.962.962,0,0,0-1.314-.67c-.511.21-.669.688-.421,1.332.379.977.769,1.948,1.158,2.921.3.749.6,1.5.917,2.242a.881.881,0,0,0,1.106.522.871.871,0,0,0,.68-.954C88.551,86.738,88.51,86.57,88.446,86.409Zm0,0c-.662-1.661-1.32-3.325-1.994-4.981a.962.962,0,0,0-1.314-.67c-.511.21-.669.688-.421,1.332.379.977.769,1.948,1.158,2.921.3.749.6,1.5.917,2.242a.881.881,0,0,0,1.106.522.871.871,0,0,0,.68-.954C88.551,86.738,88.51,86.57,88.446,86.409Zm0,0c-.662-1.661-1.32-3.325-1.994-4.981a.962.962,0,0,0-1.314-.67c-.511.21-.669.688-.421,1.332.379.977.769,1.948,1.158,2.921.3.749.6,1.5.917,2.242a.881.881,0,0,0,1.106.522.871.871,0,0,0,.68-.954C88.551,86.738,88.51,86.57,88.446,86.409Zm-.812-9.426c-5.886.021-10.288,4.349-10.271,9.948.018,5.849,4.751,9.848,10.308,9.938A10.173,10.173,0,0,0,97.951,86.9,10.019,10.019,0,0,0,87.634,76.983Zm6.834,14.705c-.161.217-.263.263-.515.077a.85.85,0,0,0-1.166.1.78.78,0,0,0-.121,1.124c.183.238.169.345-.063.5a9.038,9.038,0,0,1-3.656,1.461c-.25.044-.355-.009-.39-.28a.921.921,0,0,0-1.8-.054c-.06.3-.158.382-.488.32A9.048,9.048,0,0,1,82.8,93.552c-.236-.158-.386-.245-.156-.592a.886.886,0,0,0-.81-1.369c-.036.005-.15-.009-.208.04-.656.546-.852-.023-1.113-.422A8.086,8.086,0,0,1,79.355,88.3c-.051-.259-.112-.49.334-.53a.786.786,0,0,0,.714-.83.811.811,0,0,0-.731-.886c-.354-.054-.382-.221-.328-.494a8.438,8.438,0,0,1,1.481-3.4c.16-.214.265-.287.522-.095a.866.866,0,0,0,1.171-.091.786.786,0,0,0,.114-1.127c-.232-.3-.1-.383.132-.543a8.893,8.893,0,0,1,3.466-1.4c.266-.051.468-.061.524.294a.917.917,0,0,0,1.795-.007c.042-.319.2-.341.448-.3a8.865,8.865,0,0,1,3.589,1.447c.239.165.236.289.073.522a.789.789,0,0,0,.138,1.124.86.86,0,0,0,1.171.074c.285-.219.377-.06.511.123a8.315,8.315,0,0,1,1.5,3.467c.045.238,0,.354-.274.394A.883.883,0,0,0,95.75,87.8c.279.026.263.173.228.361A8.346,8.346,0,0,1,94.468,91.688Zm-8.016-10.26a.962.962,0,0,0-1.314-.67c-.511.21-.669.688-.421,1.332.379.977.769,1.948,1.158,2.921.3.749.6,1.5.917,2.242a.881.881,0,0,0,1.106.522.871.871,0,0,0,.68-.954c-.027-.082-.069-.25-.132-.411C87.785,84.748,87.127,83.084,86.452,81.428Zm1.994,4.981c-.662-1.661-1.32-3.325-1.994-4.981a.962.962,0,0,0-1.314-.67c-.511.21-.669.688-.421,1.332.379.977.769,1.948,1.158,2.921.3.749.6,1.5.917,2.242a.881.881,0,0,0,1.106.522.871.871,0,0,0,.68-.954C88.551,86.738,88.51,86.57,88.446,86.409Zm0,0c-.662-1.661-1.32-3.325-1.994-4.981a.962.962,0,0,0-1.314-.67c-.511.21-.669.688-.421,1.332.379.977.769,1.948,1.158,2.921.3.749.6,1.5.917,2.242a.881.881,0,0,0,1.106.522.871.871,0,0,0,.68-.954C88.551,86.738,88.51,86.57,88.446,86.409Zm0,0c-.662-1.661-1.32-3.325-1.994-4.981a.962.962,0,0,0-1.314-.67c-.511.21-.669.688-.421,1.332.379.977.769,1.948,1.158,2.921.3.749.6,1.5.917,2.242a.881.881,0,0,0,1.106.522.871.871,0,0,0,.68-.954C88.551,86.738,88.51,86.57,88.446,86.409Zm0,0c-.662-1.661-1.32-3.325-1.994-4.981a.962.962,0,0,0-1.314-.67c-.511.21-.669.688-.421,1.332.379.977.769,1.948,1.158,2.921.3.749.6,1.5.917,2.242a.881.881,0,0,0,1.106.522.871.871,0,0,0,.68-.954C88.551,86.738,88.51,86.57,88.446,86.409Zm16.681,14.5a2.864,2.864,0,1,0,2.946,2.905A2.954,2.954,0,0,0,105.128,100.913Zm1.057,2.965a1.073,1.073,0,0,1-1.167.936,1.052,1.052,0,0,1-1-1.1,1.085,1.085,0,0,1,2.163.166Zm10.357-2.965a2.864,2.864,0,1,0,2.937,2.909A2.955,2.955,0,0,0,116.541,100.913Zm-.071,3.9a1.059,1.059,0,0,1-1.046-1.061,1.1,1.1,0,0,1,1.095-1.027,1.074,1.074,0,0,1,1.07,1.043A1.044,1.044,0,0,1,116.47,104.816Zm12.508,3.786H81.168c-1.166,0-1.414.245-1.414,1.39q0,5.828,0,11.654c0,1.076.279,1.341,1.409,1.341q23.94,0,47.88,0c1.151,0,1.414-.261,1.414-1.4V110C130.456,108.831,130.213,108.6,128.979,108.6Zm-1.033,12.582q-11.423-.024-22.845-.011-11.391,0-22.778.014c-.56,0-.705-.121-.7-.67.031-3.163.024-6.325.005-9.488,0-.448.054-.628.6-.627q22.879.026,45.759,0c.471,0,.6.105.595.567q-.035,4.81,0,9.619C128.591,121.1,128.429,121.185,127.945,121.184Zm3.138-42.556c0-.109,0-.219,0-.327-.02-2.177-1.332-3.436-3.6-3.436q-11.456-.005-22.912,0c-2.262,0-3.56,1.264-3.562,3.458q0,8.6,0,17.208a3.164,3.164,0,0,0,3.52,3.416q5.759.005,11.522,0c3.8,0,7.594-.061,11.388.023a3.386,3.386,0,0,0,3.66-3.532C131.047,89.836,131.083,84.232,131.083,78.628Zm-1.874,17.08c-.015.961-.558,1.437-1.612,1.444-1.853.014-3.707.005-5.56.005H116q-5.626,0-11.254,0c-1.441,0-1.867-.406-1.867-1.78,0-2.837.011-5.672-.013-8.508-.005-.5.114-.679.663-.651,1.028.056,1.474.446,1.485,1.456.011,1.178-.025,2.357.013,3.534a3.035,3.035,0,0,0,2.678,2.991,3.112,3.112,0,0,0,3.426-2.161,3.9,3.9,0,0,0,.109-1.167c0-2.289,0-4.58.005-6.871a4,4,0,0,1,.058-.779,1.645,1.645,0,0,1,1.753-1.318,1.607,1.607,0,0,1,1.548,1.537c.033,1.328-.013,2.66.025,3.99a3.151,3.151,0,0,0,2.939,3.065,3.248,3.248,0,0,0,3.359-2.217,10.389,10.389,0,0,0,.158-2.147,1.351,1.351,0,0,1,1.247-1.253,1.426,1.426,0,0,1,1.554.9,1.924,1.924,0,0,1,.087.578c.013.413-.007.828.009,1.243a3.044,3.044,0,0,0,3.055,2.975c.564.025,1.129.021,1.695.005.323-.007.493.049.489.424C129.205,92.566,129.234,94.138,129.209,95.708Zm-.557-6.925c-.495-.031-1,.011-1.49-.016a1.229,1.229,0,0,1-1.3-1.3,8.288,8.288,0,0,0-.121-2.018,3.355,3.355,0,0,0-3.539-2.361,3.267,3.267,0,0,0-3,3.1c-.013.371.011.742-.013,1.113a1.3,1.3,0,0,1-1.385,1.306,1.283,1.283,0,0,1-1.285-1.334c-.022-1.265.007-2.531-.013-3.8a3.475,3.475,0,0,0-3.212-3.388,3.578,3.578,0,0,0-3.783,2.545,4.492,4.492,0,0,0-.116,1.234q0,3.4,0,6.808c0,.175.007.35-.005.523a1.241,1.241,0,1,1-2.482-.024c-.025-1.243-.013-2.487-.009-3.731a2.864,2.864,0,0,0-.8-2.027,3.223,3.223,0,0,0-2.618-1c-.459.019-.618-.084-.611-.562.031-1.855.009-3.71.014-5.566.005-1.155.491-1.624,1.693-1.624q11.461,0,22.923,0c1.211,0,1.713.5,1.717,1.684,0,1.615,0,3.229,0,4.845,0,1.68-.016,3.36.013,5.041C129.236,88.686,129.088,88.81,128.652,88.782Zm2.431-10.155c0-.109,0-.219,0-.327-.02-2.177-1.332-3.436-3.6-3.436q-11.456-.005-22.912,0c-2.262,0-3.56,1.264-3.562,3.458q0,8.6,0,17.208a3.164,3.164,0,0,0,3.52,3.416q5.759.005,11.522,0c3.8,0,7.594-.061,11.388.023a3.386,3.386,0,0,0,3.66-3.532C131.047,89.836,131.083,84.232,131.083,78.628Zm-1.874,17.08c-.015.961-.558,1.437-1.612,1.444-1.853.014-3.707.005-5.56.005H116q-5.626,0-11.254,0c-1.441,0-1.867-.406-1.867-1.78,0-2.837.011-5.672-.013-8.508-.005-.5.114-.679.663-.651,1.028.056,1.474.446,1.485,1.456.011,1.178-.025,2.357.013,3.534a3.035,3.035,0,0,0,2.678,2.991,3.112,3.112,0,0,0,3.426-2.161,3.9,3.9,0,0,0,.109-1.167c0-2.289,0-4.58.005-6.871a4,4,0,0,1,.058-.779,1.645,1.645,0,0,1,1.753-1.318,1.607,1.607,0,0,1,1.548,1.537c.033,1.328-.013,2.66.025,3.99a3.151,3.151,0,0,0,2.939,3.065,3.248,3.248,0,0,0,3.359-2.217,10.389,10.389,0,0,0,.158-2.147,1.351,1.351,0,0,1,1.247-1.253,1.426,1.426,0,0,1,1.554.9,1.924,1.924,0,0,1,.087.578c.013.413-.007.828.009,1.243a3.044,3.044,0,0,0,3.055,2.975c.564.025,1.129.021,1.695.005.323-.007.493.049.489.424C129.205,92.566,129.234,94.138,129.209,95.708Zm-.557-6.925c-.495-.031-1,.011-1.49-.016a1.229,1.229,0,0,1-1.3-1.3,8.288,8.288,0,0,0-.121-2.018,3.355,3.355,0,0,0-3.539-2.361,3.267,3.267,0,0,0-3,3.1c-.013.371.011.742-.013,1.113a1.3,1.3,0,0,1-1.385,1.306,1.283,1.283,0,0,1-1.285-1.334c-.022-1.265.007-2.531-.013-3.8a3.475,3.475,0,0,0-3.212-3.388,3.578,3.578,0,0,0-3.783,2.545,4.492,4.492,0,0,0-.116,1.234q0,3.4,0,6.808c0,.175.007.35-.005.523a1.241,1.241,0,1,1-2.482-.024c-.025-1.243-.013-2.487-.009-3.731a2.864,2.864,0,0,0-.8-2.027,3.223,3.223,0,0,0-2.618-1c-.459.019-.618-.084-.611-.562.031-1.855.009-3.71.014-5.566.005-1.155.491-1.624,1.693-1.624q11.461,0,22.923,0c1.211,0,1.713.5,1.717,1.684,0,1.615,0,3.229,0,4.845,0,1.68-.016,3.36.013,5.041C129.236,88.686,129.088,88.81,128.652,88.782Zm.326,19.819H81.168c-1.166,0-1.414.245-1.414,1.39q0,5.828,0,11.654c0,1.076.279,1.341,1.409,1.341q23.94,0,47.88,0c1.151,0,1.414-.261,1.414-1.4V110C130.456,108.831,130.213,108.6,128.979,108.6Zm-1.033,12.582q-11.423-.024-22.845-.011-11.391,0-22.778.014c-.56,0-.705-.121-.7-.67.031-3.163.024-6.325.005-9.488,0-.448.054-.628.6-.627q22.879.026,45.759,0c.471,0,.6.105.595.567q-.035,4.81,0,9.619C128.591,121.1,128.429,121.185,127.945,121.184Zm-11.4-20.271a2.864,2.864,0,1,0,2.937,2.909A2.955,2.955,0,0,0,116.541,100.913Zm-.071,3.9a1.059,1.059,0,0,1-1.046-1.061,1.1,1.1,0,0,1,1.095-1.027,1.074,1.074,0,0,1,1.07,1.043A1.044,1.044,0,0,1,116.47,104.816Zm-11.343-3.9a2.864,2.864,0,1,0,2.946,2.905A2.954,2.954,0,0,0,105.128,100.913Zm1.057,2.965a1.073,1.073,0,0,1-1.167.936,1.052,1.052,0,0,1-1-1.1,1.085,1.085,0,0,1,2.163.166ZM88.446,86.409c-.662-1.661-1.32-3.325-1.994-4.981a.962.962,0,0,0-1.314-.67c-.511.21-.669.688-.421,1.332.379.977.769,1.948,1.158,2.921.3.749.6,1.5.917,2.242a.881.881,0,0,0,1.106.522.871.871,0,0,0,.68-.954C88.551,86.738,88.51,86.57,88.446,86.409Zm0,0c-.662-1.661-1.32-3.325-1.994-4.981a.962.962,0,0,0-1.314-.67c-.511.21-.669.688-.421,1.332.379.977.769,1.948,1.158,2.921.3.749.6,1.5.917,2.242a.881.881,0,0,0,1.106.522.871.871,0,0,0,.68-.954C88.551,86.738,88.51,86.57,88.446,86.409Zm0,0c-.662-1.661-1.32-3.325-1.994-4.981a.962.962,0,0,0-1.314-.67c-.511.21-.669.688-.421,1.332.379.977.769,1.948,1.158,2.921.3.749.6,1.5.917,2.242a.881.881,0,0,0,1.106.522.871.871,0,0,0,.68-.954C88.551,86.738,88.51,86.57,88.446,86.409Zm0,0c-.662-1.661-1.32-3.325-1.994-4.981a.962.962,0,0,0-1.314-.67c-.511.21-.669.688-.421,1.332.379.977.769,1.948,1.158,2.921.3.749.6,1.5.917,2.242a.881.881,0,0,0,1.106.522.871.871,0,0,0,.68-.954C88.551,86.738,88.51,86.57,88.446,86.409Zm0,0c-.662-1.661-1.32-3.325-1.994-4.981a.962.962,0,0,0-1.314-.67c-.511.21-.669.688-.421,1.332.379.977.769,1.948,1.158,2.921.3.749.6,1.5.917,2.242a.881.881,0,0,0,1.106.522.871.871,0,0,0,.68-.954C88.551,86.738,88.51,86.57,88.446,86.409Zm0,0c-.662-1.661-1.32-3.325-1.994-4.981a.962.962,0,0,0-1.314-.67c-.511.21-.669.688-.421,1.332.379.977.769,1.948,1.158,2.921.3.749.6,1.5.917,2.242a.881.881,0,0,0,1.106.522.871.871,0,0,0,.68-.954C88.551,86.738,88.51,86.57,88.446,86.409Zm-.812-9.426c-5.886.021-10.288,4.349-10.271,9.948.018,5.849,4.751,9.848,10.308,9.938A10.173,10.173,0,0,0,97.951,86.9,10.019,10.019,0,0,0,87.634,76.983Zm6.834,14.705c-.161.217-.263.263-.515.077a.85.85,0,0,0-1.166.1.78.78,0,0,0-.121,1.124c.183.238.169.345-.063.5a9.038,9.038,0,0,1-3.656,1.461c-.25.044-.355-.009-.39-.28a.921.921,0,0,0-1.8-.054c-.06.3-.158.382-.488.32A9.048,9.048,0,0,1,82.8,93.552c-.236-.158-.386-.245-.156-.592a.886.886,0,0,0-.81-1.369c-.036.005-.15-.009-.208.04-.656.546-.852-.023-1.113-.422A8.086,8.086,0,0,1,79.355,88.3c-.051-.259-.112-.49.334-.53a.786.786,0,0,0,.714-.83.811.811,0,0,0-.731-.886c-.354-.054-.382-.221-.328-.494a8.438,8.438,0,0,1,1.481-3.4c.16-.214.265-.287.522-.095a.866.866,0,0,0,1.171-.091.786.786,0,0,0,.114-1.127c-.232-.3-.1-.383.132-.543a8.893,8.893,0,0,1,3.466-1.4c.266-.051.468-.061.524.294a.917.917,0,0,0,1.795-.007c.042-.319.2-.341.448-.3a8.865,8.865,0,0,1,3.589,1.447c.239.165.236.289.073.522a.789.789,0,0,0,.138,1.124.86.86,0,0,0,1.171.074c.285-.219.377-.06.511.123a8.315,8.315,0,0,1,1.5,3.467c.045.238,0,.354-.274.394A.883.883,0,0,0,95.75,87.8c.279.026.263.173.228.361A8.346,8.346,0,0,1,94.468,91.688Zm-8.016-10.26a.962.962,0,0,0-1.314-.67c-.511.21-.669.688-.421,1.332.379.977.769,1.948,1.158,2.921.3.749.6,1.5.917,2.242a.881.881,0,0,0,1.106.522.871.871,0,0,0,.68-.954c-.027-.082-.069-.25-.132-.411C87.785,84.748,87.127,83.084,86.452,81.428Zm1.994,4.981c-.662-1.661-1.32-3.325-1.994-4.981a.962.962,0,0,0-1.314-.67c-.511.21-.669.688-.421,1.332.379.977.769,1.948,1.158,2.921.3.749.6,1.5.917,2.242a.881.881,0,0,0,1.106.522.871.871,0,0,0,.68-.954C88.551,86.738,88.51,86.57,88.446,86.409Zm0,0c-.662-1.661-1.32-3.325-1.994-4.981a.962.962,0,0,0-1.314-.67c-.511.21-.669.688-.421,1.332.379.977.769,1.948,1.158,2.921.3.749.6,1.5.917,2.242a.881.881,0,0,0,1.106.522.871.871,0,0,0,.68-.954C88.551,86.738,88.51,86.57,88.446,86.409Zm0,0c-.662-1.661-1.32-3.325-1.994-4.981a.962.962,0,0,0-1.314-.67c-.511.21-.669.688-.421,1.332.379.977.769,1.948,1.158,2.921.3.749.6,1.5.917,2.242a.881.881,0,0,0,1.106.522.871.871,0,0,0,.68-.954C88.551,86.738,88.51,86.57,88.446,86.409Zm0,0c-.662-1.661-1.32-3.325-1.994-4.981a.962.962,0,0,0-1.314-.67c-.511.21-.669.688-.421,1.332.379.977.769,1.948,1.158,2.921.3.749.6,1.5.917,2.242a.881.881,0,0,0,1.106.522.871.871,0,0,0,.68-.954C88.551,86.738,88.51,86.57,88.446,86.409Zm5.3,14.5a2.864,2.864,0,1,0,2.917,2.867A2.95,2.95,0,0,0,93.747,100.913Zm-.016,3.9a1.051,1.051,0,0,1-1.113-.987,1.069,1.069,0,0,1,1.073-1.1,1.106,1.106,0,0,1,1.091,1.033A1.062,1.062,0,0,1,93.731,104.818Z"/><path class="a" d="M173.354,247.566a2.864,2.864,0,1,0,2.917,2.867A2.95,2.95,0,0,0,173.354,247.566Zm-.016,3.9a1.051,1.051,0,0,1-1.113-.987,1.069,1.069,0,0,1,1.073-1.1,1.106,1.106,0,0,1,1.091,1.033A1.062,1.062,0,0,1,173.338,251.471Z" transform="translate(-79.607 -146.653)"/><path class="a" d="M140.367,137.67c.063.161.105.329.132.411a.871.871,0,0,1-.68.954.881.881,0,0,1-1.106-.522c-.321-.742-.616-1.493-.917-2.242-.39-.973-.78-1.944-1.158-2.921-.248-.644-.091-1.122.421-1.332a.962.962,0,0,1,1.314.67C139.048,134.344,139.706,136.009,140.367,137.67Z" transform="translate(-51.921 -51.261)"/><path class="a" d="M106.861,110.84c-5.886.021-10.288,4.349-10.271,9.948.018,5.849,4.751,9.848,10.308,9.938a10.173,10.173,0,0,0,10.28-9.969A10.019,10.019,0,0,0,106.861,110.84Zm6.834,14.705c-.161.217-.263.263-.515.077a.85.85,0,0,0-1.166.1.78.78,0,0,0-.121,1.124c.183.238.169.345-.063.5a9.038,9.038,0,0,1-3.656,1.461c-.25.044-.355-.009-.39-.28a.921.921,0,0,0-1.8-.054c-.06.3-.158.382-.488.32a9.048,9.048,0,0,1-3.473-1.388c-.236-.158-.386-.245-.156-.592a.886.886,0,0,0-.81-1.369c-.036.005-.15-.009-.208.04-.656.546-.852-.023-1.113-.422a8.086,8.086,0,0,1-1.157-2.909c-.051-.259-.112-.49.334-.53a.786.786,0,0,0,.714-.83.811.811,0,0,0-.731-.886c-.354-.054-.383-.221-.328-.494a8.438,8.438,0,0,1,1.481-3.4c.16-.214.265-.287.522-.095a.866.866,0,0,0,1.171-.091.786.786,0,0,0,.114-1.127c-.232-.3-.1-.383.132-.543a8.893,8.893,0,0,1,3.466-1.4c.266-.051.468-.061.524.294a.917.917,0,0,0,1.795-.007c.042-.319.2-.341.448-.3a8.865,8.865,0,0,1,3.589,1.447c.239.165.236.289.073.522a.789.789,0,0,0,.138,1.124.86.86,0,0,0,1.171.074c.285-.219.377-.06.511.123a8.315,8.315,0,0,1,1.5,3.467c.045.238,0,.354-.274.394a.883.883,0,0,0,.047,1.759c.279.026.263.173.228.361A8.347,8.347,0,0,1,113.7,125.545Z" transform="translate(-19.227 -33.857)"/><path class="a" d="M236.241,247.569a2.864,2.864,0,1,0,2.946,2.905A2.954,2.954,0,0,0,236.241,247.569Zm1.057,2.965a1.073,1.073,0,0,1-1.167.936,1.052,1.052,0,0,1-1-1.1,1.085,1.085,0,0,1,2.163.166Z" transform="translate(-131.113 -146.656)"/><path class="a" d="M299.176,247.569a2.864,2.864,0,1,0,2.937,2.909A2.955,2.955,0,0,0,299.176,247.569Zm-.071,3.9a1.059,1.059,0,0,1-1.046-1.061,1.1,1.1,0,0,1,1.095-1.027,1.074,1.074,0,0,1,1.07,1.043A1.044,1.044,0,0,1,299.106,251.472Z" transform="translate(-182.635 -146.656)"/><path class="a" d="M159,291.5H111.188c-1.166,0-1.414.245-1.414,1.39q0,5.828,0,11.654c0,1.076.279,1.341,1.409,1.341q23.94,0,47.88,0c1.151,0,1.414-.261,1.414-1.4V292.895C160.476,291.729,160.233,291.5,159,291.5Zm-1.033,12.582q-11.423-.024-22.845-.011-11.391,0-22.778.014c-.56,0-.705-.121-.7-.67.031-3.163.024-6.325.005-9.488,0-.448.054-.628.6-.627q22.879.026,45.759,0c.471,0,.6.105.595.567q-.035,4.809,0,9.619C158.611,304,158.449,304.084,157.965,304.082Z" transform="translate(-30.02 -182.898)"/><path class="a" d="M257.1,102.491c0-.109,0-.219,0-.327-.02-2.177-1.332-3.436-3.6-3.436q-11.456-.005-22.912,0c-2.262,0-3.56,1.264-3.562,3.458q0,8.6,0,17.208a3.164,3.164,0,0,0,3.52,3.416q5.759.005,11.522,0c3.8,0,7.594-.061,11.388.023a3.386,3.386,0,0,0,3.66-3.532C257.067,113.7,257.1,108.095,257.1,102.491Zm-1.874,17.08c-.014.961-.558,1.437-1.612,1.444-1.853.014-3.707.005-5.56.005h-6.033q-5.626,0-11.254,0c-1.441,0-1.867-.406-1.867-1.78,0-2.837.011-5.672-.013-8.508-.005-.5.114-.679.663-.651,1.028.056,1.474.446,1.485,1.456.011,1.178-.025,2.357.013,3.534a3.035,3.035,0,0,0,2.678,2.991,3.112,3.112,0,0,0,3.426-2.161,3.9,3.9,0,0,0,.109-1.167c0-2.289,0-4.58.005-6.871a4,4,0,0,1,.058-.779,1.645,1.645,0,0,1,1.753-1.318,1.607,1.607,0,0,1,1.548,1.537c.033,1.328-.013,2.66.025,3.99a3.151,3.151,0,0,0,2.939,3.065,3.248,3.248,0,0,0,3.359-2.217,10.39,10.39,0,0,0,.158-2.147,1.351,1.351,0,0,1,1.247-1.253,1.426,1.426,0,0,1,1.554.9,1.923,1.923,0,0,1,.087.578c.013.413-.007.828.009,1.243a3.044,3.044,0,0,0,3.055,2.975c.564.025,1.129.021,1.695.005.323-.007.493.049.489.424C255.225,116.429,255.254,118,255.229,119.571Zm-.557-6.925c-.495-.031-1,.011-1.49-.016a1.229,1.229,0,0,1-1.3-1.3,8.288,8.288,0,0,0-.121-2.018,3.355,3.355,0,0,0-3.539-2.361,3.267,3.267,0,0,0-3,3.1c-.013.371.011.742-.013,1.113a1.3,1.3,0,0,1-1.385,1.306,1.283,1.283,0,0,1-1.285-1.334c-.022-1.265.007-2.531-.013-3.8a3.475,3.475,0,0,0-3.212-3.388,3.578,3.578,0,0,0-3.783,2.545,4.492,4.492,0,0,0-.116,1.234q0,3.4,0,6.808c0,.175.007.35-.005.523a1.241,1.241,0,1,1-2.482-.024c-.025-1.243-.013-2.487-.009-3.731a2.864,2.864,0,0,0-.8-2.027,3.223,3.223,0,0,0-2.618-1c-.459.019-.618-.084-.611-.562.031-1.855.009-3.71.015-5.566.005-1.155.491-1.624,1.693-1.624q11.461,0,22.923,0c1.211,0,1.713.5,1.717,1.684,0,1.615,0,3.229,0,4.845,0,1.68-.016,3.36.013,5.041C255.256,112.549,255.107,112.673,254.672,112.645Z" transform="translate(-126.02 -23.863)"/><path class="a" d="M257.1,102.491c0-.109,0-.219,0-.327-.02-2.177-1.332-3.436-3.6-3.436q-11.456-.005-22.912,0c-2.262,0-3.56,1.264-3.562,3.458q0,8.6,0,17.208a3.164,3.164,0,0,0,3.52,3.416q5.759.005,11.522,0c3.8,0,7.594-.061,11.388.023a3.386,3.386,0,0,0,3.66-3.532C257.067,113.7,257.1,108.095,257.1,102.491Zm-1.874,17.08c-.014.961-.558,1.437-1.612,1.444-1.853.014-3.707.005-5.56.005h-6.033q-5.626,0-11.254,0c-1.441,0-1.867-.406-1.867-1.78,0-2.837.011-5.672-.013-8.508-.005-.5.114-.679.663-.651,1.028.056,1.474.446,1.485,1.456.011,1.178-.025,2.357.013,3.534a3.035,3.035,0,0,0,2.678,2.991,3.112,3.112,0,0,0,3.426-2.161,3.9,3.9,0,0,0,.109-1.167c0-2.289,0-4.58.005-6.871a4,4,0,0,1,.058-.779,1.645,1.645,0,0,1,1.753-1.318,1.607,1.607,0,0,1,1.548,1.537c.033,1.328-.013,2.66.025,3.99a3.151,3.151,0,0,0,2.939,3.065,3.248,3.248,0,0,0,3.359-2.217,10.39,10.39,0,0,0,.158-2.147,1.351,1.351,0,0,1,1.247-1.253,1.426,1.426,0,0,1,1.554.9,1.923,1.923,0,0,1,.087.578c.013.413-.007.828.009,1.243a3.044,3.044,0,0,0,3.055,2.975c.564.025,1.129.021,1.695.005.323-.007.493.049.489.424C255.225,116.429,255.254,118,255.229,119.571Zm-.557-6.925c-.495-.031-1,.011-1.49-.016a1.229,1.229,0,0,1-1.3-1.3,8.288,8.288,0,0,0-.121-2.018,3.355,3.355,0,0,0-3.539-2.361,3.267,3.267,0,0,0-3,3.1c-.013.371.011.742-.013,1.113a1.3,1.3,0,0,1-1.385,1.306,1.283,1.283,0,0,1-1.285-1.334c-.022-1.265.007-2.531-.013-3.8a3.475,3.475,0,0,0-3.212-3.388,3.578,3.578,0,0,0-3.783,2.545,4.492,4.492,0,0,0-.116,1.234q0,3.4,0,6.808c0,.175.007.35-.005.523a1.241,1.241,0,1,1-2.482-.024c-.025-1.243-.013-2.487-.009-3.731a2.864,2.864,0,0,0-.8-2.027,3.223,3.223,0,0,0-2.618-1c-.459.019-.618-.084-.611-.562.031-1.855.009-3.71.015-5.566.005-1.155.491-1.624,1.693-1.624q11.461,0,22.923,0c1.211,0,1.713.5,1.717,1.684,0,1.615,0,3.229,0,4.845,0,1.68-.016,3.36.013,5.041C255.256,112.549,255.107,112.673,254.672,112.645Z" transform="translate(-126.02 -23.863)"/><path class="a" d="M159,291.5H111.188c-1.166,0-1.414.245-1.414,1.39q0,5.828,0,11.654c0,1.076.279,1.341,1.409,1.341q23.94,0,47.88,0c1.151,0,1.414-.261,1.414-1.4V292.895C160.476,291.729,160.233,291.5,159,291.5Zm-1.033,12.582q-11.423-.024-22.845-.011-11.391,0-22.778.014c-.56,0-.705-.121-.7-.67.031-3.163.024-6.325.005-9.488,0-.448.054-.628.6-.627q22.879.026,45.759,0c.471,0,.6.105.595.567q-.035,4.809,0,9.619C158.611,304,158.449,304.084,157.965,304.082Z" transform="translate(-30.02 -182.898)"/><path class="a" d="M140.367,137.67c.063.161.105.329.132.411a.871.871,0,0,1-.68.954.881.881,0,0,1-1.106-.522c-.321-.742-.616-1.493-.917-2.242-.39-.973-.78-1.944-1.158-2.921-.248-.644-.091-1.122.421-1.332a.962.962,0,0,1,1.314.67C139.048,134.344,139.706,136.009,140.367,137.67Z" transform="translate(-51.921 -51.261)"/><path class="a" d="M106.861,110.84c-5.886.021-10.288,4.349-10.271,9.948.018,5.849,4.751,9.848,10.308,9.938a10.173,10.173,0,0,0,10.28-9.969A10.019,10.019,0,0,0,106.861,110.84Zm6.834,14.705c-.161.217-.263.263-.515.077a.85.85,0,0,0-1.166.1.78.78,0,0,0-.121,1.124c.183.238.169.345-.063.5a9.038,9.038,0,0,1-3.656,1.461c-.25.044-.355-.009-.39-.28a.921.921,0,0,0-1.8-.054c-.06.3-.158.382-.488.32a9.048,9.048,0,0,1-3.473-1.388c-.236-.158-.386-.245-.156-.592a.886.886,0,0,0-.81-1.369c-.036.005-.15-.009-.208.04-.656.546-.852-.023-1.113-.422a8.086,8.086,0,0,1-1.157-2.909c-.051-.259-.112-.49.334-.53a.786.786,0,0,0,.714-.83.811.811,0,0,0-.731-.886c-.354-.054-.383-.221-.328-.494a8.438,8.438,0,0,1,1.481-3.4c.16-.214.265-.287.522-.095a.866.866,0,0,0,1.171-.091.786.786,0,0,0,.114-1.127c-.232-.3-.1-.383.132-.543a8.893,8.893,0,0,1,3.466-1.4c.266-.051.468-.061.524.294a.917.917,0,0,0,1.795-.007c.042-.319.2-.341.448-.3a8.865,8.865,0,0,1,3.589,1.447c.239.165.236.289.073.522a.789.789,0,0,0,.138,1.124.86.86,0,0,0,1.171.074c.285-.219.377-.06.511.123a8.315,8.315,0,0,1,1.5,3.467c.045.238,0,.354-.274.394a.883.883,0,0,0,.047,1.759c.279.026.263.173.228.361A8.347,8.347,0,0,1,113.7,125.545Z" transform="translate(-19.227 -33.857)"/><path class="a" d="M299.176,247.569a2.864,2.864,0,1,0,2.937,2.909A2.955,2.955,0,0,0,299.176,247.569Zm-.071,3.9a1.059,1.059,0,0,1-1.046-1.061,1.1,1.1,0,0,1,1.095-1.027,1.074,1.074,0,0,1,1.07,1.043A1.044,1.044,0,0,1,299.106,251.472Z" transform="translate(-182.635 -146.656)"/><path class="a" d="M173.354,247.566a2.864,2.864,0,1,0,2.917,2.867A2.95,2.95,0,0,0,173.354,247.566Zm-.016,3.9a1.051,1.051,0,0,1-1.113-.987,1.069,1.069,0,0,1,1.073-1.1,1.106,1.106,0,0,1,1.091,1.033A1.062,1.062,0,0,1,173.338,251.471Z" transform="translate(-79.607 -146.653)"/><path class="a" d="M236.241,247.569a2.864,2.864,0,1,0,2.946,2.905A2.954,2.954,0,0,0,236.241,247.569Zm1.057,2.965a1.073,1.073,0,0,1-1.167.936,1.052,1.052,0,0,1-1-1.1,1.085,1.085,0,0,1,2.163.166Z" transform="translate(-131.113 -146.656)"/><path class="a" d="M140.5,138.081a.871.871,0,0,1-.68.954.881.881,0,0,1-1.106-.522c-.321-.742-.616-1.493-.917-2.242-.39-.973-.78-1.944-1.158-2.921-.248-.644-.091-1.122.421-1.332a.962.962,0,0,1,1.314.67c.674,1.656,1.332,3.32,1.994,4.981C140.431,137.831,140.473,138,140.5,138.081Z" transform="translate(-51.921 -51.261)"/><path class="a" d="M140.5,138.081a.871.871,0,0,1-.68.954.881.881,0,0,1-1.106-.522c-.321-.742-.616-1.493-.917-2.242-.39-.973-.78-1.944-1.158-2.921-.248-.644-.091-1.122.421-1.332a.962.962,0,0,1,1.314.67c.674,1.656,1.332,3.32,1.994,4.981C140.431,137.831,140.473,138,140.5,138.081Z" transform="translate(-51.921 -51.261)"/></g></svg>