<svg xmlns="http://www.w3.org/2000/svg" width="64" height="64" viewBox="0 0 64 64"><defs><style>.a{fill:#ff7607;}.b{fill:rgba(0,0,0,0);}</style></defs><g transform="translate(-73.106 -69.8)"><path class="a" d="M93.747,100.913a2.864,2.864,0,1,0,2.917,2.867A2.95,2.95,0,0,0,93.747,100.913Zm-.016,3.9a1.051,1.051,0,0,1-1.113-.987,1.069,1.069,0,0,1,1.073-1.1,1.106,1.106,0,0,1,1.091,1.033A1.062,1.062,0,0,1,93.731,104.818ZM88.446,86.409c-.662-1.661-1.32-3.325-1.994-4.981a.962.962,0,0,0-1.314-.67c-.511.21-.669.688-.421,1.332.379.977.769,1.948,1.158,2.921.3.749.6,1.5.917,2.242a.881.881,0,0,0,1.106.522.871.871,0,0,0,.68-.954C88.551,86.738,88.51,86.57,88.446,86.409Zm0,0c-.662-1.661-1.32-3.325-1.994-4.981a.962.962,0,0,0-1.314-.67c-.511.21-.669.688-.421,1.332.379.977.769,1.948,1.158,2.921.3.749.6,1.5.917,2.242a.881.881,0,0,0,1.106.522.871.871,0,0,0,.68-.954C88.551,86.738,88.51,86.57,88.446,86.409Zm0,0c-.662-1.661-1.32-3.325-1.994-4.981a.962.962,0,0,0-1.314-.67c-.511.21-.669.688-.421,1.332.379.977.769,1.948,1.158,2.921.3.749.6,1.5.917,2.242a.881.881,0,0,0,1.106.522.871.871,0,0,0,.68-.954C88.551,86.738,88.51,86.57,88.446,86.409Zm0,0c-.662-1.661-1.32-3.325-1.994-4.981a.962.962,0,0,0-1.314-.67c-.511.21-.669.688-.421,1.332.379.977.769,1.948,1.158,2.921.3.749.6,1.5.917,2.242a.881.881,0,0,0,1.106.522.871.871,0,0,0,.68-.954C88.551,86.738,88.51,86.57,88.446,86.409Zm0,0c-.662-1.661-1.32-3.325-1.994-4.981a.962.962,0,0,0-1.314-.67c-.511.21-.669.688-.421,1.332.379.977.769,1.948,1.158,2.921.3.749.6,1.5.917,2.242a.881.881,0,0,0,1.106.522.871.871,0,0,0,.68-.954C88.551,86.738,88.51,86.57,88.446,86.409Zm0,0c-.662-1.661-1.32-3.325-1.994-4.981a.962.962,0,0,0-1.314-.67c-.511.21-.669.688-.421,1.332.379.977.769,1.948,1.158,2.921.3.749.6,1.5.917,2.242a.881.881,0,0,0,1.106.522.871.871,0,0,0,.68-.954C88.551,86.738,88.51,86.57,88.446,86.409Zm-.812-9.426c-5.886.021-10.288,4.349-10.271,9.948.018,5.849,4.751,9.848,10.308,9.938A10.173,10.173,0,0,0,97.951,86.9,10.019,10.019,0,0,0,87.634,76.983Zm6.834,14.705c-.161.217-.263.263-.515.077a.85.85,0,0,0-1.166.1.78.78,0,0,0-.121,1.124c.183.238.169.345-.063.5a9.038,9.038,0,0,1-3.656,1.461c-.25.044-.355-.009-.39-.28a.921.921,0,0,0-1.8-.054c-.06.3-.158.382-.488.32A9.048,9.048,0,0,1,82.8,93.552c-.236-.158-.386-.245-.156-.592a.886.886,0,0,0-.81-1.369c-.036.005-.15-.009-.208.04-.656.546-.852-.023-1.113-.422A8.086,8.086,0,0,1,79.355,88.3c-.051-.259-.112-.49.334-.53a.786.786,0,0,0,.714-.83.811.811,0,0,0-.731-.886c-.354-.054-.382-.221-.328-.494a8.438,8.438,0,0,1,1.481-3.4c.16-.214.265-.287.522-.095a.866.866,0,0,0,1.171-.091.786.786,0,0,0,.114-1.127c-.232-.3-.1-.383.132-.543a8.893,8.893,0,0,1,3.466-1.4c.266-.051.468-.061.524.294a.917.917,0,0,0,1.795-.007c.042-.319.2-.341.448-.3a8.865,8.865,0,0,1,3.589,1.447c.239.165.236.289.073.522a.789.789,0,0,0,.138,1.124.86.86,0,0,0,1.171.074c.285-.219.377-.06.511.123a8.315,8.315,0,0,1,1.5,3.467c.045.238,0,.354-.274.394A.883.883,0,0,0,95.75,87.8c.279.026.263.173.228.361A8.346,8.346,0,0,1,94.468,91.688Zm-8.016-10.26a.962.962,0,0,0-1.314-.67c-.511.21-.669.688-.421,1.332.379.977.769,1.948,1.158,2.921.3.749.6,1.5.917,2.242a.881.881,0,0,0,1.106.522.871.871,0,0,0,.68-.954c-.027-.082-.069-.25-.132-.411C87.785,84.748,87.127,83.084,86.452,81.428Zm1.994,4.981c-.662-1.661-1.32-3.325-1.994-4.981a.962.962,0,0,0-1.314-.67c-.511.21-.669.688-.421,1.332.379.977.769,1.948,1.158,2.921.3.749.6,1.5.917,2.242a.881.881,0,0,0,1.106.522.871.871,0,0,0,.68-.954C88.551,86.738,88.51,86.57,88.446,86.409Zm0,0c-.662-1.661-1.32-3.325-1.994-4.981a.962.962,0,0,0-1.314-.67c-.511.21-.669.688-.421,1.332.379.977.769,1.948,1.158,2.921.3.749.6,1.5.917,2.242a.881.881,0,0,0,1.106.522.871.871,0,0,0,.68-.954C88.551,86.738,88.51,86.57,88.446,86.409Zm0,0c-.662-1.661-1.32-3.325-1.994-4.981a.962.962,0,0,0-1.314-.67c-.511.21-.669.688-.421,1.332.379.977.769,1.948,1.158,2.921.3.749.6,1.5.917,2.242a.881.881,0,0,0,1.106.522.871.871,0,0,0,.68-.954C88.551,86.738,88.51,86.57,88.446,86.409Zm0,0c-.662-1.661-1.32-3.325-1.994-4.981a.962.962,0,0,0-1.314-.67c-.511.21-.669.688-.421,1.332.379.977.769,1.948,1.158,2.921.3.749.6,1.5.917,2.242a.881.881,0,0,0,1.106.522.871.871,0,0,0,.68-.954C88.551,86.738,88.51,86.57,88.446,86.409Zm16.681,14.5a2.864,2.864,0,1,0,2.946,2.905A2.954,2.954,0,0,0,105.128,100.913Zm1.057,2.965a1.073,1.073,0,0,1-1.167.936,1.052,1.052,0,0,1-1-1.1,1.085,1.085,0,0,1,2.163.166Zm10.357-2.965a2.864,2.864,0,1,0,2.937,2.909A2.955,2.955,0,0,0,116.541,100.913Zm-.071,3.9a1.059,1.059,0,0,1-1.046-1.061,1.1,1.1,0,0,1,1.095-1.027,1.074,1.074,0,0,1,1.07,1.043A1.044,1.044,0,0,1,116.47,104.816Zm12.508,3.786H81.168c-1.166,0-1.414.245-1.414,1.39q0,5.828,0,11.654c0,1.076.279,1.341,1.409,1.341q23.94,0,47.88,0c1.151,0,1.414-.261,1.414-1.4V110C130.456,108.831,130.213,108.6,128.979,108.6Zm-1.033,12.582q-11.423-.024-22.845-.011-11.391,0-22.778.014c-.56,0-.705-.121-.7-.67.031-3.163.024-6.325.005-9.488,0-.448.054-.628.6-.627q22.879.026,45.759,0c.471,0,.6.105.595.567q-.035,4.81,0,9.619C128.591,121.1,128.429,121.185,127.945,121.184Zm3.138-42.556c0-.109,0-.219,0-.327-.02-2.177-1.332-3.436-3.6-3.436q-11.456-.005-22.912,0c-2.262,0-3.56,1.264-3.562,3.458q0,8.6,0,17.208a3.164,3.164,0,0,0,3.52,3.416q5.759.005,11.522,0c3.8,0,7.594-.061,11.388.023a3.386,3.386,0,0,0,3.66-3.532C131.047,89.836,131.083,84.232,131.083,78.628Zm-1.874,17.08c-.015.961-.558,1.437-1.612,1.444-1.853.014-3.707.005-5.56.005H116q-5.626,0-11.254,0c-1.441,0-1.867-.406-1.867-1.78,0-2.837.011-5.672-.013-8.508-.005-.5.114-.679.663-.651,1.028.056,1.474.446,1.485,1.456.011,1.178-.025,2.357.013,3.534a3.035,3.035,0,0,0,2.678,2.991,3.112,3.112,0,0,0,3.426-2.161,3.9,3.9,0,0,0,.109-1.167c0-2.289,0-4.58.005-6.871a4,4,0,0,1,.058-.779,1.645,1.645,0,0,1,1.753-1.318,1.607,1.607,0,0,1,1.548,1.537c.033,1.328-.013,2.66.025,3.99a3.151,3.151,0,0,0,2.939,3.065,3.248,3.248,0,0,0,3.359-2.217,10.389,10.389,0,0,0,.158-2.147,1.351,1.351,0,0,1,1.247-1.253,1.426,1.426,0,0,1,1.554.9,1.924,1.924,0,0,1,.087.578c.013.413-.007.828.009,1.243a3.044,3.044,0,0,0,3.055,2.975c.564.025,1.129.021,1.695.005.323-.007.493.049.489.424C129.205,92.566,129.234,94.138,129.209,95.708Zm-.557-6.925c-.495-.031-1,.011-1.49-.016a1.229,1.229,0,0,1-1.3-1.3,8.288,8.288,0,0,0-.121-2.018,3.355,3.355,0,0,0-3.539-2.361,3.267,3.267,0,0,0-3,3.1c-.013.371.011.742-.013,1.113a1.3,1.3,0,0,1-1.385,1.306,1.283,1.283,0,0,1-1.285-1.334c-.022-1.265.007-2.531-.013-3.8a3.475,3.475,0,0,0-3.212-3.388,3.578,3.578,0,0,0-3.783,2.545,4.492,4.492,0,0,0-.116,1.234q0,3.4,0,6.808c0,.175.007.35-.005.523a1.241,1.241,0,1,1-2.482-.024c-.025-1.243-.013-2.487-.009-3.731a2.864,2.864,0,0,0-.8-2.027,3.223,3.223,0,0,0-2.618-1c-.459.019-.618-.084-.611-.562.031-1.855.009-3.71.014-5.566.005-1.155.491-1.624,1.693-1.624q11.461,0,22.923,0c1.211,0,1.713.5,1.717,1.684,0,1.615,0,3.229,0,4.845,0,1.68-.016,3.36.013,5.041C129.236,88.686,129.088,88.81,128.652,88.782Zm2.431-10.155c0-.109,0-.219,0-.327-.02-2.177-1.332-3.436-3.6-3.436q-11.456-.005-22.912,0c-2.262,0-3.56,1.264-3.562,3.458q0,8.6,0,17.208a3.164,3.164,0,0,0,3.52,3.416q5.759.005,11.522,0c3.8,0,7.594-.061,11.388.023a3.386,3.386,0,0,0,3.66-3.532C131.047,89.836,131.083,84.232,131.083,78.628Zm-1.874,17.08c-.015.961-.558,1.437-1.612,1.444-1.853.014-3.707.005-5.56.005H116q-5.626,0-11.254,0c-1.441,0-1.867-.406-1.867-1.78,0-2.837.011-5.672-.013-8.508-.005-.5.114-.679.663-.651,1.028.056,1.474.446,1.485,1.456.011,1.178-.025,2.357.013,3.534a3.035,3.035,0,0,0,2.678,2.991,3.112,3.112,0,0,0,3.426-2.161,3.9,3.9,0,0,0,.109-1.167c0-2.289,0-4.58.005-6.871a4,4,0,0,1,.058-.779,1.645,1.645,0,0,1,1.753-1.318,1.607,1.607,0,0,1,1.548,1.537c.033,1.328-.013,2.66.025,3.99a3.151,3.151,0,0,0,2.939,3.065,3.248,3.248,0,0,0,3.359-2.217,10.389,10.389,0,0,0,.158-2.147,1.351,1.351,0,0,1,1.247-1.253,1.426,1.426,0,0,1,1.554.9,1.924,1.924,0,0,1,.087.578c.013.413-.007.828.009,1.243a3.044,3.044,0,0,0,3.055,2.975c.564.025,1.129.021,1.695.005.323-.007.493.049.489.424C129.205,92.566,129.234,94.138,129.209,95.708Zm-.557-6.925c-.495-.031-1,.011-1.49-.016a1.229,1.229,0,0,1-1.3-1.3,8.288,8.288,0,0,0-.121-2.018,3.355,3.355,0,0,0-3.539-2.361,3.267,3.267,0,0,0-3,3.1c-.013.371.011.742-.013,1.113a1.3,1.3,0,0,1-1.385,1.306,1.283,1.283,0,0,1-1.285-1.334c-.022-1.265.007-2.531-.013-3.8a3.475,3.475,0,0,0-3.212-3.388,3.578,3.578,0,0,0-3.783,2.545,4.492,4.492,0,0,0-.116,1.234q0,3.4,0,6.808c0,.175.007.35-.005.523a1.241,1.241,0,1,1-2.482-.024c-.025-1.243-.013-2.487-.009-3.731a2.864,2.864,0,0,0-.8-2.027,3.223,3.223,0,0,0-2.618-1c-.459.019-.618-.084-.611-.562.031-1.855.009-3.71.014-5.566.005-1.155.491-1.624,1.693-1.624q11.461,0,22.923,0c1.211,0,1.713.5,1.717,1.684,0,1.615,0,3.229,0,4.845,0,1.68-.016,3.36.013,5.041C129.236,88.686,129.088,88.81,128.652,88.782Zm.326,19.819H81.168c-1.166,0-1.414.245-1.414,1.39q0,5.828,0,11.654c0,1.076.279,1.341,1.409,1.341q23.94,0,47.88,0c1.151,0,1.414-.261,1.414-1.4V110C130.456,108.831,130.213,108.6,128.979,108.6Zm-1.033,12.582q-11.423-.024-22.845-.011-11.391,0-22.778.014c-.56,0-.705-.121-.7-.67.031-3.163.024-6.325.005-9.488,0-.448.054-.628.6-.627q22.879.026,45.759,0c.471,0,.6.105.595.567q-.035,4.81,0,9.619C128.591,121.1,128.429,121.185,127.945,121.184Zm-11.4-20.271a2.864,2.864,0,1,0,2.937,2.909A2.955,2.955,0,0,0,116.541,100.913Zm-.071,3.9a1.059,1.059,0,0,1-1.046-1.061,1.1,1.1,0,0,1,1.095-1.027,1.074,1.074,0,0,1,1.07,1.043A1.044,1.044,0,0,1,116.47,104.816Zm-11.343-3.9a2.864,2.864,0,1,0,2.946,2.905A2.954,2.954,0,0,0,105.128,100.913Zm1.057,2.965a1.073,1.073,0,0,1-1.167.936,1.052,1.052,0,0,1-1-1.1,1.085,1.085,0,0,1,2.163.166ZM88.446,86.409c-.662-1.661-1.32-3.325-1.994-4.981a.962.962,0,0,0-1.314-.67c-.511.21-.669.688-.421,1.332.379.977.769,1.948,1.158,2.921.3.749.6,1.5.917,2.242a.881.881,0,0,0,1.106.522.871.871,0,0,0,.68-.954C88.551,86.738,88.51,86.57,88.446,86.409Zm0,0c-.662-1.661-1.32-3.325-1.994-4.981a.962.962,0,0,0-1.314-.67c-.511.21-.669.688-.421,1.332.379.977.769,1.948,1.158,2.921.3.749.6,1.5.917,2.242a.881.881,0,0,0,1.106.522.871.871,0,0,0,.68-.954C88.551,86.738,88.51,86.57,88.446,86.409Zm0,0c-.662-1.661-1.32-3.325-1.994-4.981a.962.962,0,0,0-1.314-.67c-.511.21-.669.688-.421,1.332.379.977.769,1.948,1.158,2.921.3.749.6,1.5.917,2.242a.881.881,0,0,0,1.106.522.871.871,0,0,0,.68-.954C88.551,86.738,88.51,86.57,88.446,86.409Zm0,0c-.662-1.661-1.32-3.325-1.994-4.981a.962.962,0,0,0-1.314-.67c-.511.21-.669.688-.421,1.332.379.977.769,1.948,1.158,2.921.3.749.6,1.5.917,2.242a.881.881,0,0,0,1.106.522.871.871,0,0,0,.68-.954C88.551,86.738,88.51,86.57,88.446,86.409Zm0,0c-.662-1.661-1.32-3.325-1.994-4.981a.962.962,0,0,0-1.314-.67c-.511.21-.669.688-.421,1.332.379.977.769,1.948,1.158,2.921.3.749.6,1.5.917,2.242a.881.881,0,0,0,1.106.522.871.871,0,0,0,.68-.954C88.551,86.738,88.51,86.57,88.446,86.409Zm0,0c-.662-1.661-1.32-3.325-1.994-4.981a.962.962,0,0,0-1.314-.67c-.511.21-.669.688-.421,1.332.379.977.769,1.948,1.158,2.921.3.749.6,1.5.917,2.242a.881.881,0,0,0,1.106.522.871.871,0,0,0,.68-.954C88.551,86.738,88.51,86.57,88.446,86.409Zm-.812-9.426c-5.886.021-10.288,4.349-10.271,9.948.018,5.849,4.751,9.848,10.308,9.938A10.173,10.173,0,0,0,97.951,86.9,10.019,10.019,0,0,0,87.634,76.983Zm6.834,14.705c-.161.217-.263.263-.515.077a.85.85,0,0,0-1.166.1.78.78,0,0,0-.121,1.124c.183.238.169.345-.063.5a9.038,9.038,0,0,1-3.656,1.461c-.25.044-.355-.009-.39-.28a.921.921,0,0,0-1.8-.054c-.06.3-.158.382-.488.32A9.048,9.048,0,0,1,82.8,93.552c-.236-.158-.386-.245-.156-.592a.886.886,0,0,0-.81-1.369c-.036.005-.15-.009-.208.04-.656.546-.852-.023-1.113-.422A8.086,8.086,0,0,1,79.355,88.3c-.051-.259-.112-.49.334-.53a.786.786,0,0,0,.714-.83.811.811,0,0,0-.731-.886c-.354-.054-.382-.221-.328-.494a8.438,8.438,0,0,1,1.481-3.4c.16-.214.265-.287.522-.095a.866.866,0,0,0,1.171-.091.786.786,0,0,0,.114-1.127c-.232-.3-.1-.383.132-.543a8.893,8.893,0,0,1,3.466-1.4c.266-.051.468-.061.524.294a.917.917,0,0,0,1.795-.007c.042-.319.2-.341.448-.3a8.865,8.865,0,0,1,3.589,1.447c.239.165.236.289.073.522a.789.789,0,0,0,.138,1.124.86.86,0,0,0,1.171.074c.285-.219.377-.06.511.123a8.315,8.315,0,0,1,1.5,3.467c.045.238,0,.354-.274.394A.883.883,0,0,0,95.75,87.8c.279.026.263.173.228.361A8.346,8.346,0,0,1,94.468,91.688Zm-8.016-10.26a.962.962,0,0,0-1.314-.67c-.511.21-.669.688-.421,1.332.379.977.769,1.948,1.158,2.921.3.749.6,1.5.917,2.242a.881.881,0,0,0,1.106.522.871.871,0,0,0,.68-.954c-.027-.082-.069-.25-.132-.411C87.785,84.748,87.127,83.084,86.452,81.428Zm1.994,4.981c-.662-1.661-1.32-3.325-1.994-4.981a.962.962,0,0,0-1.314-.67c-.511.21-.669.688-.421,1.332.379.977.769,1.948,1.158,2.921.3.749.6,1.5.917,2.242a.881.881,0,0,0,1.106.522.871.871,0,0,0,.68-.954C88.551,86.738,88.51,86.57,88.446,86.409Zm0,0c-.662-1.661-1.32-3.325-1.994-4.981a.962.962,0,0,0-1.314-.67c-.511.21-.669.688-.421,1.332.379.977.769,1.948,1.158,2.921.3.749.6,1.5.917,2.242a.881.881,0,0,0,1.106.522.871.871,0,0,0,.68-.954C88.551,86.738,88.51,86.57,88.446,86.409Zm0,0c-.662-1.661-1.32-3.325-1.994-4.981a.962.962,0,0,0-1.314-.67c-.511.21-.669.688-.421,1.332.379.977.769,1.948,1.158,2.921.3.749.6,1.5.917,2.242a.881.881,0,0,0,1.106.522.871.871,0,0,0,.68-.954C88.551,86.738,88.51,86.57,88.446,86.409Zm0,0c-.662-1.661-1.32-3.325-1.994-4.981a.962.962,0,0,0-1.314-.67c-.511.21-.669.688-.421,1.332.379.977.769,1.948,1.158,2.921.3.749.6,1.5.917,2.242a.881.881,0,0,0,1.106.522.871.871,0,0,0,.68-.954C88.551,86.738,88.51,86.57,88.446,86.409Zm5.3,14.5a2.864,2.864,0,1,0,2.917,2.867A2.95,2.95,0,0,0,93.747,100.913Zm-.016,3.9a1.051,1.051,0,0,1-1.113-.987,1.069,1.069,0,0,1,1.073-1.1,1.106,1.106,0,0,1,1.091,1.033A1.062,1.062,0,0,1,93.731,104.818ZM88.446,86.409c-.662-1.661-1.32-3.325-1.994-4.981a.962.962,0,0,0-1.314-.67c-.511.21-.669.688-.421,1.332.379.977.769,1.948,1.158,2.921.3.749.6,1.5.917,2.242a.881.881,0,0,0,1.106.522.871.871,0,0,0,.68-.954C88.551,86.738,88.51,86.57,88.446,86.409Zm5.3,14.5a2.864,2.864,0,1,0,2.917,2.867A2.95,2.95,0,0,0,93.747,100.913Zm-.016,3.9a1.051,1.051,0,0,1-1.113-.987,1.069,1.069,0,0,1,1.073-1.1,1.106,1.106,0,0,1,1.091,1.033A1.062,1.062,0,0,1,93.731,104.818ZM88.446,86.409c-.662-1.661-1.32-3.325-1.994-4.981a.962.962,0,0,0-1.314-.67c-.511.21-.669.688-.421,1.332.379.977.769,1.948,1.158,2.921.3.749.6,1.5.917,2.242a.881.881,0,0,0,1.106.522.871.871,0,0,0,.68-.954C88.551,86.738,88.51,86.57,88.446,86.409Zm0,0c-.662-1.661-1.32-3.325-1.994-4.981a.962.962,0,0,0-1.314-.67c-.511.21-.669.688-.421,1.332.379.977.769,1.948,1.158,2.921.3.749.6,1.5.917,2.242a.881.881,0,0,0,1.106.522.871.871,0,0,0,.68-.954C88.551,86.738,88.51,86.57,88.446,86.409Zm0,0c-.662-1.661-1.32-3.325-1.994-4.981a.962.962,0,0,0-1.314-.67c-.511.21-.669.688-.421,1.332.379.977.769,1.948,1.158,2.921.3.749.6,1.5.917,2.242a.881.881,0,0,0,1.106.522.871.871,0,0,0,.68-.954C88.551,86.738,88.51,86.57,88.446,86.409Zm0,0c-.662-1.661-1.32-3.325-1.994-4.981a.962.962,0,0,0-1.314-.67c-.511.21-.669.688-.421,1.332.379.977.769,1.948,1.158,2.921.3.749.6,1.5.917,2.242a.881.881,0,0,0,1.106.522.871.871,0,0,0,.68-.954C88.551,86.738,88.51,86.57,88.446,86.409Zm0,0c-.662-1.661-1.32-3.325-1.994-4.981a.962.962,0,0,0-1.314-.67c-.511.21-.669.688-.421,1.332.379.977.769,1.948,1.158,2.921.3.749.6,1.5.917,2.242a.881.881,0,0,0,1.106.522.871.871,0,0,0,.68-.954C88.551,86.738,88.51,86.57,88.446,86.409Zm-.812-9.426c-5.886.021-10.288,4.349-10.271,9.948.018,5.849,4.751,9.848,10.308,9.938A10.173,10.173,0,0,0,97.951,86.9,10.019,10.019,0,0,0,87.634,76.983Zm6.834,14.705c-.161.217-.263.263-.515.077a.85.85,0,0,0-1.166.1.78.78,0,0,0-.121,1.124c.183.238.169.345-.063.5a9.038,9.038,0,0,1-3.656,1.461c-.25.044-.355-.009-.39-.28a.921.921,0,0,0-1.8-.054c-.06.3-.158.382-.488.32A9.048,9.048,0,0,1,82.8,93.552c-.236-.158-.386-.245-.156-.592a.886.886,0,0,0-.81-1.369c-.036.005-.15-.009-.208.04-.656.546-.852-.023-1.113-.422A8.086,8.086,0,0,1,79.355,88.3c-.051-.259-.112-.49.334-.53a.786.786,0,0,0,.714-.83.811.811,0,0,0-.731-.886c-.354-.054-.382-.221-.328-.494a8.438,8.438,0,0,1,1.481-3.4c.16-.214.265-.287.522-.095a.866.866,0,0,0,1.171-.091.786.786,0,0,0,.114-1.127c-.232-.3-.1-.383.132-.543a8.893,8.893,0,0,1,3.466-1.4c.266-.051.468-.061.524.294a.917.917,0,0,0,1.795-.007c.042-.319.2-.341.448-.3a8.865,8.865,0,0,1,3.589,1.447c.239.165.236.289.073.522a.789.789,0,0,0,.138,1.124.86.86,0,0,0,1.171.074c.285-.219.377-.06.511.123a8.315,8.315,0,0,1,1.5,3.467c.045.238,0,.354-.274.394A.883.883,0,0,0,95.75,87.8c.279.026.263.173.228.361A8.346,8.346,0,0,1,94.468,91.688Zm-8.016-10.26a.962.962,0,0,0-1.314-.67c-.511.21-.669.688-.421,1.332.379.977.769,1.948,1.158,2.921.3.749.6,1.5.917,2.242a.881.881,0,0,0,1.106.522.871.871,0,0,0,.68-.954c-.027-.082-.069-.25-.132-.411C87.785,84.748,87.127,83.084,86.452,81.428Zm1.994,4.981c-.662-1.661-1.32-3.325-1.994-4.981a.962.962,0,0,0-1.314-.67c-.511.21-.669.688-.421,1.332.379.977.769,1.948,1.158,2.921.3.749.6,1.5.917,2.242a.881.881,0,0,0,1.106.522.871.871,0,0,0,.68-.954C88.551,86.738,88.51,86.57,88.446,86.409Zm0,0c-.662-1.661-1.32-3.325-1.994-4.981a.962.962,0,0,0-1.314-.67c-.511.21-.669.688-.421,1.332.379.977.769,1.948,1.158,2.921.3.749.6,1.5.917,2.242a.881.881,0,0,0,1.106.522.871.871,0,0,0,.68-.954C88.551,86.738,88.51,86.57,88.446,86.409Zm0,0c-.662-1.661-1.32-3.325-1.994-4.981a.962.962,0,0,0-1.314-.67c-.511.21-.669.688-.421,1.332.379.977.769,1.948,1.158,2.921.3.749.6,1.5.917,2.242a.881.881,0,0,0,1.106.522.871.871,0,0,0,.68-.954C88.551,86.738,88.51,86.57,88.446,86.409Zm0,0c-.662-1.661-1.32-3.325-1.994-4.981a.962.962,0,0,0-1.314-.67c-.511.21-.669.688-.421,1.332.379.977.769,1.948,1.158,2.921.3.749.6,1.5.917,2.242a.881.881,0,0,0,1.106.522.871.871,0,0,0,.68-.954C88.551,86.738,88.51,86.57,88.446,86.409Zm16.681,14.5a2.864,2.864,0,1,0,2.946,2.905A2.954,2.954,0,0,0,105.128,100.913Zm1.057,2.965a1.073,1.073,0,0,1-1.167.936,1.052,1.052,0,0,1-1-1.1,1.085,1.085,0,0,1,2.163.166Zm10.357-2.965a2.864,2.864,0,1,0,2.937,2.909A2.955,2.955,0,0,0,116.541,100.913Zm-.071,3.9a1.059,1.059,0,0,1-1.046-1.061,1.1,1.1,0,0,1,1.095-1.027,1.074,1.074,0,0,1,1.07,1.043A1.044,1.044,0,0,1,116.47,104.816Zm12.508,3.786H81.168c-1.166,0-1.414.245-1.414,1.39q0,5.828,0,11.654c0,1.076.279,1.341,1.409,1.341q23.94,0,47.88,0c1.151,0,1.414-.261,1.414-1.4V110C130.456,108.831,130.213,108.6,128.979,108.6Zm-1.033,12.582q-11.423-.024-22.845-.011-11.391,0-22.778.014c-.56,0-.705-.121-.7-.67.031-3.163.024-6.325.005-9.488,0-.448.054-.628.6-.627q22.879.026,45.759,0c.471,0,.6.105.595.567q-.035,4.81,0,9.619C128.591,121.1,128.429,121.185,127.945,121.184Zm3.138-42.556c0-.109,0-.219,0-.327-.02-2.177-1.332-3.436-3.6-3.436q-11.456-.005-22.912,0c-2.262,0-3.56,1.264-3.562,3.458q0,8.6,0,17.208a3.164,3.164,0,0,0,3.52,3.416q5.759.005,11.522,0c3.8,0,7.594-.061,11.388.023a3.386,3.386,0,0,0,3.66-3.532C131.047,89.836,131.083,84.232,131.083,78.628Zm-1.874,17.08c-.015.961-.558,1.437-1.612,1.444-1.853.014-3.707.005-5.56.005H116q-5.626,0-11.254,0c-1.441,0-1.867-.406-1.867-1.78,0-2.837.011-5.672-.013-8.508-.005-.5.114-.679.663-.651,1.028.056,1.474.446,1.485,1.456.011,1.178-.025,2.357.013,3.534a3.035,3.035,0,0,0,2.678,2.991,3.112,3.112,0,0,0,3.426-2.161,3.9,3.9,0,0,0,.109-1.167c0-2.289,0-4.58.005-6.871a4,4,0,0,1,.058-.779,1.645,1.645,0,0,1,1.753-1.318,1.607,1.607,0,0,1,1.548,1.537c.033,1.328-.013,2.66.025,3.99a3.151,3.151,0,0,0,2.939,3.065,3.248,3.248,0,0,0,3.359-2.217,10.389,10.389,0,0,0,.158-2.147,1.351,1.351,0,0,1,1.247-1.253,1.426,1.426,0,0,1,1.554.9,1.924,1.924,0,0,1,.087.578c.013.413-.007.828.009,1.243a3.044,3.044,0,0,0,3.055,2.975c.564.025,1.129.021,1.695.005.323-.007.493.049.489.424C129.205,92.566,129.234,94.138,129.209,95.708Zm-.557-6.925c-.495-.031-1,.011-1.49-.016a1.229,1.229,0,0,1-1.3-1.3,8.288,8.288,0,0,0-.121-2.018,3.355,3.355,0,0,0-3.539-2.361,3.267,3.267,0,0,0-3,3.1c-.013.371.011.742-.013,1.113a1.3,1.3,0,0,1-1.385,1.306,1.283,1.283,0,0,1-1.285-1.334c-.022-1.265.007-2.531-.013-3.8a3.475,3.475,0,0,0-3.212-3.388,3.578,3.578,0,0,0-3.783,2.545,4.492,4.492,0,0,0-.116,1.234q0,3.4,0,6.808c0,.175.007.35-.005.523a1.241,1.241,0,1,1-2.482-.024c-.025-1.243-.013-2.487-.009-3.731a2.864,2.864,0,0,0-.8-2.027,3.223,3.223,0,0,0-2.618-1c-.459.019-.618-.084-.611-.562.031-1.855.009-3.71.014-5.566.005-1.155.491-1.624,1.693-1.624q11.461,0,22.923,0c1.211,0,1.713.5,1.717,1.684,0,1.615,0,3.229,0,4.845,0,1.68-.016,3.36.013,5.041C129.236,88.686,129.088,88.81,128.652,88.782Zm2.431-10.155c0-.109,0-.219,0-.327-.02-2.177-1.332-3.436-3.6-3.436q-11.456-.005-22.912,0c-2.262,0-3.56,1.264-3.562,3.458q0,8.6,0,17.208a3.164,3.164,0,0,0,3.52,3.416q5.759.005,11.522,0c3.8,0,7.594-.061,11.388.023a3.386,3.386,0,0,0,3.66-3.532C131.047,89.836,131.083,84.232,131.083,78.628Zm-1.874,17.08c-.015.961-.558,1.437-1.612,1.444-1.853.014-3.707.005-5.56.005H116q-5.626,0-11.254,0c-1.441,0-1.867-.406-1.867-1.78,0-2.837.011-5.672-.013-8.508-.005-.5.114-.679.663-.651,1.028.056,1.474.446,1.485,1.456.011,1.178-.025,2.357.013,3.534a3.035,3.035,0,0,0,2.678,2.991,3.112,3.112,0,0,0,3.426-2.161,3.9,3.9,0,0,0,.109-1.167c0-2.289,0-4.58.005-6.871a4,4,0,0,1,.058-.779,1.645,1.645,0,0,1,1.753-1.318,1.607,1.607,0,0,1,1.548,1.537c.033,1.328-.013,2.66.025,3.99a3.151,3.151,0,0,0,2.939,3.065,3.248,3.248,0,0,0,3.359-2.217,10.389,10.389,0,0,0,.158-2.147,1.351,1.351,0,0,1,1.247-1.253,1.426,1.426,0,0,1,1.554.9,1.924,1.924,0,0,1,.087.578c.013.413-.007.828.009,1.243a3.044,3.044,0,0,0,3.055,2.975c.564.025,1.129.021,1.695.005.323-.007.493.049.489.424C129.205,92.566,129.234,94.138,129.209,95.708Zm-.557-6.925c-.495-.031-1,.011-1.49-.016a1.229,1.229,0,0,1-1.3-1.3,8.288,8.288,0,0,0-.121-2.018,3.355,3.355,0,0,0-3.539-2.361,3.267,3.267,0,0,0-3,3.1c-.013.371.011.742-.013,1.113a1.3,1.3,0,0,1-1.385,1.306,1.283,1.283,0,0,1-1.285-1.334c-.022-1.265.007-2.531-.013-3.8a3.475,3.475,0,0,0-3.212-3.388,3.578,3.578,0,0,0-3.783,2.545,4.492,4.492,0,0,0-.116,1.234q0,3.4,0,6.808c0,.175.007.35-.005.523a1.241,1.241,0,1,1-2.482-.024c-.025-1.243-.013-2.487-.009-3.731a2.864,2.864,0,0,0-.8-2.027,3.223,3.223,0,0,0-2.618-1c-.459.019-.618-.084-.611-.562.031-1.855.009-3.71.014-5.566.005-1.155.491-1.624,1.693-1.624q11.461,0,22.923,0c1.211,0,1.713.5,1.717,1.684,0,1.615,0,3.229,0,4.845,0,1.68-.016,3.36.013,5.041C129.236,88.686,129.088,88.81,128.652,88.782Zm.326,19.819H81.168c-1.166,0-1.414.245-1.414,1.39q0,5.828,0,11.654c0,1.076.279,1.341,1.409,1.341q23.94,0,47.88,0c1.151,0,1.414-.261,1.414-1.4V110C130.456,108.831,130.213,108.6,128.979,108.6Zm-1.033,12.582q-11.423-.024-22.845-.011-11.391,0-22.778.014c-.56,0-.705-.121-.7-.67.031-3.163.024-6.325.005-9.488,0-.448.054-.628.6-.627q22.879.026,45.759,0c.471,0,.6.105.595.567q-.035,4.81,0,9.619C128.591,121.1,128.429,121.185,127.945,121.184Zm-11.4-20.271a2.864,2.864,0,1,0,2.937,2.909A2.955,2.955,0,0,0,116.541,100.913Zm-.071,3.9a1.059,1.059,0,0,1-1.046-1.061,1.1,1.1,0,0,1,1.095-1.027,1.074,1.074,0,0,1,1.07,1.043A1.044,1.044,0,0,1,116.47,104.816Zm-11.343-3.9a2.864,2.864,0,1,0,2.946,2.905A2.954,2.954,0,0,0,105.128,100.913Zm1.057,2.965a1.073,1.073,0,0,1-1.167.936,1.052,1.052,0,0,1-1-1.1,1.085,1.085,0,0,1,2.163.166ZM88.446,86.409c-.662-1.661-1.32-3.325-1.994-4.981a.962.962,0,0,0-1.314-.67c-.511.21-.669.688-.421,1.332.379.977.769,1.948,1.158,2.921.3.749.6,1.5.917,2.242a.881.881,0,0,0,1.106.522.871.871,0,0,0,.68-.954C88.551,86.738,88.51,86.57,88.446,86.409Zm0,0c-.662-1.661-1.32-3.325-1.994-4.981a.962.962,0,0,0-1.314-.67c-.511.21-.669.688-.421,1.332.379.977.769,1.948,1.158,2.921.3.749.6,1.5.917,2.242a.881.881,0,0,0,1.106.522.871.871,0,0,0,.68-.954C88.551,86.738,88.51,86.57,88.446,86.409Zm0,0c-.662-1.661-1.32-3.325-1.994-4.981a.962.962,0,0,0-1.314-.67c-.511.21-.669.688-.421,1.332.379.977.769,1.948,1.158,2.921.3.749.6,1.5.917,2.242a.881.881,0,0,0,1.106.522.871.871,0,0,0,.68-.954C88.551,86.738,88.51,86.57,88.446,86.409Zm0,0c-.662-1.661-1.32-3.325-1.994-4.981a.962.962,0,0,0-1.314-.67c-.511.21-.669.688-.421,1.332.379.977.769,1.948,1.158,2.921.3.749.6,1.5.917,2.242a.881.881,0,0,0,1.106.522.871.871,0,0,0,.68-.954C88.551,86.738,88.51,86.57,88.446,86.409Zm-.812-9.426c-5.886.021-10.288,4.349-10.271,9.948.018,5.849,4.751,9.848,10.308,9.938A10.173,10.173,0,0,0,97.951,86.9,10.019,10.019,0,0,0,87.634,76.983Zm6.834,14.705c-.161.217-.263.263-.515.077a.85.85,0,0,0-1.166.1.78.78,0,0,0-.121,1.124c.183.238.169.345-.063.5a9.038,9.038,0,0,1-3.656,1.461c-.25.044-.355-.009-.39-.28a.921.921,0,0,0-1.8-.054c-.06.3-.158.382-.488.32A9.048,9.048,0,0,1,82.8,93.552c-.236-.158-.386-.245-.156-.592a.886.886,0,0,0-.81-1.369c-.036.005-.15-.009-.208.04-.656.546-.852-.023-1.113-.422A8.086,8.086,0,0,1,79.355,88.3c-.051-.259-.112-.49.334-.53a.786.786,0,0,0,.714-.83.811.811,0,0,0-.731-.886c-.354-.054-.382-.221-.328-.494a8.438,8.438,0,0,1,1.481-3.4c.16-.214.265-.287.522-.095a.866.866,0,0,0,1.171-.091.786.786,0,0,0,.114-1.127c-.232-.3-.1-.383.132-.543a8.893,8.893,0,0,1,3.466-1.4c.266-.051.468-.061.524.294a.917.917,0,0,0,1.795-.007c.042-.319.2-.341.448-.3a8.865,8.865,0,0,1,3.589,1.447c.239.165.236.289.073.522a.789.789,0,0,0,.138,1.124.86.86,0,0,0,1.171.074c.285-.219.377-.06.511.123a8.315,8.315,0,0,1,1.5,3.467c.045.238,0,.354-.274.394A.883.883,0,0,0,95.75,87.8c.279.026.263.173.228.361A8.346,8.346,0,0,1,94.468,91.688Zm-8.016-10.26a.962.962,0,0,0-1.314-.67c-.511.21-.669.688-.421,1.332.379.977.769,1.948,1.158,2.921.3.749.6,1.5.917,2.242a.881.881,0,0,0,1.106.522.871.871,0,0,0,.68-.954c-.027-.082-.069-.25-.132-.411C87.785,84.748,87.127,83.084,86.452,81.428Zm1.994,4.981c-.662-1.661-1.32-3.325-1.994-4.981a.962.962,0,0,0-1.314-.67c-.511.21-.669.688-.421,1.332.379.977.769,1.948,1.158,2.921.3.749.6,1.5.917,2.242a.881.881,0,0,0,1.106.522.871.871,0,0,0,.68-.954C88.551,86.738,88.51,86.57,88.446,86.409Zm0,0c-.662-1.661-1.32-3.325-1.994-4.981a.962.962,0,0,0-1.314-.67c-.511.21-.669.688-.421,1.332.379.977.769,1.948,1.158,2.921.3.749.6,1.5.917,2.242a.881.881,0,0,0,1.106.522.871.871,0,0,0,.68-.954C88.551,86.738,88.51,86.57,88.446,86.409Zm0,0c-.662-1.661-1.32-3.325-1.994-4.981a.962.962,0,0,0-1.314-.67c-.511.21-.669.688-.421,1.332.379.977.769,1.948,1.158,2.921.3.749.6,1.5.917,2.242a.881.881,0,0,0,1.106.522.871.871,0,0,0,.68-.954C88.551,86.738,88.51,86.57,88.446,86.409Zm5.3,14.5a2.864,2.864,0,1,0,2.917,2.867A2.95,2.95,0,0,0,93.747,100.913Zm-.016,3.9a1.051,1.051,0,0,1-1.113-.987,1.069,1.069,0,0,1,1.073-1.1,1.106,1.106,0,0,1,1.091,1.033A1.062,1.062,0,0,1,93.731,104.818ZM88.446,86.409c-.662-1.661-1.32-3.325-1.994-4.981a.962.962,0,0,0-1.314-.67c-.511.21-.669.688-.421,1.332.379.977.769,1.948,1.158,2.921.3.749.6,1.5.917,2.242a.881.881,0,0,0,1.106.522.871.871,0,0,0,.68-.954C88.551,86.738,88.51,86.57,88.446,86.409Zm0,0c-.662-1.661-1.32-3.325-1.994-4.981a.962.962,0,0,0-1.314-.67c-.511.21-.669.688-.421,1.332.379.977.769,1.948,1.158,2.921.3.749.6,1.5.917,2.242a.881.881,0,0,0,1.106.522.871.871,0,0,0,.68-.954C88.551,86.738,88.51,86.57,88.446,86.409Zm5.3,14.5a2.864,2.864,0,1,0,2.917,2.867A2.95,2.95,0,0,0,93.747,100.913Zm-.016,3.9a1.051,1.051,0,0,1-1.113-.987,1.069,1.069,0,0,1,1.073-1.1,1.106,1.106,0,0,1,1.091,1.033A1.062,1.062,0,0,1,93.731,104.818ZM88.446,86.409c-.662-1.661-1.32-3.325-1.994-4.981a.962.962,0,0,0-1.314-.67c-.511.21-.669.688-.421,1.332.379.977.769,1.948,1.158,2.921.3.749.6,1.5.917,2.242a.881.881,0,0,0,1.106.522.871.871,0,0,0,.68-.954C88.551,86.738,88.51,86.57,88.446,86.409Zm0,0c-.662-1.661-1.32-3.325-1.994-4.981a.962.962,0,0,0-1.314-.67c-.511.21-.669.688-.421,1.332.379.977.769,1.948,1.158,2.921.3.749.6,1.5.917,2.242a.881.881,0,0,0,1.106.522.871.871,0,0,0,.68-.954C88.551,86.738,88.51,86.57,88.446,86.409Zm0,0c-.662-1.661-1.32-3.325-1.994-4.981a.962.962,0,0,0-1.314-.67c-.511.21-.669.688-.421,1.332.379.977.769,1.948,1.158,2.921.3.749.6,1.5.917,2.242a.881.881,0,0,0,1.106.522.871.871,0,0,0,.68-.954C88.551,86.738,88.51,86.57,88.446,86.409Zm-.812-9.426c-5.886.021-10.288,4.349-10.271,9.948.018,5.849,4.751,9.848,10.308,9.938A10.173,10.173,0,0,0,97.951,86.9,10.019,10.019,0,0,0,87.634,76.983Zm6.834,14.705c-.161.217-.263.263-.515.077a.85.85,0,0,0-1.166.1.78.78,0,0,0-.121,1.124c.183.238.169.345-.063.5a9.038,9.038,0,0,1-3.656,1.461c-.25.044-.355-.009-.39-.28a.921.921,0,0,0-1.8-.054c-.06.3-.158.382-.488.32A9.048,9.048,0,0,1,82.8,93.552c-.236-.158-.386-.245-.156-.592a.886.886,0,0,0-.81-1.369c-.036.005-.15-.009-.208.04-.656.546-.852-.023-1.113-.422A8.086,8.086,0,0,1,79.355,88.3c-.051-.259-.112-.49.334-.53a.786.786,0,0,0,.714-.83.811.811,0,0,0-.731-.886c-.354-.054-.382-.221-.328-.494a8.438,8.438,0,0,1,1.481-3.4c.16-.214.265-.287.522-.095a.866.866,0,0,0,1.171-.091.786.786,0,0,0,.114-1.127c-.232-.3-.1-.383.132-.543a8.893,8.893,0,0,1,3.466-1.4c.266-.051.468-.061.524.294a.917.917,0,0,0,1.795-.007c.042-.319.2-.341.448-.3a8.865,8.865,0,0,1,3.589,1.447c.239.165.236.289.073.522a.789.789,0,0,0,.138,1.124.86.86,0,0,0,1.171.074c.285-.219.377-.06.511.123a8.315,8.315,0,0,1,1.5,3.467c.045.238,0,.354-.274.394A.883.883,0,0,0,95.75,87.8c.279.026.263.173.228.361A8.346,8.346,0,0,1,94.468,91.688Zm-8.016-10.26a.962.962,0,0,0-1.314-.67c-.511.21-.669.688-.421,1.332.379.977.769,1.948,1.158,2.921.3.749.6,1.5.917,2.242a.881.881,0,0,0,1.106.522.871.871,0,0,0,.68-.954c-.027-.082-.069-.25-.132-.411C87.785,84.748,87.127,83.084,86.452,81.428Zm1.994,4.981c-.662-1.661-1.32-3.325-1.994-4.981a.962.962,0,0,0-1.314-.67c-.511.21-.669.688-.421,1.332.379.977.769,1.948,1.158,2.921.3.749.6,1.5.917,2.242a.881.881,0,0,0,1.106.522.871.871,0,0,0,.68-.954C88.551,86.738,88.51,86.57,88.446,86.409Zm0,0c-.662-1.661-1.32-3.325-1.994-4.981a.962.962,0,0,0-1.314-.67c-.511.21-.669.688-.421,1.332.379.977.769,1.948,1.158,2.921.3.749.6,1.5.917,2.242a.881.881,0,0,0,1.106.522.871.871,0,0,0,.68-.954C88.551,86.738,88.51,86.57,88.446,86.409Zm16.681,14.5a2.864,2.864,0,1,0,2.946,2.905A2.954,2.954,0,0,0,105.128,100.913Zm1.057,2.965a1.073,1.073,0,0,1-1.167.936,1.052,1.052,0,0,1-1-1.1,1.085,1.085,0,0,1,2.163.166Zm10.357-2.965a2.864,2.864,0,1,0,2.937,2.909A2.955,2.955,0,0,0,116.541,100.913Zm-.071,3.9a1.059,1.059,0,0,1-1.046-1.061,1.1,1.1,0,0,1,1.095-1.027,1.074,1.074,0,0,1,1.07,1.043A1.044,1.044,0,0,1,116.47,104.816Zm12.508,3.786H81.168c-1.166,0-1.414.245-1.414,1.39q0,5.828,0,11.654c0,1.076.279,1.341,1.409,1.341q23.94,0,47.88,0c1.151,0,1.414-.261,1.414-1.4V110C130.456,108.831,130.213,108.6,128.979,108.6Zm-1.033,12.582q-11.423-.024-22.845-.011-11.391,0-22.778.014c-.56,0-.705-.121-.7-.67.031-3.163.024-6.325.005-9.488,0-.448.054-.628.6-.627q22.879.026,45.759,0c.471,0,.6.105.595.567q-.035,4.81,0,9.619C128.591,121.1,128.429,121.185,127.945,121.184Zm3.138-42.556c0-.109,0-.219,0-.327-.02-2.177-1.332-3.436-3.6-3.436q-11.456-.005-22.912,0c-2.262,0-3.56,1.264-3.562,3.458q0,8.6,0,17.208a3.164,3.164,0,0,0,3.52,3.416q5.759.005,11.522,0c3.8,0,7.594-.061,11.388.023a3.386,3.386,0,0,0,3.66-3.532C131.047,89.836,131.083,84.232,131.083,78.628Zm-1.874,17.08c-.015.961-.558,1.437-1.612,1.444-1.853.014-3.707.005-5.56.005H116q-5.626,0-11.254,0c-1.441,0-1.867-.406-1.867-1.78,0-2.837.011-5.672-.013-8.508-.005-.5.114-.679.663-.651,1.028.056,1.474.446,1.485,1.456.011,1.178-.025,2.357.013,3.534a3.035,3.035,0,0,0,2.678,2.991,3.112,3.112,0,0,0,3.426-2.161,3.9,3.9,0,0,0,.109-1.167c0-2.289,0-4.58.005-6.871a4,4,0,0,1,.058-.779,1.645,1.645,0,0,1,1.753-1.318,1.607,1.607,0,0,1,1.548,1.537c.033,1.328-.013,2.66.025,3.99a3.151,3.151,0,0,0,2.939,3.065,3.248,3.248,0,0,0,3.359-2.217,10.389,10.389,0,0,0,.158-2.147,1.351,1.351,0,0,1,1.247-1.253,1.426,1.426,0,0,1,1.554.9,1.924,1.924,0,0,1,.087.578c.013.413-.007.828.009,1.243a3.044,3.044,0,0,0,3.055,2.975c.564.025,1.129.021,1.695.005.323-.007.493.049.489.424C129.205,92.566,129.234,94.138,129.209,95.708Zm-.557-6.925c-.495-.031-1,.011-1.49-.016a1.229,1.229,0,0,1-1.3-1.3,8.288,8.288,0,0,0-.121-2.018,3.355,3.355,0,0,0-3.539-2.361,3.267,3.267,0,0,0-3,3.1c-.013.371.011.742-.013,1.113a1.3,1.3,0,0,1-1.385,1.306,1.283,1.283,0,0,1-1.285-1.334c-.022-1.265.007-2.531-.013-3.8a3.475,3.475,0,0,0-3.212-3.388,3.578,3.578,0,0,0-3.783,2.545,4.492,4.492,0,0,0-.116,1.234q0,3.4,0,6.808c0,.175.007.35-.005.523a1.241,1.241,0,1,1-2.482-.024c-.025-1.243-.013-2.487-.009-3.731a2.864,2.864,0,0,0-.8-2.027,3.223,3.223,0,0,0-2.618-1c-.459.019-.618-.084-.611-.562.031-1.855.009-3.71.014-5.566.005-1.155.491-1.624,1.693-1.624q11.461,0,22.923,0c1.211,0,1.713.5,1.717,1.684,0,1.615,0,3.229,0,4.845,0,1.68-.016,3.36.013,5.041C129.236,88.686,129.088,88.81,128.652,88.782Zm2.431-10.155c0-.109,0-.219,0-.327-.02-2.177-1.332-3.436-3.6-3.436q-11.456-.005-22.912,0c-2.262,0-3.56,1.264-3.562,3.458q0,8.6,0,17.208a3.164,3.164,0,0,0,3.52,3.416q5.759.005,11.522,0c3.8,0,7.594-.061,11.388.023a3.386,3.386,0,0,0,3.66-3.532C131.047,89.836,131.083,84.232,131.083,78.628Zm-1.874,17.08c-.015.961-.558,1.437-1.612,1.444-1.853.014-3.707.005-5.56.005H116q-5.626,0-11.254,0c-1.441,0-1.867-.406-1.867-1.78,0-2.837.011-5.672-.013-8.508-.005-.5.114-.679.663-.651,1.028.056,1.474.446,1.485,1.456.011,1.178-.025,2.357.013,3.534a3.035,3.035,0,0,0,2.678,2.991,3.112,3.112,0,0,0,3.426-2.161,3.9,3.9,0,0,0,.109-1.167c0-2.289,0-4.58.005-6.871a4,4,0,0,1,.058-.779,1.645,1.645,0,0,1,1.753-1.318,1.607,1.607,0,0,1,1.548,1.537c.033,1.328-.013,2.66.025,3.99a3.151,3.151,0,0,0,2.939,3.065,3.248,3.248,0,0,0,3.359-2.217,10.389,10.389,0,0,0,.158-2.147,1.351,1.351,0,0,1,1.247-1.253,1.426,1.426,0,0,1,1.554.9,1.924,1.924,0,0,1,.087.578c.013.413-.007.828.009,1.243a3.044,3.044,0,0,0,3.055,2.975c.564.025,1.129.021,1.695.005.323-.007.493.049.489.424C129.205,92.566,129.234,94.138,129.209,95.708Zm-.557-6.925c-.495-.031-1,.011-1.49-.016a1.229,1.229,0,0,1-1.3-1.3,8.288,8.288,0,0,0-.121-2.018,3.355,3.355,0,0,0-3.539-2.361,3.267,3.267,0,0,0-3,3.1c-.013.371.011.742-.013,1.113a1.3,1.3,0,0,1-1.385,1.306,1.283,1.283,0,0,1-1.285-1.334c-.022-1.265.007-2.531-.013-3.8a3.475,3.475,0,0,0-3.212-3.388,3.578,3.578,0,0,0-3.783,2.545,4.492,4.492,0,0,0-.116,1.234q0,3.4,0,6.808c0,.175.007.35-.005.523a1.241,1.241,0,1,1-2.482-.024c-.025-1.243-.013-2.487-.009-3.731a2.864,2.864,0,0,0-.8-2.027,3.223,3.223,0,0,0-2.618-1c-.459.019-.618-.084-.611-.562.031-1.855.009-3.71.014-5.566.005-1.155.491-1.624,1.693-1.624q11.461,0,22.923,0c1.211,0,1.713.5,1.717,1.684,0,1.615,0,3.229,0,4.845,0,1.68-.016,3.36.013,5.041C129.236,88.686,129.088,88.81,128.652,88.782Zm.326,19.819H81.168c-1.166,0-1.414.245-1.414,1.39q0,5.828,0,11.654c0,1.076.279,1.341,1.409,1.341q23.94,0,47.88,0c1.151,0,1.414-.261,1.414-1.4V110C130.456,108.831,130.213,108.6,128.979,108.6Zm-1.033,12.582q-11.423-.024-22.845-.011-11.391,0-22.778.014c-.56,0-.705-.121-.7-.67.031-3.163.024-6.325.005-9.488,0-.448.054-.628.6-.627q22.879.026,45.759,0c.471,0,.6.105.595.567q-.035,4.81,0,9.619C128.591,121.1,128.429,121.185,127.945,121.184Zm-11.4-20.271a2.864,2.864,0,1,0,2.937,2.909A2.955,2.955,0,0,0,116.541,100.913Zm-.071,3.9a1.059,1.059,0,0,1-1.046-1.061,1.1,1.1,0,0,1,1.095-1.027,1.074,1.074,0,0,1,1.07,1.043A1.044,1.044,0,0,1,116.47,104.816Zm-11.343-3.9a2.864,2.864,0,1,0,2.946,2.905A2.954,2.954,0,0,0,105.128,100.913Zm1.057,2.965a1.073,1.073,0,0,1-1.167.936,1.052,1.052,0,0,1-1-1.1,1.085,1.085,0,0,1,2.163.166ZM88.446,86.409c-.662-1.661-1.32-3.325-1.994-4.981a.962.962,0,0,0-1.314-.67c-.511.21-.669.688-.421,1.332.379.977.769,1.948,1.158,2.921.3.749.6,1.5.917,2.242a.881.881,0,0,0,1.106.522.871.871,0,0,0,.68-.954C88.551,86.738,88.51,86.57,88.446,86.409Zm0,0c-.662-1.661-1.32-3.325-1.994-4.981a.962.962,0,0,0-1.314-.67c-.511.21-.669.688-.421,1.332.379.977.769,1.948,1.158,2.921.3.749.6,1.5.917,2.242a.881.881,0,0,0,1.106.522.871.871,0,0,0,.68-.954C88.551,86.738,88.51,86.57,88.446,86.409Zm-.812-9.426c-5.886.021-10.288,4.349-10.271,9.948.018,5.849,4.751,9.848,10.308,9.938A10.173,10.173,0,0,0,97.951,86.9,10.019,10.019,0,0,0,87.634,76.983Zm6.834,14.705c-.161.217-.263.263-.515.077a.85.85,0,0,0-1.166.1.78.78,0,0,0-.121,1.124c.183.238.169.345-.063.5a9.038,9.038,0,0,1-3.656,1.461c-.25.044-.355-.009-.39-.28a.921.921,0,0,0-1.8-.054c-.06.3-.158.382-.488.32A9.048,9.048,0,0,1,82.8,93.552c-.236-.158-.386-.245-.156-.592a.886.886,0,0,0-.81-1.369c-.036.005-.15-.009-.208.04-.656.546-.852-.023-1.113-.422A8.086,8.086,0,0,1,79.355,88.3c-.051-.259-.112-.49.334-.53a.786.786,0,0,0,.714-.83.811.811,0,0,0-.731-.886c-.354-.054-.382-.221-.328-.494a8.438,8.438,0,0,1,1.481-3.4c.16-.214.265-.287.522-.095a.866.866,0,0,0,1.171-.091.786.786,0,0,0,.114-1.127c-.232-.3-.1-.383.132-.543a8.893,8.893,0,0,1,3.466-1.4c.266-.051.468-.061.524.294a.917.917,0,0,0,1.795-.007c.042-.319.2-.341.448-.3a8.865,8.865,0,0,1,3.589,1.447c.239.165.236.289.073.522a.789.789,0,0,0,.138,1.124.86.86,0,0,0,1.171.074c.285-.219.377-.06.511.123a8.315,8.315,0,0,1,1.5,3.467c.045.238,0,.354-.274.394A.883.883,0,0,0,95.75,87.8c.279.026.263.173.228.361A8.346,8.346,0,0,1,94.468,91.688Zm-8.016-10.26a.962.962,0,0,0-1.314-.67c-.511.21-.669.688-.421,1.332.379.977.769,1.948,1.158,2.921.3.749.6,1.5.917,2.242a.881.881,0,0,0,1.106.522.871.871,0,0,0,.68-.954c-.027-.082-.069-.25-.132-.411C87.785,84.748,87.127,83.084,86.452,81.428Zm1.994,4.981c-.662-1.661-1.32-3.325-1.994-4.981a.962.962,0,0,0-1.314-.67c-.511.21-.669.688-.421,1.332.379.977.769,1.948,1.158,2.921.3.749.6,1.5.917,2.242a.881.881,0,0,0,1.106.522.871.871,0,0,0,.68-.954C88.551,86.738,88.51,86.57,88.446,86.409Zm5.3,14.5a2.864,2.864,0,1,0,2.917,2.867A2.95,2.95,0,0,0,93.747,100.913Zm-.016,3.9a1.051,1.051,0,0,1-1.113-.987,1.069,1.069,0,0,1,1.073-1.1,1.106,1.106,0,0,1,1.091,1.033A1.062,1.062,0,0,1,93.731,104.818ZM88.446,86.409c-.662-1.661-1.32-3.325-1.994-4.981a.962.962,0,0,0-1.314-.67c-.511.21-.669.688-.421,1.332.379.977.769,1.948,1.158,2.921.3.749.6,1.5.917,2.242a.881.881,0,0,0,1.106.522.871.871,0,0,0,.68-.954C88.551,86.738,88.51,86.57,88.446,86.409Zm0,0c-.662-1.661-1.32-3.325-1.994-4.981a.962.962,0,0,0-1.314-.67c-.511.21-.669.688-.421,1.332.379.977.769,1.948,1.158,2.921.3.749.6,1.5.917,2.242a.881.881,0,0,0,1.106.522.871.871,0,0,0,.68-.954C88.551,86.738,88.51,86.57,88.446,86.409Zm5.3,14.5a2.864,2.864,0,1,0,2.917,2.867A2.95,2.95,0,0,0,93.747,100.913Zm-.016,3.9a1.051,1.051,0,0,1-1.113-.987,1.069,1.069,0,0,1,1.073-1.1,1.106,1.106,0,0,1,1.091,1.033A1.062,1.062,0,0,1,93.731,104.818ZM88.446,86.409c-.662-1.661-1.32-3.325-1.994-4.981a.962.962,0,0,0-1.314-.67c-.511.21-.669.688-.421,1.332.379.977.769,1.948,1.158,2.921.3.749.6,1.5.917,2.242a.881.881,0,0,0,1.106.522.871.871,0,0,0,.68-.954C88.551,86.738,88.51,86.57,88.446,86.409Zm-.812-9.426c-5.886.021-10.288,4.349-10.271,9.948.018,5.849,4.751,9.848,10.308,9.938A10.173,10.173,0,0,0,97.951,86.9,10.019,10.019,0,0,0,87.634,76.983Zm6.834,14.705c-.161.217-.263.263-.515.077a.85.85,0,0,0-1.166.1.78.78,0,0,0-.121,1.124c.183.238.169.345-.063.5a9.038,9.038,0,0,1-3.656,1.461c-.25.044-.355-.009-.39-.28a.921.921,0,0,0-1.8-.054c-.06.3-.158.382-.488.32A9.048,9.048,0,0,1,82.8,93.552c-.236-.158-.386-.245-.156-.592a.886.886,0,0,0-.81-1.369c-.036.005-.15-.009-.208.04-.656.546-.852-.023-1.113-.422A8.086,8.086,0,0,1,79.355,88.3c-.051-.259-.112-.49.334-.53a.786.786,0,0,0,.714-.83.811.811,0,0,0-.731-.886c-.354-.054-.382-.221-.328-.494a8.438,8.438,0,0,1,1.481-3.4c.16-.214.265-.287.522-.095a.866.866,0,0,0,1.171-.091.786.786,0,0,0,.114-1.127c-.232-.3-.1-.383.132-.543a8.893,8.893,0,0,1,3.466-1.4c.266-.051.468-.061.524.294a.917.917,0,0,0,1.795-.007c.042-.319.2-.341.448-.3a8.865,8.865,0,0,1,3.589,1.447c.239.165.236.289.073.522a.789.789,0,0,0,.138,1.124.86.86,0,0,0,1.171.074c.285-.219.377-.06.511.123a8.315,8.315,0,0,1,1.5,3.467c.045.238,0,.354-.274.394A.883.883,0,0,0,95.75,87.8c.279.026.263.173.228.361A8.346,8.346,0,0,1,94.468,91.688Zm-8.016-10.26a.962.962,0,0,0-1.314-.67c-.511.21-.669.688-.421,1.332.379.977.769,1.948,1.158,2.921.3.749.6,1.5.917,2.242a.881.881,0,0,0,1.106.522.871.871,0,0,0,.68-.954c-.027-.082-.069-.25-.132-.411C87.785,84.748,87.127,83.084,86.452,81.428Zm18.676,19.485a2.864,2.864,0,1,0,2.946,2.905A2.954,2.954,0,0,0,105.128,100.913Zm1.057,2.965a1.073,1.073,0,0,1-1.167.936,1.052,1.052,0,0,1-1-1.1,1.085,1.085,0,0,1,2.163.166Zm10.357-2.965a2.864,2.864,0,1,0,2.937,2.909A2.955,2.955,0,0,0,116.541,100.913Zm-.071,3.9a1.059,1.059,0,0,1-1.046-1.061,1.1,1.1,0,0,1,1.095-1.027,1.074,1.074,0,0,1,1.07,1.043A1.044,1.044,0,0,1,116.47,104.816Zm12.508,3.786H81.168c-1.166,0-1.414.245-1.414,1.39q0,5.828,0,11.654c0,1.076.279,1.341,1.409,1.341q23.94,0,47.88,0c1.151,0,1.414-.261,1.414-1.4V110C130.456,108.831,130.213,108.6,128.979,108.6Zm-1.033,12.582q-11.423-.024-22.845-.011-11.391,0-22.778.014c-.56,0-.705-.121-.7-.67.031-3.163.024-6.325.005-9.488,0-.448.054-.628.6-.627q22.879.026,45.759,0c.471,0,.6.105.595.567q-.035,4.81,0,9.619C128.591,121.1,128.429,121.185,127.945,121.184Zm3.138-42.556c0-.109,0-.219,0-.327-.02-2.177-1.332-3.436-3.6-3.436q-11.456-.005-22.912,0c-2.262,0-3.56,1.264-3.562,3.458q0,8.6,0,17.208a3.164,3.164,0,0,0,3.52,3.416q5.759.005,11.522,0c3.8,0,7.594-.061,11.388.023a3.386,3.386,0,0,0,3.66-3.532C131.047,89.836,131.083,84.232,131.083,78.628Zm-1.874,17.08c-.015.961-.558,1.437-1.612,1.444-1.853.014-3.707.005-5.56.005H116q-5.626,0-11.254,0c-1.441,0-1.867-.406-1.867-1.78,0-2.837.011-5.672-.013-8.508-.005-.5.114-.679.663-.651,1.028.056,1.474.446,1.485,1.456.011,1.178-.025,2.357.013,3.534a3.035,3.035,0,0,0,2.678,2.991,3.112,3.112,0,0,0,3.426-2.161,3.9,3.9,0,0,0,.109-1.167c0-2.289,0-4.58.005-6.871a4,4,0,0,1,.058-.779,1.645,1.645,0,0,1,1.753-1.318,1.607,1.607,0,0,1,1.548,1.537c.033,1.328-.013,2.66.025,3.99a3.151,3.151,0,0,0,2.939,3.065,3.248,3.248,0,0,0,3.359-2.217,10.389,10.389,0,0,0,.158-2.147,1.351,1.351,0,0,1,1.247-1.253,1.426,1.426,0,0,1,1.554.9,1.924,1.924,0,0,1,.087.578c.013.413-.007.828.009,1.243a3.044,3.044,0,0,0,3.055,2.975c.564.025,1.129.021,1.695.005.323-.007.493.049.489.424C129.205,92.566,129.234,94.138,129.209,95.708Zm-.557-6.925c-.495-.031-1,.011-1.49-.016a1.229,1.229,0,0,1-1.3-1.3,8.288,8.288,0,0,0-.121-2.018,3.355,3.355,0,0,0-3.539-2.361,3.267,3.267,0,0,0-3,3.1c-.013.371.011.742-.013,1.113a1.3,1.3,0,0,1-1.385,1.306,1.283,1.283,0,0,1-1.285-1.334c-.022-1.265.007-2.531-.013-3.8a3.475,3.475,0,0,0-3.212-3.388,3.578,3.578,0,0,0-3.783,2.545,4.492,4.492,0,0,0-.116,1.234q0,3.4,0,6.808c0,.175.007.35-.005.523a1.241,1.241,0,1,1-2.482-.024c-.025-1.243-.013-2.487-.009-3.731a2.864,2.864,0,0,0-.8-2.027,3.223,3.223,0,0,0-2.618-1c-.459.019-.618-.084-.611-.562.031-1.855.009-3.71.014-5.566.005-1.155.491-1.624,1.693-1.624q11.461,0,22.923,0c1.211,0,1.713.5,1.717,1.684,0,1.615,0,3.229,0,4.845,0,1.68-.016,3.36.013,5.041C129.236,88.686,129.088,88.81,128.652,88.782ZM104.531,98.948q5.759.005,11.522,0c3.8,0,7.594-.061,11.388.023a3.386,3.386,0,0,0,3.66-3.532c-.054-5.6-.018-11.208-.018-16.812,0-.109,0-.219,0-.327-.02-2.177-1.332-3.436-3.6-3.436q-11.456-.005-22.912,0c-2.262,0-3.56,1.264-3.562,3.458q0,8.6,0,17.208A3.164,3.164,0,0,0,104.531,98.948Zm24.678-3.24c-.015.961-.558,1.437-1.612,1.444-1.853.014-3.707.005-5.56.005H116q-5.626,0-11.254,0c-1.441,0-1.867-.406-1.867-1.78,0-2.837.011-5.672-.013-8.508-.005-.5.114-.679.663-.651,1.028.056,1.474.446,1.485,1.456.011,1.178-.025,2.357.013,3.534a3.035,3.035,0,0,0,2.678,2.991,3.112,3.112,0,0,0,3.426-2.161,3.9,3.9,0,0,0,.109-1.167c0-2.289,0-4.58.005-6.871a4,4,0,0,1,.058-.779,1.645,1.645,0,0,1,1.753-1.318,1.607,1.607,0,0,1,1.548,1.537c.033,1.328-.013,2.66.025,3.99a3.151,3.151,0,0,0,2.939,3.065,3.248,3.248,0,0,0,3.359-2.217,10.389,10.389,0,0,0,.158-2.147,1.351,1.351,0,0,1,1.247-1.253,1.426,1.426,0,0,1,1.554.9,1.924,1.924,0,0,1,.087.578c.013.413-.007.828.009,1.243a3.044,3.044,0,0,0,3.055,2.975c.564.025,1.129.021,1.695.005.323-.007.493.049.489.424C129.205,92.566,129.234,94.138,129.209,95.708ZM102.883,78.3c.005-1.155.491-1.624,1.693-1.624q11.461,0,22.923,0c1.211,0,1.713.5,1.717,1.684,0,1.615,0,3.229,0,4.845,0,1.68-.016,3.36.013,5.041.007.446-.141.571-.576.543-.495-.031-1,.011-1.49-.016a1.229,1.229,0,0,1-1.3-1.3,8.288,8.288,0,0,0-.121-2.018,3.355,3.355,0,0,0-3.539-2.361,3.267,3.267,0,0,0-3,3.1c-.013.371.011.742-.013,1.113a1.3,1.3,0,0,1-1.385,1.306,1.283,1.283,0,0,1-1.285-1.334c-.022-1.265.007-2.531-.013-3.8a3.475,3.475,0,0,0-3.212-3.388,3.578,3.578,0,0,0-3.783,2.545,4.492,4.492,0,0,0-.116,1.234q0,3.4,0,6.808c0,.175.007.35-.005.523a1.241,1.241,0,1,1-2.482-.024c-.025-1.243-.013-2.487-.009-3.731a2.864,2.864,0,0,0-.8-2.027,3.223,3.223,0,0,0-2.618-1c-.459.019-.618-.084-.611-.562C102.9,82.006,102.878,80.151,102.883,78.3Zm26.1,30.306H81.168c-1.166,0-1.414.245-1.414,1.39q0,5.828,0,11.654c0,1.076.279,1.341,1.409,1.341q23.94,0,47.88,0c1.151,0,1.414-.261,1.414-1.4V110C130.456,108.831,130.213,108.6,128.979,108.6Zm-1.033,12.582q-11.423-.024-22.845-.011-11.391,0-22.778.014c-.56,0-.705-.121-.7-.67.031-3.163.024-6.325.005-9.488,0-.448.054-.628.6-.627q22.879.026,45.759,0c.471,0,.6.105.595.567q-.035,4.81,0,9.619C128.591,121.1,128.429,121.185,127.945,121.184Zm-14.4-17.416a2.968,2.968,0,1,0,3-2.855A2.945,2.945,0,0,0,113.545,103.768Zm4.044,0a1.044,1.044,0,0,1-1.118,1.045,1.059,1.059,0,0,1-1.046-1.061,1.1,1.1,0,0,1,1.095-1.027A1.074,1.074,0,0,1,117.589,103.771Zm-15.452,0a2.97,2.97,0,1,0,2.991-2.86A2.941,2.941,0,0,0,102.137,103.773Zm4.048.105a1.073,1.073,0,0,1-1.167.936,1.052,1.052,0,0,1-1-1.1,1.085,1.085,0,0,1,2.163.166ZM87.67,96.868A10.173,10.173,0,0,0,97.951,86.9a10.019,10.019,0,0,0-10.317-9.917c-5.886.021-10.288,4.349-10.271,9.948C77.381,92.78,82.114,96.779,87.67,96.868Zm-7.982-9.1a.786.786,0,0,0,.714-.83.811.811,0,0,0-.731-.886c-.354-.054-.382-.221-.328-.494a8.438,8.438,0,0,1,1.481-3.4c.16-.214.265-.287.522-.095a.866.866,0,0,0,1.171-.091.786.786,0,0,0,.114-1.127c-.232-.3-.1-.383.132-.543a8.893,8.893,0,0,1,3.466-1.4c.266-.051.468-.061.524.294a.917.917,0,0,0,1.795-.007c.042-.319.2-.341.448-.3a8.865,8.865,0,0,1,3.589,1.447c.239.165.236.289.073.522a.789.789,0,0,0,.138,1.124.86.86,0,0,0,1.171.074c.285-.219.377-.06.511.123a8.315,8.315,0,0,1,1.5,3.467c.045.238,0,.354-.274.394A.883.883,0,0,0,95.75,87.8c.279.026.263.173.228.361a8.346,8.346,0,0,1-1.51,3.53c-.161.217-.263.263-.515.077a.85.85,0,0,0-1.166.1.78.78,0,0,0-.121,1.124c.183.238.169.345-.063.5a9.038,9.038,0,0,1-3.656,1.461c-.25.044-.355-.009-.39-.28a.921.921,0,0,0-1.8-.054c-.06.3-.158.382-.488.32A9.048,9.048,0,0,1,82.8,93.552c-.236-.158-.386-.245-.156-.592a.886.886,0,0,0-.81-1.369c-.036.005-.15-.009-.208.04-.656.546-.852-.023-1.113-.422A8.086,8.086,0,0,1,79.355,88.3C79.3,88.042,79.243,87.811,79.689,87.771Zm11.044,15.974a2.968,2.968,0,1,0,3.015-2.832A2.929,2.929,0,0,0,90.732,103.745Zm4.05.016a1.062,1.062,0,0,1-1.051,1.057,1.051,1.051,0,0,1-1.113-.987,1.069,1.069,0,0,1,1.073-1.1A1.106,1.106,0,0,1,94.782,103.761Zm-8.906-18.75c.3.749.6,1.5.917,2.242a.881.881,0,0,0,1.106.522.871.871,0,0,0,.68-.954c-.027-.082-.069-.25-.132-.411-.662-1.661-1.32-3.325-1.994-4.981a.962.962,0,0,0-1.314-.67c-.511.21-.669.688-.421,1.332C85.1,83.066,85.486,84.038,85.876,85.011ZM136.9,72.357c-.56-1.656-1.971-2.555-4.039-2.555q-13.868,0-27.74,0-13.8,0-27.605,0a6.1,6.1,0,0,0-1.483.1,3.763,3.763,0,0,0-2.926,3.9q0,25.667,0,51.333c0,.152,0,.3.007.459a3.763,3.763,0,0,0,3.125,3.478,7.586,7.586,0,0,0,1.824.065c.457-.018.638.077.6.558a19.925,19.925,0,0,0-.005,2.028,2.072,2.072,0,0,0,2.047,2.041q3.016.058,6.035,0a2.075,2.075,0,0,0,2.079-2.077,15.4,15.4,0,0,0-.011-1.9c-.056-.578.172-.669.711-.655,1.537.037,3.075.012,4.612.012q12.786,0,25.57-.016c.642,0,.794.18.747.751a16.264,16.264,0,0,0-.005,1.832,2.07,2.07,0,0,0,2.041,2.046q3.524.058,7.052,0a2.065,2.065,0,0,0,2.007-1.943c.027-.413.009-.83.009-1.244,0-1.421,0-1.421,1.445-1.425a3.8,3.8,0,0,0,4.1-3.919q.005-25.764,0-51.529A4.162,4.162,0,0,0,136.9,72.357ZM86.947,131.515c.009.338-.136.476-.475.476q-2.741-.005-5.484,0c-.355,0-.459-.177-.451-.5.016-.632.024-1.264,0-1.9-.015-.334.074-.452.442-.441.925.026,1.851.009,2.775.009s1.851.012,2.777-.007c.319-.007.431.077.419.4C86.924,130.208,86.929,130.862,86.947,131.515Zm42.73-1.85c-.033.586-.024,1.176,0,1.764.015.373-.094.567-.522.565q-3.146-.016-6.292,0c-.408,0-.557-.154-.54-.548.025-.63.025-1.264,0-1.894-.015-.324.105-.4.421-.394,1.082.018,2.166.007,3.249.007,1.059,0,2.121.023,3.18-.01C129.606,129.138,129.7,129.278,129.677,129.665ZM135.218,125c0,1.654-.707,2.335-2.424,2.335H77.455c-1.773,0-2.464-.662-2.464-2.361V73.913c0-1.614.714-2.308,2.389-2.308q27.739,0,55.474,0c1.63,0,2.364.707,2.364,2.268Zm-4.135-46.375c0-.109,0-.219,0-.327-.02-2.177-1.332-3.436-3.6-3.436q-11.456-.005-22.912,0c-2.262,0-3.56,1.264-3.562,3.458q0,8.6,0,17.208a3.164,3.164,0,0,0,3.52,3.416q5.759.005,11.522,0c3.8,0,7.594-.061,11.388.023a3.386,3.386,0,0,0,3.66-3.532C131.047,89.836,131.083,84.232,131.083,78.628Zm-1.874,17.08c-.015.961-.558,1.437-1.612,1.444-1.853.014-3.707.005-5.56.005H116q-5.626,0-11.254,0c-1.441,0-1.867-.406-1.867-1.78,0-2.837.011-5.672-.013-8.508-.005-.5.114-.679.663-.651,1.028.056,1.474.446,1.485,1.456.011,1.178-.025,2.357.013,3.534a3.035,3.035,0,0,0,2.678,2.991,3.112,3.112,0,0,0,3.426-2.161,3.9,3.9,0,0,0,.109-1.167c0-2.289,0-4.58.005-6.871a4,4,0,0,1,.058-.779,1.645,1.645,0,0,1,1.753-1.318,1.607,1.607,0,0,1,1.548,1.537c.033,1.328-.013,2.66.025,3.99a3.151,3.151,0,0,0,2.939,3.065,3.248,3.248,0,0,0,3.359-2.217,10.389,10.389,0,0,0,.158-2.147,1.351,1.351,0,0,1,1.247-1.253,1.426,1.426,0,0,1,1.554.9,1.924,1.924,0,0,1,.087.578c.013.413-.007.828.009,1.243a3.044,3.044,0,0,0,3.055,2.975c.564.025,1.129.021,1.695.005.323-.007.493.049.489.424C129.205,92.566,129.234,94.138,129.209,95.708Zm-.557-6.925c-.495-.031-1,.011-1.49-.016a1.229,1.229,0,0,1-1.3-1.3,8.288,8.288,0,0,0-.121-2.018,3.355,3.355,0,0,0-3.539-2.361,3.267,3.267,0,0,0-3,3.1c-.013.371.011.742-.013,1.113a1.3,1.3,0,0,1-1.385,1.306,1.283,1.283,0,0,1-1.285-1.334c-.022-1.265.007-2.531-.013-3.8a3.475,3.475,0,0,0-3.212-3.388,3.578,3.578,0,0,0-3.783,2.545,4.492,4.492,0,0,0-.116,1.234q0,3.4,0,6.808c0,.175.007.35-.005.523a1.241,1.241,0,1,1-2.482-.024c-.025-1.243-.013-2.487-.009-3.731a2.864,2.864,0,0,0-.8-2.027,3.223,3.223,0,0,0-2.618-1c-.459.019-.618-.084-.611-.562.031-1.855.009-3.71.014-5.566.005-1.155.491-1.624,1.693-1.624q11.461,0,22.923,0c1.211,0,1.713.5,1.717,1.684,0,1.615,0,3.229,0,4.845,0,1.68-.016,3.36.013,5.041C129.236,88.686,129.088,88.81,128.652,88.782Zm.326,19.819H81.168c-1.166,0-1.414.245-1.414,1.39q0,5.828,0,11.654c0,1.076.279,1.341,1.409,1.341q23.94,0,47.88,0c1.151,0,1.414-.261,1.414-1.4V110C130.456,108.831,130.213,108.6,128.979,108.6Zm-1.033,12.582q-11.423-.024-22.845-.011-11.391,0-22.778.014c-.56,0-.705-.121-.7-.67.031-3.163.024-6.325.005-9.488,0-.448.054-.628.6-.627q22.879.026,45.759,0c.471,0,.6.105.595.567q-.035,4.81,0,9.619C128.591,121.1,128.429,121.185,127.945,121.184Zm-8.468-17.362a2.969,2.969,0,1,0-2.957,2.816A2.945,2.945,0,0,0,119.478,103.822Zm-4.053-.067a1.1,1.1,0,0,1,1.095-1.027,1.074,1.074,0,0,1,1.07,1.043,1.044,1.044,0,0,1-1.118,1.045A1.059,1.059,0,0,1,115.424,103.755Zm-7.351.063a2.971,2.971,0,1,0-2.958,2.82A2.954,2.954,0,0,0,108.074,103.818Zm-4.052-.107a1.085,1.085,0,0,1,2.163.166,1.073,1.073,0,0,1-1.167.936A1.052,1.052,0,0,1,104.022,103.712ZM87.67,96.868A10.173,10.173,0,0,0,97.951,86.9a10.019,10.019,0,0,0-10.317-9.917c-5.886.021-10.288,4.349-10.271,9.948C77.381,92.78,82.114,96.779,87.67,96.868Zm-7.982-9.1a.786.786,0,0,0,.714-.83.811.811,0,0,0-.731-.886c-.354-.054-.382-.221-.328-.494a8.438,8.438,0,0,1,1.481-3.4c.16-.214.265-.287.522-.095a.866.866,0,0,0,1.171-.091.786.786,0,0,0,.114-1.127c-.232-.3-.1-.383.132-.543a8.893,8.893,0,0,1,3.466-1.4c.266-.051.468-.061.524.294a.917.917,0,0,0,1.795-.007c.042-.319.2-.341.448-.3a8.865,8.865,0,0,1,3.589,1.447c.239.165.236.289.073.522a.789.789,0,0,0,.138,1.124.86.86,0,0,0,1.171.074c.285-.219.377-.06.511.123a8.315,8.315,0,0,1,1.5,3.467c.045.238,0,.354-.274.394A.883.883,0,0,0,95.75,87.8c.279.026.263.173.228.361a8.346,8.346,0,0,1-1.51,3.53c-.161.217-.263.263-.515.077a.85.85,0,0,0-1.166.1.78.78,0,0,0-.121,1.124c.183.238.169.345-.063.5a9.038,9.038,0,0,1-3.656,1.461c-.25.044-.355-.009-.39-.28a.921.921,0,0,0-1.8-.054c-.06.3-.158.382-.488.32A9.048,9.048,0,0,1,82.8,93.552c-.236-.158-.386-.245-.156-.592a.886.886,0,0,0-.81-1.369c-.036.005-.15-.009-.208.04-.656.546-.852-.023-1.113-.422A8.086,8.086,0,0,1,79.355,88.3C79.3,88.042,79.243,87.811,79.689,87.771Zm11.044,15.974a2.968,2.968,0,1,0,3.015-2.832A2.929,2.929,0,0,0,90.732,103.745Zm4.05.016a1.062,1.062,0,0,1-1.051,1.057,1.051,1.051,0,0,1-1.113-.987,1.069,1.069,0,0,1,1.073-1.1A1.106,1.106,0,0,1,94.782,103.761Zm-8.906-18.75c.3.749.6,1.5.917,2.242a.881.881,0,0,0,1.106.522.871.871,0,0,0,.68-.954c-.027-.082-.069-.25-.132-.411-.662-1.661-1.32-3.325-1.994-4.981a.962.962,0,0,0-1.314-.67c-.511.21-.669.688-.421,1.332C85.1,83.066,85.486,84.038,85.876,85.011Zm2.571,1.4c-.662-1.661-1.32-3.325-1.994-4.981a.962.962,0,0,0-1.314-.67c-.511.21-.669.688-.421,1.332.379.977.769,1.948,1.158,2.921.3.749.6,1.5.917,2.242a.881.881,0,0,0,1.106.522.871.871,0,0,0,.68-.954C88.551,86.738,88.51,86.57,88.446,86.409Zm5.3,14.5a2.864,2.864,0,1,0,2.917,2.867A2.95,2.95,0,0,0,93.747,100.913Zm-.016,3.9a1.051,1.051,0,0,1-1.113-.987,1.069,1.069,0,0,1,1.073-1.1,1.106,1.106,0,0,1,1.091,1.033A1.062,1.062,0,0,1,93.731,104.818ZM88.446,86.409c-.662-1.661-1.32-3.325-1.994-4.981a.962.962,0,0,0-1.314-.67c-.511.21-.669.688-.421,1.332.379.977.769,1.948,1.158,2.921.3.749.6,1.5.917,2.242a.881.881,0,0,0,1.106.522.871.871,0,0,0,.68-.954C88.551,86.738,88.51,86.57,88.446,86.409Zm-.812-9.426c-5.886.021-10.288,4.349-10.271,9.948.018,5.849,4.751,9.848,10.308,9.938A10.173,10.173,0,0,0,97.951,86.9,10.019,10.019,0,0,0,87.634,76.983Zm6.834,14.705c-.161.217-.263.263-.515.077a.85.85,0,0,0-1.166.1.78.78,0,0,0-.121,1.124c.183.238.169.345-.063.5a9.038,9.038,0,0,1-3.656,1.461c-.25.044-.355-.009-.39-.28a.921.921,0,0,0-1.8-.054c-.06.3-.158.382-.488.32A9.048,9.048,0,0,1,82.8,93.552c-.236-.158-.386-.245-.156-.592a.886.886,0,0,0-.81-1.369c-.036.005-.15-.009-.208.04-.656.546-.852-.023-1.113-.422A8.086,8.086,0,0,1,79.355,88.3c-.051-.259-.112-.49.334-.53a.786.786,0,0,0,.714-.83.811.811,0,0,0-.731-.886c-.354-.054-.382-.221-.328-.494a8.438,8.438,0,0,1,1.481-3.4c.16-.214.265-.287.522-.095a.866.866,0,0,0,1.171-.091.786.786,0,0,0,.114-1.127c-.232-.3-.1-.383.132-.543a8.893,8.893,0,0,1,3.466-1.4c.266-.051.468-.061.524.294a.917.917,0,0,0,1.795-.007c.042-.319.2-.341.448-.3a8.865,8.865,0,0,1,3.589,1.447c.239.165.236.289.073.522a.789.789,0,0,0,.138,1.124.86.86,0,0,0,1.171.074c.285-.219.377-.06.511.123a8.315,8.315,0,0,1,1.5,3.467c.045.238,0,.354-.274.394A.883.883,0,0,0,95.75,87.8c.279.026.263.173.228.361A8.346,8.346,0,0,1,94.468,91.688Zm-8.016-10.26a.962.962,0,0,0-1.314-.67c-.511.21-.669.688-.421,1.332.379.977.769,1.948,1.158,2.921.3.749.6,1.5.917,2.242a.881.881,0,0,0,1.106.522.871.871,0,0,0,.68-.954c-.027-.082-.069-.25-.132-.411C87.785,84.748,87.127,83.084,86.452,81.428Zm18.676,19.485a2.864,2.864,0,1,0,2.946,2.905A2.954,2.954,0,0,0,105.128,100.913Zm1.057,2.965a1.073,1.073,0,0,1-1.167.936,1.052,1.052,0,0,1-1-1.1,1.085,1.085,0,0,1,2.163.166Zm10.357-2.965a2.864,2.864,0,1,0,2.937,2.909A2.955,2.955,0,0,0,116.541,100.913Zm-.071,3.9a1.059,1.059,0,0,1-1.046-1.061,1.1,1.1,0,0,1,1.095-1.027,1.074,1.074,0,0,1,1.07,1.043A1.044,1.044,0,0,1,116.47,104.816Zm12.508,3.786H81.168c-1.166,0-1.414.245-1.414,1.39q0,5.828,0,11.654c0,1.076.279,1.341,1.409,1.341q23.94,0,47.88,0c1.151,0,1.414-.261,1.414-1.4V110C130.456,108.831,130.213,108.6,128.979,108.6Zm-1.033,12.582q-11.423-.024-22.845-.011-11.391,0-22.778.014c-.56,0-.705-.121-.7-.67.031-3.163.024-6.325.005-9.488,0-.448.054-.628.6-.627q22.879.026,45.759,0c.471,0,.6.105.595.567q-.035,4.81,0,9.619C128.591,121.1,128.429,121.185,127.945,121.184Zm3.138-42.556c0-.109,0-.219,0-.327-.02-2.177-1.332-3.436-3.6-3.436q-11.456-.005-22.912,0c-2.262,0-3.56,1.264-3.562,3.458q0,8.6,0,17.208a3.164,3.164,0,0,0,3.52,3.416q5.759.005,11.522,0c3.8,0,7.594-.061,11.388.023a3.386,3.386,0,0,0,3.66-3.532C131.047,89.836,131.083,84.232,131.083,78.628Zm-1.874,17.08c-.015.961-.558,1.437-1.612,1.444-1.853.014-3.707.005-5.56.005H116q-5.626,0-11.254,0c-1.441,0-1.867-.406-1.867-1.78,0-2.837.011-5.672-.013-8.508-.005-.5.114-.679.663-.651,1.028.056,1.474.446,1.485,1.456.011,1.178-.025,2.357.013,3.534a3.035,3.035,0,0,0,2.678,2.991,3.112,3.112,0,0,0,3.426-2.161,3.9,3.9,0,0,0,.109-1.167c0-2.289,0-4.58.005-6.871a4,4,0,0,1,.058-.779,1.645,1.645,0,0,1,1.753-1.318,1.607,1.607,0,0,1,1.548,1.537c.033,1.328-.013,2.66.025,3.99a3.151,3.151,0,0,0,2.939,3.065,3.248,3.248,0,0,0,3.359-2.217,10.389,10.389,0,0,0,.158-2.147,1.351,1.351,0,0,1,1.247-1.253,1.426,1.426,0,0,1,1.554.9,1.924,1.924,0,0,1,.087.578c.013.413-.007.828.009,1.243a3.044,3.044,0,0,0,3.055,2.975c.564.025,1.129.021,1.695.005.323-.007.493.049.489.424C129.205,92.566,129.234,94.138,129.209,95.708Zm-.557-6.925c-.495-.031-1,.011-1.49-.016a1.229,1.229,0,0,1-1.3-1.3,8.288,8.288,0,0,0-.121-2.018,3.355,3.355,0,0,0-3.539-2.361,3.267,3.267,0,0,0-3,3.1c-.013.371.011.742-.013,1.113a1.3,1.3,0,0,1-1.385,1.306,1.283,1.283,0,0,1-1.285-1.334c-.022-1.265.007-2.531-.013-3.8a3.475,3.475,0,0,0-3.212-3.388,3.578,3.578,0,0,0-3.783,2.545,4.492,4.492,0,0,0-.116,1.234q0,3.4,0,6.808c0,.175.007.35-.005.523a1.241,1.241,0,1,1-2.482-.024c-.025-1.243-.013-2.487-.009-3.731a2.864,2.864,0,0,0-.8-2.027,3.223,3.223,0,0,0-2.618-1c-.459.019-.618-.084-.611-.562.031-1.855.009-3.71.014-5.566.005-1.155.491-1.624,1.693-1.624q11.461,0,22.923,0c1.211,0,1.713.5,1.717,1.684,0,1.615,0,3.229,0,4.845,0,1.68-.016,3.36.013,5.041C129.236,88.686,129.088,88.81,128.652,88.782Zm2.431-10.155c0-.109,0-.219,0-.327-.02-2.177-1.332-3.436-3.6-3.436q-11.456-.005-22.912,0c-2.262,0-3.56,1.264-3.562,3.458q0,8.6,0,17.208a3.164,3.164,0,0,0,3.52,3.416q5.759.005,11.522,0c3.8,0,7.594-.061,11.388.023a3.386,3.386,0,0,0,3.66-3.532C131.047,89.836,131.083,84.232,131.083,78.628Zm-1.874,17.08c-.015.961-.558,1.437-1.612,1.444-1.853.014-3.707.005-5.56.005H116q-5.626,0-11.254,0c-1.441,0-1.867-.406-1.867-1.78,0-2.837.011-5.672-.013-8.508-.005-.5.114-.679.663-.651,1.028.056,1.474.446,1.485,1.456.011,1.178-.025,2.357.013,3.534a3.035,3.035,0,0,0,2.678,2.991,3.112,3.112,0,0,0,3.426-2.161,3.9,3.9,0,0,0,.109-1.167c0-2.289,0-4.58.005-6.871a4,4,0,0,1,.058-.779,1.645,1.645,0,0,1,1.753-1.318,1.607,1.607,0,0,1,1.548,1.537c.033,1.328-.013,2.66.025,3.99a3.151,3.151,0,0,0,2.939,3.065,3.248,3.248,0,0,0,3.359-2.217,10.389,10.389,0,0,0,.158-2.147,1.351,1.351,0,0,1,1.247-1.253,1.426,1.426,0,0,1,1.554.9,1.924,1.924,0,0,1,.087.578c.013.413-.007.828.009,1.243a3.044,3.044,0,0,0,3.055,2.975c.564.025,1.129.021,1.695.005.323-.007.493.049.489.424C129.205,92.566,129.234,94.138,129.209,95.708Zm-.557-6.925c-.495-.031-1,.011-1.49-.016a1.229,1.229,0,0,1-1.3-1.3,8.288,8.288,0,0,0-.121-2.018,3.355,3.355,0,0,0-3.539-2.361,3.267,3.267,0,0,0-3,3.1c-.013.371.011.742-.013,1.113a1.3,1.3,0,0,1-1.385,1.306,1.283,1.283,0,0,1-1.285-1.334c-.022-1.265.007-2.531-.013-3.8a3.475,3.475,0,0,0-3.212-3.388,3.578,3.578,0,0,0-3.783,2.545,4.492,4.492,0,0,0-.116,1.234q0,3.4,0,6.808c0,.175.007.35-.005.523a1.241,1.241,0,1,1-2.482-.024c-.025-1.243-.013-2.487-.009-3.731a2.864,2.864,0,0,0-.8-2.027,3.223,3.223,0,0,0-2.618-1c-.459.019-.618-.084-.611-.562.031-1.855.009-3.71.014-5.566.005-1.155.491-1.624,1.693-1.624q11.461,0,22.923,0c1.211,0,1.713.5,1.717,1.684,0,1.615,0,3.229,0,4.845,0,1.68-.016,3.36.013,5.041C129.236,88.686,129.088,88.81,128.652,88.782Zm.326,19.819H81.168c-1.166,0-1.414.245-1.414,1.39q0,5.828,0,11.654c0,1.076.279,1.341,1.409,1.341q23.94,0,47.88,0c1.151,0,1.414-.261,1.414-1.4V110C130.456,108.831,130.213,108.6,128.979,108.6Zm-1.033,12.582q-11.423-.024-22.845-.011-11.391,0-22.778.014c-.56,0-.705-.121-.7-.67.031-3.163.024-6.325.005-9.488,0-.448.054-.628.6-.627q22.879.026,45.759,0c.471,0,.6.105.595.567q-.035,4.81,0,9.619C128.591,121.1,128.429,121.185,127.945,121.184Zm-11.4-20.271a2.864,2.864,0,1,0,2.937,2.909A2.955,2.955,0,0,0,116.541,100.913Zm-.071,3.9a1.059,1.059,0,0,1-1.046-1.061,1.1,1.1,0,0,1,1.095-1.027,1.074,1.074,0,0,1,1.07,1.043A1.044,1.044,0,0,1,116.47,104.816Zm-11.343-3.9a2.864,2.864,0,1,0,2.946,2.905A2.954,2.954,0,0,0,105.128,100.913Zm1.057,2.965a1.073,1.073,0,0,1-1.167.936,1.052,1.052,0,0,1-1-1.1,1.085,1.085,0,0,1,2.163.166ZM88.446,86.409c-.662-1.661-1.32-3.325-1.994-4.981a.962.962,0,0,0-1.314-.67c-.511.21-.669.688-.421,1.332.379.977.769,1.948,1.158,2.921.3.749.6,1.5.917,2.242a.881.881,0,0,0,1.106.522.871.871,0,0,0,.68-.954C88.551,86.738,88.51,86.57,88.446,86.409Zm0,0c-.662-1.661-1.32-3.325-1.994-4.981a.962.962,0,0,0-1.314-.67c-.511.21-.669.688-.421,1.332.379.977.769,1.948,1.158,2.921.3.749.6,1.5.917,2.242a.881.881,0,0,0,1.106.522.871.871,0,0,0,.68-.954C88.551,86.738,88.51,86.57,88.446,86.409Zm-.812-9.426c-5.886.021-10.288,4.349-10.271,9.948.018,5.849,4.751,9.848,10.308,9.938A10.173,10.173,0,0,0,97.951,86.9,10.019,10.019,0,0,0,87.634,76.983Zm6.834,14.705c-.161.217-.263.263-.515.077a.85.85,0,0,0-1.166.1.78.78,0,0,0-.121,1.124c.183.238.169.345-.063.5a9.038,9.038,0,0,1-3.656,1.461c-.25.044-.355-.009-.39-.28a.921.921,0,0,0-1.8-.054c-.06.3-.158.382-.488.32A9.048,9.048,0,0,1,82.8,93.552c-.236-.158-.386-.245-.156-.592a.886.886,0,0,0-.81-1.369c-.036.005-.15-.009-.208.04-.656.546-.852-.023-1.113-.422A8.086,8.086,0,0,1,79.355,88.3c-.051-.259-.112-.49.334-.53a.786.786,0,0,0,.714-.83.811.811,0,0,0-.731-.886c-.354-.054-.382-.221-.328-.494a8.438,8.438,0,0,1,1.481-3.4c.16-.214.265-.287.522-.095a.866.866,0,0,0,1.171-.091.786.786,0,0,0,.114-1.127c-.232-.3-.1-.383.132-.543a8.893,8.893,0,0,1,3.466-1.4c.266-.051.468-.061.524.294a.917.917,0,0,0,1.795-.007c.042-.319.2-.341.448-.3a8.865,8.865,0,0,1,3.589,1.447c.239.165.236.289.073.522a.789.789,0,0,0,.138,1.124.86.86,0,0,0,1.171.074c.285-.219.377-.06.511.123a8.315,8.315,0,0,1,1.5,3.467c.045.238,0,.354-.274.394A.883.883,0,0,0,95.75,87.8c.279.026.263.173.228.361A8.346,8.346,0,0,1,94.468,91.688Zm-8.016-10.26a.962.962,0,0,0-1.314-.67c-.511.21-.669.688-.421,1.332.379.977.769,1.948,1.158,2.921.3.749.6,1.5.917,2.242a.881.881,0,0,0,1.106.522.871.871,0,0,0,.68-.954c-.027-.082-.069-.25-.132-.411C87.785,84.748,87.127,83.084,86.452,81.428Zm1.994,4.981c-.662-1.661-1.32-3.325-1.994-4.981a.962.962,0,0,0-1.314-.67c-.511.21-.669.688-.421,1.332.379.977.769,1.948,1.158,2.921.3.749.6,1.5.917,2.242a.881.881,0,0,0,1.106.522.871.871,0,0,0,.68-.954C88.551,86.738,88.51,86.57,88.446,86.409Zm5.3,14.5a2.864,2.864,0,1,0,2.917,2.867A2.95,2.95,0,0,0,93.747,100.913Zm-.016,3.9a1.051,1.051,0,0,1-1.113-.987,1.069,1.069,0,0,1,1.073-1.1,1.106,1.106,0,0,1,1.091,1.033A1.062,1.062,0,0,1,93.731,104.818ZM88.446,86.409c-.662-1.661-1.32-3.325-1.994-4.981a.962.962,0,0,0-1.314-.67c-.511.21-.669.688-.421,1.332.379.977.769,1.948,1.158,2.921.3.749.6,1.5.917,2.242a.881.881,0,0,0,1.106.522.871.871,0,0,0,.68-.954C88.551,86.738,88.51,86.57,88.446,86.409Zm0,0c-.662-1.661-1.32-3.325-1.994-4.981a.962.962,0,0,0-1.314-.67c-.511.21-.669.688-.421,1.332.379.977.769,1.948,1.158,2.921.3.749.6,1.5.917,2.242a.881.881,0,0,0,1.106.522.871.871,0,0,0,.68-.954C88.551,86.738,88.51,86.57,88.446,86.409Zm5.3,14.5a2.864,2.864,0,1,0,2.917,2.867A2.95,2.95,0,0,0,93.747,100.913Zm-.016,3.9a1.051,1.051,0,0,1-1.113-.987,1.069,1.069,0,0,1,1.073-1.1,1.106,1.106,0,0,1,1.091,1.033A1.062,1.062,0,0,1,93.731,104.818ZM88.446,86.409c-.662-1.661-1.32-3.325-1.994-4.981a.962.962,0,0,0-1.314-.67c-.511.21-.669.688-.421,1.332.379.977.769,1.948,1.158,2.921.3.749.6,1.5.917,2.242a.881.881,0,0,0,1.106.522.871.871,0,0,0,.68-.954C88.551,86.738,88.51,86.57,88.446,86.409Zm0,0c-.662-1.661-1.32-3.325-1.994-4.981a.962.962,0,0,0-1.314-.67c-.511.21-.669.688-.421,1.332.379.977.769,1.948,1.158,2.921.3.749.6,1.5.917,2.242a.881.881,0,0,0,1.106.522.871.871,0,0,0,.68-.954C88.551,86.738,88.51,86.57,88.446,86.409Zm0,0c-.662-1.661-1.32-3.325-1.994-4.981a.962.962,0,0,0-1.314-.67c-.511.21-.669.688-.421,1.332.379.977.769,1.948,1.158,2.921.3.749.6,1.5.917,2.242a.881.881,0,0,0,1.106.522.871.871,0,0,0,.68-.954C88.551,86.738,88.51,86.57,88.446,86.409Zm-.812-9.426c-5.886.021-10.288,4.349-10.271,9.948.018,5.849,4.751,9.848,10.308,9.938A10.173,10.173,0,0,0,97.951,86.9,10.019,10.019,0,0,0,87.634,76.983Zm6.834,14.705c-.161.217-.263.263-.515.077a.85.85,0,0,0-1.166.1.78.78,0,0,0-.121,1.124c.183.238.169.345-.063.5a9.038,9.038,0,0,1-3.656,1.461c-.25.044-.355-.009-.39-.28a.921.921,0,0,0-1.8-.054c-.06.3-.158.382-.488.32A9.048,9.048,0,0,1,82.8,93.552c-.236-.158-.386-.245-.156-.592a.886.886,0,0,0-.81-1.369c-.036.005-.15-.009-.208.04-.656.546-.852-.023-1.113-.422A8.086,8.086,0,0,1,79.355,88.3c-.051-.259-.112-.49.334-.53a.786.786,0,0,0,.714-.83.811.811,0,0,0-.731-.886c-.354-.054-.382-.221-.328-.494a8.438,8.438,0,0,1,1.481-3.4c.16-.214.265-.287.522-.095a.866.866,0,0,0,1.171-.091.786.786,0,0,0,.114-1.127c-.232-.3-.1-.383.132-.543a8.893,8.893,0,0,1,3.466-1.4c.266-.051.468-.061.524.294a.917.917,0,0,0,1.795-.007c.042-.319.2-.341.448-.3a8.865,8.865,0,0,1,3.589,1.447c.239.165.236.289.073.522a.789.789,0,0,0,.138,1.124.86.86,0,0,0,1.171.074c.285-.219.377-.06.511.123a8.315,8.315,0,0,1,1.5,3.467c.045.238,0,.354-.274.394A.883.883,0,0,0,95.75,87.8c.279.026.263.173.228.361A8.346,8.346,0,0,1,94.468,91.688Zm-8.016-10.26a.962.962,0,0,0-1.314-.67c-.511.21-.669.688-.421,1.332.379.977.769,1.948,1.158,2.921.3.749.6,1.5.917,2.242a.881.881,0,0,0,1.106.522.871.871,0,0,0,.68-.954c-.027-.082-.069-.25-.132-.411C87.785,84.748,87.127,83.084,86.452,81.428Zm1.994,4.981c-.662-1.661-1.32-3.325-1.994-4.981a.962.962,0,0,0-1.314-.67c-.511.21-.669.688-.421,1.332.379.977.769,1.948,1.158,2.921.3.749.6,1.5.917,2.242a.881.881,0,0,0,1.106.522.871.871,0,0,0,.68-.954C88.551,86.738,88.51,86.57,88.446,86.409Zm0,0c-.662-1.661-1.32-3.325-1.994-4.981a.962.962,0,0,0-1.314-.67c-.511.21-.669.688-.421,1.332.379.977.769,1.948,1.158,2.921.3.749.6,1.5.917,2.242a.881.881,0,0,0,1.106.522.871.871,0,0,0,.68-.954C88.551,86.738,88.51,86.57,88.446,86.409Zm16.681,14.5a2.864,2.864,0,1,0,2.946,2.905A2.954,2.954,0,0,0,105.128,100.913Zm1.057,2.965a1.073,1.073,0,0,1-1.167.936,1.052,1.052,0,0,1-1-1.1,1.085,1.085,0,0,1,2.163.166Zm10.357-2.965a2.864,2.864,0,1,0,2.937,2.909A2.955,2.955,0,0,0,116.541,100.913Zm-.071,3.9a1.059,1.059,0,0,1-1.046-1.061,1.1,1.1,0,0,1,1.095-1.027,1.074,1.074,0,0,1,1.07,1.043A1.044,1.044,0,0,1,116.47,104.816Zm12.508,3.786H81.168c-1.166,0-1.414.245-1.414,1.39q0,5.828,0,11.654c0,1.076.279,1.341,1.409,1.341q23.94,0,47.88,0c1.151,0,1.414-.261,1.414-1.4V110C130.456,108.831,130.213,108.6,128.979,108.6Zm-1.033,12.582q-11.423-.024-22.845-.011-11.391,0-22.778.014c-.56,0-.705-.121-.7-.67.031-3.163.024-6.325.005-9.488,0-.448.054-.628.6-.627q22.879.026,45.759,0c.471,0,.6.105.595.567q-.035,4.81,0,9.619C128.591,121.1,128.429,121.185,127.945,121.184Zm3.138-42.556c0-.109,0-.219,0-.327-.02-2.177-1.332-3.436-3.6-3.436q-11.456-.005-22.912,0c-2.262,0-3.56,1.264-3.562,3.458q0,8.6,0,17.208a3.164,3.164,0,0,0,3.52,3.416q5.759.005,11.522,0c3.8,0,7.594-.061,11.388.023a3.386,3.386,0,0,0,3.66-3.532C131.047,89.836,131.083,84.232,131.083,78.628Zm-1.874,17.08c-.015.961-.558,1.437-1.612,1.444-1.853.014-3.707.005-5.56.005H116q-5.626,0-11.254,0c-1.441,0-1.867-.406-1.867-1.78,0-2.837.011-5.672-.013-8.508-.005-.5.114-.679.663-.651,1.028.056,1.474.446,1.485,1.456.011,1.178-.025,2.357.013,3.534a3.035,3.035,0,0,0,2.678,2.991,3.112,3.112,0,0,0,3.426-2.161,3.9,3.9,0,0,0,.109-1.167c0-2.289,0-4.58.005-6.871a4,4,0,0,1,.058-.779,1.645,1.645,0,0,1,1.753-1.318,1.607,1.607,0,0,1,1.548,1.537c.033,1.328-.013,2.66.025,3.99a3.151,3.151,0,0,0,2.939,3.065,3.248,3.248,0,0,0,3.359-2.217,10.389,10.389,0,0,0,.158-2.147,1.351,1.351,0,0,1,1.247-1.253,1.426,1.426,0,0,1,1.554.9,1.924,1.924,0,0,1,.087.578c.013.413-.007.828.009,1.243a3.044,3.044,0,0,0,3.055,2.975c.564.025,1.129.021,1.695.005.323-.007.493.049.489.424C129.205,92.566,129.234,94.138,129.209,95.708Zm-.557-6.925c-.495-.031-1,.011-1.49-.016a1.229,1.229,0,0,1-1.3-1.3,8.288,8.288,0,0,0-.121-2.018,3.355,3.355,0,0,0-3.539-2.361,3.267,3.267,0,0,0-3,3.1c-.013.371.011.742-.013,1.113a1.3,1.3,0,0,1-1.385,1.306,1.283,1.283,0,0,1-1.285-1.334c-.022-1.265.007-2.531-.013-3.8a3.475,3.475,0,0,0-3.212-3.388,3.578,3.578,0,0,0-3.783,2.545,4.492,4.492,0,0,0-.116,1.234q0,3.4,0,6.808c0,.175.007.35-.005.523a1.241,1.241,0,1,1-2.482-.024c-.025-1.243-.013-2.487-.009-3.731a2.864,2.864,0,0,0-.8-2.027,3.223,3.223,0,0,0-2.618-1c-.459.019-.618-.084-.611-.562.031-1.855.009-3.71.014-5.566.005-1.155.491-1.624,1.693-1.624q11.461,0,22.923,0c1.211,0,1.713.5,1.717,1.684,0,1.615,0,3.229,0,4.845,0,1.68-.016,3.36.013,5.041C129.236,88.686,129.088,88.81,128.652,88.782Zm2.431-10.155c0-.109,0-.219,0-.327-.02-2.177-1.332-3.436-3.6-3.436q-11.456-.005-22.912,0c-2.262,0-3.56,1.264-3.562,3.458q0,8.6,0,17.208a3.164,3.164,0,0,0,3.52,3.416q5.759.005,11.522,0c3.8,0,7.594-.061,11.388.023a3.386,3.386,0,0,0,3.66-3.532C131.047,89.836,131.083,84.232,131.083,78.628Zm-1.874,17.08c-.015.961-.558,1.437-1.612,1.444-1.853.014-3.707.005-5.56.005H116q-5.626,0-11.254,0c-1.441,0-1.867-.406-1.867-1.78,0-2.837.011-5.672-.013-8.508-.005-.5.114-.679.663-.651,1.028.056,1.474.446,1.485,1.456.011,1.178-.025,2.357.013,3.534a3.035,3.035,0,0,0,2.678,2.991,3.112,3.112,0,0,0,3.426-2.161,3.9,3.9,0,0,0,.109-1.167c0-2.289,0-4.58.005-6.871a4,4,0,0,1,.058-.779,1.645,1.645,0,0,1,1.753-1.318,1.607,1.607,0,0,1,1.548,1.537c.033,1.328-.013,2.66.025,3.99a3.151,3.151,0,0,0,2.939,3.065,3.248,3.248,0,0,0,3.359-2.217,10.389,10.389,0,0,0,.158-2.147,1.351,1.351,0,0,1,1.247-1.253,1.426,1.426,0,0,1,1.554.9,1.924,1.924,0,0,1,.087.578c.013.413-.007.828.009,1.243a3.044,3.044,0,0,0,3.055,2.975c.564.025,1.129.021,1.695.005.323-.007.493.049.489.424C129.205,92.566,129.234,94.138,129.209,95.708Zm-.557-6.925c-.495-.031-1,.011-1.49-.016a1.229,1.229,0,0,1-1.3-1.3,8.288,8.288,0,0,0-.121-2.018,3.355,3.355,0,0,0-3.539-2.361,3.267,3.267,0,0,0-3,3.1c-.013.371.011.742-.013,1.113a1.3,1.3,0,0,1-1.385,1.306,1.283,1.283,0,0,1-1.285-1.334c-.022-1.265.007-2.531-.013-3.8a3.475,3.475,0,0,0-3.212-3.388,3.578,3.578,0,0,0-3.783,2.545,4.492,4.492,0,0,0-.116,1.234q0,3.4,0,6.808c0,.175.007.35-.005.523a1.241,1.241,0,1,1-2.482-.024c-.025-1.243-.013-2.487-.009-3.731a2.864,2.864,0,0,0-.8-2.027,3.223,3.223,0,0,0-2.618-1c-.459.019-.618-.084-.611-.562.031-1.855.009-3.71.014-5.566.005-1.155.491-1.624,1.693-1.624q11.461,0,22.923,0c1.211,0,1.713.5,1.717,1.684,0,1.615,0,3.229,0,4.845,0,1.68-.016,3.36.013,5.041C129.236,88.686,129.088,88.81,128.652,88.782Zm.326,19.819H81.168c-1.166,0-1.414.245-1.414,1.39q0,5.828,0,11.654c0,1.076.279,1.341,1.409,1.341q23.94,0,47.88,0c1.151,0,1.414-.261,1.414-1.4V110C130.456,108.831,130.213,108.6,128.979,108.6Zm-1.033,12.582q-11.423-.024-22.845-.011-11.391,0-22.778.014c-.56,0-.705-.121-.7-.67.031-3.163.024-6.325.005-9.488,0-.448.054-.628.6-.627q22.879.026,45.759,0c.471,0,.6.105.595.567q-.035,4.81,0,9.619C128.591,121.1,128.429,121.185,127.945,121.184Zm-11.4-20.271a2.864,2.864,0,1,0,2.937,2.909A2.955,2.955,0,0,0,116.541,100.913Zm-.071,3.9a1.059,1.059,0,0,1-1.046-1.061,1.1,1.1,0,0,1,1.095-1.027,1.074,1.074,0,0,1,1.07,1.043A1.044,1.044,0,0,1,116.47,104.816Zm-11.343-3.9a2.864,2.864,0,1,0,2.946,2.905A2.954,2.954,0,0,0,105.128,100.913Zm1.057,2.965a1.073,1.073,0,0,1-1.167.936,1.052,1.052,0,0,1-1-1.1,1.085,1.085,0,0,1,2.163.166ZM88.446,86.409c-.662-1.661-1.32-3.325-1.994-4.981a.962.962,0,0,0-1.314-.67c-.511.21-.669.688-.421,1.332.379.977.769,1.948,1.158,2.921.3.749.6,1.5.917,2.242a.881.881,0,0,0,1.106.522.871.871,0,0,0,.68-.954C88.551,86.738,88.51,86.57,88.446,86.409Zm0,0c-.662-1.661-1.32-3.325-1.994-4.981a.962.962,0,0,0-1.314-.67c-.511.21-.669.688-.421,1.332.379.977.769,1.948,1.158,2.921.3.749.6,1.5.917,2.242a.881.881,0,0,0,1.106.522.871.871,0,0,0,.68-.954C88.551,86.738,88.51,86.57,88.446,86.409Zm0,0c-.662-1.661-1.32-3.325-1.994-4.981a.962.962,0,0,0-1.314-.67c-.511.21-.669.688-.421,1.332.379.977.769,1.948,1.158,2.921.3.749.6,1.5.917,2.242a.881.881,0,0,0,1.106.522.871.871,0,0,0,.68-.954C88.551,86.738,88.51,86.57,88.446,86.409Zm0,0c-.662-1.661-1.32-3.325-1.994-4.981a.962.962,0,0,0-1.314-.67c-.511.21-.669.688-.421,1.332.379.977.769,1.948,1.158,2.921.3.749.6,1.5.917,2.242a.881.881,0,0,0,1.106.522.871.871,0,0,0,.68-.954C88.551,86.738,88.51,86.57,88.446,86.409Zm-.812-9.426c-5.886.021-10.288,4.349-10.271,9.948.018,5.849,4.751,9.848,10.308,9.938A10.173,10.173,0,0,0,97.951,86.9,10.019,10.019,0,0,0,87.634,76.983Zm6.834,14.705c-.161.217-.263.263-.515.077a.85.85,0,0,0-1.166.1.78.78,0,0,0-.121,1.124c.183.238.169.345-.063.5a9.038,9.038,0,0,1-3.656,1.461c-.25.044-.355-.009-.39-.28a.921.921,0,0,0-1.8-.054c-.06.3-.158.382-.488.32A9.048,9.048,0,0,1,82.8,93.552c-.236-.158-.386-.245-.156-.592a.886.886,0,0,0-.81-1.369c-.036.005-.15-.009-.208.04-.656.546-.852-.023-1.113-.422A8.086,8.086,0,0,1,79.355,88.3c-.051-.259-.112-.49.334-.53a.786.786,0,0,0,.714-.83.811.811,0,0,0-.731-.886c-.354-.054-.382-.221-.328-.494a8.438,8.438,0,0,1,1.481-3.4c.16-.214.265-.287.522-.095a.866.866,0,0,0,1.171-.091.786.786,0,0,0,.114-1.127c-.232-.3-.1-.383.132-.543a8.893,8.893,0,0,1,3.466-1.4c.266-.051.468-.061.524.294a.917.917,0,0,0,1.795-.007c.042-.319.2-.341.448-.3a8.865,8.865,0,0,1,3.589,1.447c.239.165.236.289.073.522a.789.789,0,0,0,.138,1.124.86.86,0,0,0,1.171.074c.285-.219.377-.06.511.123a8.315,8.315,0,0,1,1.5,3.467c.045.238,0,.354-.274.394A.883.883,0,0,0,95.75,87.8c.279.026.263.173.228.361A8.346,8.346,0,0,1,94.468,91.688Zm-8.016-10.26a.962.962,0,0,0-1.314-.67c-.511.21-.669.688-.421,1.332.379.977.769,1.948,1.158,2.921.3.749.6,1.5.917,2.242a.881.881,0,0,0,1.106.522.871.871,0,0,0,.68-.954c-.027-.082-.069-.25-.132-.411C87.785,84.748,87.127,83.084,86.452,81.428Zm1.994,4.981c-.662-1.661-1.32-3.325-1.994-4.981a.962.962,0,0,0-1.314-.67c-.511.21-.669.688-.421,1.332.379.977.769,1.948,1.158,2.921.3.749.6,1.5.917,2.242a.881.881,0,0,0,1.106.522.871.871,0,0,0,.68-.954C88.551,86.738,88.51,86.57,88.446,86.409Zm0,0c-.662-1.661-1.32-3.325-1.994-4.981a.962.962,0,0,0-1.314-.67c-.511.21-.669.688-.421,1.332.379.977.769,1.948,1.158,2.921.3.749.6,1.5.917,2.242a.881.881,0,0,0,1.106.522.871.871,0,0,0,.68-.954C88.551,86.738,88.51,86.57,88.446,86.409Zm0,0c-.662-1.661-1.32-3.325-1.994-4.981a.962.962,0,0,0-1.314-.67c-.511.21-.669.688-.421,1.332.379.977.769,1.948,1.158,2.921.3.749.6,1.5.917,2.242a.881.881,0,0,0,1.106.522.871.871,0,0,0,.68-.954C88.551,86.738,88.51,86.57,88.446,86.409Zm5.3,14.5a2.864,2.864,0,1,0,2.917,2.867A2.95,2.95,0,0,0,93.747,100.913Zm-.016,3.9a1.051,1.051,0,0,1-1.113-.987,1.069,1.069,0,0,1,1.073-1.1,1.106,1.106,0,0,1,1.091,1.033A1.062,1.062,0,0,1,93.731,104.818ZM88.446,86.409c-.662-1.661-1.32-3.325-1.994-4.981a.962.962,0,0,0-1.314-.67c-.511.21-.669.688-.421,1.332.379.977.769,1.948,1.158,2.921.3.749.6,1.5.917,2.242a.881.881,0,0,0,1.106.522.871.871,0,0,0,.68-.954C88.551,86.738,88.51,86.57,88.446,86.409Zm0,0c-.662-1.661-1.32-3.325-1.994-4.981a.962.962,0,0,0-1.314-.67c-.511.21-.669.688-.421,1.332.379.977.769,1.948,1.158,2.921.3.749.6,1.5.917,2.242a.881.881,0,0,0,1.106.522.871.871,0,0,0,.68-.954C88.551,86.738,88.51,86.57,88.446,86.409Zm5.3,14.5a2.864,2.864,0,1,0,2.917,2.867A2.95,2.95,0,0,0,93.747,100.913Zm-.016,3.9a1.051,1.051,0,0,1-1.113-.987,1.069,1.069,0,0,1,1.073-1.1,1.106,1.106,0,0,1,1.091,1.033A1.062,1.062,0,0,1,93.731,104.818ZM88.446,86.409c-.662-1.661-1.32-3.325-1.994-4.981a.962.962,0,0,0-1.314-.67c-.511.21-.669.688-.421,1.332.379.977.769,1.948,1.158,2.921.3.749.6,1.5.917,2.242a.881.881,0,0,0,1.106.522.871.871,0,0,0,.68-.954C88.551,86.738,88.51,86.57,88.446,86.409Zm0,0c-.662-1.661-1.32-3.325-1.994-4.981a.962.962,0,0,0-1.314-.67c-.511.21-.669.688-.421,1.332.379.977.769,1.948,1.158,2.921.3.749.6,1.5.917,2.242a.881.881,0,0,0,1.106.522.871.871,0,0,0,.68-.954C88.551,86.738,88.51,86.57,88.446,86.409Zm0,0c-.662-1.661-1.32-3.325-1.994-4.981a.962.962,0,0,0-1.314-.67c-.511.21-.669.688-.421,1.332.379.977.769,1.948,1.158,2.921.3.749.6,1.5.917,2.242a.881.881,0,0,0,1.106.522.871.871,0,0,0,.68-.954C88.551,86.738,88.51,86.57,88.446,86.409Zm0,0c-.662-1.661-1.32-3.325-1.994-4.981a.962.962,0,0,0-1.314-.67c-.511.21-.669.688-.421,1.332.379.977.769,1.948,1.158,2.921.3.749.6,1.5.917,2.242a.881.881,0,0,0,1.106.522.871.871,0,0,0,.68-.954C88.551,86.738,88.51,86.57,88.446,86.409Zm0,0c-.662-1.661-1.32-3.325-1.994-4.981a.962.962,0,0,0-1.314-.67c-.511.21-.669.688-.421,1.332.379.977.769,1.948,1.158,2.921.3.749.6,1.5.917,2.242a.881.881,0,0,0,1.106.522.871.871,0,0,0,.68-.954C88.551,86.738,88.51,86.57,88.446,86.409Zm-.812-9.426c-5.886.021-10.288,4.349-10.271,9.948.018,5.849,4.751,9.848,10.308,9.938A10.173,10.173,0,0,0,97.951,86.9,10.019,10.019,0,0,0,87.634,76.983Zm6.834,14.705c-.161.217-.263.263-.515.077a.85.85,0,0,0-1.166.1.78.78,0,0,0-.121,1.124c.183.238.169.345-.063.5a9.038,9.038,0,0,1-3.656,1.461c-.25.044-.355-.009-.39-.28a.921.921,0,0,0-1.8-.054c-.06.3-.158.382-.488.32A9.048,9.048,0,0,1,82.8,93.552c-.236-.158-.386-.245-.156-.592a.886.886,0,0,0-.81-1.369c-.036.005-.15-.009-.208.04-.656.546-.852-.023-1.113-.422A8.086,8.086,0,0,1,79.355,88.3c-.051-.259-.112-.49.334-.53a.786.786,0,0,0,.714-.83.811.811,0,0,0-.731-.886c-.354-.054-.382-.221-.328-.494a8.438,8.438,0,0,1,1.481-3.4c.16-.214.265-.287.522-.095a.866.866,0,0,0,1.171-.091.786.786,0,0,0,.114-1.127c-.232-.3-.1-.383.132-.543a8.893,8.893,0,0,1,3.466-1.4c.266-.051.468-.061.524.294a.917.917,0,0,0,1.795-.007c.042-.319.2-.341.448-.3a8.865,8.865,0,0,1,3.589,1.447c.239.165.236.289.073.522a.789.789,0,0,0,.138,1.124.86.86,0,0,0,1.171.074c.285-.219.377-.06.511.123a8.315,8.315,0,0,1,1.5,3.467c.045.238,0,.354-.274.394A.883.883,0,0,0,95.75,87.8c.279.026.263.173.228.361A8.346,8.346,0,0,1,94.468,91.688Zm-8.016-10.26a.962.962,0,0,0-1.314-.67c-.511.21-.669.688-.421,1.332.379.977.769,1.948,1.158,2.921.3.749.6,1.5.917,2.242a.881.881,0,0,0,1.106.522.871.871,0,0,0,.68-.954c-.027-.082-.069-.25-.132-.411C87.785,84.748,87.127,83.084,86.452,81.428Zm1.994,4.981c-.662-1.661-1.32-3.325-1.994-4.981a.962.962,0,0,0-1.314-.67c-.511.21-.669.688-.421,1.332.379.977.769,1.948,1.158,2.921.3.749.6,1.5.917,2.242a.881.881,0,0,0,1.106.522.871.871,0,0,0,.68-.954C88.551,86.738,88.51,86.57,88.446,86.409Zm0,0c-.662-1.661-1.32-3.325-1.994-4.981a.962.962,0,0,0-1.314-.67c-.511.21-.669.688-.421,1.332.379.977.769,1.948,1.158,2.921.3.749.6,1.5.917,2.242a.881.881,0,0,0,1.106.522.871.871,0,0,0,.68-.954C88.551,86.738,88.51,86.57,88.446,86.409Zm0,0c-.662-1.661-1.32-3.325-1.994-4.981a.962.962,0,0,0-1.314-.67c-.511.21-.669.688-.421,1.332.379.977.769,1.948,1.158,2.921.3.749.6,1.5.917,2.242a.881.881,0,0,0,1.106.522.871.871,0,0,0,.68-.954C88.551,86.738,88.51,86.57,88.446,86.409Zm0,0c-.662-1.661-1.32-3.325-1.994-4.981a.962.962,0,0,0-1.314-.67c-.511.21-.669.688-.421,1.332.379.977.769,1.948,1.158,2.921.3.749.6,1.5.917,2.242a.881.881,0,0,0,1.106.522.871.871,0,0,0,.68-.954C88.551,86.738,88.51,86.57,88.446,86.409Zm16.681,14.5a2.864,2.864,0,1,0,2.946,2.905A2.954,2.954,0,0,0,105.128,100.913Zm1.057,2.965a1.073,1.073,0,0,1-1.167.936,1.052,1.052,0,0,1-1-1.1,1.085,1.085,0,0,1,2.163.166Zm10.357-2.965a2.864,2.864,0,1,0,2.937,2.909A2.955,2.955,0,0,0,116.541,100.913Zm-.071,3.9a1.059,1.059,0,0,1-1.046-1.061,1.1,1.1,0,0,1,1.095-1.027,1.074,1.074,0,0,1,1.07,1.043A1.044,1.044,0,0,1,116.47,104.816Zm12.508,3.786H81.168c-1.166,0-1.414.245-1.414,1.39q0,5.828,0,11.654c0,1.076.279,1.341,1.409,1.341q23.94,0,47.88,0c1.151,0,1.414-.261,1.414-1.4V110C130.456,108.831,130.213,108.6,128.979,108.6Zm-1.033,12.582q-11.423-.024-22.845-.011-11.391,0-22.778.014c-.56,0-.705-.121-.7-.67.031-3.163.024-6.325.005-9.488,0-.448.054-.628.6-.627q22.879.026,45.759,0c.471,0,.6.105.595.567q-.035,4.81,0,9.619C128.591,121.1,128.429,121.185,127.945,121.184Zm3.138-42.556c0-.109,0-.219,0-.327-.02-2.177-1.332-3.436-3.6-3.436q-11.456-.005-22.912,0c-2.262,0-3.56,1.264-3.562,3.458q0,8.6,0,17.208a3.164,3.164,0,0,0,3.52,3.416q5.759.005,11.522,0c3.8,0,7.594-.061,11.388.023a3.386,3.386,0,0,0,3.66-3.532C131.047,89.836,131.083,84.232,131.083,78.628Zm-1.874,17.08c-.015.961-.558,1.437-1.612,1.444-1.853.014-3.707.005-5.56.005H116q-5.626,0-11.254,0c-1.441,0-1.867-.406-1.867-1.78,0-2.837.011-5.672-.013-8.508-.005-.5.114-.679.663-.651,1.028.056,1.474.446,1.485,1.456.011,1.178-.025,2.357.013,3.534a3.035,3.035,0,0,0,2.678,2.991,3.112,3.112,0,0,0,3.426-2.161,3.9,3.9,0,0,0,.109-1.167c0-2.289,0-4.58.005-6.871a4,4,0,0,1,.058-.779,1.645,1.645,0,0,1,1.753-1.318,1.607,1.607,0,0,1,1.548,1.537c.033,1.328-.013,2.66.025,3.99a3.151,3.151,0,0,0,2.939,3.065,3.248,3.248,0,0,0,3.359-2.217,10.389,10.389,0,0,0,.158-2.147,1.351,1.351,0,0,1,1.247-1.253,1.426,1.426,0,0,1,1.554.9,1.924,1.924,0,0,1,.087.578c.013.413-.007.828.009,1.243a3.044,3.044,0,0,0,3.055,2.975c.564.025,1.129.021,1.695.005.323-.007.493.049.489.424C129.205,92.566,129.234,94.138,129.209,95.708Zm-.557-6.925c-.495-.031-1,.011-1.49-.016a1.229,1.229,0,0,1-1.3-1.3,8.288,8.288,0,0,0-.121-2.018,3.355,3.355,0,0,0-3.539-2.361,3.267,3.267,0,0,0-3,3.1c-.013.371.011.742-.013,1.113a1.3,1.3,0,0,1-1.385,1.306,1.283,1.283,0,0,1-1.285-1.334c-.022-1.265.007-2.531-.013-3.8a3.475,3.475,0,0,0-3.212-3.388,3.578,3.578,0,0,0-3.783,2.545,4.492,4.492,0,0,0-.116,1.234q0,3.4,0,6.808c0,.175.007.35-.005.523a1.241,1.241,0,1,1-2.482-.024c-.025-1.243-.013-2.487-.009-3.731a2.864,2.864,0,0,0-.8-2.027,3.223,3.223,0,0,0-2.618-1c-.459.019-.618-.084-.611-.562.031-1.855.009-3.71.014-5.566.005-1.155.491-1.624,1.693-1.624q11.461,0,22.923,0c1.211,0,1.713.5,1.717,1.684,0,1.615,0,3.229,0,4.845,0,1.68-.016,3.36.013,5.041C129.236,88.686,129.088,88.81,128.652,88.782Zm2.431-10.155c0-.109,0-.219,0-.327-.02-2.177-1.332-3.436-3.6-3.436q-11.456-.005-22.912,0c-2.262,0-3.56,1.264-3.562,3.458q0,8.6,0,17.208a3.164,3.164,0,0,0,3.52,3.416q5.759.005,11.522,0c3.8,0,7.594-.061,11.388.023a3.386,3.386,0,0,0,3.66-3.532C131.047,89.836,131.083,84.232,131.083,78.628Zm-1.874,17.08c-.015.961-.558,1.437-1.612,1.444-1.853.014-3.707.005-5.56.005H116q-5.626,0-11.254,0c-1.441,0-1.867-.406-1.867-1.78,0-2.837.011-5.672-.013-8.508-.005-.5.114-.679.663-.651,1.028.056,1.474.446,1.485,1.456.011,1.178-.025,2.357.013,3.534a3.035,3.035,0,0,0,2.678,2.991,3.112,3.112,0,0,0,3.426-2.161,3.9,3.9,0,0,0,.109-1.167c0-2.289,0-4.58.005-6.871a4,4,0,0,1,.058-.779,1.645,1.645,0,0,1,1.753-1.318,1.607,1.607,0,0,1,1.548,1.537c.033,1.328-.013,2.66.025,3.99a3.151,3.151,0,0,0,2.939,3.065,3.248,3.248,0,0,0,3.359-2.217,10.389,10.389,0,0,0,.158-2.147,1.351,1.351,0,0,1,1.247-1.253,1.426,1.426,0,0,1,1.554.9,1.924,1.924,0,0,1,.087.578c.013.413-.007.828.009,1.243a3.044,3.044,0,0,0,3.055,2.975c.564.025,1.129.021,1.695.005.323-.007.493.049.489.424C129.205,92.566,129.234,94.138,129.209,95.708Zm-.557-6.925c-.495-.031-1,.011-1.49-.016a1.229,1.229,0,0,1-1.3-1.3,8.288,8.288,0,0,0-.121-2.018,3.355,3.355,0,0,0-3.539-2.361,3.267,3.267,0,0,0-3,3.1c-.013.371.011.742-.013,1.113a1.3,1.3,0,0,1-1.385,1.306,1.283,1.283,0,0,1-1.285-1.334c-.022-1.265.007-2.531-.013-3.8a3.475,3.475,0,0,0-3.212-3.388,3.578,3.578,0,0,0-3.783,2.545,4.492,4.492,0,0,0-.116,1.234q0,3.4,0,6.808c0,.175.007.35-.005.523a1.241,1.241,0,1,1-2.482-.024c-.025-1.243-.013-2.487-.009-3.731a2.864,2.864,0,0,0-.8-2.027,3.223,3.223,0,0,0-2.618-1c-.459.019-.618-.084-.611-.562.031-1.855.009-3.71.014-5.566.005-1.155.491-1.624,1.693-1.624q11.461,0,22.923,0c1.211,0,1.713.5,1.717,1.684,0,1.615,0,3.229,0,4.845,0,1.68-.016,3.36.013,5.041C129.236,88.686,129.088,88.81,128.652,88.782Zm.326,19.819H81.168c-1.166,0-1.414.245-1.414,1.39q0,5.828,0,11.654c0,1.076.279,1.341,1.409,1.341q23.94,0,47.88,0c1.151,0,1.414-.261,1.414-1.4V110C130.456,108.831,130.213,108.6,128.979,108.6Zm-1.033,12.582q-11.423-.024-22.845-.011-11.391,0-22.778.014c-.56,0-.705-.121-.7-.67.031-3.163.024-6.325.005-9.488,0-.448.054-.628.6-.627q22.879.026,45.759,0c.471,0,.6.105.595.567q-.035,4.81,0,9.619C128.591,121.1,128.429,121.185,127.945,121.184Zm-11.4-20.271a2.864,2.864,0,1,0,2.937,2.909A2.955,2.955,0,0,0,116.541,100.913Zm-.071,3.9a1.059,1.059,0,0,1-1.046-1.061,1.1,1.1,0,0,1,1.095-1.027,1.074,1.074,0,0,1,1.07,1.043A1.044,1.044,0,0,1,116.47,104.816Zm-11.343-3.9a2.864,2.864,0,1,0,2.946,2.905A2.954,2.954,0,0,0,105.128,100.913Zm1.057,2.965a1.073,1.073,0,0,1-1.167.936,1.052,1.052,0,0,1-1-1.1,1.085,1.085,0,0,1,2.163.166ZM88.446,86.409c-.662-1.661-1.32-3.325-1.994-4.981a.962.962,0,0,0-1.314-.67c-.511.21-.669.688-.421,1.332.379.977.769,1.948,1.158,2.921.3.749.6,1.5.917,2.242a.881.881,0,0,0,1.106.522.871.871,0,0,0,.68-.954C88.551,86.738,88.51,86.57,88.446,86.409Zm0,0c-.662-1.661-1.32-3.325-1.994-4.981a.962.962,0,0,0-1.314-.67c-.511.21-.669.688-.421,1.332.379.977.769,1.948,1.158,2.921.3.749.6,1.5.917,2.242a.881.881,0,0,0,1.106.522.871.871,0,0,0,.68-.954C88.551,86.738,88.51,86.57,88.446,86.409Zm0,0c-.662-1.661-1.32-3.325-1.994-4.981a.962.962,0,0,0-1.314-.67c-.511.21-.669.688-.421,1.332.379.977.769,1.948,1.158,2.921.3.749.6,1.5.917,2.242a.881.881,0,0,0,1.106.522.871.871,0,0,0,.68-.954C88.551,86.738,88.51,86.57,88.446,86.409Zm0,0c-.662-1.661-1.32-3.325-1.994-4.981a.962.962,0,0,0-1.314-.67c-.511.21-.669.688-.421,1.332.379.977.769,1.948,1.158,2.921.3.749.6,1.5.917,2.242a.881.881,0,0,0,1.106.522.871.871,0,0,0,.68-.954C88.551,86.738,88.51,86.57,88.446,86.409Zm0,0c-.662-1.661-1.32-3.325-1.994-4.981a.962.962,0,0,0-1.314-.67c-.511.21-.669.688-.421,1.332.379.977.769,1.948,1.158,2.921.3.749.6,1.5.917,2.242a.881.881,0,0,0,1.106.522.871.871,0,0,0,.68-.954C88.551,86.738,88.51,86.57,88.446,86.409Zm0,0c-.662-1.661-1.32-3.325-1.994-4.981a.962.962,0,0,0-1.314-.67c-.511.21-.669.688-.421,1.332.379.977.769,1.948,1.158,2.921.3.749.6,1.5.917,2.242a.881.881,0,0,0,1.106.522.871.871,0,0,0,.68-.954C88.551,86.738,88.51,86.57,88.446,86.409Zm-.812-9.426c-5.886.021-10.288,4.349-10.271,9.948.018,5.849,4.751,9.848,10.308,9.938A10.173,10.173,0,0,0,97.951,86.9,10.019,10.019,0,0,0,87.634,76.983Zm6.834,14.705c-.161.217-.263.263-.515.077a.85.85,0,0,0-1.166.1.78.78,0,0,0-.121,1.124c.183.238.169.345-.063.5a9.038,9.038,0,0,1-3.656,1.461c-.25.044-.355-.009-.39-.28a.921.921,0,0,0-1.8-.054c-.06.3-.158.382-.488.32A9.048,9.048,0,0,1,82.8,93.552c-.236-.158-.386-.245-.156-.592a.886.886,0,0,0-.81-1.369c-.036.005-.15-.009-.208.04-.656.546-.852-.023-1.113-.422A8.086,8.086,0,0,1,79.355,88.3c-.051-.259-.112-.49.334-.53a.786.786,0,0,0,.714-.83.811.811,0,0,0-.731-.886c-.354-.054-.382-.221-.328-.494a8.438,8.438,0,0,1,1.481-3.4c.16-.214.265-.287.522-.095a.866.866,0,0,0,1.171-.091.786.786,0,0,0,.114-1.127c-.232-.3-.1-.383.132-.543a8.893,8.893,0,0,1,3.466-1.4c.266-.051.468-.061.524.294a.917.917,0,0,0,1.795-.007c.042-.319.2-.341.448-.3a8.865,8.865,0,0,1,3.589,1.447c.239.165.236.289.073.522a.789.789,0,0,0,.138,1.124.86.86,0,0,0,1.171.074c.285-.219.377-.06.511.123a8.315,8.315,0,0,1,1.5,3.467c.045.238,0,.354-.274.394A.883.883,0,0,0,95.75,87.8c.279.026.263.173.228.361A8.346,8.346,0,0,1,94.468,91.688Zm-8.016-10.26a.962.962,0,0,0-1.314-.67c-.511.21-.669.688-.421,1.332.379.977.769,1.948,1.158,2.921.3.749.6,1.5.917,2.242a.881.881,0,0,0,1.106.522.871.871,0,0,0,.68-.954c-.027-.082-.069-.25-.132-.411C87.785,84.748,87.127,83.084,86.452,81.428Zm1.994,4.981c-.662-1.661-1.32-3.325-1.994-4.981a.962.962,0,0,0-1.314-.67c-.511.21-.669.688-.421,1.332.379.977.769,1.948,1.158,2.921.3.749.6,1.5.917,2.242a.881.881,0,0,0,1.106.522.871.871,0,0,0,.68-.954C88.551,86.738,88.51,86.57,88.446,86.409Zm0,0c-.662-1.661-1.32-3.325-1.994-4.981a.962.962,0,0,0-1.314-.67c-.511.21-.669.688-.421,1.332.379.977.769,1.948,1.158,2.921.3.749.6,1.5.917,2.242a.881.881,0,0,0,1.106.522.871.871,0,0,0,.68-.954C88.551,86.738,88.51,86.57,88.446,86.409Zm0,0c-.662-1.661-1.32-3.325-1.994-4.981a.962.962,0,0,0-1.314-.67c-.511.21-.669.688-.421,1.332.379.977.769,1.948,1.158,2.921.3.749.6,1.5.917,2.242a.881.881,0,0,0,1.106.522.871.871,0,0,0,.68-.954C88.551,86.738,88.51,86.57,88.446,86.409Zm0,0c-.662-1.661-1.32-3.325-1.994-4.981a.962.962,0,0,0-1.314-.67c-.511.21-.669.688-.421,1.332.379.977.769,1.948,1.158,2.921.3.749.6,1.5.917,2.242a.881.881,0,0,0,1.106.522.871.871,0,0,0,.68-.954C88.551,86.738,88.51,86.57,88.446,86.409Zm5.3,14.5a2.864,2.864,0,1,0,2.917,2.867A2.95,2.95,0,0,0,93.747,100.913Zm-.016,3.9a1.051,1.051,0,0,1-1.113-.987,1.069,1.069,0,0,1,1.073-1.1,1.106,1.106,0,0,1,1.091,1.033A1.062,1.062,0,0,1,93.731,104.818Z"/><path class="a" d="M-1121.894-1650.252c-.016-5.6,4.385-9.927,10.271-9.949a10.019,10.019,0,0,1,10.317,9.917,10.173,10.173,0,0,1-10.28,9.969C-1117.143-1640.4-1121.876-1644.4-1121.894-1650.252Zm10.32,7a.818.818,0,0,1,.873.747c.035.271.14.324.391.28a9.035,9.035,0,0,0,3.656-1.462c.232-.159.247-.266.064-.5a.78.78,0,0,1,.122-1.123.849.849,0,0,1,1.166-.1c.252.185.354.14.515-.077a8.351,8.351,0,0,0,1.51-3.53c.034-.187.05-.334-.229-.361a.821.821,0,0,1-.836-.857.827.827,0,0,1,.789-.9c.277-.041.319-.156.274-.394a8.317,8.317,0,0,0-1.5-3.467c-.134-.182-.227-.341-.511-.122a.859.859,0,0,1-1.171-.074.789.789,0,0,1-.138-1.123c.163-.233.167-.357-.073-.522a8.868,8.868,0,0,0-3.589-1.447c-.252-.041-.406-.019-.448.3a.823.823,0,0,1-.892.732.83.83,0,0,1-.9-.724c-.056-.356-.257-.346-.524-.294a8.883,8.883,0,0,0-3.466,1.4c-.229.159-.365.246-.132.543a.787.787,0,0,1-.114,1.128.867.867,0,0,1-1.171.091c-.257-.193-.363-.119-.522.094a8.436,8.436,0,0,0-1.481,3.4c-.054.273-.025.439.328.494a.811.811,0,0,1,.731.885.786.786,0,0,1-.715.83c-.446.04-.384.272-.334.531a8.107,8.107,0,0,0,1.156,2.909c.261.4.457.968,1.113.421.057-.049.172-.035.209-.041a.886.886,0,0,1,.81,1.369c-.23.347-.08.434.156.591a9.052,9.052,0,0,0,3.474,1.389c.329.061.427-.018.487-.32a.814.814,0,0,1,.877-.694Zm-.89-6.674c-.321-.742-.617-1.493-.917-2.242-.391-.974-.78-1.945-1.159-2.922-.248-.644-.09-1.122.421-1.332a.962.962,0,0,1,1.314.67c.674,1.655,1.333,3.32,1.994,4.981.063.161.1.329.132.411a.872.872,0,0,1-.68.954,1.265,1.265,0,0,1-.293.036A.846.846,0,0,1-1112.464-1649.93Z" transform="translate(1199.257 1737.183)"/><path class="b" d="M-1111.59-1639.814h0a11.341,11.341,0,0,1-7.563-2.942,10.134,10.134,0,0,1-3.237-7.494,10.212,10.212,0,0,1,3.073-7.426,10.989,10.989,0,0,1,7.7-3.025h.039a10.81,10.81,0,0,1,7.713,3.09,10.457,10.457,0,0,1,3.067,7.32,10.044,10.044,0,0,1-2.972,7.2,11.062,11.062,0,0,1-7.807,3.276Zm0-19.886h-.036a10,10,0,0,0-7,2.741,9.22,9.22,0,0,0-2.771,6.706,9.144,9.144,0,0,0,2.917,6.763,10.343,10.343,0,0,0,6.894,2.676,10.056,10.056,0,0,0,7.092-2.978,9.052,9.052,0,0,0,2.684-6.485,9.463,9.463,0,0,0-2.773-6.625A9.818,9.818,0,0,0-1111.586-1659.7Zm1.141,17.985a.733.733,0,0,1-.752-.729c-.02-.152-.066-.3-.393-.311h-.031c-.274,0-.351.111-.386.291a.784.784,0,0,1-.8.743,1.457,1.457,0,0,1-.267-.028,9.481,9.481,0,0,1-3.662-1.466l-.015-.01a.81.81,0,0,1-.277-1.273.336.336,0,0,0,.033-.359.478.478,0,0,0-.413-.232,1.168,1.168,0,0,1-.7.265,1.178,1.178,0,0,1-.969-.73c-.031-.051-.06-.1-.088-.143a8.647,8.647,0,0,1-1.229-3.086l-.005-.027a.923.923,0,0,1,.106-.772.928.928,0,0,1,.679-.326c.167-.015.254-.131.26-.345a.318.318,0,0,0-.308-.377.924.924,0,0,1-.636-.351.918.918,0,0,1-.106-.735,8.985,8.985,0,0,1,1.569-3.6.859.859,0,0,1,.676-.409.923.923,0,0,1,.548.211.392.392,0,0,0,.228.087.486.486,0,0,0,.305-.146c.211-.2.142-.344.058-.451a.89.89,0,0,1-.219-.663.889.889,0,0,1,.448-.589l.012-.008a9.313,9.313,0,0,1,3.66-1.482,1.632,1.632,0,0,1,.306-.035.793.793,0,0,1,.8.743c.025.156.092.3.4.3.365,0,.392-.208.4-.3a.772.772,0,0,1,.787-.751,1.458,1.458,0,0,1,.238.022,9.416,9.416,0,0,1,3.792,1.529.875.875,0,0,1,.394.545.89.89,0,0,1-.195.676.3.3,0,0,0,.062.465.488.488,0,0,0,.3.142.376.376,0,0,0,.227-.091.882.882,0,0,1,.543-.211.813.813,0,0,1,.659.406l.019.025a8.862,8.862,0,0,1,1.586,3.67.848.848,0,0,1-.107.665.847.847,0,0,1-.586.318c-.31.047-.368.179-.362.393s.071.346.379.373h.006a.763.763,0,0,1,.564.284.8.8,0,0,1,.108.665,8.892,8.892,0,0,1-1.6,3.738.829.829,0,0,1-.661.4.934.934,0,0,1-.552-.213.391.391,0,0,0-.227-.089.468.468,0,0,0-.3.148c-.226.214-.159.342-.071.455a.871.871,0,0,1,.221.671.853.853,0,0,1-.4.551,9.573,9.573,0,0,1-3.854,1.542A1.256,1.256,0,0,1-1110.444-1641.715Zm-5.7-2.31a8.484,8.484,0,0,0,3.18,1.277,1.3,1.3,0,0,1,1.347-1.008h.066a1.314,1.314,0,0,1,1.316,1.005,8.577,8.577,0,0,0,3.166-1.262,1.276,1.276,0,0,1,.259-1.669,1.423,1.423,0,0,1,.986-.424,1.35,1.35,0,0,1,.711.21,7.884,7.884,0,0,0,1.31-3.034,1.3,1.3,0,0,1-1.036-1.3,1.308,1.308,0,0,1,1.04-1.377,7.731,7.731,0,0,0-1.322-3.03,1.334,1.334,0,0,1-.7.2,1.451,1.451,0,0,1-.97-.4,1.286,1.286,0,0,1-.277-1.684,8.413,8.413,0,0,0-3.167-1.269,1.322,1.322,0,0,1-1.358,1.02h-.011a1.317,1.317,0,0,1-1.364-1.02,8.345,8.345,0,0,0-3.168,1.267,1.281,1.281,0,0,1-.259,1.673,1.449,1.449,0,0,1-.983.411,1.36,1.36,0,0,1-.711-.208,7.864,7.864,0,0,0-1.314,3.038,1.307,1.307,0,0,1,1.053,1.371,1.284,1.284,0,0,1-1.048,1.3,7.527,7.527,0,0,0,1.075,2.684c.039.059.074.119.109.176a2.6,2.6,0,0,0,.144.223.888.888,0,0,0,.122-.088.738.738,0,0,1,.48-.154l.018,0h.042a1.488,1.488,0,0,1,1.3.769A1.331,1.331,0,0,1-1116.148-1644.025Zm4.5-4.847a1.345,1.345,0,0,1-1.271-.859c-.269-.621-.523-1.256-.768-1.87l-.177-.442c-.376-.939-.766-1.909-1.138-2.869a1.393,1.393,0,0,1,.7-1.975,1.527,1.527,0,0,1,.582-.12,1.514,1.514,0,0,1,1.384,1.065c.547,1.344,1.093,2.715,1.62,4.041l.376.944c.051.131.088.258.115.35.01.034.018.064.026.086l.029.085,0,.089a1.357,1.357,0,0,1-1.065,1.427A1.765,1.765,0,0,1-1111.652-1648.872Zm-2.075-7.136a.536.536,0,0,0-.2.045c-.116.048-.355.146-.146.69.37.954.758,1.922,1.134,2.858l.177.443c.243.607.494,1.235.758,1.844a.347.347,0,0,0,.353.256.77.77,0,0,0,.177-.023c.119-.028.265-.063.293-.4l-.008-.028c-.023-.078-.052-.176-.086-.264l-.375-.941c-.527-1.324-1.072-2.693-1.617-4.033C-1113.35-1655.767-1113.5-1656.008-1113.726-1656.008Z" transform="translate(1199.257 1737.183)"/><path class="a" d="M-1118.95-1654.474a2.929,2.929,0,0,1-2.944-2.893,2.95,2.95,0,0,1,3.014-2.832,2.954,2.954,0,0,1,2.917,2.867,2.942,2.942,0,0,1-2.958,2.858Zm-1.058-2.807a1.051,1.051,0,0,0,1.112.987,1.063,1.063,0,0,0,1.052-1.057,1.107,1.107,0,0,0-1.092-1.032A1.069,1.069,0,0,0-1120.009-1657.282Zm23.9,2.807a2.944,2.944,0,0,1-2.976-2.87,2.955,2.955,0,0,1,3-2.855,2.945,2.945,0,0,1,2.937,2.909,2.934,2.934,0,0,1-2.95,2.816Zm-1.1-2.883a1.059,1.059,0,0,0,1.046,1.061,1.044,1.044,0,0,0,1.118-1.045,1.074,1.074,0,0,0-1.069-1.043h-.013A1.1,1.1,0,0,0-1097.2-1657.357Zm-10.309,2.883a2.942,2.942,0,0,1-2.979-2.865,2.955,2.955,0,0,1,2.992-2.86,2.955,2.955,0,0,1,2.946,2.905,2.943,2.943,0,0,1-2.955,2.82Zm-1.094-2.926a1.052,1.052,0,0,0,1,1.1,1.073,1.073,0,0,0,1.167-.936,1.087,1.087,0,0,0-1.03-1.15h-.056A1.093,1.093,0,0,0-1108.6-1657.4Z" transform="translate(1212.627 1761.112)"/><path class="b" d="M-1118.921-1653.974h-.029a3.5,3.5,0,0,1-2.489-1.053,3.284,3.284,0,0,1-.955-2.345,3.462,3.462,0,0,1,3.446-3.327h.08a3.466,3.466,0,0,1,3.405,3.364,3.251,3.251,0,0,1-.973,2.319A3.529,3.529,0,0,1-1118.921-1653.974Zm-.027-5.726a2.446,2.446,0,0,0-2.446,2.339,2.29,2.29,0,0,0,.67,1.634,2.5,2.5,0,0,0,1.779.753h.025a2.523,2.523,0,0,0,1.776-.747,2.259,2.259,0,0,0,.682-1.608,2.458,2.458,0,0,0-2.429-2.371Zm22.849,5.726v0h-.007a3.563,3.563,0,0,1-2.5-1.043,3.272,3.272,0,0,1-.973-2.329,3.464,3.464,0,0,1,3.459-3.353h.044a3.5,3.5,0,0,1,2.43,1.018,3.3,3.3,0,0,1,1,2.4,3.275,3.275,0,0,1-1.04,2.34A3.477,3.477,0,0,1-1096.1-1653.974Zm-.025-5.725a2.45,2.45,0,0,0-2.459,2.357,2.278,2.278,0,0,0,.682,1.62,2.554,2.554,0,0,0,1.8.748h.006a2.44,2.44,0,0,0,2.45-2.322,2.309,2.309,0,0,0-.7-1.674,2.507,2.507,0,0,0-1.74-.729Zm-11.385,5.725h0a3.52,3.52,0,0,1-2.449-.985,3.278,3.278,0,0,1-1.03-2.38,3.461,3.461,0,0,1,3.457-3.36h.04a3.512,3.512,0,0,1,2.434,1.017,3.292,3.292,0,0,1,1.006,2.394,3.277,3.277,0,0,1-1.043,2.342A3.483,3.483,0,0,1-1107.508-1653.974Zm-.025-5.725a2.447,2.447,0,0,0-2.457,2.362,2.287,2.287,0,0,0,.723,1.657,2.525,2.525,0,0,0,1.757.706l0,.5v-.5a2.445,2.445,0,0,0,2.455-2.326,2.461,2.461,0,0,0-2.452-2.4Zm-11.4,3.906a1.557,1.557,0,0,1-1.577-1.464,1.529,1.529,0,0,1,.428-1.136,1.589,1.589,0,0,1,1.144-.49,1.608,1.608,0,0,1,1.591,1.519,1.564,1.564,0,0,1-1.535,1.571Zm-.005-2.09a.576.576,0,0,0-.421.181.538.538,0,0,0-.153.4.556.556,0,0,0,.6.511.562.562,0,0,0,.567-.545A.613.613,0,0,0-1118.936-1657.884Zm11.41,2.089c-.04,0-.08,0-.119,0a1.557,1.557,0,0,1-1.459-1.634,1.593,1.593,0,0,1,1.576-1.452l.082,0a1.616,1.616,0,0,1,1.13.56,1.512,1.512,0,0,1,.371,1.137A1.565,1.565,0,0,1-1107.526-1655.795Zm0-2.091a.593.593,0,0,0-.578.519.555.555,0,0,0,.532.57l.048,0a.568.568,0,0,0,.586-.489.521.521,0,0,0-.134-.388.61.61,0,0,0-.426-.214Zm11.415,2.09h-.062a1.561,1.561,0,0,1-1.528-1.576,1.6,1.6,0,0,1,1.581-1.512h.013a1.575,1.575,0,0,1,1.569,1.538,1.507,1.507,0,0,1-.436,1.085A1.584,1.584,0,0,1-1096.112-1655.8Zm-.009-2.089a.6.6,0,0,0-.581.54.56.56,0,0,0,.564.548h.025a.592.592,0,0,0,.427-.169.507.507,0,0,0,.147-.371.577.577,0,0,0-.574-.549Z" transform="translate(1212.627 1761.112)"/></g></svg>