<svg xmlns="http://www.w3.org/2000/svg" width="16" height="16" viewBox="0 0 16 16"><defs><style>.a{fill:#ff7607;}</style></defs><path class="a" d="M16,12.636a3.751,3.751,0,0,1-.114.8,4.51,4.51,0,0,1-.239.778,3.048,3.048,0,0,1-1.386,1.2,4.406,4.406,0,0,1-2.114.58,4.535,4.535,0,0,1-.6-.04,4.607,4.607,0,0,1-.653-.142q-.358-.1-.534-.165t-.631-.233q-.454-.171-.557-.2a10.288,10.288,0,0,1-1.988-.943,17.132,17.132,0,0,1-3-2.455,17.132,17.132,0,0,1-2.455-3A10.3,10.3,0,0,1,.784,6.83q-.034-.1-.2-.557T.347,5.642Q.284,5.466.182,5.108A4.71,4.71,0,0,1,.04,4.455a4.431,4.431,0,0,1-.04-.6A4.407,4.407,0,0,1,.58,1.739,3.048,3.048,0,0,1,1.784.352,4.526,4.526,0,0,1,2.562.114,3.746,3.746,0,0,1,3.364,0,.634.634,0,0,1,3.6.034q.2.068.6.864.125.216.341.614t.4.722q.182.324.352.608.034.045.2.284a3.236,3.236,0,0,1,.244.4.734.734,0,0,1,.08.324.943.943,0,0,1-.324.568,5.551,5.551,0,0,1-.7.625,6.857,6.857,0,0,0-.7.6.866.866,0,0,0-.324.523.766.766,0,0,0,.057.256q.057.153.1.233t.159.273q.12.193.131.216A11.926,11.926,0,0,0,6.182,9.819,11.926,11.926,0,0,0,8.852,11.8q.023.012.216.131t.273.159a2.386,2.386,0,0,0,.233.1.781.781,0,0,0,.256.057.866.866,0,0,0,.523-.324,6.857,6.857,0,0,0,.6-.7,5.551,5.551,0,0,1,.625-.7.943.943,0,0,1,.568-.324.742.742,0,0,1,.324.08,3.165,3.165,0,0,1,.4.244q.239.165.284.2.284.171.608.352t.722.4q.4.216.614.341.8.4.864.6a.634.634,0,0,1,.034.239Z"/></svg>