<svg xmlns="http://www.w3.org/2000/svg" width="45" height="64" viewBox="0 0 45 64"><defs><style>.a{fill:#fff;}</style></defs><g transform="translate(-121.36 -66.307)"><path class="a" d="M168.6,331.8a.816.816,0,0,1-.337.663q-3.069,2.784-6.137,5.567a.8.8,0,0,1-1.261-.047q-1.6-1.714-3.195-3.439a.749.749,0,0,1-.035-1.152.762.762,0,0,1,1.2.106c.8.856,1.616,1.7,2.393,2.581.268.3.414.3.707.026,1.739-1.609,3.5-3.192,5.253-4.792a.862.862,0,0,1,.953-.235A.693.693,0,0,1,168.6,331.8Z" transform="translate(-29.701 -218.664)"/><path class="a" d="M159.381,117.668c-.014-.32.063-.666-.211-.918a.755.755,0,0,0-1.114-.021,1.679,1.679,0,0,0,0,1.875.751.751,0,0,0,1.112-.016C159.443,118.341,159.374,117.99,159.381,117.668Zm0,0c-.014-.32.063-.666-.211-.918a.755.755,0,0,0-1.114-.021,1.679,1.679,0,0,0,0,1.875.751.751,0,0,0,1.112-.016C159.443,118.341,159.374,117.99,159.381,117.668Zm0,0c-.014-.32.063-.666-.211-.918a.755.755,0,0,0-1.114-.021,1.679,1.679,0,0,0,0,1.875.751.751,0,0,0,1.112-.016C159.443,118.341,159.374,117.99,159.381,117.668Zm0,0c-.014-.32.063-.666-.211-.918a.755.755,0,0,0-1.114-.021,1.679,1.679,0,0,0,0,1.875.751.751,0,0,0,1.112-.016C159.443,118.341,159.374,117.99,159.381,117.668Zm0,0c-.014-.32.063-.666-.211-.918a.755.755,0,0,0-1.114-.021,1.679,1.679,0,0,0,0,1.875.751.751,0,0,0,1.112-.016C159.443,118.341,159.374,117.99,159.381,117.668Zm0,0c-.014-.32.063-.666-.211-.918a.755.755,0,0,0-1.114-.021,1.679,1.679,0,0,0,0,1.875.751.751,0,0,0,1.112-.016C159.443,118.341,159.374,117.99,159.381,117.668Zm0,0c-.014-.32.063-.666-.211-.918a.755.755,0,0,0-1.114-.021,1.679,1.679,0,0,0,0,1.875.751.751,0,0,0,1.112-.016C159.443,118.341,159.374,117.99,159.381,117.668Zm0,0c-.014-.32.063-.666-.211-.918a.755.755,0,0,0-1.114-.021,1.679,1.679,0,0,0,0,1.875.751.751,0,0,0,1.112-.016C159.443,118.341,159.374,117.99,159.381,117.668Zm0,0c-.014-.32.063-.666-.211-.918a.755.755,0,0,0-1.114-.021,1.679,1.679,0,0,0,0,1.875.751.751,0,0,0,1.112-.016C159.443,118.341,159.374,117.99,159.381,117.668Zm0,0c-.014-.32.063-.666-.211-.918a.755.755,0,0,0-1.114-.021,1.679,1.679,0,0,0,0,1.875.751.751,0,0,0,1.112-.016C159.443,118.341,159.374,117.99,159.381,117.668Zm-8-44.5c-.96.005-1.919.009-2.877,0-.518,0-.867.219-.886.736-.019.557.351.809.881.825.479.016.96,0,1.439,0s.96.014,1.439,0c.521-.019.905-.25.886-.818C152.241,73.388,151.89,73.17,151.377,73.172Zm.082-2.835c-.5-.01-1,0-1.5,0-.525,0-1.047-.007-1.57,0a.771.771,0,0,0-.037,1.541c1.046.037,2.093.031,3.141,0a.773.773,0,1,0-.03-1.545Zm7.922,47.331c-.014-.32.063-.666-.211-.918a.755.755,0,0,0-1.114-.021,1.679,1.679,0,0,0,0,1.875.751.751,0,0,0,1.112-.016C159.443,118.341,159.374,117.99,159.381,117.668Zm0,0c-.014-.32.063-.666-.211-.918a.755.755,0,0,0-1.114-.021,1.679,1.679,0,0,0,0,1.875.751.751,0,0,0,1.112-.016C159.443,118.341,159.374,117.99,159.381,117.668Zm-11.032-45.79c1.046.037,2.093.031,3.141,0a.773.773,0,1,0-.03-1.545c-.5-.01-1,0-1.5,0-.525,0-1.047-.007-1.57,0a.771.771,0,0,0-.037,1.541Zm3.028,1.294c-.96.005-1.919.009-2.877,0-.518,0-.867.219-.886.736-.019.557.351.809.881.825.479.016.96,0,1.439,0s.96.014,1.439,0c.521-.019.905-.25.886-.818C152.241,73.388,151.89,73.17,151.377,73.172Zm10.785,36.24c-1.4-.591-2.811-1.178-4.211-1.776-.716-.306-1.7-.457-2.055-1s-.088-1.51-.118-2.289a.713.713,0,0,1,.39-.724,12.017,12.017,0,0,0,5.844-9.157,1.129,1.129,0,0,1,.639-.992,3.467,3.467,0,0,0,1.86-3.213,2.81,2.81,0,0,0-1.563-2.726c-.723-.358-.363-.88-.328-1.329.037-.48.477-.188.732-.233a6.3,6.3,0,0,1,.851-.012.75.75,0,0,0,.83-.8c.014-1.084.011-2.167,0-3.253,0-.489-.279-.852-.756-.786-.912.127-1.119-.322-1.084-1.073a1.3,1.3,0,0,0-.026-.259c-.868-5.36-3.644-9.282-8.781-11.4-.477-.2-.672-.364-.579-.92.142-.861-.163-1.152-1.033-1.153q-2.855-.005-5.711,0c-1.237,0-1.432.2-1.281,1.4.039.31-.011.463-.339.567a10.091,10.091,0,0,0-2.132.981,14.1,14.1,0,0,0-6.943,10.827c-.121.932-.093.941-1,1.007-.549.038-.846.3-.844.861,0,.76,0,1.519,0,2.277,0,1.729,0,1.72,1.737,1.746.205,0,.637-.228.621.191s.439.971-.251,1.3a2.81,2.81,0,0,0-1.57,2.042,3.6,3.6,0,0,0,1.919,4.036.791.791,0,0,1,.479.732,11.381,11.381,0,0,0,4.783,8.527,3.1,3.1,0,0,1,1.56,3.27,1.018,1.018,0,0,1-1.5.892,50.589,50.589,0,0,1-8.211-4.954,1.143,1.143,0,0,0-1.577,0,51.148,51.148,0,0,1-10.408,5.956,1.091,1.091,0,0,0-.747,1.146c.021,2.559.012,5.118.011,7.677a12.1,12.1,0,0,0,3.614,8.719,19.369,19.369,0,0,0,7.539,4.678,1.619,1.619,0,0,0,1.14.021,20.538,20.538,0,0,0,7.311-4.2,1.407,1.407,0,0,1,1.042-.405c3.849.014,7.7.007,11.55.007q5.742,0,11.485,0c1.135,0,1.307-.164,1.307-1.261q0-4.326,0-8.654A6.84,6.84,0,0,0,162.162,109.412Zm-4.1.052c1.06.245,1.06.245,1.06,1.235,0,1.08-.023,2.161.011,3.239.014.442-.175.485-.539.482s-.551-.045-.542-.485C158.08,112.448,158.062,110.959,158.062,109.464Zm-1.574-.04c0,1.494-.014,2.99.009,4.485.007.4-.107.51-.512.508q-5.111-.023-10.225,0c-.407,0-.523-.113-.518-.513.021-1.816.009-3.634.009-5.5a12.7,12.7,0,0,0,9.439-.165A1.406,1.406,0,0,1,156.488,109.424ZM145.445,104.8c.3-.287.9.177,1.379.282a12.682,12.682,0,0,0,6.648-.235c.737-.233.739-.23.739.555v.324c0,1.082.005,1.1-1.018,1.413a11.145,11.145,0,0,1-7.309-.17c-.379-.137-.57-.3-.528-.732C145.4,105.743,145.191,105.042,145.445,104.8Zm-.333-34.436a.417.417,0,0,1,.323-.421c.393-.13.774-.3,1.172-.4.635-.162.942-.52.809-1.178-.081-.395.039-.532.461-.506.632.04,1.267.01,1.9.01.656,0,1.312.017,1.967-.007.34-.012.435.071.411.426-.06.9.046.969.919,1.28,1.763.628,1.432.214,1.36,1.936a6.848,6.848,0,0,1-3.981,6.115,1.068,1.068,0,0,1-.988.057A7.106,7.106,0,0,1,145.112,70.365ZM137.9,80.513a12.827,12.827,0,0,1,4.984-9.1,1.213,1.213,0,0,1,.651-.364,10.32,10.32,0,0,0,.3,2.371,8.548,8.548,0,0,0,5.656,5.93,1.377,1.377,0,0,0,1.07-.082,8.5,8.5,0,0,0,5.444-7.484c.021-.237.032-.473.054-.811a11.7,11.7,0,0,1,3.123,2.961,13.4,13.4,0,0,1,2.5,6.609c.044.423-.044.551-.5.551q-11.388-.021-22.775,0C137.941,81.1,137.847,80.983,137.9,80.513Zm-1.149,3.9c-.561,0-.682-.15-.661-.677.044-1.085.012-1.087,1.09-1.087h12.594c4.328,0,8.657.01,12.985-.012.554,0,.756.1.725.694-.056,1.065-.014,1.066-1.109,1.066Q149.562,84.4,136.75,84.415Zm23.665,3.9c-.221-.673-.437-1.327-.649-1.981-.082-.252-.049-.421.282-.376a1.139,1.139,0,0,0,.326,0c.54-.087.763.087.607.652S161.178,87.894,160.415,88.317Zm-21.175-.245a.587.587,0,0,1-.632-.452c-.053-.384-.07-.774-.109-1.214-.172-.543.253-.412.591-.454.518-.061.43.249.4.553-.037.364-.049.732-.1,1.094C139.366,87.767,139.485,88.078,139.24,88.071ZM139,93.49a1.056,1.056,0,0,0-.881-1.162,2.1,2.1,0,0,1-1.469-2.7c.242-.675.63-.805,1.221-.456a13.9,13.9,0,0,0,1.451.746,1.019,1.019,0,0,0,1.523-.927c.081-.863.163-1.726.221-2.59.019-.3.07-.445.439-.444q8.072.021,16.141,0c.344,0,.433.143.518.426.3,1.016.616,2.028.951,3.032.354,1.058,1.121,1.251,1.94.508a6.673,6.673,0,0,0,.8-.767c.286-.36.479-.228.711.033a1.98,1.98,0,0,1-.961,3.041c-.9.28-1.068.76-1.118,1.6A10.76,10.76,0,0,1,139,93.49Zm.951,31.348a19.407,19.407,0,0,1-6.439,3.771.837.837,0,0,1-.628.052,16.608,16.608,0,0,1-8.086-5.819,9.759,9.759,0,0,1-1.835-5.527c-.026-1.169-.005-2.341-.005-3.51h-.018c0-1.345.011-2.689-.007-4.032a.585.585,0,0,1,.4-.635,52.465,52.465,0,0,0,9.613-5.506.517.517,0,0,1,.726.023,53.455,53.455,0,0,0,9.557,5.473c.282.125.451.254.447.611-.021,2.427.005,4.855-.025,7.282A10.449,10.449,0,0,1,139.956,124.838Zm20.487-1.273c0,.343-.058.5-.46.5q-8.464-.018-16.927-.01a.94.94,0,0,1-.195-.071,12.119,12.119,0,0,0,2.246-5.323,12.7,12.7,0,0,0,.137-2.2c-.007-.348.07-.491.465-.491q7.15.021,14.3,0c.36,0,.433.118.432.447Q160.424,119.988,160.443,123.565Zm3.834.5a13.255,13.255,0,0,0-1.7,0c-.479.035-.572-.153-.57-.59.019-2.663.012-5.326.009-7.99,0-.825-.118-.958-.958-1.068-.226-.03-.363-.063-.361-.332.011-1.16.005-2.321.005-3.495a5.231,5.231,0,0,1,4.077,4.843c.035,2.707,0,5.413.018,8.118C164.794,123.95,164.683,124.085,164.276,124.061Zm-5.106-7.311a.755.755,0,0,0-1.114-.021,1.679,1.679,0,0,0,0,1.875.751.751,0,0,0,1.112-.016c.27-.247.2-.6.209-.92C159.367,117.348,159.445,117,159.171,116.75ZM148.349,71.878c1.046.037,2.093.031,3.141,0a.773.773,0,1,0-.03-1.545c-.5-.01-1,0-1.5,0-.525,0-1.047-.007-1.57,0a.771.771,0,0,0-.037,1.541Zm.146,2.853c.479.016.96,0,1.439,0s.96.014,1.439,0c.521-.019.905-.25.886-.818-.018-.525-.368-.743-.881-.741-.96.005-1.919.009-2.877,0-.518,0-.867.219-.886.736C147.595,74.463,147.965,74.715,148.495,74.731Zm10.887,42.937c-.014-.32.063-.666-.211-.918a.755.755,0,0,0-1.114-.021,1.679,1.679,0,0,0,0,1.875.751.751,0,0,0,1.112-.016C159.443,118.341,159.374,117.99,159.381,117.668Zm0,0c-.014-.32.063-.666-.211-.918a.755.755,0,0,0-1.114-.021,1.679,1.679,0,0,0,0,1.875.751.751,0,0,0,1.112-.016C159.443,118.341,159.374,117.99,159.381,117.668Zm0,0c-.014-.32.063-.666-.211-.918a.755.755,0,0,0-1.114-.021,1.679,1.679,0,0,0,0,1.875.751.751,0,0,0,1.112-.016C159.443,118.341,159.374,117.99,159.381,117.668Zm0,0c-.014-.32.063-.666-.211-.918a.755.755,0,0,0-1.114-.021,1.679,1.679,0,0,0,0,1.875.751.751,0,0,0,1.112-.016C159.443,118.341,159.374,117.99,159.381,117.668Zm0,0c-.014-.32.063-.666-.211-.918a.755.755,0,0,0-1.114-.021,1.679,1.679,0,0,0,0,1.875.751.751,0,0,0,1.112-.016C159.443,118.341,159.374,117.99,159.381,117.668Zm0,0c-.014-.32.063-.666-.211-.918a.755.755,0,0,0-1.114-.021,1.679,1.679,0,0,0,0,1.875.751.751,0,0,0,1.112-.016C159.443,118.341,159.374,117.99,159.381,117.668Zm0,0c-.014-.32.063-.666-.211-.918a.755.755,0,0,0-1.114-.021,1.679,1.679,0,0,0,0,1.875.751.751,0,0,0,1.112-.016C159.443,118.341,159.374,117.99,159.381,117.668Zm0,0c-.014-.32.063-.666-.211-.918a.755.755,0,0,0-1.114-.021,1.679,1.679,0,0,0,0,1.875.751.751,0,0,0,1.112-.016C159.443,118.341,159.374,117.99,159.381,117.668Zm0,0c-.014-.32.063-.666-.211-.918a.755.755,0,0,0-1.114-.021,1.679,1.679,0,0,0,0,1.875.751.751,0,0,0,1.112-.016C159.443,118.341,159.374,117.99,159.381,117.668Zm0,0c-.014-.32.063-.666-.211-.918a.755.755,0,0,0-1.114-.021,1.679,1.679,0,0,0,0,1.875.751.751,0,0,0,1.112-.016C159.443,118.341,159.374,117.99,159.381,117.668Z" transform="translate(0)"/><path class="a" d="M168.6,331.8a.816.816,0,0,1-.337.663q-3.069,2.784-6.137,5.567a.8.8,0,0,1-1.261-.047q-1.6-1.714-3.195-3.439a.749.749,0,0,1-.035-1.152.762.762,0,0,1,1.2.106c.8.856,1.616,1.7,2.393,2.581.268.3.414.3.707.026,1.739-1.609,3.5-3.192,5.253-4.792a.862.862,0,0,1,.953-.235A.693.693,0,0,1,168.6,331.8Z" transform="translate(-29.701 -218.664)"/><path class="a" d="M330.3,356.9a.751.751,0,0,1-1.112.016,1.679,1.679,0,0,1,0-1.875.755.755,0,0,1,1.114.021c.274.252.2.6.211.918C330.5,356.305,330.569,356.657,330.3,356.9Z" transform="translate(-171.126 -238.315)"/><path class="a" d="M275.641,106.5c.019.567-.365.8-.886.818-.479.017-.96,0-1.439,0s-.96.012-1.439,0c-.53-.016-.9-.268-.881-.825.019-.517.368-.739.886-.736.958.01,1.918.007,2.877,0C275.272,105.76,275.623,105.977,275.641,106.5Z" transform="translate(-123.383 -32.589)"/><path class="a" d="M270.99,90.164a.716.716,0,0,1,.772-.718c.523-.009,1.046,0,1.57,0,.5,0,1-.009,1.5,0a.773.773,0,1,1,.03,1.545c-1.047.028-2.095.033-3.141,0A.719.719,0,0,1,270.99,90.164Z" transform="translate(-123.376 -19.109)"/><path class="a" d="M168.6,331.8a.816.816,0,0,1-.337.663q-3.069,2.784-6.137,5.567a.8.8,0,0,1-1.261-.047q-1.6-1.714-3.195-3.439a.749.749,0,0,1-.035-1.152.762.762,0,0,1,1.2.106c.8.856,1.616,1.7,2.393,2.581.268.3.414.3.707.026,1.739-1.609,3.5-3.192,5.253-4.792a.862.862,0,0,1,.953-.235A.693.693,0,0,1,168.6,331.8Z" transform="translate(-29.701 -218.664)"/><path class="a" d="M330.3,356.9a.751.751,0,0,1-1.112.016,1.679,1.679,0,0,1,0-1.875.755.755,0,0,1,1.114.021c.274.252.2.6.211.918C330.5,356.305,330.569,356.657,330.3,356.9Z" transform="translate(-171.126 -238.315)"/><path class="a" d="M275.636,90.2a.724.724,0,0,1-.77.79c-1.047.028-2.095.033-3.141,0a.771.771,0,0,1,.037-1.541c.523-.009,1.046,0,1.57,0,.5,0,1-.009,1.5,0A.725.725,0,0,1,275.636,90.2Z" transform="translate(-123.376 -19.109)"/><path class="a" d="M275.641,106.5c.019.567-.365.8-.886.818-.479.017-.96,0-1.439,0s-.96.012-1.439,0c-.53-.016-.9-.268-.881-.825.019-.517.368-.739.886-.736.958.01,1.918.007,2.877,0C275.272,105.76,275.623,105.977,275.641,106.5Z" transform="translate(-123.383 -32.589)"/></g></svg>