<svg xmlns="http://www.w3.org/2000/svg" width="16" height="16" viewBox="0 0 16 16"><defs><style>.a{fill:#f9fff7;}</style></defs><path class="a" d="M11.077,6.769A4.148,4.148,0,0,0,9.812,3.726,4.15,4.15,0,0,0,6.769,2.461,4.148,4.148,0,0,0,3.726,3.726,4.148,4.148,0,0,0,2.461,6.769,4.151,4.151,0,0,0,3.726,9.812a4.148,4.148,0,0,0,3.044,1.264A4.147,4.147,0,0,0,9.812,9.812,4.153,4.153,0,0,0,11.077,6.769Zm4.923,8A1.248,1.248,0,0,1,14.769,16a1.143,1.143,0,0,1-.865-.365l-3.3-3.288a6.584,6.584,0,0,1-3.836,1.192A6.649,6.649,0,0,1,4.14,13,6.628,6.628,0,0,1,.534,9.4a6.745,6.745,0,0,1,0-5.26A6.628,6.628,0,0,1,4.14.534a6.745,6.745,0,0,1,5.26,0A6.628,6.628,0,0,1,13,4.14a6.641,6.641,0,0,1,.534,2.63,6.583,6.583,0,0,1-1.192,3.836l3.3,3.3A1.178,1.178,0,0,1,16,14.769Z"/></svg>