<svg xmlns="http://www.w3.org/2000/svg" width="11.667" height="14" viewBox="0 0 11.667 14"><defs><style>.a{fill:#fff;}</style></defs><g transform="translate(-3.75 -0.75)"><path class="a" d="M9.583.75a5.84,5.84,0,0,1,5.833,5.833c0,4.346-5.285,7.919-5.51,8.069a.583.583,0,0,1-.647,0c-.225-.15-5.51-3.723-5.51-8.069A5.84,5.84,0,0,1,9.583.75Zm0,12.7c1.106-.821,4.667-3.708,4.667-6.866a4.667,4.667,0,1,0-9.333,0C4.917,9.741,8.477,12.629,9.583,13.45Z" transform="translate(0 0)"/><path class="a" d="M15.375,9.75a2.625,2.625,0,1,1-2.625,2.625A2.628,2.628,0,0,1,15.375,9.75Zm0,3.938a1.313,1.313,0,1,0-1.312-1.312A1.314,1.314,0,0,0,15.375,13.688Z" transform="translate(-5.792 -5.719)"/></g></svg>