<svg xmlns="http://www.w3.org/2000/svg" xmlns:xlink="http://www.w3.org/1999/xlink" width="58" height="58" viewBox="0 0 58 58"><defs><style>.a{fill:#f8f8f8;}.b{filter:url(#a);}</style><filter id="a" x="0" y="0" width="58" height="58" filterUnits="userSpaceOnUse"><feOffset dy="3" input="SourceAlpha"/><feGaussianBlur stdDeviation="3" result="b"/><feFlood flood-opacity="0.161"/><feComposite operator="in" in2="b"/><feComposite in="SourceGraphic"/></filter></defs><g class="b" transform="matrix(1, 0, 0, 1, 0, 0)"><path class="a" d="M25.65,22.6a11.938,11.938,0,0,1,2.539,1.137,11.3,11.3,0,0,1,2.331,1.369,1.088,1.088,0,0,1,.052.387,5.407,5.407,0,0,1-.443,1.964,3.484,3.484,0,0,1-1.848,1.693,6.2,6.2,0,0,1-2.656.686,14.148,14.148,0,0,1-4.948-1.6,14.85,14.85,0,0,1-4.427-3.049A34.126,34.126,0,0,1,12.4,20.4a8.992,8.992,0,0,1-1.848-5.013v-.207A5.7,5.7,0,0,1,12.475,11.1a1.978,1.978,0,0,1,1.354-.568,4.146,4.146,0,0,1,.469.039,4.219,4.219,0,0,0,.494.039,1.077,1.077,0,0,1,.69.168,1.86,1.86,0,0,1,.4.711q.208.517.859,2.274A15.27,15.27,0,0,1,17.4,15.7a2.621,2.621,0,0,1-.9,1.486q-.9.944-.9,1.2a.733.733,0,0,0,.13.387,11.657,11.657,0,0,0,2.656,3.541,16.628,16.628,0,0,0,3.932,2.609,1.16,1.16,0,0,0,.573.181q.39,0,1.406-1.253T25.649,22.6ZM20.365,36.3A16.026,16.026,0,0,0,26.706,35a16.043,16.043,0,0,0,8.711-8.643,15.855,15.855,0,0,0,0-12.585A16.332,16.332,0,0,0,31.927,8.6a16.519,16.519,0,0,0-5.221-3.463,16.209,16.209,0,0,0-12.683,0A16.519,16.519,0,0,0,8.8,8.6a16.332,16.332,0,0,0-3.49,5.181,15.962,15.962,0,0,0,1.823,15.8L5.079,35.6l6.3-1.989A16.1,16.1,0,0,0,20.365,36.3Zm0-35.711a19.209,19.209,0,0,1,7.617,1.55A19.829,19.829,0,0,1,34.244,6.3a19.7,19.7,0,0,1,4.193,6.214,19.06,19.06,0,0,1,0,15.116,19.648,19.648,0,0,1-4.193,6.214A19.864,19.864,0,0,1,27.981,38a19.2,19.2,0,0,1-7.617,1.55,19.454,19.454,0,0,1-9.506-2.429L0,40.585,3.542,30.12a19.238,19.238,0,0,1-1.25-17.61A19.656,19.656,0,0,1,6.485,6.3a19.872,19.872,0,0,1,6.263-4.161A19.177,19.177,0,0,1,20.365.585Z" transform="translate(9 5.42)"/></g></svg>